<svg width="80" height="80" viewBox="0 0 80 80" fill="none" xmlns="http://www.w3.org/2000/svg">
<path d="M69.678 46.4516H65.807V42.5806C65.807 39.0232 62.9128 36.129 59.3554 36.129H52.9038V32.258C52.9038 31.5457 52.3257 30.9677 51.6134 30.9677H41.2909V28.2038C43.5102 27.627 45.1618 25.6232 45.1618 23.2257C45.1618 20.3793 42.847 18.0645 40.0005 18.0645C37.1541 18.0645 34.8392 20.3793 34.8392 23.2257C34.8392 25.6232 36.4909 27.627 38.7102 28.2038V30.9677H28.3876C27.6754 30.9677 27.0973 31.5457 27.0973 32.258V36.129H20.6457C17.0883 36.129 14.1941 39.0232 14.1941 42.5806V46.4516H10.3231C8.18892 46.4516 6.45215 48.1883 6.45215 50.3225V65.8064C6.45215 67.9406 8.18892 69.6774 10.3231 69.6774H14.1941V73.5483C14.1941 77.1057 17.0883 79.9999 20.6457 79.9999H59.3554C62.9128 79.9999 65.807 77.1057 65.807 73.5483V69.6774H69.678C71.8121 69.6774 73.5489 67.9406 73.5489 65.8064V50.3225C73.5489 48.1883 71.8121 46.4516 69.678 46.4516ZM37.4199 23.2257C37.4199 21.8025 38.5773 20.6451 40.0005 20.6451C41.4238 20.6451 42.5812 21.8025 42.5812 23.2257C42.5812 24.649 41.4238 25.8064 40.0005 25.8064C38.5773 25.8064 37.4199 24.649 37.4199 23.2257ZM10.3231 67.0967C9.61215 67.0967 9.03279 66.5174 9.03279 65.8064V50.3225C9.03279 49.6116 9.61215 49.0322 10.3231 49.0322H14.1941V67.0967H10.3231ZM29.678 33.5483H50.3231V36.129H29.678V33.5483ZM63.2263 73.5483C63.2263 75.6825 61.4896 77.4193 59.3554 77.4193H20.6457C18.5115 77.4193 16.7747 75.6825 16.7747 73.5483V42.5806C16.7747 40.4464 18.5115 38.7096 20.6457 38.7096H59.3554C61.4896 38.7096 63.2263 40.4464 63.2263 42.5806V73.5483ZM70.9683 65.8064C70.9683 66.5174 70.3889 67.0967 69.678 67.0967H65.807V49.0322H69.678C70.3889 49.0322 70.9683 49.6116 70.9683 50.3225V65.8064Z" fill="url(#paint0_linear)"/>
<path d="M51.6128 59.3545H28.387C27.6747 59.3545 27.0967 59.9326 27.0967 60.6448V61.9351C27.0967 69.05 32.8851 74.8384 39.9999 74.8384C47.1147 74.8384 52.9031 69.05 52.9031 61.9351V60.6448C52.9031 59.9326 52.3251 59.3545 51.6128 59.3545ZM39.9999 72.2577C34.3083 72.2577 29.6773 67.6268 29.6773 61.9351H50.3225C50.3225 67.6268 45.6915 72.2577 39.9999 72.2577Z" fill="url(#paint1_linear)"/>
<path d="M32.2581 51.6134C32.2581 48.767 29.9433 46.4521 27.0968 46.4521C24.2504 46.4521 21.9355 48.767 21.9355 51.6134C21.9355 54.4599 24.2504 56.7747 27.0968 56.7747C29.9433 56.7747 32.2581 54.4599 32.2581 51.6134ZM24.5162 51.6134C24.5162 50.1902 25.6736 49.0328 27.0968 49.0328C28.5201 49.0328 29.6775 50.1902 29.6775 51.6134C29.6775 53.0367 28.5201 54.1941 27.0968 54.1941C25.6736 54.1941 24.5162 53.0367 24.5162 51.6134Z" fill="url(#paint2_linear)"/>
<path d="M52.9035 46.4521C50.057 46.4521 47.7422 48.767 47.7422 51.6134C47.7422 54.4599 50.057 56.7747 52.9035 56.7747C55.7499 56.7747 58.0648 54.4599 58.0648 51.6134C58.0648 48.767 55.7499 46.4521 52.9035 46.4521ZM52.9035 54.1941C51.4803 54.1941 50.3228 53.0367 50.3228 51.6134C50.3228 50.1902 51.4803 49.0328 52.9035 49.0328C54.3267 49.0328 55.4841 50.1902 55.4841 51.6134C55.4841 53.0367 54.3267 54.1941 52.9035 54.1941Z" fill="url(#paint3_linear)"/>
<path d="M19.7329 28.009C19.9794 28.2555 20.3097 28.3871 20.6452 28.3871C20.8116 28.3871 20.9794 28.3548 21.1394 28.289C21.6206 28.089 21.9355 27.6194 21.9355 27.0968V23.2258H29.6774C31.8116 23.2258 33.5484 21.489 33.5484 19.3548V3.87097C33.5484 1.73677 31.8116 0 29.6774 0H3.87097C1.73677 0 0 1.73677 0 3.87097V19.3548C0 21.489 1.73677 23.2258 3.87097 23.2258H14.9497L19.7329 28.009ZM2.58065 19.3548V3.87097C2.58065 3.16 3.16 2.58065 3.87097 2.58065H29.6774C30.3884 2.58065 30.9677 3.16 30.9677 3.87097V19.3548C30.9677 20.0658 30.3884 20.6452 29.6774 20.6452H20.6452C19.9329 20.6452 19.3548 21.2232 19.3548 21.9355V23.9819L16.3961 21.0232C16.1535 20.7806 15.8258 20.6452 15.4839 20.6452H3.87097C3.16 20.6452 2.58065 20.0671 2.58065 19.3548Z" fill="url(#paint4_linear)"/>
<path d="M76.1296 5.16113H50.3231C48.1889 5.16113 46.4521 6.89791 46.4521 9.0321V24.516C46.4521 26.6502 48.1889 28.3869 50.3231 28.3869H58.0651V32.2579C58.0651 32.7792 58.3799 33.2502 58.8612 33.4502C59.0212 33.516 59.1889 33.5482 59.3554 33.5482C59.6909 33.5482 60.0212 33.4166 60.2676 33.1702L65.0509 28.3869H76.1296C78.2638 28.3869 80.0005 26.6502 80.0005 24.516V9.0321C80.0005 6.89791 78.2638 5.16113 76.1296 5.16113ZM77.4199 24.516C77.4199 25.2269 76.8405 25.8063 76.1296 25.8063H64.5167C64.1747 25.8063 63.8457 25.9418 63.6044 26.1844L60.6457 29.1431V27.0966C60.6457 26.3844 60.0676 25.8063 59.3554 25.8063H50.3231C49.6121 25.8063 49.0328 25.2269 49.0328 24.516V9.0321C49.0328 8.32113 49.6121 7.74178 50.3231 7.74178H76.1296C76.8405 7.74178 77.4199 8.32113 77.4199 9.0321V24.516Z" fill="url(#paint5_linear)"/>
<path d="M5.16113 5.16113H28.3869V7.74178H5.16113V5.16113Z" fill="url(#paint6_linear)"/>
<path d="M5.16113 15.4834H28.3869V18.064H5.16113V15.4834Z" fill="url(#paint7_linear)"/>
<path d="M7.74219 10.3223H25.8067V12.9029H7.74219V10.3223Z" fill="url(#paint8_linear)"/>
<path d="M51.6133 10.3223H74.8391V12.9029H51.6133V10.3223Z" fill="url(#paint9_linear)"/>
<path d="M51.6133 20.6455H74.8391V23.2262H51.6133V20.6455Z" fill="url(#paint10_linear)"/>
<path d="M54.1934 15.4834H72.2579V18.064H54.1934V15.4834Z" fill="url(#paint11_linear)"/>
<defs>
<linearGradient id="paint0_linear" x1="40.0005" y1="18.0645" x2="40.0005" y2="79.9999" gradientUnits="userSpaceOnUse">
<stop stop-color="#00C2FF"/>
<stop offset="1" stop-color="#3DFFA2"/>
</linearGradient>
<linearGradient id="paint1_linear" x1="39.9999" y1="59.3545" x2="39.9999" y2="74.8384" gradientUnits="userSpaceOnUse">
<stop stop-color="#00C2FF"/>
<stop offset="1" stop-color="#3DFFA2"/>
</linearGradient>
<linearGradient id="paint2_linear" x1="27.0968" y1="46.4521" x2="27.0968" y2="56.7747" gradientUnits="userSpaceOnUse">
<stop stop-color="#00C2FF"/>
<stop offset="1" stop-color="#3DFFA2"/>
</linearGradient>
<linearGradient id="paint3_linear" x1="52.9035" y1="46.4521" x2="52.9035" y2="56.7747" gradientUnits="userSpaceOnUse">
<stop stop-color="#00C2FF"/>
<stop offset="1" stop-color="#3DFFA2"/>
</linearGradient>
<linearGradient id="paint4_linear" x1="16.7742" y1="0" x2="16.7742" y2="28.3871" gradientUnits="userSpaceOnUse">
<stop stop-color="#00C2FF"/>
<stop offset="1" stop-color="#3DFFA2"/>
</linearGradient>
<linearGradient id="paint5_linear" x1="63.2263" y1="5.16113" x2="63.2263" y2="33.5482" gradientUnits="userSpaceOnUse">
<stop stop-color="#00C2FF"/>
<stop offset="1" stop-color="#3DFFA2"/>
</linearGradient>
<linearGradient id="paint6_linear" x1="16.774" y1="5.16113" x2="16.774" y2="7.74178" gradientUnits="userSpaceOnUse">
<stop stop-color="#00C2FF"/>
<stop offset="1" stop-color="#3DFFA2"/>
</linearGradient>
<linearGradient id="paint7_linear" x1="16.774" y1="15.4834" x2="16.774" y2="18.064" gradientUnits="userSpaceOnUse">
<stop stop-color="#00C2FF"/>
<stop offset="1" stop-color="#3DFFA2"/>
</linearGradient>
<linearGradient id="paint8_linear" x1="16.7744" y1="10.3223" x2="16.7744" y2="12.9029" gradientUnits="userSpaceOnUse">
<stop stop-color="#00C2FF"/>
<stop offset="1" stop-color="#3DFFA2"/>
</linearGradient>
<linearGradient id="paint9_linear" x1="63.2262" y1="10.3223" x2="63.2262" y2="12.9029" gradientUnits="userSpaceOnUse">
<stop stop-color="#00C2FF"/>
<stop offset="1" stop-color="#3DFFA2"/>
</linearGradient>
<linearGradient id="paint10_linear" x1="63.2262" y1="20.6455" x2="63.2262" y2="23.2262" gradientUnits="userSpaceOnUse">
<stop stop-color="#00C2FF"/>
<stop offset="1" stop-color="#3DFFA2"/>
</linearGradient>
<linearGradient id="paint11_linear" x1="63.2256" y1="15.4834" x2="63.2256" y2="18.064" gradientUnits="userSpaceOnUse">
<stop stop-color="#00C2FF"/>
<stop offset="1" stop-color="#3DFFA2"/>
</linearGradient>
</defs>
</svg>
