<svg width="80" height="80" viewBox="0 0 80 80" fill="none" xmlns="http://www.w3.org/2000/svg">
<path d="M18.75 31.7188H12.5752C13.6183 17.5 25.5197 6.25 40 6.25C51.4584 6.25 61.8269 13.4672 65.8008 24.2092C66.3995 25.8278 68.197 26.6545 69.8159 26.0559C71.4345 25.457 72.2614 23.6595 71.6627 22.0408C69.2942 15.6383 65.0866 10.1595 59.4948 6.19672C53.7745 2.14281 47.0333 0 40 0C30.9852 0 22.5097 3.51062 16.1352 9.88516C9.84375 16.1766 6.34453 24.5147 6.25422 33.398C2.51953 35.562 0 39.6005 0 44.2188V54.8438C0 61.7363 5.6075 67.3438 12.5 67.3438H18.75C20.4759 67.3438 21.875 65.9447 21.875 64.2188V34.8438C21.875 33.1178 20.4759 31.7188 18.75 31.7188ZM15.625 61.0938H12.5C9.05375 61.0938 6.25 58.29 6.25 54.8438V44.2188C6.25 40.7725 9.05375 37.9688 12.5 37.9688H15.625V61.0938Z" fill="url(#paint0_linear)"/>
<path d="M67.5 31.7188H61.25C59.5241 31.7188 58.125 33.1178 58.125 34.8438V56.25V64.2188V67.5C58.125 69.2231 56.7231 70.625 55 70.625H45.4688V70.7241C44.4028 68.8017 42.3538 67.5 40 67.5C36.5483 67.5 33.75 70.2983 33.75 73.75C33.75 77.2017 36.5483 80 40 80C42.3538 80 44.4028 78.6983 45.4688 76.7759V76.875H55C60.1694 76.875 64.375 72.6694 64.375 67.5V67.3438H67.5C74.3925 67.3438 80 61.7362 80 54.8438V44.2188C80 37.3263 74.3925 31.7188 67.5 31.7188ZM73.75 54.8438C73.75 58.29 70.9463 61.0938 67.5 61.0938H64.375V56.25V37.9688H67.5C70.9463 37.9688 73.75 40.7725 73.75 44.2188V54.8438Z" fill="url(#paint1_linear)"/>
<defs>
<linearGradient id="paint0_linear" x1="35.9288" y1="0" x2="35.9288" y2="67.3438" gradientUnits="userSpaceOnUse">
<stop stop-color="#00C2FF"/>
<stop offset="1" stop-color="#3DFFA2"/>
</linearGradient>
<linearGradient id="paint1_linear" x1="56.875" y1="31.7187" x2="56.875" y2="80" gradientUnits="userSpaceOnUse">
<stop stop-color="#00C2FF"/>
<stop offset="1" stop-color="#3DFFA2"/>
</linearGradient>
</defs>
</svg>
