<svg width="80" height="80" viewBox="0 0 80 80" fill="none" xmlns="http://www.w3.org/2000/svg">
<g clip-path="url(#clip0)">
<path d="M53.9235 23.9242L48.6923 22.4984C48.1341 22.3459 47.7429 21.8337 47.7429 21.2534V18.0635H49.0332C50.4564 18.0635 51.6138 16.9062 51.6138 15.4829V7.74096C51.6138 6.3177 50.4564 5.16031 49.0332 5.16031H48.7503L47.4619 -0.000976562H32.5419L31.2528 5.16031H30.9687C29.5454 5.16031 28.388 6.3177 28.388 7.74096V15.4829C28.388 16.9062 29.5454 18.0635 30.9687 18.0635H32.259V21.2534C32.259 21.8337 31.8677 22.3459 31.3095 22.4984L26.077 23.9242C21.3612 25.212 18.0654 29.5252 18.0654 34.4156C18.0654 34.7344 18.0799 35.0519 18.107 35.372L21.7335 76.4689C21.9093 78.4819 23.5688 79.999 25.5894 79.999H54.4125C56.433 79.999 58.0925 78.4819 58.2683 76.4689L61.8948 35.3682C61.9219 35.0519 61.9364 34.7331 61.9364 34.4156C61.9364 29.5252 58.6407 25.212 53.9235 23.9242ZM34.5567 2.57967H45.4451L46.0915 5.16031H33.9116L34.5567 2.57967ZM30.9687 12.9022H41.2912V10.3216H30.9687V7.74096H49.0332V10.3216H43.8719V12.9022H49.0344V15.4829H30.9687V12.9022ZM59.3249 35.1446L55.6977 76.2415C55.6385 76.9125 55.086 77.4184 54.4125 77.4184H25.5894C24.9159 77.4184 24.3633 76.9125 24.3041 76.2415L20.6769 35.1477C20.6574 34.9045 20.6461 34.6607 20.6461 34.4156C20.6461 30.687 23.158 27.3963 26.7556 26.4147L31.9868 24.9889C33.6665 24.5309 34.8396 22.9936 34.8396 21.2534V18.0635H45.1622V21.2534C45.1622 22.9936 46.3353 24.5309 48.015 24.9889L53.245 26.4147C56.8438 27.3963 59.3558 30.687 59.3558 34.4156C59.3558 34.6607 59.3444 34.9045 59.3249 35.1446Z" fill="url(#paint0_linear)"/>
<path d="M49.0322 30.9668H30.9676C28.8337 30.9668 27.0967 32.7038 27.0967 34.8378V65.8055C27.0967 67.9395 28.8337 69.6765 30.9676 69.6765H49.0322C51.1661 69.6765 52.9031 67.9395 52.9031 65.8055V34.8378C52.9031 32.7038 51.1661 30.9668 49.0322 30.9668ZM30.9676 33.5474H49.0322C49.7441 33.5474 50.3225 34.1271 50.3225 34.8378V36.1281H29.6773V34.8378C29.6773 34.1271 30.2557 33.5474 30.9676 33.5474ZM50.3225 56.7733H29.6773V38.7087H50.3225V56.7733ZM49.0322 67.0958H30.9676C30.2557 67.0958 29.6773 66.5162 29.6773 65.8055V59.3539H50.3225V65.8055C50.3225 66.5162 49.7441 67.0958 49.0322 67.0958Z" fill="url(#paint1_linear)"/>
<path d="M36.1289 61.9346H43.8708V64.5152H36.1289V61.9346Z" fill="url(#paint2_linear)"/>
</g>
<defs>
<linearGradient id="paint0_linear" x1="40.0009" y1="-0.000976563" x2="40.0009" y2="79.999" gradientUnits="userSpaceOnUse">
<stop stop-color="#00C2FF"/>
<stop offset="1" stop-color="#3DFFA2"/>
</linearGradient>
<linearGradient id="paint1_linear" x1="39.9999" y1="30.9668" x2="39.9999" y2="69.6765" gradientUnits="userSpaceOnUse">
<stop stop-color="#00C2FF"/>
<stop offset="1" stop-color="#3DFFA2"/>
</linearGradient>
<linearGradient id="paint2_linear" x1="39.9999" y1="61.9346" x2="39.9999" y2="64.5152" gradientUnits="userSpaceOnUse">
<stop stop-color="#00C2FF"/>
<stop offset="1" stop-color="#3DFFA2"/>
</linearGradient>
<clipPath id="clip0">
<rect width="80" height="80" fill="white" transform="translate(0 -0.000976562)"/>
</clipPath>
</defs>
</svg>
