<svg width="80" height="80" viewBox="0 0 80 80" fill="none" xmlns="http://www.w3.org/2000/svg">
<path d="M46.25 67.499H43.75V55.249C43.75 54.9175 43.6183 54.5996 43.3839 54.3651C43.1495 54.1307 42.8315 53.999 42.5 53.999C42.1685 53.999 41.8505 54.1307 41.6161 54.3651C41.3817 54.5996 41.25 54.9175 41.25 55.249V67.499H8.75V42.499H19.15C19.4815 42.499 19.7995 42.3673 20.0339 42.1329C20.2683 41.8985 20.4 41.5805 20.4 41.249C20.4 40.9175 20.2683 40.5996 20.0339 40.3651C19.7995 40.1307 19.4815 39.999 19.15 39.999H7.5C7.16848 39.999 6.85054 40.1307 6.61612 40.3651C6.3817 40.5996 6.25 40.9175 6.25 41.249V67.499H3.75C3.41848 67.499 3.10054 67.6307 2.86612 67.8651C2.6317 68.0996 2.5 68.4175 2.5 68.749V71.249C2.5 72.9066 3.15848 74.4963 4.33058 75.6684C5.50269 76.8405 7.0924 77.499 8.75 77.499H41.25C42.9076 77.499 44.4973 76.8405 45.6694 75.6684C46.8415 74.4963 47.5 72.9066 47.5 71.249V68.749C47.5 68.4175 47.3683 68.0996 47.1339 67.8651C46.8995 67.6307 46.5815 67.499 46.25 67.499ZM45 71.249C45 72.2436 44.6049 73.1974 43.9016 73.9007C43.1984 74.6039 42.2446 74.999 41.25 74.999H38.75V73.749C38.75 73.4175 38.6183 73.0996 38.3839 72.8651C38.1495 72.6307 37.8315 72.499 37.5 72.499C37.1685 72.499 36.8505 72.6307 36.6161 72.8651C36.3817 73.0996 36.25 73.4175 36.25 73.749V74.999H13.75V73.749C13.75 73.4175 13.6183 73.0996 13.3839 72.8651C13.1495 72.6307 12.8315 72.499 12.5 72.499C12.1685 72.499 11.8505 72.6307 11.6161 72.8651C11.3817 73.0996 11.25 73.4175 11.25 73.749V74.999H8.75C7.75544 74.999 6.80161 74.6039 6.09835 73.9007C5.39509 73.1974 5 72.2436 5 71.249V69.999H45V71.249Z" fill="url(#paint0_linear)"/>
<path d="M67.5 9.99902H70C70.3315 9.99902 70.6495 9.86733 70.8839 9.63291C71.1183 9.39849 71.25 9.08054 71.25 8.74902C71.25 8.4175 71.1183 8.09956 70.8839 7.86514C70.6495 7.63072 70.3315 7.49902 70 7.49902H67.5C66.5054 7.49902 65.5516 7.89411 64.8484 8.59737C64.1451 9.30063 63.75 10.2545 63.75 11.249V12.499H62.5C62.1685 12.499 61.8505 12.6307 61.6161 12.8651C61.3817 13.0996 61.25 13.4175 61.25 13.749C61.25 14.0805 61.3817 14.3985 61.6161 14.6329C61.8505 14.8673 62.1685 14.999 62.5 14.999H63.75V18.749C63.75 19.0805 63.8817 19.3985 64.1161 19.6329C64.3505 19.8673 64.6685 19.999 65 19.999C65.3315 19.999 65.6495 19.8673 65.8839 19.6329C66.1183 19.3985 66.25 19.0805 66.25 18.749V14.999H67.5C67.8315 14.999 68.1495 14.8673 68.3839 14.6329C68.6183 14.3985 68.75 14.0805 68.75 13.749C68.75 13.4175 68.6183 13.0996 68.3839 12.8651C68.1495 12.6307 67.8315 12.499 67.5 12.499H66.25V11.249C66.25 10.9175 66.3817 10.5996 66.6161 10.3651C66.8505 10.1307 67.1685 9.99902 67.5 9.99902Z" fill="url(#paint1_linear)"/>
<path d="M73.75 2.49902H58.75C57.7554 2.49902 56.8016 2.89411 56.0984 3.59737C55.3951 4.30063 55 5.25446 55 6.24902V8.74902C55 9.08054 55.1317 9.39849 55.3661 9.63291C55.6005 9.86733 55.9185 9.99902 56.25 9.99902C56.5815 9.99902 56.8995 9.86733 57.1339 9.63291C57.3683 9.39849 57.5 9.08054 57.5 8.74902V6.24902C57.5 5.9175 57.6317 5.59956 57.8661 5.36514C58.1005 5.13072 58.4185 4.99902 58.75 4.99902H73.75C74.0815 4.99902 74.3995 5.13072 74.6339 5.36514C74.8683 5.59956 75 5.9175 75 6.24902V21.249C75 21.5805 74.8683 21.8985 74.6339 22.1329C74.3995 22.3673 74.0815 22.499 73.75 22.499H58.75C58.4185 22.499 58.1005 22.3673 57.8661 22.1329C57.6317 21.8985 57.5 21.5805 57.5 21.249V13.749C57.5 13.4175 57.3683 13.0996 57.1339 12.8651C56.8995 12.6307 56.5815 12.499 56.25 12.499C55.9185 12.499 55.6005 12.6307 55.3661 12.8651C55.1317 13.0996 55 13.4175 55 13.749V21.249C55 22.2436 55.3951 23.1974 56.0984 23.9007C56.8016 24.6039 57.7554 24.999 58.75 24.999H73.75C74.7446 24.999 75.6984 24.6039 76.4016 23.9007C77.1049 23.1974 77.5 22.2436 77.5 21.249V6.24902C77.5 5.25446 77.1049 4.30063 76.4016 3.59737C75.6984 2.89411 74.7446 2.49902 73.75 2.49902Z" fill="url(#paint2_linear)"/>
<path d="M61.25 52.499C61.25 53.4879 61.5432 54.4546 62.0927 55.2769C62.6421 56.0991 63.423 56.74 64.3366 57.1184C65.2502 57.4969 66.2555 57.5959 67.2255 57.403C68.1954 57.21 69.0863 56.7338 69.7855 56.0346C70.4848 55.3353 70.961 54.4444 71.1539 53.4745C71.3469 52.5046 71.2478 51.4992 70.8694 50.5856C70.491 49.672 69.8501 48.8911 69.0279 48.3417C68.2056 47.7923 67.2389 47.499 66.25 47.499C64.9239 47.499 63.6522 48.0258 62.7145 48.9635C61.7768 49.9012 61.25 51.1729 61.25 52.499ZM68.75 52.499C68.75 52.9935 68.6034 53.4768 68.3287 53.888C68.054 54.2991 67.6635 54.6195 67.2067 54.8087C66.7499 54.9979 66.2472 55.0475 65.7623 54.951C65.2773 54.8545 64.8319 54.6164 64.4822 54.2668C64.1326 53.9172 63.8945 53.4717 63.798 52.9868C63.7016 52.5018 63.7511 51.9991 63.9403 51.5423C64.1295 51.0855 64.45 50.6951 64.8611 50.4203C65.2722 50.1456 65.7555 49.999 66.25 49.999C66.913 49.999 67.5489 50.2624 68.0178 50.7313C68.4866 51.2001 68.75 51.836 68.75 52.499Z" fill="url(#paint3_linear)"/>
<path d="M73.75 41.249H58.75C57.7554 41.249 56.8016 41.6441 56.0984 42.3474C55.3951 43.0506 55 44.0045 55 44.999V59.999C55 60.9936 55.3951 61.9474 56.0984 62.6507C56.8016 63.3539 57.7554 63.749 58.75 63.749H73.75C74.7446 63.749 75.6984 63.3539 76.4016 62.6507C77.1049 61.9474 77.5 60.9936 77.5 59.999V57.499C77.5 57.1675 77.3683 56.8496 77.1339 56.6151C76.8995 56.3807 76.5815 56.249 76.25 56.249C75.9185 56.249 75.6005 56.3807 75.3661 56.6151C75.1317 56.8496 75 57.1675 75 57.499V59.999C75 60.3305 74.8683 60.6485 74.6339 60.8829C74.3995 61.1173 74.0815 61.249 73.75 61.249H58.75C58.4185 61.249 58.1005 61.1173 57.8661 60.8829C57.6317 60.6485 57.5 60.3305 57.5 59.999V44.999C57.5 44.6675 57.6317 44.3496 57.8661 44.1151C58.1005 43.8807 58.4185 43.749 58.75 43.749H73.75C74.0815 43.749 74.3995 43.8807 74.6339 44.1151C74.8683 44.3496 75 44.6675 75 44.999V52.499C75 52.8305 75.1317 53.1485 75.3661 53.3829C75.6005 53.6173 75.9185 53.749 76.25 53.749C76.5815 53.749 76.8995 53.6173 77.1339 53.3829C77.3683 53.1485 77.5 52.8305 77.5 52.499V44.999C77.5 44.0045 77.1049 43.0506 76.4016 42.3474C75.6984 41.6441 74.7446 41.249 73.75 41.249Z" fill="url(#paint4_linear)"/>
<path d="M30.5875 17.3117C30.7864 17.4349 31.016 17.4999 31.25 17.4992C31.4457 17.498 31.6384 17.4509 31.8125 17.3617L39.3125 13.6117C39.5173 13.5068 39.6891 13.3474 39.8091 13.1511C39.9291 12.9548 39.9926 12.7292 39.9926 12.4991C39.9926 12.2691 39.9291 12.0435 39.8091 11.8472C39.6891 11.6509 39.5173 11.4915 39.3125 11.3866L31.8125 7.63665C31.6222 7.54076 31.4106 7.49511 31.1977 7.50403C30.9848 7.51294 30.7777 7.57614 30.5961 7.6876C30.4145 7.79907 30.2644 7.9551 30.1601 8.1409C30.0558 8.32669 30.0006 8.53607 30 8.74915V16.2492C29.9996 16.4616 30.0533 16.6706 30.1561 16.8565C30.2589 17.0424 30.4074 17.1991 30.5875 17.3117ZM32.5 10.7741L35.95 12.4991L32.5 14.2242V10.7741Z" fill="url(#paint5_linear)"/>
<path d="M33.75 23.749C35.975 23.749 38.1501 23.0892 40.0002 21.8531C41.8502 20.6169 43.2922 18.8599 44.1436 16.8042C44.9951 14.7486 45.2179 12.4866 44.7838 10.3043C44.3498 8.12198 43.2783 6.11742 41.705 4.54408C40.1316 2.97074 38.1271 1.89928 35.9448 1.46519C33.7625 1.03111 31.5005 1.2539 29.4448 2.10538C27.3891 2.95687 25.6321 4.39881 24.396 6.24886C23.1598 8.09892 22.5 10.274 22.5 12.499C22.5 15.4827 23.6853 18.3442 25.795 20.454C27.9048 22.5638 30.7663 23.749 33.75 23.749ZM33.75 3.74903C35.4806 3.74903 37.1723 4.26221 38.6112 5.22367C40.0502 6.18513 41.1717 7.5517 41.8339 9.15055C42.4962 10.7494 42.6695 12.5087 42.3319 14.2061C41.9943 15.9034 41.1609 17.4625 39.9372 18.6862C38.7135 19.9099 37.1544 20.7433 35.457 21.0809C33.7597 21.4185 32.0004 21.2452 30.4015 20.583C28.8027 19.9207 27.4361 18.7992 26.4746 17.3603C25.5132 15.9213 25 14.2296 25 12.499C25 10.1784 25.9219 7.95279 27.5628 6.31185C29.2038 4.6709 31.4294 3.74903 33.75 3.74903Z" fill="url(#paint6_linear)"/>
<path d="M46.25 28.749C46.4441 28.749 46.6354 28.7039 46.809 28.6171C46.9826 28.5303 47.1336 28.4043 47.25 28.249L51 23.249C51.1989 22.9838 51.2843 22.6504 51.2374 22.3223C51.1905 21.9941 51.0152 21.6979 50.75 21.499C50.4848 21.3001 50.1514 21.2147 49.8232 21.2616C49.495 21.3085 49.1989 21.4838 49 21.749L45.25 26.749C45.0511 27.0142 44.9657 27.3476 45.0126 27.6758C45.0595 28.004 45.2348 28.3001 45.5 28.499C45.7164 28.6613 45.9795 28.749 46.25 28.749Z" fill="url(#paint7_linear)"/>
<path d="M49 33.249C49.1164 33.4043 49.2674 33.5303 49.441 33.6171C49.6146 33.7039 49.8059 33.749 50 33.749C50.2705 33.749 50.5336 33.6613 50.75 33.499L55.75 29.749C56.0152 29.5501 56.1905 29.254 56.2374 28.9258C56.2843 28.5976 56.1989 28.2642 56 27.999C55.8011 27.7338 55.505 27.5585 55.1768 27.5116C54.8486 27.4647 54.5152 27.5501 54.25 27.749L49.25 31.499C48.9848 31.6979 48.8095 31.9941 48.7626 32.3223C48.7157 32.6504 48.8011 32.9838 49 33.249Z" fill="url(#paint8_linear)"/>
<path d="M61.2494 35.9991C61.2197 35.8334 61.1568 35.6754 61.0645 35.5346C60.9723 35.3938 60.8525 35.2731 60.7124 35.1797C60.5723 35.0863 60.4148 35.0221 60.2493 34.9911C60.0838 34.9601 59.9138 34.9628 59.7494 34.9992L53.4994 36.2492C53.3352 36.2656 53.1759 36.3142 53.0306 36.3921C52.8852 36.4701 52.7566 36.576 52.6521 36.7037C52.4411 36.9615 52.3413 37.2926 52.3744 37.6242C52.4076 37.9557 52.571 38.2604 52.8289 38.4714C53.0868 38.6824 53.4179 38.7823 53.7494 38.7492H53.9994L60.2494 37.4992C60.4151 37.4694 60.5731 37.4066 60.714 37.3143C60.8548 37.222 60.9755 37.1022 61.0689 36.9621C61.1623 36.8221 61.2264 36.6645 61.2574 36.4991C61.2884 36.3336 61.2857 36.1635 61.2494 35.9991Z" fill="url(#paint9_linear)"/>
<path d="M3.75 36.249H18.75C19.0815 36.249 19.3995 36.1173 19.6339 35.8829C19.8683 35.6485 20 35.3305 20 34.999V14.999C20 14.6675 19.8683 14.3496 19.6339 14.1151C19.3995 13.8807 19.0815 13.749 18.75 13.749H3.75C3.41848 13.749 3.10054 13.8807 2.86612 14.1151C2.6317 14.3496 2.5 14.6675 2.5 14.999V34.999C2.5 35.3305 2.6317 35.6485 2.86612 35.8829C3.10054 36.1173 3.41848 36.249 3.75 36.249ZM5 16.249H17.5V33.749H5V16.249Z" fill="url(#paint10_linear)"/>
<path d="M13.75 18.749H11.25C10.9185 18.749 10.6005 18.8807 10.3661 19.1151C10.1317 19.3496 10 19.6675 10 19.999C10 20.3305 10.1317 20.6485 10.3661 20.8829C10.6005 21.1173 10.9185 21.249 11.25 21.249H13.75C14.0815 21.249 14.3995 21.1173 14.6339 20.8829C14.8683 20.6485 15 20.3305 15 19.999C15 19.6675 14.8683 19.3496 14.6339 19.1151C14.3995 18.8807 14.0815 18.749 13.75 18.749Z" fill="url(#paint11_linear)"/>
<path d="M13.75 23.749H8.75C8.41848 23.749 8.10054 23.8807 7.86612 24.1151C7.6317 24.3496 7.5 24.6675 7.5 24.999C7.5 25.3305 7.6317 25.6485 7.86612 25.8829C8.10054 26.1173 8.41848 26.249 8.75 26.249H13.75C14.0815 26.249 14.3995 26.1173 14.6339 25.8829C14.8683 25.6485 15 25.3305 15 24.999C15 24.6675 14.8683 24.3496 14.6339 24.1151C14.3995 23.8807 14.0815 23.749 13.75 23.749Z" fill="url(#paint12_linear)"/>
<path d="M13.75 28.749H8.75C8.41848 28.749 8.10054 28.8807 7.86612 29.1151C7.6317 29.3496 7.5 29.6675 7.5 29.999C7.5 30.3305 7.6317 30.6485 7.86612 30.8829C8.10054 31.1173 8.41848 31.249 8.75 31.249H13.75C14.0815 31.249 14.3995 31.1173 14.6339 30.8829C14.8683 30.6485 15 30.3305 15 29.999C15 29.6675 14.8683 29.3496 14.6339 29.1151C14.3995 28.8807 14.0815 28.749 13.75 28.749Z" fill="url(#paint13_linear)"/>
<path d="M45.1505 35.8746C45.0684 35.7317 44.959 35.6065 44.8286 35.506C44.6981 35.4054 44.5491 35.3316 44.3901 35.2886C44.231 35.2457 44.0651 35.2345 43.9018 35.2557C43.7384 35.2768 43.5808 35.33 43.438 35.4121C43.2952 35.4941 43.17 35.6035 43.0694 35.734C42.9689 35.8645 42.895 36.0135 42.8521 36.1725C42.8092 36.3315 42.7979 36.4975 42.8191 36.6608C42.8403 36.8242 42.8934 36.9817 42.9755 37.1246L48.488 46.6621L28.488 54.1621C28.488 54.1621 28.488 54.1621 28.4005 54.1621H28.3005L25.0505 56.0371L22.888 57.2871C22.6033 57.4516 22.289 57.5584 21.9629 57.6013C21.6369 57.6442 21.3056 57.6224 20.988 57.5371C20.35 57.3647 19.8062 56.9467 19.4755 56.3746L16.9755 52.0496C16.6814 51.4837 16.6147 50.8268 16.7889 50.2134C16.9632 49.5999 17.3653 49.0763 17.913 48.7496L22.238 46.2496L25.363 51.6621C25.4732 51.8528 25.6317 52.0111 25.8227 52.1208C26.0137 52.2306 26.2303 52.2879 26.4505 52.2871C26.6704 52.2879 26.8865 52.2308 27.0773 52.1215C27.268 52.0121 27.4265 51.8544 27.5368 51.6642C27.6471 51.474 27.7053 51.2581 27.7055 51.0383C27.7057 50.8185 27.6479 50.6024 27.538 50.4121L24.313 44.8371L40.0005 31.8996L40.513 32.7871C40.5951 32.9299 40.7045 33.0551 40.835 33.1557C40.9655 33.2562 41.1145 33.33 41.2735 33.373C41.4325 33.4159 41.5984 33.4271 41.7618 33.406C41.9251 33.3848 42.0827 33.3316 42.2255 33.2496C42.3683 33.1675 42.4936 33.0581 42.5941 32.9276C42.6946 32.7971 42.7685 32.6481 42.8114 32.4891C42.8544 32.3301 42.8656 32.1642 42.8444 32.0008C42.8232 31.8375 42.7701 31.6799 42.688 31.5371L41.438 29.3746C41.3464 29.2179 41.2218 29.0832 41.0729 28.9795C40.9239 28.8759 40.7542 28.806 40.5755 28.7746C40.3959 28.7407 40.211 28.7467 40.0339 28.792C39.8568 28.8374 39.6918 28.921 39.5505 29.0371L22.0505 43.4621L16.7255 46.5371C15.7699 47.0937 15.0258 47.9514 14.6096 48.976C14.1935 50.0006 14.1287 51.1342 14.4255 52.1996L13.1755 52.9121C12.5315 53.2819 12.0117 53.8347 11.6822 54.5003C11.3527 55.1659 11.2283 55.9143 11.3247 56.6508C11.4211 57.3872 11.734 58.0784 12.2237 58.6367C12.7135 59.1951 13.358 59.5955 14.0755 59.7871C14.3936 59.8713 14.7214 59.9133 15.0505 59.9121C15.7081 59.9093 16.3539 59.7371 16.9255 59.4121L18.1755 58.6996C18.776 59.3199 19.5311 59.7686 20.363 59.9996C20.7902 60.119 21.232 60.1779 21.6755 60.1746C22.5541 60.1766 23.4173 59.9435 24.1755 59.4996L25.263 58.8746L27.763 63.2121C28.2599 64.071 29.0769 64.6981 30.0352 64.9558C30.9935 65.2135 32.0148 65.0809 32.8755 64.5871C33.3025 64.341 33.6768 64.0132 33.9771 63.6225C34.2773 63.2317 34.4976 62.7855 34.6253 62.3096C34.753 61.8336 34.7856 61.3371 34.7213 60.8485C34.657 60.3599 34.497 59.8888 34.2505 59.4621L31.9755 55.4996L50.7255 48.4621C50.8956 48.3981 51.0496 48.2979 51.177 48.1684C51.3044 48.0389 51.402 47.8831 51.463 47.7121C51.5239 47.543 51.5475 47.3628 51.5324 47.1838C51.5173 47.0047 51.4638 46.831 51.3755 46.6746L45.1505 35.8746ZM15.6255 57.2371C15.4832 57.3193 15.326 57.3727 15.163 57.3942C15 57.4156 14.8343 57.4047 14.6755 57.3621C14.3553 57.2789 14.0811 57.0721 13.913 56.7871C13.8307 56.6447 13.7773 56.4875 13.7559 56.3245C13.7344 56.1615 13.7454 55.9958 13.788 55.8371C13.8307 55.6774 13.9046 55.5279 14.0054 55.397C14.1063 55.2661 14.2321 55.1565 14.3755 55.0746L15.463 54.4496L16.713 56.6121L15.6255 57.2371ZM32.0755 60.7371C32.1578 60.8794 32.2112 61.0366 32.2327 61.1996C32.2541 61.3626 32.2432 61.5283 32.2005 61.6871C32.1114 62.0048 31.9002 62.2744 31.613 62.4371C31.3275 62.6011 30.9888 62.6458 30.6705 62.5616C30.3522 62.4773 30.08 62.2708 29.913 61.9871L27.413 57.6496L29.488 56.4621H29.588L32.0755 60.7371Z" fill="url(#paint14_linear)"/>
<defs>
<linearGradient id="paint0_linear" x1="25" y1="39.999" x2="25" y2="77.499" gradientUnits="userSpaceOnUse">
<stop stop-color="#00C2FF"/>
<stop offset="1" stop-color="#3DFFA2"/>
</linearGradient>
<linearGradient id="paint1_linear" x1="66.25" y1="7.49902" x2="66.25" y2="19.999" gradientUnits="userSpaceOnUse">
<stop stop-color="#00C2FF"/>
<stop offset="1" stop-color="#3DFFA2"/>
</linearGradient>
<linearGradient id="paint2_linear" x1="66.25" y1="2.49902" x2="66.25" y2="24.999" gradientUnits="userSpaceOnUse">
<stop stop-color="#00C2FF"/>
<stop offset="1" stop-color="#3DFFA2"/>
</linearGradient>
<linearGradient id="paint3_linear" x1="66.25" y1="47.499" x2="66.25" y2="57.499" gradientUnits="userSpaceOnUse">
<stop stop-color="#00C2FF"/>
<stop offset="1" stop-color="#3DFFA2"/>
</linearGradient>
<linearGradient id="paint4_linear" x1="66.25" y1="41.249" x2="66.25" y2="63.749" gradientUnits="userSpaceOnUse">
<stop stop-color="#00C2FF"/>
<stop offset="1" stop-color="#3DFFA2"/>
</linearGradient>
<linearGradient id="paint5_linear" x1="34.9963" y1="7.50293" x2="34.9963" y2="17.4992" gradientUnits="userSpaceOnUse">
<stop stop-color="#00C2FF"/>
<stop offset="1" stop-color="#3DFFA2"/>
</linearGradient>
<linearGradient id="paint6_linear" x1="33.75" y1="1.24902" x2="33.75" y2="23.749" gradientUnits="userSpaceOnUse">
<stop stop-color="#00C2FF"/>
<stop offset="1" stop-color="#3DFFA2"/>
</linearGradient>
<linearGradient id="paint7_linear" x1="48.125" y1="21.249" x2="48.125" y2="28.749" gradientUnits="userSpaceOnUse">
<stop stop-color="#00C2FF"/>
<stop offset="1" stop-color="#3DFFA2"/>
</linearGradient>
<linearGradient id="paint8_linear" x1="52.5" y1="27.499" x2="52.5" y2="33.749" gradientUnits="userSpaceOnUse">
<stop stop-color="#00C2FF"/>
<stop offset="1" stop-color="#3DFFA2"/>
</linearGradient>
<linearGradient id="paint9_linear" x1="56.8235" y1="34.9697" x2="56.8235" y2="38.7554" gradientUnits="userSpaceOnUse">
<stop stop-color="#00C2FF"/>
<stop offset="1" stop-color="#3DFFA2"/>
</linearGradient>
<linearGradient id="paint10_linear" x1="11.25" y1="13.749" x2="11.25" y2="36.249" gradientUnits="userSpaceOnUse">
<stop stop-color="#00C2FF"/>
<stop offset="1" stop-color="#3DFFA2"/>
</linearGradient>
<linearGradient id="paint11_linear" x1="12.5" y1="18.749" x2="12.5" y2="21.249" gradientUnits="userSpaceOnUse">
<stop stop-color="#00C2FF"/>
<stop offset="1" stop-color="#3DFFA2"/>
</linearGradient>
<linearGradient id="paint12_linear" x1="11.25" y1="23.749" x2="11.25" y2="26.249" gradientUnits="userSpaceOnUse">
<stop stop-color="#00C2FF"/>
<stop offset="1" stop-color="#3DFFA2"/>
</linearGradient>
<linearGradient id="paint13_linear" x1="11.25" y1="28.749" x2="11.25" y2="31.249" gradientUnits="userSpaceOnUse">
<stop stop-color="#00C2FF"/>
<stop offset="1" stop-color="#3DFFA2"/>
</linearGradient>
<linearGradient id="paint14_linear" x1="31.4149" y1="28.7529" x2="31.4149" y2="65.0845" gradientUnits="userSpaceOnUse">
<stop stop-color="#00C2FF"/>
<stop offset="1" stop-color="#3DFFA2"/>
</linearGradient>
</defs>
</svg>
