<svg width="80" height="80" viewBox="0 0 80 80" fill="none" xmlns="http://www.w3.org/2000/svg">
<path d="M8.75 61.25H28.4752L26.2742 72.2548C26.2379 72.4362 26.2424 72.6233 26.2872 72.8028C26.332 72.9822 26.416 73.1495 26.5333 73.2925C26.6505 73.4355 26.7981 73.5508 26.9652 73.6299C27.1324 73.709 27.3151 73.75 27.5 73.75H52.5C52.6849 73.75 52.8676 73.709 53.0348 73.6299C53.2019 73.5508 53.3495 73.4355 53.4667 73.2925C53.584 73.1495 53.668 72.9822 53.7128 72.8028C53.7576 72.6233 53.7621 72.4362 53.7258 72.2548L51.5248 61.25H71.25C72.907 61.2481 74.4957 60.5891 75.6674 59.4174C76.8391 58.2457 77.4981 56.657 77.5 55V12.5C77.4981 10.843 76.8391 9.25434 75.6674 8.08264C74.4957 6.91094 72.907 6.25186 71.25 6.25H8.75C7.09297 6.25186 5.50434 6.91094 4.33264 8.08264C3.16094 9.25434 2.50186 10.843 2.5 12.5V55C2.50186 56.657 3.16094 58.2457 4.33264 59.4174C5.50434 60.5891 7.09297 61.2481 8.75 61.25ZM29.0247 71.25L31.0247 61.25H48.9752L50.9752 71.25H29.0247ZM5 12.5C5.00116 11.5058 5.39662 10.5526 6.09963 9.84963C6.80264 9.14662 7.75579 8.75116 8.75 8.75H71.25C72.2442 8.75116 73.1974 9.14662 73.9004 9.84963C74.6034 10.5526 74.9988 11.5058 75 12.5V48.75H5V12.5ZM5 51.25H75V55C74.9988 55.9942 74.6034 56.9474 73.9004 57.6504C73.1974 58.3534 72.2442 58.7488 71.25 58.75H8.75C7.75579 58.7488 6.80264 58.3534 6.09963 57.6504C5.39662 56.9474 5.00116 55.9942 5 55V51.25ZM37.5 55C37.5 54.6685 37.6317 54.3505 37.8661 54.1161C38.1005 53.8817 38.4185 53.75 38.75 53.75H41.25C41.5815 53.75 41.8995 53.8817 42.1339 54.1161C42.3683 54.3505 42.5 54.6685 42.5 55C42.5 55.3315 42.3683 55.6495 42.1339 55.8839C41.8995 56.1183 41.5815 56.25 41.25 56.25H38.75C38.4185 56.25 38.1005 56.1183 37.8661 55.8839C37.6317 55.6495 37.5 55.3315 37.5 55ZM26.2656 22.9328C24.6066 21.9733 22.7491 21.4082 20.8368 21.281C18.9245 21.1539 17.0086 21.4681 15.2371 22.1996C13.4657 22.931 11.8861 24.0599 10.6205 25.4992C9.35497 26.9384 8.43729 28.6494 7.93844 30.4998C7.43958 32.3503 7.37291 34.2907 7.74357 36.171C8.11423 38.0513 8.9123 39.8213 10.0761 41.344C11.2399 42.8667 12.7382 44.1014 14.4553 44.9527C16.1724 45.804 18.0622 46.249 19.9788 46.2534C21.0715 46.2526 22.1595 46.1094 23.2152 45.8273C25.6041 45.1912 27.7508 43.8609 29.3838 42.0047C31.0167 40.1485 32.0626 37.8498 32.3891 35.3992C32.7156 32.9486 32.3081 30.4562 31.2182 28.2372C30.1282 26.0183 28.4047 24.1723 26.2656 22.9328ZM11.2031 38.4953C10.1661 36.5792 9.78367 34.3768 10.114 32.2233C10.4443 30.0698 11.4693 28.0832 13.0328 26.566C14.5964 25.0488 16.613 24.0841 18.7755 23.8188C20.9379 23.5534 23.1279 24.002 25.0119 25.0962C25.1434 25.1727 25.2719 25.2525 25.3988 25.3339C25.3599 25.3697 25.3233 25.408 25.2894 25.4484L19.1423 32.825L11.2031 38.4953ZM28.6497 38.7623C27.8644 40.117 26.7719 41.2683 25.4603 42.1235C24.1486 42.9786 22.6545 43.5138 21.0981 43.6859C19.5418 43.858 17.9668 43.6622 16.5 43.1143C15.0332 42.5663 13.7156 41.6816 12.6533 40.5312L20.2569 35.1002L29.3209 37.3658C29.1338 37.8477 28.9097 38.3145 28.6506 38.7619L28.6497 38.7623ZM29.9244 34.9416L22.2342 33.0197L27.2094 27.0495C27.2434 27.0086 27.2747 26.9656 27.3031 26.9206C28.2956 27.9874 29.0441 29.2573 29.4969 30.6423C29.9497 32.0272 30.0959 33.494 29.9253 34.9411L29.9244 34.9416ZM71.25 33.75V25C71.25 24.6685 71.1183 24.3505 70.8839 24.1161C70.6495 23.8817 70.3315 23.75 70 23.75H65C64.6685 23.75 64.3505 23.8817 64.1161 24.1161C63.8817 24.3505 63.75 24.6685 63.75 25V33.75H61.25V27.5C61.25 27.1685 61.1183 26.8505 60.8839 26.6161C60.6495 26.3817 60.3315 26.25 60 26.25H55C54.6685 26.25 54.3505 26.3817 54.1161 26.6161C53.8817 26.8505 53.75 27.1685 53.75 27.5V33.75H51.25V30C51.25 29.6685 51.1183 29.3505 50.8839 29.1161C50.6495 28.8817 50.3315 28.75 50 28.75H45C44.6685 28.75 44.3505 28.8817 44.1161 29.1161C43.8817 29.3505 43.75 29.6685 43.75 30V33.75H41.25C40.9185 33.75 40.6005 33.8817 40.3661 34.1161C40.1317 34.3505 40 34.6685 40 35C40 35.3315 40.1317 35.6495 40.3661 35.8839C40.6005 36.1183 40.9185 36.25 41.25 36.25H71.25C71.5815 36.25 71.8995 36.1183 72.1339 35.8839C72.3683 35.6495 72.5 35.3315 72.5 35C72.5 34.6685 72.3683 34.3505 72.1339 34.1161C71.8995 33.8817 71.5815 33.75 71.25 33.75ZM48.75 33.75H46.25V31.25H48.75V33.75ZM58.75 33.75H56.25V28.75H58.75V33.75ZM68.75 33.75H66.25V26.25H68.75V33.75ZM40.1562 40C40.1562 39.6685 40.2879 39.3505 40.5224 39.1161C40.7568 38.8817 41.0747 38.75 41.4062 38.75H55C55.3315 38.75 55.6495 38.8817 55.8839 39.1161C56.1183 39.3505 56.25 39.6685 56.25 40C56.25 40.3315 56.1183 40.6495 55.8839 40.8839C55.6495 41.1183 55.3315 41.25 55 41.25H41.4062C41.0747 41.25 40.7568 41.1183 40.5224 40.8839C40.2879 40.6495 40.1562 40.3315 40.1562 40ZM63.75 45C63.75 45.3315 63.6183 45.6495 63.3839 45.8839C63.1495 46.1183 62.8315 46.25 62.5 46.25H41.4062C41.0747 46.25 40.7568 46.1183 40.5224 45.8839C40.2879 45.6495 40.1562 45.3315 40.1562 45C40.1562 44.6685 40.2879 44.3505 40.5224 44.1161C40.7568 43.8817 41.0747 43.75 41.4062 43.75H62.5C62.8315 43.75 63.1495 43.8817 63.3839 44.1161C63.6183 44.3505 63.75 44.6685 63.75 45ZM71.25 40C71.25 40.3315 71.1183 40.6495 70.8839 40.8839C70.6495 41.1183 70.3315 41.25 70 41.25H67.5C67.1685 41.25 66.8505 41.1183 66.6161 40.8839C66.3817 40.6495 66.25 40.3315 66.25 40C66.25 39.6685 66.3817 39.3505 66.6161 39.1161C66.8505 38.8817 67.1685 38.75 67.5 38.75H70C70.3315 38.75 70.6495 38.8817 70.8839 39.1161C71.1183 39.3505 71.25 39.6685 71.25 40ZM37.5 15V45C37.5 45.3315 37.3683 45.6495 37.1339 45.8839C36.8995 46.1183 36.5815 46.25 36.25 46.25C35.9185 46.25 35.6005 46.1183 35.3661 45.8839C35.1317 45.6495 35 45.3315 35 45V15C35 14.6685 35.1317 14.3505 35.3661 14.1161C35.6005 13.8817 35.9185 13.75 36.25 13.75C36.5815 13.75 36.8995 13.8817 37.1339 14.1161C37.3683 14.3505 37.5 14.6685 37.5 15ZM71.25 45C71.25 45.3315 71.1183 45.6495 70.8839 45.8839C70.6495 46.1183 70.3315 46.25 70 46.25H67.5C67.1685 46.25 66.8505 46.1183 66.6161 45.8839C66.3817 45.6495 66.25 45.3315 66.25 45C66.25 44.6685 66.3817 44.3505 66.6161 44.1161C66.8505 43.8817 67.1685 43.75 67.5 43.75H70C70.3315 43.75 70.6495 43.8817 70.8839 44.1161C71.1183 44.3505 71.25 44.6685 71.25 45ZM7.5 12.5C7.5 12.2528 7.57331 12.0111 7.71066 11.8055C7.84801 11.6 8.04324 11.4398 8.27165 11.3452C8.50005 11.2505 8.75139 11.2258 8.99386 11.274C9.23634 11.3222 9.45907 11.4413 9.63388 11.6161C9.8087 11.7909 9.92775 12.0137 9.97598 12.2561C10.0242 12.4986 9.99946 12.7499 9.90485 12.9784C9.81024 13.2068 9.65002 13.402 9.44446 13.5393C9.2389 13.6767 8.99723 13.75 8.75 13.75C8.41848 13.75 8.10054 13.6183 7.86612 13.3839C7.6317 13.1495 7.5 12.8315 7.5 12.5ZM12.5 12.5C12.5 12.2528 12.5733 12.0111 12.7107 11.8055C12.848 11.6 13.0432 11.4398 13.2716 11.3452C13.5001 11.2505 13.7514 11.2258 13.9939 11.274C14.2363 11.3222 14.4591 11.4413 14.6339 11.6161C14.8087 11.7909 14.9278 12.0137 14.976 12.2561C15.0242 12.4986 14.9995 12.7499 14.9049 12.9784C14.8102 13.2068 14.65 13.402 14.4445 13.5393C14.2389 13.6767 13.9972 13.75 13.75 13.75C13.4185 13.75 13.1005 13.6183 12.8661 13.3839C12.6317 13.1495 12.5 12.8315 12.5 12.5ZM17.5 12.5C17.5 12.2528 17.5733 12.0111 17.7107 11.8055C17.848 11.6 18.0432 11.4398 18.2716 11.3452C18.5001 11.2505 18.7514 11.2258 18.9939 11.274C19.2363 11.3222 19.4591 11.4413 19.6339 11.6161C19.8087 11.7909 19.9277 12.0137 19.976 12.2561C20.0242 12.4986 19.9995 12.7499 19.9049 12.9784C19.8102 13.2068 19.65 13.402 19.4445 13.5393C19.2389 13.6767 18.9972 13.75 18.75 13.75C18.4185 13.75 18.1005 13.6183 17.8661 13.3839C17.6317 13.1495 17.5 12.8315 17.5 12.5ZM7.5 17.5C7.5 17.1685 7.6317 16.8505 7.86612 16.6161C8.10054 16.3817 8.41848 16.25 8.75 16.25H13.75C14.0815 16.25 14.3995 16.3817 14.6339 16.6161C14.8683 16.8505 15 17.1685 15 17.5C15 17.8315 14.8683 18.1495 14.6339 18.3839C14.3995 18.6183 14.0815 18.75 13.75 18.75H8.75C8.41848 18.75 8.10054 18.6183 7.86612 18.3839C7.6317 18.1495 7.5 17.8315 7.5 17.5ZM17.5 17.5C17.5 17.1685 17.6317 16.8505 17.8661 16.6161C18.1005 16.3817 18.4185 16.25 18.75 16.25H23.75C24.0815 16.25 24.3995 16.3817 24.6339 16.6161C24.8683 16.8505 25 17.1685 25 17.5C25 17.8315 24.8683 18.1495 24.6339 18.3839C24.3995 18.6183 24.0815 18.75 23.75 18.75H18.75C18.4185 18.75 18.1005 18.6183 17.8661 18.3839C17.6317 18.1495 17.5 17.8315 17.5 17.5ZM42.612 25.5173C42.5441 25.3679 42.5062 25.2065 42.5007 25.0425C42.4951 24.8784 42.5219 24.7149 42.5795 24.5611C42.6371 24.4074 42.7245 24.2666 42.8365 24.1466C42.9486 24.0267 43.0832 23.93 43.2327 23.862L56.9827 17.612C57.1731 17.5255 57.3822 17.4881 57.5908 17.5032C57.7994 17.5184 58.0009 17.5857 58.1767 17.699C58.3526 17.8122 58.4972 17.9678 58.5974 18.1514C58.6975 18.335 58.75 18.5408 58.75 18.75V20.5588L67.835 16.4292L67.1047 16.1859C66.949 16.134 66.805 16.0519 66.6809 15.9444C66.5569 15.8368 66.4553 15.7059 66.3819 15.5591C66.3085 15.4122 66.2647 15.2524 66.2531 15.0886C66.2414 14.9249 66.2621 14.7604 66.3141 14.6047C66.366 14.4489 66.4481 14.305 66.5556 14.1809C66.6632 14.0569 66.7941 13.9553 66.9409 13.8819C67.0878 13.8085 67.2476 13.7647 67.4114 13.7531C67.5751 13.7414 67.7396 13.7621 67.8953 13.8141L71.6453 15.0641C71.8014 15.1151 71.9459 15.1967 72.0702 15.3041C72.1945 15.4114 72.2962 15.5424 72.3695 15.6895C72.4428 15.8365 72.4861 15.9966 72.4969 16.1605C72.5077 16.3244 72.4859 16.4888 72.4327 16.6442L72.4359 16.6453L71.1859 20.3953C71.0811 20.7098 70.8556 20.9698 70.5591 21.1181C70.2625 21.2664 69.9192 21.2908 69.6047 21.1859C69.2902 21.0811 69.0302 20.8556 68.8819 20.5591C68.7336 20.2625 68.7092 19.9192 68.8141 19.6047L69.1578 18.5742L58.0172 23.638C57.8268 23.7245 57.6177 23.7619 57.4091 23.7467C57.2005 23.7315 56.9991 23.6642 56.8232 23.5509C56.6474 23.4377 56.5028 23.2822 56.4026 23.0986C56.3025 22.9149 56.25 22.7091 56.25 22.5V20.6912L44.2673 26.138C44.1179 26.2059 43.9565 26.2438 43.7925 26.2493C43.6284 26.2549 43.4649 26.2281 43.3111 26.1705C43.1574 26.1129 43.0166 26.0255 42.8966 25.9135C42.7767 25.8014 42.68 25.6668 42.612 25.5173Z" fill="url(#paint0_linear)"/>
<defs>
<linearGradient id="paint0_linear" x1="40" y1="73.75" x2="40" y2="6.25" gradientUnits="userSpaceOnUse">
<stop stop-color="#3DFFA2"/>
<stop offset="1" stop-color="#00C2FF"/>
</linearGradient>
</defs>
</svg>
