<svg width="80" height="80" viewBox="0 0 80 80" fill="none" xmlns="http://www.w3.org/2000/svg">
<path d="M56.875 53.75H58.125C58.2908 53.75 58.4497 53.8158 58.5669 53.9331C58.6842 54.0503 58.75 54.2092 58.75 54.375H61.25C61.2499 53.6548 61.001 52.9568 60.5454 52.399C60.0899 51.8411 59.4556 51.4578 58.75 51.3137V50H56.25V51.3137C55.4919 51.4693 54.8184 51.9006 54.3601 52.5241C53.9017 53.1477 53.691 53.9191 53.7688 54.6891C53.8466 55.4591 54.2073 56.1728 54.7812 56.6921C55.355 57.2114 56.1011 57.4993 56.875 57.5H58.125C58.2908 57.5 58.4497 57.5658 58.5669 57.6831C58.6842 57.8003 58.75 57.9592 58.75 58.125C58.75 58.2908 58.6842 58.4497 58.5669 58.5669C58.4497 58.6842 58.2908 58.75 58.125 58.75H56.875C56.7092 58.75 56.5503 58.6842 56.4331 58.5669C56.3158 58.4497 56.25 58.2908 56.25 58.125H53.75C53.7501 58.8452 53.999 59.5432 54.4546 60.101C54.9101 60.6589 55.5444 61.0422 56.25 61.1863V62.5H58.75V61.1863C59.5081 61.0307 60.1816 60.5994 60.6399 59.9759C61.0983 59.3523 61.309 58.5809 61.2312 57.8109C61.1534 57.0409 60.7927 56.3272 60.2188 55.8079C59.645 55.2886 58.8989 55.0007 58.125 55H56.875C56.7092 55 56.5503 54.9342 56.4331 54.8169C56.3158 54.6997 56.25 54.5408 56.25 54.375C56.25 54.2092 56.3158 54.0503 56.4331 53.9331C56.5503 53.8158 56.7092 53.75 56.875 53.75Z" fill="url(#paint0_linear)"/>
<path d="M57.5 46.25C55.5222 46.25 53.5888 46.8365 51.9443 47.9353C50.2998 49.0341 49.0181 50.5959 48.2612 52.4232C47.5043 54.2504 47.3063 56.2611 47.6922 58.2009C48.078 60.1407 49.0304 61.9225 50.4289 63.3211C51.8275 64.7196 53.6093 65.672 55.5491 66.0579C57.4889 66.4437 59.4996 66.2457 61.3268 65.4888C63.1541 64.7319 64.7159 63.4502 65.8147 61.8057C66.9135 60.1612 67.5 58.2278 67.5 56.25C67.497 53.5987 66.4425 51.0569 64.5678 49.1822C62.6931 47.3075 60.1513 46.253 57.5 46.25ZM57.5 63.75C56.0166 63.75 54.5666 63.3101 53.3332 62.486C52.0999 61.6619 51.1386 60.4906 50.5709 59.1201C50.0033 57.7497 49.8547 56.2417 50.1441 54.7868C50.4335 53.332 51.1478 51.9956 52.1967 50.9467C53.2456 49.8978 54.582 49.1835 56.0368 48.8941C57.4917 48.6047 58.9997 48.7532 60.3701 49.3209C61.7406 49.8886 62.9119 50.8499 63.736 52.0832C64.5601 53.3166 65 54.7666 65 56.25C64.998 58.2385 64.2072 60.145 62.8011 61.5511C61.395 62.9572 59.4885 63.748 57.5 63.75Z" fill="url(#paint1_linear)"/>
<path d="M17.5 43.75H22.5V46.25H17.5V43.75Z" fill="url(#paint2_linear)"/>
<path d="M25 43.75H37.5V46.25H25V43.75Z" fill="url(#paint3_linear)"/>
<path d="M17.5 50H26.25V52.5H17.5V50Z" fill="url(#paint4_linear)"/>
<path d="M28.75 50H37.5V52.5H28.75V50Z" fill="url(#paint5_linear)"/>
<path d="M17.5 56.25H37.5V58.75H17.5V56.25Z" fill="url(#paint6_linear)"/>
<path d="M17.5 62.5H37.5V65H17.5V62.5Z" fill="url(#paint7_linear)"/>
<path d="M76.9875 71.5875L73.75 67V51.25C73.7501 49.2237 73.3018 47.2225 72.4374 45.3899C71.5729 43.5573 70.3137 41.9386 68.75 40.65V3.75C68.75 3.41848 68.6183 3.10054 68.3839 2.86612C68.1495 2.6317 67.8315 2.5 67.5 2.5H12.5C12.1685 2.5 11.8505 2.6317 11.6161 2.86612C11.3817 3.10054 11.25 3.41848 11.25 3.75V8.3125L9.175 7.575C8.98486 7.5088 8.7819 7.48788 8.58225 7.51392C8.38261 7.53996 8.1918 7.61224 8.025 7.725C7.86277 7.84226 7.73062 7.99627 7.63937 8.17443C7.54812 8.35259 7.50036 8.54983 7.5 8.75V16.25H6.25C5.25544 16.25 4.30161 16.6451 3.59835 17.3483C2.89509 18.0516 2.5 19.0054 2.5 20C2.5 20.9946 2.89509 21.9484 3.59835 22.6517C4.30161 23.3549 5.25544 23.75 6.25 23.75H7.5V31.25C7.50009 31.4507 7.54849 31.6484 7.64111 31.8264C7.73373 32.0044 7.86786 32.1575 8.03215 32.2728C8.19643 32.388 8.38605 32.462 8.58498 32.4885C8.7839 32.515 8.98628 32.4932 9.175 32.425L11.25 31.6875V70C11.25 70.3315 11.3817 70.6495 11.6161 70.8839C11.8505 71.1183 12.1685 71.25 12.5 71.25H38.2625L38.025 71.575C37.6253 72.1364 37.388 72.7971 37.3392 73.4846C37.2904 74.1721 37.432 74.8596 37.7485 75.4719C38.0649 76.0841 38.544 76.5973 39.133 76.9551C39.7221 77.3129 40.3983 77.5014 41.0875 77.5H73.925C74.6121 77.4998 75.286 77.3108 75.873 76.9536C76.46 76.5965 76.9376 76.0849 77.2537 75.4747C77.5697 74.8646 77.712 74.1794 77.6651 73.4938C77.6181 72.8083 77.3837 72.1489 76.9875 71.5875ZM7.5 21.25H6.25C5.91848 21.25 5.60054 21.1183 5.36612 20.8839C5.1317 20.6495 5 20.3315 5 20C5 19.6685 5.1317 19.3505 5.36612 19.1161C5.60054 18.8817 5.91848 18.75 6.25 18.75H7.5V21.25ZM52.5 5H60V15.1875L57.225 11.725C57.1091 11.5771 56.9611 11.4576 56.7922 11.3753C56.6233 11.2931 56.4379 11.2504 56.25 11.2504C56.0621 11.2504 55.8767 11.2931 55.7078 11.3753C55.5389 11.4576 55.3909 11.5771 55.275 11.725L52.5 15.1875V5ZM10 29.475V10.525L25 15.8875V24.1125L10 29.475ZM13.75 68.75V30.7875L26.3875 26.275L27.5125 36.3875C27.5433 36.6937 27.6872 36.9774 27.916 37.1831C28.1449 37.3889 28.4423 37.5019 28.75 37.5H33.75C34.0815 37.5 34.3995 37.3683 34.6339 37.1339C34.8683 36.8995 35 36.5815 35 36.25V26.25H36.25C36.5815 26.25 36.8995 26.1183 37.1339 25.8839C37.3683 25.6495 37.5 25.3315 37.5 25V24.725L41.55 23.7125C41.821 23.6455 42.0618 23.4897 42.234 23.27C42.4061 23.0502 42.4998 22.7792 42.5 22.5V17.5C42.4998 17.2208 42.4061 16.9498 42.234 16.73C42.0618 16.5103 41.821 16.3545 41.55 16.2875L37.5 15.275V15C37.5 14.6685 37.3683 14.3505 37.1339 14.1161C36.8995 13.8817 36.5815 13.75 36.25 13.75H26.4625L13.75 9.2125V5H50V18.75C50.001 19.0084 50.0821 19.2601 50.2321 19.4705C50.3821 19.681 50.5936 19.8397 50.8375 19.925C51.0815 20.0123 51.3468 20.0207 51.5958 19.9489C51.8448 19.8771 52.0649 19.7288 52.225 19.525L56.25 14.5L60.275 19.525C60.3896 19.6744 60.5373 19.795 60.7065 19.8775C60.8757 19.9599 61.0618 20.0018 61.25 20C61.3908 19.9994 61.5305 19.974 61.6625 19.925C61.9064 19.8397 62.1179 19.681 62.2679 19.4705C62.4179 19.2601 62.499 19.0084 62.5 18.75V5H66.25V39.0125C64.8554 38.3027 63.3509 37.8336 61.8 37.625L63.6625 32.9625C63.7381 32.7728 63.766 32.5674 63.7438 32.3644C63.7217 32.1614 63.6501 31.9669 63.5354 31.7979C63.4207 31.629 63.2664 31.4907 63.0859 31.3952C62.9054 31.2996 62.7042 31.2498 62.5 31.25H52.5C52.2958 31.2498 52.0946 31.2996 51.9141 31.3952C51.7336 31.4907 51.5793 31.629 51.4646 31.7979C51.3499 31.9669 51.2783 32.1614 51.2562 32.3644C51.234 32.5674 51.2619 32.7728 51.3375 32.9625L53.2 37.625C49.8967 38.0657 46.8653 39.6893 44.6679 42.1948C42.4705 44.7002 41.2561 47.9175 41.25 51.25V67.0375L40.0375 68.75H13.75ZM27.5 23.75V16.25H35V23.75H27.5ZM32.5 26.25V35H29.875L28.9 26.25H32.5ZM37.5 22.15V17.85L40 18.475V21.525L37.5 22.15ZM60.65 33.75L59.15 37.5H55.85L54.35 33.75H60.65ZM75.0375 74.325C74.933 74.5297 74.7736 74.7013 74.5771 74.8205C74.3806 74.9398 74.1548 75.0019 73.925 75H41.0875C40.8574 75.0012 40.6315 74.939 40.4345 74.82C40.2376 74.701 40.0773 74.53 39.9713 74.3258C39.8653 74.1216 39.8177 73.8921 39.8338 73.6626C39.8499 73.4331 39.929 73.2124 40.0625 73.025L43.525 68.1625C43.6719 67.9493 43.7504 67.6964 43.75 67.4375V51.25C43.7546 48.2677 44.9414 45.4089 47.0502 43.3002C49.1589 41.1914 52.0177 40.0046 55 40H60C62.9823 40.0046 65.8411 41.1914 67.9498 43.3002C70.0586 45.4089 71.2454 48.2677 71.25 51.25V67.4C71.2496 67.655 71.3282 67.9039 71.475 68.1125L74.95 73.025C75.0827 73.2127 75.1611 73.4333 75.1765 73.6627C75.192 73.892 75.1439 74.1212 75.0375 74.325Z" fill="url(#paint8_linear)"/>
<defs>
<linearGradient id="paint0_linear" x1="57.5" y1="50" x2="57.5" y2="62.5" gradientUnits="userSpaceOnUse">
<stop stop-color="#00C2FF"/>
<stop offset="1" stop-color="#3DFFA2"/>
</linearGradient>
<linearGradient id="paint1_linear" x1="57.5" y1="46.25" x2="57.5" y2="66.25" gradientUnits="userSpaceOnUse">
<stop stop-color="#00C2FF"/>
<stop offset="1" stop-color="#3DFFA2"/>
</linearGradient>
<linearGradient id="paint2_linear" x1="20" y1="43.75" x2="20" y2="46.25" gradientUnits="userSpaceOnUse">
<stop stop-color="#00C2FF"/>
<stop offset="1" stop-color="#3DFFA2"/>
</linearGradient>
<linearGradient id="paint3_linear" x1="31.25" y1="43.75" x2="31.25" y2="46.25" gradientUnits="userSpaceOnUse">
<stop stop-color="#00C2FF"/>
<stop offset="1" stop-color="#3DFFA2"/>
</linearGradient>
<linearGradient id="paint4_linear" x1="21.875" y1="50" x2="21.875" y2="52.5" gradientUnits="userSpaceOnUse">
<stop stop-color="#00C2FF"/>
<stop offset="1" stop-color="#3DFFA2"/>
</linearGradient>
<linearGradient id="paint5_linear" x1="33.125" y1="50" x2="33.125" y2="52.5" gradientUnits="userSpaceOnUse">
<stop stop-color="#00C2FF"/>
<stop offset="1" stop-color="#3DFFA2"/>
</linearGradient>
<linearGradient id="paint6_linear" x1="27.5" y1="56.25" x2="27.5" y2="58.75" gradientUnits="userSpaceOnUse">
<stop stop-color="#00C2FF"/>
<stop offset="1" stop-color="#3DFFA2"/>
</linearGradient>
<linearGradient id="paint7_linear" x1="27.5" y1="62.5" x2="27.5" y2="65" gradientUnits="userSpaceOnUse">
<stop stop-color="#00C2FF"/>
<stop offset="1" stop-color="#3DFFA2"/>
</linearGradient>
<linearGradient id="paint8_linear" x1="40.0869" y1="2.5" x2="40.0869" y2="77.5" gradientUnits="userSpaceOnUse">
<stop stop-color="#00C2FF"/>
<stop offset="1" stop-color="#3DFFA2"/>
</linearGradient>
</defs>
</svg>
