<svg width="82" height="80" viewBox="0 0 82 80" fill="none" xmlns="http://www.w3.org/2000/svg">
<path d="M19.5218 17.479C19.2844 16.8717 18.6989 16.4718 18.0467 16.4717C18.0465 16.4717 18.0465 16.4717 18.0464 16.4717C17.3943 16.4717 16.8087 16.8712 16.571 17.4786L11.8936 29.4318C11.5747 30.2465 11.9767 31.1655 12.7915 31.4844C12.9811 31.5585 13.1764 31.5937 13.3684 31.5937C14.0016 31.5937 14.5994 31.2116 14.844 30.5865L15.6374 28.5593H20.4517L21.2441 30.586C21.5625 31.4009 22.4816 31.8034 23.2962 31.4845C24.1112 31.166 24.5134 30.2472 24.1949 29.4323L19.5218 17.479ZM16.8773 25.3908L18.0457 22.4047L19.2132 25.3908H16.8773Z" fill="url(#paint0_linear)"/>
<path d="M28.2755 31.5932C29.1503 31.5932 29.8597 30.884 29.8597 30.0091V18.0558C29.8597 17.1809 29.1503 16.4717 28.2755 16.4717C27.4008 16.4717 26.6914 17.1809 26.6914 18.0558V30.0091C26.6914 30.884 27.4008 31.5932 28.2755 31.5932Z" fill="url(#paint1_linear)"/>
<path d="M75.2609 36.7553C72.8282 36.7553 70.7658 38.3716 70.0874 40.5879H66.6394L65.327 34.9085C65.163 34.1993 64.5106 33.681 63.7835 33.681H60.6344C61.2641 31.7621 61.6939 29.6086 61.8198 27.1115L70.5248 27.1131C71.2035 29.3271 73.2654 30.9417 75.6978 30.9417C78.6809 30.9417 81.1078 28.5137 81.1078 25.5291C81.1078 22.5422 78.6809 20.1123 75.6978 20.1123C73.2651 20.1123 71.2028 21.7286 70.5245 23.9448L61.8148 23.9433C61.6944 21.6485 61.3142 19.45 60.6826 17.3732H63.7832C64.5105 17.3732 65.1624 16.8549 65.3266 16.1457L66.6391 10.4662H70.0876C70.7662 12.68 72.8285 14.2946 75.2608 14.2946C78.2464 14.2946 80.6752 11.8666 80.6752 8.88208C80.6752 5.89757 78.2464 3.46972 75.2608 3.46972C72.8285 3.46972 70.7664 5.08411 70.0876 7.29794H65.3794C64.6562 7.29794 64.0473 7.78316 63.8577 8.44549C63.8499 8.4702 63.8426 8.4965 63.836 8.52549L62.5235 14.2049H59.4813C58.3891 11.8279 56.9296 9.6526 55.1186 7.72582C54.5197 7.0882 53.5172 7.05715 52.8794 7.65643C52.242 8.25571 52.2108 9.25815 52.8101 9.89561C54.0393 11.2035 55.0823 12.6466 55.9341 14.2049H50.8921C50.0174 14.2049 49.308 14.9142 49.308 15.7891C49.308 16.664 50.0174 17.3732 50.8921 17.3732H57.3456C58.0688 19.4239 58.5047 21.6249 58.6419 23.9426L48.8548 23.9407C48.8546 23.9407 48.8546 23.9407 48.8545 23.9407C47.9797 23.9407 47.2705 24.6498 47.2703 25.5245C47.2702 26.3995 47.9794 27.1088 48.8541 27.109L58.6446 27.1109C58.4988 29.6538 57.996 31.7882 57.2634 33.681H50.8923C50.0175 33.681 49.3082 34.3902 49.3082 35.2651C49.3082 36.14 50.0175 36.8492 50.8923 36.8492H55.7336C54.7527 38.5484 53.6132 40.1016 52.4495 41.6859C49.9691 45.063 47.4121 48.5471 46.3669 53.6208H27.6307C27.0681 50.8945 26.0808 48.6621 24.9929 46.7666C26.3597 46.4065 27.372 45.1632 27.372 43.6845V43.2298C28.6398 42.8533 29.861 42.346 31.0228 41.7136L31.3469 42.0381C31.9482 42.6396 32.7492 42.9708 33.6022 42.9708C34.4553 42.9708 35.2562 42.6396 35.8576 42.0379L39.0368 38.8565C40.2797 37.6129 40.2797 35.5894 39.0368 34.3458L38.7116 34.0204C39.3439 32.8575 39.851 31.6349 40.2276 30.3658H40.6806C42.4393 30.3658 43.8701 28.9346 43.8701 27.1754V22.6779C43.8701 20.9187 42.4393 19.4874 40.6806 19.4874H40.2276C39.851 18.2183 39.3439 16.9959 38.7116 15.8328L39.0368 15.5074C40.2795 14.2639 40.2795 12.2404 39.0368 10.9967L35.8576 7.81532C35.2562 7.21383 34.4553 6.88258 33.6022 6.88258C32.7492 6.88258 31.9482 7.21382 31.3469 7.81548L31.0228 8.13975C29.8608 7.50721 28.6398 7.00012 27.372 6.62358V6.16893C27.372 5.90184 27.3354 5.64363 27.2733 5.39539C30.3091 3.89015 33.6361 3.12263 36.9801 3.17047C36.9947 3.17063 37.0091 3.17063 37.0235 3.17047C38.5761 3.1502 40.1332 3.30449 41.6557 3.63082C42.5109 3.81363 43.3532 3.26917 43.5365 2.41357C43.7196 1.55814 43.1749 0.716013 42.3193 0.532728C40.5723 0.158397 38.7833 -0.0206109 37.0027 0.00220067C32.7964 -0.0549867 28.6299 1.00338 24.898 3.06228C24.6675 3.00921 24.4288 2.97832 24.1825 2.97832H19.6878C17.9291 2.97832 16.4983 4.40959 16.4983 6.16877V6.62342C15.2305 6.99997 14.0095 7.50705 12.8475 8.13959L12.5234 7.81532C11.9221 7.21383 11.1211 6.88258 10.2681 6.88258C9.415 6.88258 8.61406 7.21382 8.01272 7.81548L4.83352 10.9974C3.59076 12.2409 3.59076 14.2643 4.83352 15.508L5.15874 15.8334C4.52635 16.9965 4.01927 18.219 3.64272 19.488H3.18966C1.43079 19.4879 0 20.9191 0 22.6783V27.1758C0 28.935 1.43079 30.3663 3.1895 30.3663H3.64256C4.01911 31.6354 4.5262 32.858 5.15858 34.0209L4.83336 34.3463C3.59045 35.5898 3.59045 37.6134 4.83336 38.857L8.01256 42.0384C8.6139 42.6399 9.41484 42.9711 10.2679 42.9711C11.121 42.9711 11.9219 42.6399 12.5232 42.0382L12.8473 41.7139C14.0092 42.3463 15.2304 42.8536 16.4982 43.2301V43.6848C16.4982 45.444 17.9289 46.8752 19.6877 46.8752H21.3413C22.6668 48.9047 23.9865 51.3786 24.5944 54.5923C23.321 55.5178 22.4911 57.0173 22.4911 58.7078C22.4911 60.0659 23.0264 61.3004 23.8956 62.2141C23.0264 63.127 22.4911 64.3605 22.4911 65.7174C22.4911 68.0993 24.1378 70.1031 26.3527 70.6536V73.8201C26.3527 77.2278 29.1237 80 32.5296 80H41.47C44.8784 80 47.6515 77.2278 47.6515 73.8201V70.6533C49.864 70.1025 51.5087 68.0989 51.5087 65.7174C51.5087 64.3606 50.9739 63.1272 50.1053 62.2141C50.9739 61.3004 51.5087 60.0659 51.5087 58.7078C51.5087 57.0161 50.6781 55.5156 49.4045 54.5903C50.2659 50.0126 52.5705 46.8735 55.003 43.5618C56.5356 41.4752 58.0909 39.3549 59.3326 36.8495H62.5237L63.8361 42.529C64.0001 43.2384 64.6523 43.7565 65.3795 43.7565H70.0878C70.7664 45.9704 72.8286 47.5848 75.2609 47.5848C78.2465 47.5848 80.6753 45.1568 80.6753 42.1724C80.6753 39.1852 78.2465 36.7553 75.2609 36.7553ZM75.6978 23.2808C76.9339 23.2808 77.9395 24.2896 77.9395 25.5293C77.9395 26.7668 76.9338 27.7735 75.6978 27.7735C74.4619 27.7735 73.4563 26.7668 73.4563 25.5293C73.4561 24.2896 74.4617 23.2808 75.6978 23.2808ZM75.2609 6.63815C76.4994 6.63815 77.5071 7.64487 77.5071 8.88224C77.5071 10.1198 76.4995 11.1265 75.2609 11.1265C74.0248 11.1265 73.0192 10.1198 73.0192 8.88224C73.019 7.64487 74.0248 6.63815 75.2609 6.63815ZM24.2037 42.007V43.6846C24.2037 43.6938 24.1899 43.7068 24.1825 43.7068H22.1862C22.1827 43.7068 22.1792 43.7068 22.1755 43.7068H19.6878C19.6804 43.7068 19.6666 43.6938 19.6666 43.6846V42.007C19.6666 41.2663 19.1533 40.6245 18.4308 40.4617C16.6567 40.0619 14.9783 39.3647 13.4425 38.3896C13.1814 38.2238 12.8868 38.1428 12.594 38.1428C12.1847 38.1428 11.7788 38.3012 11.4731 38.6071L10.2825 39.7984C10.2757 39.8054 10.2605 39.8052 10.2536 39.7984L7.07444 36.617C7.06842 36.611 7.06842 36.5916 7.07444 36.5856L8.26508 35.3942C8.78911 34.8698 8.8794 34.0523 8.48242 33.4262C7.50802 31.889 6.81115 30.2095 6.41148 28.434C6.24879 27.7111 5.60689 27.1977 4.86599 27.1977H3.1895C3.18206 27.1977 3.16827 27.1847 3.16827 27.1755V22.678C3.16827 22.6688 3.18206 22.6558 3.1895 22.6558H4.86599C5.60689 22.6558 6.24879 22.1424 6.41148 21.4196C6.81115 19.6442 7.50802 17.9646 8.48242 16.4273C8.8794 15.8011 8.78911 14.9835 8.26508 14.4594L7.07444 13.2681C7.06826 13.2619 7.06826 13.2426 7.07444 13.2366L10.2536 10.0553C10.2605 10.0485 10.2757 10.0486 10.2825 10.0553L11.4731 11.2466C11.9978 11.7714 12.8163 11.8617 13.4427 11.4642C14.9786 10.4892 16.657 9.79201 18.4308 9.39217C19.1535 9.22932 19.6667 8.58743 19.6667 7.84685V6.16924C19.6667 6.16006 19.6805 6.14707 19.688 6.14707H24.1826C24.1901 6.14707 24.2039 6.16006 24.2039 6.16924V7.84685C24.2039 8.58759 24.7171 9.22948 25.4398 9.39217C27.2136 9.79185 28.892 10.489 30.4279 11.4642C31.054 11.8618 31.8728 11.7715 32.3975 11.2466L33.5881 10.0553C33.5949 10.0485 33.6102 10.0486 33.617 10.0553L36.7962 13.2366C36.8023 13.2427 36.8023 13.2621 36.7962 13.2681L35.6055 14.4594C35.0815 14.9837 34.9912 15.8013 35.3882 16.4273C36.3626 17.9646 37.0595 19.6442 37.4591 21.4196C37.6218 22.1424 38.2637 22.6558 39.0046 22.6558H40.6811C40.6886 22.6558 40.7023 22.6688 40.7023 22.678V27.1755C40.7023 27.1847 40.6886 27.1977 40.6811 27.1977H39.0046C38.2637 27.1977 37.6218 27.7111 37.4591 28.434C37.0595 30.2095 36.3626 31.889 35.3882 33.4262C34.9912 34.0523 35.0815 34.8698 35.6055 35.3942L36.7962 36.5856C36.8022 36.5916 36.8022 36.611 36.7962 36.617L33.617 39.7983C33.6102 39.8051 33.5949 39.8051 33.5881 39.7983L32.3975 38.6068C31.8728 38.082 31.0541 37.9915 30.4279 38.3892C28.8921 39.3642 27.2137 40.0614 25.4397 40.4612C24.717 40.6245 24.2037 41.2663 24.2037 42.007ZM44.4834 73.82C44.4834 75.4805 43.1318 76.8316 41.4702 76.8316H32.5298C30.8707 76.8316 29.5212 75.4806 29.5212 73.82V70.8039H44.4832V73.82H44.4834ZM46.4242 67.6357H27.5805C26.5213 67.6357 25.6597 66.775 25.6597 65.7173C25.6597 64.6594 26.5213 63.7989 27.5805 63.7989H46.4242C47.4809 63.7989 48.3406 64.6595 48.3406 65.7173C48.3404 66.775 47.4809 67.6357 46.4242 67.6357ZM46.4242 60.6306H27.5805C26.5213 60.6306 25.6597 59.768 25.6597 58.7078C25.6597 57.6499 26.5213 56.7894 27.5805 56.7894H46.4242C47.4809 56.7894 48.3406 57.65 48.3406 58.7078C48.3404 59.7679 47.4809 60.6306 46.4242 60.6306ZM75.2609 44.4162C74.0248 44.4162 73.0192 43.4094 73.0192 42.1721C73.0192 40.9322 74.025 39.9236 75.2609 39.9236C76.4994 39.9236 77.5071 40.9323 77.5071 42.1721C77.5071 43.4094 76.4994 44.4162 75.2609 44.4162Z" fill="url(#paint2_linear)"/>
<path d="M47.7444 5.93132L47.7534 5.93575C47.9802 6.04918 48.2209 6.10288 48.4578 6.10288C49.0381 6.10288 49.5964 5.78066 49.8741 5.22495C50.2653 4.44239 49.9436 3.48858 49.161 3.09729C48.3786 2.70601 47.4269 3.02316 47.0358 3.80572C46.6445 4.5886 46.9616 5.54003 47.7444 5.93132Z" fill="url(#paint3_linear)"/>
<defs>
<linearGradient id="paint0_linear" x1="18.0441" y1="16.4717" x2="18.0441" y2="31.5939" gradientUnits="userSpaceOnUse">
<stop stop-color="#00C2FF"/>
<stop offset="1" stop-color="#3DFFA2"/>
</linearGradient>
<linearGradient id="paint1_linear" x1="28.2755" y1="16.4717" x2="28.2755" y2="31.5932" gradientUnits="userSpaceOnUse">
<stop stop-color="#00C2FF"/>
<stop offset="1" stop-color="#3DFFA2"/>
</linearGradient>
<linearGradient id="paint2_linear" x1="40.5539" y1="0" x2="40.5539" y2="80" gradientUnits="userSpaceOnUse">
<stop stop-color="#00C2FF"/>
<stop offset="1" stop-color="#3DFFA2"/>
</linearGradient>
<linearGradient id="paint3_linear" x1="48.4545" y1="2.92969" x2="48.4545" y2="6.10288" gradientUnits="userSpaceOnUse">
<stop stop-color="#00C2FF"/>
<stop offset="1" stop-color="#3DFFA2"/>
</linearGradient>
</defs>
</svg>
