<svg width="289" height="240" viewBox="0 0 289 240" fill="none" xmlns="http://www.w3.org/2000/svg">
<path d="M63.1431 208.16C64.1556 207.62 64.8081 206.675 64.8081 205.258C64.8081 202.873 63.0081 201.5 60.7356 201.5H55.0206V215H61.2531C63.5031 215 65.2581 213.695 65.2581 211.31C65.2581 209.668 64.4031 208.655 63.1431 208.16ZM61.8381 205.572C61.8381 206.36 61.1856 207.035 60.3756 207.035H57.9906V204.133H60.3756C61.1856 204.133 61.8381 204.763 61.8381 205.572ZM60.8256 212.368H57.9906V209.465H60.8256C61.6581 209.465 62.2881 210.14 62.2881 210.928C62.2881 211.738 61.6581 212.368 60.8256 212.368ZM73.0622 215.18C76.2572 215.18 78.6872 213.223 78.6872 210.68V201.5H75.7172V210.118C75.7172 211.49 74.5697 212.547 73.0622 212.547C71.5772 212.547 70.4297 211.49 70.4297 210.118V201.5H67.4597V210.68C67.4597 213.223 69.9122 215.18 73.0622 215.18ZM85.7256 215.18C88.2456 215.18 90.3831 213.695 90.3831 211.175C90.3831 206.18 84.1731 207.418 84.1731 205.078C84.1731 204.312 84.7581 203.953 85.4781 203.953C86.2431 203.953 87.0081 204.38 87.6831 205.123L89.6631 203.232C88.6731 202.085 87.1656 201.32 85.5006 201.32C83.3631 201.32 81.1806 202.603 81.1806 205.303C81.1806 209.893 87.4131 208.79 87.4131 211.153C87.4131 211.895 86.7831 212.39 85.7481 212.39C84.5106 212.39 83.5431 211.693 83.0481 210.635L80.5956 212.165C81.4731 213.853 83.3631 215.18 85.7256 215.18ZM92.6353 215H95.6053V201.5H92.6353V215ZM108.346 201.5V210.433L101.709 201.5H98.6485V215H101.619V206.045L108.234 215H111.294V201.5H108.346ZM122.501 204.11V201.5H114.379V215H122.501V212.39H117.349V209.555H121.759V206.945H117.349V204.11H122.501ZM129.195 215.18C131.715 215.18 133.853 213.695 133.853 211.175C133.853 206.18 127.643 207.418 127.643 205.078C127.643 204.312 128.228 203.953 128.948 203.953C129.713 203.953 130.478 204.38 131.153 205.123L133.133 203.232C132.143 202.085 130.635 201.32 128.97 201.32C126.833 201.32 124.65 202.603 124.65 205.303C124.65 209.893 130.883 208.79 130.883 211.153C130.883 211.895 130.253 212.39 129.218 212.39C127.98 212.39 127.013 211.693 126.518 210.635L124.065 212.165C124.943 213.853 126.833 215.18 129.195 215.18ZM140.155 215.18C142.675 215.18 144.813 213.695 144.813 211.175C144.813 206.18 138.603 207.418 138.603 205.078C138.603 204.312 139.188 203.953 139.908 203.953C140.673 203.953 141.438 204.38 142.113 205.123L144.093 203.232C143.103 202.085 141.595 201.32 139.93 201.32C137.793 201.32 135.61 202.603 135.61 205.303C135.61 209.893 141.843 208.79 141.843 211.153C141.843 211.895 141.213 212.39 140.178 212.39C138.94 212.39 137.973 211.693 137.478 210.635L135.025 212.165C135.903 213.853 137.793 215.18 140.155 215.18ZM159.074 215.18C162.921 215.18 166.004 212.075 166.004 208.25C166.004 204.425 162.921 201.32 159.074 201.32C155.249 201.32 152.144 204.425 152.144 208.25C152.144 212.075 155.249 215.18 159.074 215.18ZM159.074 212.278C156.801 212.278 155.069 210.522 155.069 208.25C155.069 205.978 156.801 204.223 159.074 204.223C161.369 204.223 163.101 205.978 163.101 208.25C163.101 210.522 161.369 212.278 159.074 212.278ZM182.822 201.5L180.415 210.86L177.827 201.5H177.422H174.947L172.382 210.905L169.952 201.5H166.825L170.515 215H173.935L176.387 205.505L178.84 215H182.26L185.95 201.5H182.822ZM196.947 201.5V210.433L190.309 201.5H187.249V215H190.219V206.045L196.834 215H199.894V201.5H196.947ZM211.102 204.11V201.5H202.98V215H211.102V212.39H205.95V209.555H210.36V206.945H205.95V204.11H211.102ZM220.676 209.442C222.274 208.97 223.399 207.485 223.399 205.64C223.399 203.345 221.689 201.5 219.371 201.5H213.634V215H216.604V209.78H217.796L221.126 215H224.456L220.676 209.442ZM218.921 207.328H216.604V204.133H218.921C219.866 204.133 220.564 204.808 220.564 205.73C220.564 206.675 219.866 207.328 218.921 207.328ZM230.127 215.18C232.647 215.18 234.784 213.695 234.784 211.175C234.784 206.18 228.574 207.418 228.574 205.078C228.574 204.312 229.159 203.953 229.879 203.953C230.644 203.953 231.409 204.38 232.084 205.123L234.064 203.232C233.074 202.085 231.567 201.32 229.902 201.32C227.764 201.32 225.582 202.603 225.582 205.303C225.582 209.893 231.814 208.79 231.814 211.153C231.814 211.895 231.184 212.39 230.149 212.39C228.912 212.39 227.944 211.693 227.449 210.635L224.997 212.165C225.874 213.853 227.764 215.18 230.127 215.18Z" fill="white"/>
<mask id="path-2-inside-1" fill="white">
<path d="M182.684 121.229C181.713 121.229 180.926 122.016 180.926 122.987V139.513C180.926 140.048 180.491 140.484 179.956 140.484H170.507V105.867C170.507 104.897 169.72 104.11 168.749 104.11C167.778 104.11 166.991 104.897 166.991 105.867V140.484H147.963L153.481 134.414C154.084 133.751 154.368 132.806 154.241 131.886C154.239 131.868 154.236 131.85 154.233 131.832L148.978 100.785L150.394 98.6538C151.177 99.2098 151.78 99.7451 152.91 99.7451C154.061 99.7451 155.136 99.1012 155.666 98.0414V98.0412L161.208 86.9318L173.836 91.822C174.292 92.018 180.926 95.0053 180.926 102.893V114.783C180.926 115.754 181.713 116.541 182.684 116.541C183.655 116.541 184.442 115.754 184.442 114.783V102.893C184.442 92.5003 175.543 88.7224 175.164 88.5666C175.153 88.5619 175.142 88.5574 175.13 88.5532L154.114 80.4143V75.4854C157.452 72.8895 159.767 69.0412 160.348 64.6509C162.012 64.5337 163.556 63.9122 164.818 62.8277C166.465 61.4114 167.41 59.3501 167.41 57.1732C167.41 55.3666 166.758 53.6416 165.596 52.2975V45.7859C165.596 33.7732 155.823 24 143.81 24C131.798 24 122.025 33.7732 122.025 45.7859V52.4681C120.851 53.7987 120.212 55.4365 120.212 57.173C120.212 59.3505 121.157 61.4116 122.804 62.8282C124.064 63.9122 125.608 64.533 127.272 64.6505C127.857 69.123 130.239 73.1147 133.862 75.7455V80.4143L112.868 88.553C112.857 88.5572 112.846 88.5616 112.835 88.5661C112.456 88.722 103.558 92.4998 103.558 102.893V139.513C103.558 141.987 105.57 143.999 108.044 143.999H124.792C125.763 143.999 126.55 143.212 126.55 142.241C126.55 141.271 125.763 140.484 124.792 140.484H121.01V105.867C121.01 104.897 120.223 104.11 119.252 104.11C118.281 104.11 117.494 104.897 117.494 105.867V140.484H108.044C107.509 140.484 107.074 140.049 107.074 139.514V102.893C107.074 94.9786 113.752 91.998 114.162 91.8227L126.779 86.9313L132.323 98.0412C132.853 99.1036 133.93 99.7451 135.078 99.7451C136.203 99.7451 136.8 99.218 137.595 98.6538L139.011 100.785L133.756 131.832C133.753 131.85 133.75 131.868 133.747 131.885C133.62 132.805 133.905 133.75 134.508 134.414L140.026 140.484H132.996C132.025 140.484 131.238 141.271 131.238 142.242C131.238 143.213 132.025 144 132.996 144H179.956C182.43 144 184.443 141.987 184.443 139.514V122.987C184.442 122.016 183.655 121.229 182.684 121.229ZM157.916 85.6568L152.748 96.0138C152.62 95.9227 149.881 93.9769 146.533 91.5996C147.986 89.8064 146.286 91.9041 152.916 83.7206L157.916 85.6568ZM147.525 96.6171L146.185 98.6344H141.802L140.462 96.6171L143.994 94.1086L147.525 96.6171ZM137.377 80.9815V77.6918C139.513 78.5527 141.795 78.9518 144.024 78.9518C146.328 78.9518 148.589 78.4605 150.599 77.5816V80.9958L143.994 89.1485L137.377 80.9815ZM163.894 57.1732C163.893 58.3247 163.395 59.4143 162.525 60.1622C161.95 60.6567 161.256 60.9729 160.495 61.0966V53.2505C162.516 53.5786 163.894 55.2544 163.894 57.1732ZM127.126 61.0966C125.083 60.765 123.728 59.0756 123.728 57.173C123.728 55.2937 125.286 53.7642 127.126 53.3388V61.0966ZM127.221 49.7569C126.661 49.8211 126.019 49.9727 125.541 50.1354V45.7859C125.541 35.7117 133.736 27.5159 143.811 27.5159C153.885 27.5159 162.08 35.7117 162.08 45.7859V50.0147C161.569 49.8593 161.039 49.7566 160.496 49.7084C160.496 48.0122 160.51 48.3394 154.961 42.3738C153.941 41.2774 152.253 41.0477 150.968 41.887C144.844 45.8876 137.373 47.8973 130.481 47.4023C128.969 47.2891 127.591 48.285 127.221 49.7569ZM130.642 62.4806V51.5138V50.936C138.23 51.3804 146.186 49.1262 152.612 45.0103C155.157 47.7427 156.535 49.1759 156.98 49.721C156.98 51.1001 156.98 60.9019 156.98 62.4804C156.98 69.6164 151.161 75.4357 144.024 75.4357C136.01 75.4359 130.642 69.2189 130.642 62.4806ZM135.239 96.0138L130.072 85.6568L135.062 83.7239L141.447 91.6048C138.2 93.9103 135.534 95.8045 135.239 96.0138ZM137.256 132.211L142.344 102.15H145.642L150.73 132.211L143.993 139.623L137.256 132.211Z"/>
</mask>
<path d="M182.684 121.229C181.713 121.229 180.926 122.016 180.926 122.987V139.513C180.926 140.048 180.491 140.484 179.956 140.484H170.507V105.867C170.507 104.897 169.72 104.11 168.749 104.11C167.778 104.11 166.991 104.897 166.991 105.867V140.484H147.963L153.481 134.414C154.084 133.751 154.368 132.806 154.241 131.886C154.239 131.868 154.236 131.85 154.233 131.832L148.978 100.785L150.394 98.6538C151.177 99.2098 151.78 99.7451 152.91 99.7451C154.061 99.7451 155.136 99.1012 155.666 98.0414V98.0412L161.208 86.9318L173.836 91.822C174.292 92.018 180.926 95.0053 180.926 102.893V114.783C180.926 115.754 181.713 116.541 182.684 116.541C183.655 116.541 184.442 115.754 184.442 114.783V102.893C184.442 92.5003 175.543 88.7224 175.164 88.5666C175.153 88.5619 175.142 88.5574 175.13 88.5532L154.114 80.4143V75.4854C157.452 72.8895 159.767 69.0412 160.348 64.6509C162.012 64.5337 163.556 63.9122 164.818 62.8277C166.465 61.4114 167.41 59.3501 167.41 57.1732C167.41 55.3666 166.758 53.6416 165.596 52.2975V45.7859C165.596 33.7732 155.823 24 143.81 24C131.798 24 122.025 33.7732 122.025 45.7859V52.4681C120.851 53.7987 120.212 55.4365 120.212 57.173C120.212 59.3505 121.157 61.4116 122.804 62.8282C124.064 63.9122 125.608 64.533 127.272 64.6505C127.857 69.123 130.239 73.1147 133.862 75.7455V80.4143L112.868 88.553C112.857 88.5572 112.846 88.5616 112.835 88.5661C112.456 88.722 103.558 92.4998 103.558 102.893V139.513C103.558 141.987 105.57 143.999 108.044 143.999H124.792C125.763 143.999 126.55 143.212 126.55 142.241C126.55 141.271 125.763 140.484 124.792 140.484H121.01V105.867C121.01 104.897 120.223 104.11 119.252 104.11C118.281 104.11 117.494 104.897 117.494 105.867V140.484H108.044C107.509 140.484 107.074 140.049 107.074 139.514V102.893C107.074 94.9786 113.752 91.998 114.162 91.8227L126.779 86.9313L132.323 98.0412C132.853 99.1036 133.93 99.7451 135.078 99.7451C136.203 99.7451 136.8 99.218 137.595 98.6538L139.011 100.785L133.756 131.832C133.753 131.85 133.75 131.868 133.747 131.885C133.62 132.805 133.905 133.75 134.508 134.414L140.026 140.484H132.996C132.025 140.484 131.238 141.271 131.238 142.242C131.238 143.213 132.025 144 132.996 144H179.956C182.43 144 184.443 141.987 184.443 139.514V122.987C184.442 122.016 183.655 121.229 182.684 121.229ZM157.916 85.6568L152.748 96.0138C152.62 95.9227 149.881 93.9769 146.533 91.5996C147.986 89.8064 146.286 91.9041 152.916 83.7206L157.916 85.6568ZM147.525 96.6171L146.185 98.6344H141.802L140.462 96.6171L143.994 94.1086L147.525 96.6171ZM137.377 80.9815V77.6918C139.513 78.5527 141.795 78.9518 144.024 78.9518C146.328 78.9518 148.589 78.4605 150.599 77.5816V80.9958L143.994 89.1485L137.377 80.9815ZM163.894 57.1732C163.893 58.3247 163.395 59.4143 162.525 60.1622C161.95 60.6567 161.256 60.9729 160.495 61.0966V53.2505C162.516 53.5786 163.894 55.2544 163.894 57.1732ZM127.126 61.0966C125.083 60.765 123.728 59.0756 123.728 57.173C123.728 55.2937 125.286 53.7642 127.126 53.3388V61.0966ZM127.221 49.7569C126.661 49.8211 126.019 49.9727 125.541 50.1354V45.7859C125.541 35.7117 133.736 27.5159 143.811 27.5159C153.885 27.5159 162.08 35.7117 162.08 45.7859V50.0147C161.569 49.8593 161.039 49.7566 160.496 49.7084C160.496 48.0122 160.51 48.3394 154.961 42.3738C153.941 41.2774 152.253 41.0477 150.968 41.887C144.844 45.8876 137.373 47.8973 130.481 47.4023C128.969 47.2891 127.591 48.285 127.221 49.7569ZM130.642 62.4806V51.5138V50.936C138.23 51.3804 146.186 49.1262 152.612 45.0103C155.157 47.7427 156.535 49.1759 156.98 49.721C156.98 51.1001 156.98 60.9019 156.98 62.4804C156.98 69.6164 151.161 75.4357 144.024 75.4357C136.01 75.4359 130.642 69.2189 130.642 62.4806ZM135.239 96.0138L130.072 85.6568L135.062 83.7239L141.447 91.6048C138.2 93.9103 135.534 95.8045 135.239 96.0138ZM137.256 132.211L142.344 102.15H145.642L150.73 132.211L143.993 139.623L137.256 132.211Z" fill="url(#paint0_linear)" stroke="#242728" stroke-width="2" mask="url(#path-2-inside-1)"/>
<rect x="68.5" y="0.5" width="151" height="167" rx="9.5" stroke="url(#paint1_linear)"/>
<defs>
<linearGradient id="paint0_linear" x1="144" y1="24" x2="144" y2="144" gradientUnits="userSpaceOnUse">
<stop stop-color="#00C2FF"/>
<stop offset="1" stop-color="#3DFFA2"/>
</linearGradient>
<linearGradient id="paint1_linear" x1="57.218" y1="-11.2" x2="160.139" y2="218.574" gradientUnits="userSpaceOnUse">
<stop stop-color="#00C2FF"/>
<stop offset="1" stop-color="#3DFFA2"/>
</linearGradient>
</defs>
</svg>
