<svg width="80" height="80" viewBox="0 0 80 80" fill="none" xmlns="http://www.w3.org/2000/svg">
<path d="M10 7.5H7.5V10H10V7.5Z" fill="url(#paint0_linear)"/>
<path d="M15 7.5H12.5V10H15V7.5Z" fill="url(#paint1_linear)"/>
<path d="M20 7.5H17.5V10H20V7.5Z" fill="url(#paint2_linear)"/>
<path d="M57.5 37.5C57.1685 37.5 56.8505 37.6317 56.6161 37.8661C56.3817 38.1005 56.25 38.4185 56.25 38.75V40C56.25 40.3315 56.3817 40.6495 56.6161 40.8839C56.8505 41.1183 57.1685 41.25 57.5 41.25C57.8315 41.25 58.1495 41.1183 58.3839 40.8839C58.6183 40.6495 58.75 40.3315 58.75 40V38.75C58.75 38.4185 58.6183 38.1005 58.3839 37.8661C58.1495 37.6317 57.8315 37.5 57.5 37.5Z" fill="url(#paint3_linear)"/>
<path d="M65 37.5C64.6685 37.5 64.3505 37.6317 64.1161 37.8661C63.8817 38.1005 63.75 38.4185 63.75 38.75V40C63.75 40.3315 63.8817 40.6495 64.1161 40.8839C64.3505 41.1183 64.6685 41.25 65 41.25C65.3315 41.25 65.6495 41.1183 65.8839 40.8839C66.1183 40.6495 66.25 40.3315 66.25 40V38.75C66.25 38.4185 66.1183 38.1005 65.8839 37.8661C65.6495 37.6317 65.3315 37.5 65 37.5Z" fill="url(#paint4_linear)"/>
<path d="M71.25 56.25H66.25V53.65C67.7683 52.7727 69.0293 51.5118 69.9069 49.9937C70.7844 48.4756 71.2476 46.7535 71.25 45V43.75H72.5C73.4937 43.747 74.4458 43.351 75.1484 42.6484C75.851 41.9458 76.247 40.9936 76.25 40V38.75C76.247 37.7564 75.851 36.8042 75.1484 36.1016C74.4458 35.399 73.4937 35.003 72.5 35H71.25V30C71.2483 29.4756 71.1361 28.9574 70.9207 28.4793C70.7053 28.0012 70.3916 27.5738 70 27.225V3.75C70 3.41848 69.8683 3.10054 69.6339 2.86612C69.3995 2.6317 69.0815 2.5 68.75 2.5H3.75C3.41848 2.5 3.10054 2.6317 2.86612 2.86612C2.6317 3.10054 2.5 3.41848 2.5 3.75V61.25C2.5 61.5815 2.6317 61.8995 2.86612 62.1339C3.10054 62.3683 3.41848 62.5 3.75 62.5H7.5C7.50297 63.4936 7.89901 64.4458 8.60163 65.1484C9.30425 65.851 10.2564 66.247 11.25 66.25H12.5V72.5C12.4997 72.7048 12.5497 72.9064 12.6456 73.0874C12.7415 73.2683 12.8804 73.4228 13.05 73.5375C13.2577 73.675 13.501 73.7488 13.75 73.75C13.9085 73.7524 14.0658 73.7227 14.2125 73.6625L26.4875 68.75H28.9125L30.0125 76.425C30.0547 76.7232 30.2031 76.9962 30.4304 77.1937C30.6578 77.3912 30.9488 77.5 31.25 77.5H35C35.3315 77.5 35.6495 77.3683 35.8839 77.1339C36.1183 76.8995 36.25 76.5815 36.25 76.25V66.25H38.75C39.0815 66.25 39.3995 66.1183 39.6339 65.8839C39.8683 65.6495 40 65.3315 40 65V62.5H45V76.25C45 76.5815 45.1317 76.8995 45.3661 77.1339C45.6005 77.3683 45.9185 77.5 46.25 77.5H76.25C76.5815 77.5 76.8995 77.3683 77.1339 77.1339C77.3683 76.8995 77.5 76.5815 77.5 76.25V62.5C77.5 60.8424 76.8415 59.2527 75.6694 58.0806C74.4973 56.9085 72.9076 56.25 71.25 56.25ZM71.25 37.5H72.5C72.8315 37.5 73.1495 37.6317 73.3839 37.8661C73.6183 38.1005 73.75 38.4185 73.75 38.75V40C73.75 40.3315 73.6183 40.6495 73.3839 40.8839C73.1495 41.1183 72.8315 41.25 72.5 41.25H71.25V37.5ZM69.725 64.3625L64.525 66.9625L68.425 60.475L69.725 64.3625ZM66.5375 58.75L64.2875 62.5125L63.0125 61.25L65.5125 58.75H66.5375ZM55.9625 58.75H56.9875L59.4875 61.25L58.2125 62.5125L55.9625 58.75ZM57.975 66.9625L52.775 64.3625L54.075 60.475L57.975 66.9625ZM58.75 56.9875V54.675C60.3885 55.1084 62.1115 55.1084 63.75 54.675V56.9875L61.25 59.4875L58.75 56.9875ZM68.75 45C68.75 46.9891 67.9598 48.8968 66.5533 50.3033C65.1468 51.7098 63.2391 52.5 61.25 52.5C59.2609 52.5 57.3532 51.7098 55.9467 50.3033C54.5402 48.8968 53.75 46.9891 53.75 45V35H68.75V45ZM68.75 30V32.5H52.5C51.5064 32.497 50.5542 32.101 49.8516 31.3984C49.149 30.6958 48.753 29.7436 48.75 28.75H67.5C67.8315 28.75 68.1495 28.8817 68.3839 29.1161C68.6183 29.3505 68.75 29.6685 68.75 30ZM5 5H67.5V12.5H5V5ZM12.5 63.75H11.25C10.9185 63.75 10.6005 63.6183 10.3661 63.3839C10.1317 63.1495 10 62.8315 10 62.5C10 62.1685 10.1317 61.8505 10.3661 61.6161C10.6005 61.3817 10.9185 61.25 11.25 61.25H12.5V63.75ZM25 66.65L15 70.65V54.35L25 58.35V66.65ZM33.75 75H32.3375L31.4375 68.75H33.75V75ZM33.75 66.25H27.5V58.75H33.75V66.25ZM37.5 63.75H36.25V61.25H37.5V63.75ZM45.525 60H40C40 59.6685 39.8683 59.3505 39.6339 59.1161C39.3995 58.8817 39.0815 58.75 38.75 58.75H36.25V57.5C36.25 57.1685 36.1183 56.8505 35.8839 56.6161C35.6495 56.3817 35.3315 56.25 35 56.25H26.4875L14.2125 51.3375C14.0228 51.2642 13.8183 51.2373 13.6161 51.259C13.4139 51.2808 13.2198 51.3505 13.05 51.4625C12.8804 51.5772 12.7415 51.7317 12.6456 51.9126C12.5497 52.0936 12.4997 52.2952 12.5 52.5V58.75H11.25C10.7256 58.7517 10.2074 58.8639 9.7293 59.0793C9.25117 59.2947 8.82378 59.6084 8.475 60H5V15H67.5V26.25H47.5C47.1685 26.25 46.8505 26.3817 46.6161 26.6161C46.3817 26.8505 46.25 27.1685 46.25 27.5V28.75C46.2537 30.1898 46.7527 31.5844 47.6631 32.6997C48.5736 33.8151 49.8401 34.5831 51.25 34.875V35H50C49.0064 35.003 48.0542 35.399 47.3516 36.1016C46.649 36.8042 46.253 37.7564 46.25 38.75V40C46.253 40.9936 46.649 41.9458 47.3516 42.6484C48.0542 43.351 49.0064 43.747 50 43.75H51.25V45C51.2524 46.7535 51.7156 48.4756 52.5931 49.9937C53.4707 51.5118 54.7317 52.7727 56.25 53.65V56.25H51.25C50.0349 56.2528 48.8469 56.6088 47.8305 57.2746C46.814 57.9404 46.0131 58.8873 45.525 60ZM51.25 37.5V41.25H50C49.6685 41.25 49.3505 41.1183 49.1161 40.8839C48.8817 40.6495 48.75 40.3315 48.75 40V38.75C48.75 38.4185 48.8817 38.1005 49.1161 37.8661C49.3505 37.6317 49.6685 37.5 50 37.5H51.25ZM60 75H53.75V71.25H51.25V75H47.5V62.5C47.503 61.5064 47.899 60.5542 48.6016 59.8516C49.3042 59.149 50.2564 58.753 51.25 58.75H52.0125L50.0625 64.6C49.9674 64.8851 49.9783 65.195 50.0931 65.4728C50.2079 65.7505 50.4189 65.9776 50.6875 66.1125L60 70.775V75ZM59.5375 64.725L61.25 63.0125L62.9625 64.725L61.25 67.575L59.5375 64.725ZM75 75H71.25V71.25H68.75V75H62.5V70.775L71.8125 66.1125C72.0811 65.9776 72.2921 65.7505 72.4069 65.4728C72.5217 65.195 72.5326 64.8851 72.4375 64.6L70.4875 58.75H71.25C72.2437 58.753 73.1958 59.149 73.8984 59.8516C74.601 60.5542 74.997 61.5064 75 62.5V75Z" fill="url(#paint5_linear)"/>
<path d="M38.75 42.5V21.25C38.75 20.9185 38.6183 20.6005 38.3839 20.3661C38.1495 20.1317 37.8315 20 37.5 20H32.5C32.1685 20 31.8505 20.1317 31.6161 20.3661C31.3817 20.6005 31.25 20.9185 31.25 21.25V42.5H30V26.25C30 25.9185 29.8683 25.6005 29.6339 25.3661C29.3995 25.1317 29.0815 25 28.75 25H23.75C23.4185 25 23.1005 25.1317 22.8661 25.3661C22.6317 25.6005 22.5 25.9185 22.5 26.25V42.5H21.25V35C21.25 34.6685 21.1183 34.3505 20.8839 34.1161C20.6495 33.8817 20.3315 33.75 20 33.75H15C14.6685 33.75 14.3505 33.8817 14.1161 34.1161C13.8817 34.3505 13.75 34.6685 13.75 35V42.5H11.25V45H41.25V42.5H38.75ZM18.75 42.5H16.25V36.25H18.75V42.5ZM27.5 42.5H25V27.5H27.5V42.5ZM36.25 42.5H33.75V22.5H36.25V42.5Z" fill="url(#paint6_linear)"/>
<defs>
<linearGradient id="paint0_linear" x1="8.75" y1="7.5" x2="8.75" y2="10" gradientUnits="userSpaceOnUse">
<stop stop-color="#00C2FF"/>
<stop offset="1" stop-color="#3DFFA2"/>
</linearGradient>
<linearGradient id="paint1_linear" x1="13.75" y1="7.5" x2="13.75" y2="10" gradientUnits="userSpaceOnUse">
<stop stop-color="#00C2FF"/>
<stop offset="1" stop-color="#3DFFA2"/>
</linearGradient>
<linearGradient id="paint2_linear" x1="18.75" y1="7.5" x2="18.75" y2="10" gradientUnits="userSpaceOnUse">
<stop stop-color="#00C2FF"/>
<stop offset="1" stop-color="#3DFFA2"/>
</linearGradient>
<linearGradient id="paint3_linear" x1="57.5" y1="37.5" x2="57.5" y2="41.25" gradientUnits="userSpaceOnUse">
<stop stop-color="#00C2FF"/>
<stop offset="1" stop-color="#3DFFA2"/>
</linearGradient>
<linearGradient id="paint4_linear" x1="65" y1="37.5" x2="65" y2="41.25" gradientUnits="userSpaceOnUse">
<stop stop-color="#00C2FF"/>
<stop offset="1" stop-color="#3DFFA2"/>
</linearGradient>
<linearGradient id="paint5_linear" x1="40" y1="2.5" x2="40" y2="77.5" gradientUnits="userSpaceOnUse">
<stop stop-color="#00C2FF"/>
<stop offset="1" stop-color="#3DFFA2"/>
</linearGradient>
<linearGradient id="paint6_linear" x1="26.25" y1="20" x2="26.25" y2="45" gradientUnits="userSpaceOnUse">
<stop stop-color="#00C2FF"/>
<stop offset="1" stop-color="#3DFFA2"/>
</linearGradient>
</defs>
</svg>
