<svg width="80" height="80" viewBox="0 0 80 80" fill="none" xmlns="http://www.w3.org/2000/svg">
<path d="M77.5 51.25V6.25C77.497 5.25635 77.101 4.30425 76.3984 3.60163C75.6958 2.89901 74.7437 2.50297 73.75 2.5H46.25C45.2564 2.50297 44.3042 2.89901 43.6016 3.60163C42.899 4.30425 42.503 5.25635 42.5 6.25V22.5H8.75C7.75635 22.503 6.80425 22.899 6.10163 23.6016C5.39901 24.3042 5.00297 25.2564 5 26.25V65C4.33757 65.002 3.70283 65.266 3.23442 65.7344C2.76601 66.2028 2.50198 66.8376 2.5 67.5V71.25C2.5 72.9076 3.15848 74.4973 4.33058 75.6694C5.50269 76.8415 7.0924 77.5 8.75 77.5H71.25C72.9076 77.5 74.4973 76.8415 75.6694 75.6694C76.8415 74.4973 77.5 72.9076 77.5 71.25V67.5C77.498 66.8376 77.234 66.2028 76.7656 65.7344C76.2972 65.266 75.6624 65.002 75 65V54.775C75.7284 54.5155 76.3592 54.038 76.8066 53.4072C77.2539 52.7765 77.496 52.0232 77.5 51.25ZM45 6.25C45 5.91848 45.1317 5.60054 45.3661 5.36612C45.6005 5.1317 45.9185 5 46.25 5H73.75C74.0815 5 74.3995 5.1317 74.6339 5.36612C74.8683 5.60054 75 5.91848 75 6.25V7.5H45V6.25ZM45 10H75V40H45V10ZM7.5 26.25C7.5 25.9185 7.6317 25.6005 7.86612 25.3661C8.10054 25.1317 8.41848 25 8.75 25H42.5V51.25C42.503 52.2436 42.899 53.1958 43.6016 53.8984C44.3042 54.601 45.2564 54.997 46.25 55H72.5V65H7.5V26.25ZM46.25 67.5V70H33.75V67.5H46.25ZM75 71.25C74.997 72.2437 74.601 73.1958 73.8984 73.8984C73.1958 74.601 72.2437 74.997 71.25 75H8.75C7.75635 74.997 6.80425 74.601 6.10163 73.8984C5.39901 73.1958 5.00297 72.2437 5 71.25V67.5H31.25V70C31.252 70.6624 31.516 71.2972 31.9844 71.7656C32.4528 72.234 33.0876 72.498 33.75 72.5H46.25C46.9124 72.498 47.5472 72.234 48.0156 71.7656C48.484 71.2972 48.748 70.6624 48.75 70V67.5H75V71.25ZM73.75 52.5H46.25C45.9185 52.5 45.6005 52.3683 45.3661 52.1339C45.1317 51.8995 45 51.5815 45 51.25V42.5H75V51.25C75 51.5815 74.8683 51.8995 74.6339 52.1339C74.3995 52.3683 74.0815 52.5 73.75 52.5Z" fill="url(#paint0_linear)"/>
<path d="M60 43.75C59.2583 43.75 58.5333 43.9699 57.9166 44.382C57.2999 44.794 56.8193 45.3797 56.5355 46.0649C56.2516 46.7502 56.1774 47.5042 56.3221 48.2316C56.4668 48.959 56.8239 49.6272 57.3484 50.1517C57.8728 50.6761 58.541 51.0333 59.2684 51.178C59.9958 51.3226 60.7498 51.2484 61.4351 50.9646C62.1203 50.6807 62.706 50.2001 63.118 49.5834C63.5301 48.9667 63.75 48.2417 63.75 47.5C63.75 46.5054 63.3549 45.5516 62.6517 44.8484C61.9484 44.1451 60.9946 43.75 60 43.75ZM60 48.75C59.7528 48.75 59.5111 48.6767 59.3055 48.5393C59.1 48.402 58.9398 48.2068 58.8452 47.9784C58.7505 47.7499 58.7258 47.4986 58.774 47.2561C58.8223 47.0137 58.9413 46.7909 59.1161 46.6161C59.2909 46.4413 59.5137 46.3223 59.7561 46.274C59.9986 46.2258 60.25 46.2505 60.4784 46.3452C60.7068 46.4398 60.902 46.6 61.0393 46.8055C61.1767 47.0111 61.25 47.2528 61.25 47.5C61.25 47.8315 61.1183 48.1495 60.8839 48.3839C60.6495 48.6183 60.3315 48.75 60 48.75Z" fill="url(#paint1_linear)"/>
<path d="M13.75 26.25H10C9.66848 26.25 9.35054 26.3817 9.11612 26.6161C8.8817 26.8505 8.75 27.1685 8.75 27.5V31.25H11.25V28.75H13.75V26.25Z" fill="url(#paint2_linear)"/>
<path d="M68.75 61.25H66.25V63.75H70C70.3315 63.75 70.6495 63.6183 70.8839 63.3839C71.1183 63.1495 71.25 62.8315 71.25 62.5V58.75H68.75V61.25Z" fill="url(#paint3_linear)"/>
<path d="M68.75 18.7502V15.0002C68.7503 14.7955 68.7003 14.5938 68.6044 14.4129C68.5085 14.232 68.3696 14.0774 68.2 13.9627C68.0302 13.8508 67.8361 13.781 67.6339 13.7593C67.4317 13.7375 67.2272 13.7644 67.0375 13.8377L61.0125 16.2502H52.5C52.1685 16.2502 51.8505 16.3819 51.6161 16.6163C51.3817 16.8508 51.25 17.1687 51.25 17.5002V17.8502L48.35 18.8127C48.1031 18.8988 47.889 19.0592 47.7368 19.2718C47.5846 19.4843 47.5019 19.7388 47.5 20.0002V25.0002C47.5019 25.2617 47.5846 25.5161 47.7368 25.7287C47.889 25.9413 48.1031 26.1016 48.35 26.1877L51.25 27.1502V27.5002C51.25 27.8317 51.3817 28.1497 51.6161 28.3841C51.8505 28.6185 52.1685 28.7502 52.5 28.7502V35.0002C52.5 35.3317 52.6317 35.6497 52.8661 35.8841C53.1005 36.1185 53.4185 36.2502 53.75 36.2502H57.5C57.7975 36.2511 58.0855 36.1458 58.3123 35.9534C58.5392 35.7609 58.6899 35.4939 58.7375 35.2002L59.8125 28.7502H61.0125L67.0375 31.1627C67.1842 31.2229 67.3415 31.2527 67.5 31.2502C67.749 31.2491 67.9923 31.1752 68.2 31.0377C68.3696 30.9231 68.5085 30.7685 68.6044 30.5876C68.7003 30.4067 68.7503 30.205 68.75 30.0002V26.2502C69.7446 26.2502 70.6984 25.8551 71.4016 25.1519C72.1049 24.4486 72.5 23.4948 72.5 22.5002C72.5 21.5057 72.1049 20.5518 71.4016 19.8486C70.6984 19.1453 69.7446 18.7502 68.75 18.7502ZM51.25 24.5127L50 24.1002V20.9002L51.25 20.4877V24.5127ZM56.4375 33.7502H55V28.7502H57.275L56.4375 33.7502ZM60 26.2502H53.75V18.7502H60V26.2502ZM66.25 28.1502L62.5 26.6502V18.3502L66.25 16.8502V28.1502ZM68.75 23.7502V21.2502C69.0815 21.2502 69.3995 21.3819 69.6339 21.6163C69.8683 21.8508 70 22.1687 70 22.5002C70 22.8317 69.8683 23.1497 69.6339 23.3841C69.3995 23.6185 69.0815 23.7502 68.75 23.7502Z" fill="url(#paint4_linear)"/>
<path d="M35 37.5002V33.7502C35.0003 33.5455 34.9503 33.3438 34.8544 33.1629C34.7585 32.982 34.6196 32.8274 34.45 32.7127C34.2802 32.6008 34.0861 32.531 33.8839 32.5093C33.6817 32.4875 33.4772 32.5144 33.2875 32.5877L27.2625 35.0002H18.75C18.4185 35.0002 18.1005 35.1319 17.8661 35.3663C17.6317 35.6008 17.5 35.9187 17.5 36.2502V36.6002L14.6 37.5627C14.3531 37.6488 14.139 37.8092 13.9868 38.0218C13.8346 38.2343 13.7519 38.4888 13.75 38.7502V43.7502C13.7519 44.0116 13.8346 44.2661 13.9868 44.4787C14.139 44.6913 14.3531 44.8516 14.6 44.9377L17.5 45.9002V46.2502C17.5 46.5817 17.6317 46.8997 17.8661 47.1341C18.1005 47.3685 18.4185 47.5002 18.75 47.5002V53.7502C18.75 54.0817 18.8817 54.3997 19.1161 54.6341C19.3505 54.8685 19.6685 55.0002 20 55.0002H23.75C24.0475 55.0011 24.3355 54.8958 24.5623 54.7034C24.7892 54.5109 24.9399 54.2439 24.9875 53.9502L26.0625 47.5002H27.2625L33.2875 49.9127C33.4342 49.9729 33.5915 50.0026 33.75 50.0002C33.999 49.9991 34.2423 49.9252 34.45 49.7877C34.6196 49.6731 34.7585 49.5185 34.8544 49.3376C34.9503 49.1567 35.0003 48.955 35 48.7502V45.0002C35.9946 45.0002 36.9484 44.6051 37.6517 43.9019C38.3549 43.1986 38.75 42.2448 38.75 41.2502C38.75 40.2557 38.3549 39.3018 37.6517 38.5986C36.9484 37.8953 35.9946 37.5002 35 37.5002ZM17.5 43.2627L16.25 42.8502V39.6502L17.5 39.2377V43.2627ZM22.6875 52.5002H21.25V47.5002H23.525L22.6875 52.5002ZM26.25 45.0002H20V37.5002H26.25V45.0002ZM32.5 46.9002L28.75 45.4002V37.1002L32.5 35.6002V46.9002ZM35 42.5002V40.0002C35.3315 40.0002 35.6495 40.1319 35.8839 40.3663C36.1183 40.6008 36.25 40.9187 36.25 41.2502C36.25 41.5817 36.1183 41.8997 35.8839 42.1341C35.6495 42.3685 35.3315 42.5002 35 42.5002Z" fill="url(#paint5_linear)"/>
<defs>
<linearGradient id="paint0_linear" x1="40" y1="2.5" x2="40" y2="77.5" gradientUnits="userSpaceOnUse">
<stop stop-color="#00C2FF"/>
<stop offset="1" stop-color="#3DFFA2"/>
</linearGradient>
<linearGradient id="paint1_linear" x1="60" y1="43.75" x2="60" y2="51.25" gradientUnits="userSpaceOnUse">
<stop stop-color="#00C2FF"/>
<stop offset="1" stop-color="#3DFFA2"/>
</linearGradient>
<linearGradient id="paint2_linear" x1="11.25" y1="26.25" x2="11.25" y2="31.25" gradientUnits="userSpaceOnUse">
<stop stop-color="#00C2FF"/>
<stop offset="1" stop-color="#3DFFA2"/>
</linearGradient>
<linearGradient id="paint3_linear" x1="68.75" y1="58.75" x2="68.75" y2="63.75" gradientUnits="userSpaceOnUse">
<stop stop-color="#00C2FF"/>
<stop offset="1" stop-color="#3DFFA2"/>
</linearGradient>
<linearGradient id="paint4_linear" x1="60" y1="13.752" x2="60" y2="36.2502" gradientUnits="userSpaceOnUse">
<stop stop-color="#00C2FF"/>
<stop offset="1" stop-color="#3DFFA2"/>
</linearGradient>
<linearGradient id="paint5_linear" x1="26.25" y1="32.502" x2="26.25" y2="55.0002" gradientUnits="userSpaceOnUse">
<stop stop-color="#00C2FF"/>
<stop offset="1" stop-color="#3DFFA2"/>
</linearGradient>
</defs>
</svg>
