<svg width="80" height="80" viewBox="0 0 80 80" fill="none" xmlns="http://www.w3.org/2000/svg">
<path d="M75 28.749H52.5C50.4325 28.749 48.75 30.4315 48.75 32.499V47.499C48.75 49.5665 50.4325 51.249 52.5 51.249H58.75V53.749H56.25V56.249H62.5V62.499C62.5 63.1878 61.9388 63.749 61.25 63.749H53.6912C53.175 58.1128 49.2012 53.319 43.75 51.7753V49.999C43.75 47.9315 42.0675 46.249 40 46.249C37.9325 46.249 36.25 47.9315 36.25 49.999V51.7753C30.7987 53.319 26.825 58.114 26.3088 63.749H17.5C16.8112 63.749 16.25 63.1878 16.25 62.499V61.1853C23.2475 60.5515 28.75 54.659 28.75 47.499C28.75 39.9178 22.5812 33.749 15 33.749C7.41875 33.749 1.25 39.9178 1.25 47.499C1.25 54.659 6.7525 60.5515 13.75 61.1853V62.499C13.75 64.5665 15.4325 66.249 17.5 66.249H26.3138C26.9475 73.2465 32.84 78.749 40 78.749C47.16 78.749 53.0525 73.2465 53.6863 66.249H61.25C63.3175 66.249 65 64.5665 65 62.499V56.249H71.25V53.749H68.75V51.249H75C77.0675 51.249 78.75 49.5665 78.75 47.499V32.499C78.75 30.4315 77.0675 28.749 75 28.749ZM3.75 47.499C3.75 41.2965 8.7975 36.249 15 36.249C21.2025 36.249 26.25 41.2965 26.25 47.499C26.25 53.7015 21.2025 58.749 15 58.749C8.7975 58.749 3.75 53.7015 3.75 47.499ZM40 66.249C42.0675 66.249 43.75 64.5665 43.75 62.499V60.0115C45.2925 61.1715 46.25 63.0065 46.25 64.999C46.25 68.4453 43.4463 71.249 40 71.249C36.5537 71.249 33.75 68.4453 33.75 64.999C33.75 63.0065 34.7075 61.1715 36.25 60.0115V62.499C36.25 64.5665 37.9325 66.249 40 66.249ZM38.75 49.999C38.75 49.3103 39.3112 48.749 40 48.749C40.6888 48.749 41.25 49.3103 41.25 49.999V62.499C41.25 63.1878 40.6888 63.749 40 63.749C39.3112 63.749 38.75 63.1878 38.75 62.499V49.999ZM40 76.249C33.7975 76.249 28.75 71.2015 28.75 64.999C28.75 60.1978 31.8275 55.9678 36.25 54.4015V57.1278C33.2337 58.5665 31.25 61.6115 31.25 65.0003C31.25 69.8253 35.175 73.7503 40 73.7503C44.825 73.7503 48.75 69.8253 48.75 65.0003C48.75 61.6128 46.7663 58.5665 43.75 57.1278V54.4015C48.1725 55.9678 51.25 60.1978 51.25 64.999C51.25 71.2015 46.2025 76.249 40 76.249ZM52.5 31.249H75C75.6888 31.249 76.25 31.8103 76.25 32.499V43.749H51.25V32.499C51.25 31.8103 51.8112 31.249 52.5 31.249ZM66.25 53.749H61.25V51.249H66.25V53.749ZM75 48.749H52.5C51.8112 48.749 51.25 48.1878 51.25 47.499V46.249H76.25V47.499C76.25 48.1878 75.6888 48.749 75 48.749Z" fill="url(#paint0_linear)"/>
<path d="M5 31.249H17.5C19.5675 31.249 21.25 29.5665 21.25 27.499V17.499H33.75C34.4388 17.499 35 18.0603 35 18.749V34.999H37.5V18.749C37.5 16.6815 35.8175 14.999 33.75 14.999H21.25V4.99902C21.25 2.93152 19.5675 1.24902 17.5 1.24902H5C2.9325 1.24902 1.25 2.93152 1.25 4.99902V27.499C1.25 29.5665 2.9325 31.249 5 31.249ZM17.5 28.749H5C4.31125 28.749 3.75 28.1878 3.75 27.499V26.249H18.75V27.499C18.75 28.1878 18.1887 28.749 17.5 28.749ZM3.75 23.749V8.74902H18.75V23.749H3.75ZM5 3.74902H17.5C18.1887 3.74902 18.75 4.31027 18.75 4.99902V6.24902H3.75V4.99902C3.75 4.31027 4.31125 3.74902 5 3.74902Z" fill="url(#paint1_linear)"/>
<path d="M18.75 52.499C18.75 50.4315 17.0675 48.749 15 48.749C12.9325 48.749 11.25 50.4315 11.25 52.499C11.25 54.5665 12.9325 56.249 15 56.249C17.0675 56.249 18.75 54.5665 18.75 52.499ZM13.75 52.499C13.75 51.8103 14.3112 51.249 15 51.249C15.6887 51.249 16.25 51.8103 16.25 52.499C16.25 53.1878 15.6887 53.749 15 53.749C14.3112 53.749 13.75 53.1878 13.75 52.499Z" fill="url(#paint2_linear)"/>
<path d="M19.4197 48.0789L21.1872 46.3114C17.776 42.9001 12.2247 42.9001 8.81348 46.3114L10.581 48.0789C13.0172 45.6426 16.9822 45.6426 19.4197 48.0789Z" fill="url(#paint3_linear)"/>
<path d="M22.9551 44.5443L24.7226 42.7768C19.3614 37.4156 10.6376 37.4156 5.27637 42.7768L7.04387 44.5443C11.4326 40.158 18.5676 40.158 22.9551 44.5443Z" fill="url(#paint4_linear)"/>
<path d="M35 42.499H37.5V44.999H35V42.499Z" fill="url(#paint5_linear)"/>
<path d="M35 37.499H37.5V39.999H35V37.499Z" fill="url(#paint6_linear)"/>
<path d="M42.5 42.499H45V44.999H42.5V42.499Z" fill="url(#paint7_linear)"/>
<path d="M42.5 37.499H45V39.999H42.5V37.499Z" fill="url(#paint8_linear)"/>
<path d="M45 16.249C45 15.5603 45.5612 14.999 46.25 14.999H53.8137C54.4425 21.3065 59.78 26.249 66.25 26.249C73.1425 26.249 78.75 20.6415 78.75 13.749C78.75 6.85652 73.1425 1.24902 66.25 1.24902C59.7787 1.24902 54.4425 6.19152 53.8137 12.499H46.25C44.1825 12.499 42.5 14.1815 42.5 16.249V34.999H45V16.249ZM66.25 3.74902C66.6413 3.74902 67.4788 5.02777 68.0775 7.49902H64.4225C65.0212 5.02777 65.8587 3.74902 66.25 3.74902ZM68.5238 9.99902C68.62 10.7665 68.6912 11.5953 68.725 12.499H63.7725C63.8063 11.5953 63.8788 10.7665 63.9738 9.99902H68.5238ZM66.25 23.749C65.8587 23.749 65.0212 22.4703 64.4225 19.999H68.0775C67.4788 22.4703 66.6413 23.749 66.25 23.749ZM63.9762 17.499C63.88 16.7315 63.8088 15.9028 63.775 14.999H68.7275C68.6937 15.9028 68.6212 16.7315 68.5262 17.499H63.9762ZM71.2262 14.999H76.1637C76.0537 15.8715 75.835 16.7103 75.5137 17.499H71.04C71.1325 16.6778 71.1962 15.8403 71.2262 14.999ZM76.1637 12.499H71.2262C71.1962 11.6578 71.1325 10.8203 71.04 9.99902H75.5137C75.8337 10.7878 76.0537 11.6265 76.1637 12.499ZM61.2738 12.499H56.3363C56.4462 11.6265 56.665 10.7878 56.9863 9.99902H61.46C61.3675 10.8203 61.3038 11.6578 61.2738 12.499ZM61.2738 14.999C61.3038 15.8403 61.3675 16.6778 61.46 17.499H56.9863C56.6663 16.7103 56.4462 15.8715 56.3363 14.999H61.2738ZM58.4562 19.999H61.855C62.095 21.1478 62.405 22.2128 62.795 23.1215C61.0788 22.4865 59.5825 21.4003 58.4562 19.999ZM69.705 23.1215C70.095 22.2128 70.405 21.1478 70.645 19.999H74.0438C72.9175 21.4003 71.4212 22.4865 69.705 23.1215ZM74.0438 7.49902H70.645C70.405 6.35027 70.095 5.28527 69.705 4.37652C71.4212 5.01152 72.9175 6.09777 74.0438 7.49902ZM62.795 4.37652C62.405 5.28527 62.0963 6.35027 61.855 7.49902H58.4562C59.5825 6.09777 61.0788 5.01152 62.795 4.37652Z" fill="url(#paint9_linear)"/>
<defs>
<linearGradient id="paint0_linear" x1="40" y1="28.749" x2="40" y2="78.749" gradientUnits="userSpaceOnUse">
<stop stop-color="#00C2FF"/>
<stop offset="1" stop-color="#3DFFA2"/>
</linearGradient>
<linearGradient id="paint1_linear" x1="19.375" y1="1.24902" x2="19.375" y2="34.999" gradientUnits="userSpaceOnUse">
<stop stop-color="#00C2FF"/>
<stop offset="1" stop-color="#3DFFA2"/>
</linearGradient>
<linearGradient id="paint2_linear" x1="15" y1="48.749" x2="15" y2="56.249" gradientUnits="userSpaceOnUse">
<stop stop-color="#00C2FF"/>
<stop offset="1" stop-color="#3DFFA2"/>
</linearGradient>
<linearGradient id="paint3_linear" x1="15.0004" y1="43.7529" x2="15.0004" y2="48.0789" gradientUnits="userSpaceOnUse">
<stop stop-color="#00C2FF"/>
<stop offset="1" stop-color="#3DFFA2"/>
</linearGradient>
<linearGradient id="paint4_linear" x1="14.9995" y1="38.7559" x2="14.9995" y2="44.5443" gradientUnits="userSpaceOnUse">
<stop stop-color="#00C2FF"/>
<stop offset="1" stop-color="#3DFFA2"/>
</linearGradient>
<linearGradient id="paint5_linear" x1="36.25" y1="42.499" x2="36.25" y2="44.999" gradientUnits="userSpaceOnUse">
<stop stop-color="#00C2FF"/>
<stop offset="1" stop-color="#3DFFA2"/>
</linearGradient>
<linearGradient id="paint6_linear" x1="36.25" y1="37.499" x2="36.25" y2="39.999" gradientUnits="userSpaceOnUse">
<stop stop-color="#00C2FF"/>
<stop offset="1" stop-color="#3DFFA2"/>
</linearGradient>
<linearGradient id="paint7_linear" x1="43.75" y1="42.499" x2="43.75" y2="44.999" gradientUnits="userSpaceOnUse">
<stop stop-color="#00C2FF"/>
<stop offset="1" stop-color="#3DFFA2"/>
</linearGradient>
<linearGradient id="paint8_linear" x1="43.75" y1="37.499" x2="43.75" y2="39.999" gradientUnits="userSpaceOnUse">
<stop stop-color="#00C2FF"/>
<stop offset="1" stop-color="#3DFFA2"/>
</linearGradient>
<linearGradient id="paint9_linear" x1="60.625" y1="1.24902" x2="60.625" y2="34.999" gradientUnits="userSpaceOnUse">
<stop stop-color="#00C2FF"/>
<stop offset="1" stop-color="#3DFFA2"/>
</linearGradient>
</defs>
</svg>
