<svg width="80" height="80" viewBox="0 0 80 80" fill="none" xmlns="http://www.w3.org/2000/svg">
<g clip-path="url(#clip0)">
<path d="M30.5227 6.26758C27.4002 6.26758 24.6113 8.05863 23.2625 10.8271C23.161 10.8231 23.0618 10.8121 22.9595 10.8121C22.9351 10.8121 22.9146 10.8247 22.8902 10.8255C18.3371 10.6854 14.574 14.4147 14.574 19.0041V19.0135C13.9287 18.8482 13.2629 18.7648 12.5862 18.7648C8.11877 18.7648 4.48472 22.439 4.48472 26.9552C4.48472 28.0302 4.69483 29.0886 5.09931 30.0754C1.92483 32.341 0 36.0411 0 40.0198C0 43.9986 1.92483 47.6987 5.09931 49.9643C4.69483 50.9519 4.48472 52.0095 4.48472 53.0845C4.48472 57.6007 8.11877 61.2756 12.5862 61.2756C13.2629 61.2756 13.9287 61.1914 14.574 61.027V61.0356C14.574 65.6242 18.3379 69.3488 22.8895 69.2134C22.9139 69.215 22.9343 69.2276 22.9595 69.2276C23.0618 69.2276 23.161 69.2158 23.2625 69.2126C24.6121 71.981 27.4002 73.7713 30.5227 73.7713C34.9901 73.7713 38.6249 70.0971 38.6249 65.5801V14.4595C38.6249 9.94255 34.9901 6.26758 30.5227 6.26758ZM30.5227 71.0218C28.7033 71.0218 27.0641 70.0869 26.0891 68.6043C29.0574 67.372 31.1507 64.4454 31.1507 61.0364C31.1507 60.277 30.5353 59.6616 29.7751 59.6616C29.0157 59.6616 28.4003 60.277 28.4003 61.0364C28.4003 63.6112 26.5983 65.7627 24.1926 66.3238C24.1706 66.323 24.1509 66.3136 24.1289 66.3136C24.0289 66.3136 23.9282 66.3246 23.8275 66.3466C20.4091 67.1123 17.3243 64.4202 17.3243 61.0364C17.3243 60.4171 17.4329 59.797 17.6469 59.1926C17.8468 58.6315 17.6611 58.0059 17.1889 57.6424C16.716 57.278 16.0636 57.2599 15.5726 57.5983C14.6896 58.205 13.6572 58.5253 12.5854 58.5253C9.63518 58.5253 7.23426 56.0842 7.23426 53.0845C7.23426 52.0662 7.51913 51.0676 8.05817 50.1972C8.25569 49.8777 8.31471 49.4921 8.22028 49.1286C8.12664 48.7658 7.8882 48.4557 7.56083 48.2732C4.5941 46.6143 2.75032 43.4524 2.75032 40.0206C2.75032 36.5888 4.5941 33.4269 7.56083 31.7673C7.8882 31.5847 8.12664 31.2755 8.22028 30.9119C8.31471 30.5491 8.25569 30.1627 8.05817 29.844C7.51991 28.9737 7.23426 27.9751 7.23426 26.9568C7.23426 23.957 9.63518 21.5159 12.5854 21.5159C13.6564 21.5159 14.6896 21.8362 15.5726 22.4429C16.0644 22.7805 16.7168 22.7609 17.1889 22.3989C17.6611 22.0353 17.8468 21.4097 17.6469 20.8486C17.4329 20.2443 17.3243 19.6234 17.3243 19.0048C17.3243 15.621 20.4114 12.925 23.8275 13.6946C23.9377 13.719 24.0447 13.7072 24.1533 13.7049C26.5794 14.2518 28.4003 16.4158 28.4003 19.0048C28.4003 19.7642 29.0157 20.3796 29.7751 20.3796C30.5353 20.3796 31.1507 19.7642 31.1507 19.0048C31.1507 15.5959 29.0566 12.6693 26.0891 11.4369C27.0641 9.95435 28.7033 9.01948 30.5227 9.01948C33.4737 9.01948 35.8738 11.4605 35.8738 14.4603V35.8058H33.8522C31.8825 35.8058 30.2795 34.3838 30.2795 32.6369C30.2795 31.8775 29.6634 31.2613 28.904 31.2613C28.1446 31.2613 27.5292 31.8775 27.5292 32.6369C27.5292 35.901 30.3653 38.5561 33.8522 38.5561H35.8738V48.3023H33.5303C32.42 48.3023 31.5166 47.5224 31.5166 46.564C31.5166 42.5105 27.9817 39.214 23.6363 39.214H22.7211C21.9609 39.214 21.3455 39.8294 21.3455 40.5888C21.3455 41.3482 21.9609 41.9643 22.7211 41.9643H23.6363C26.4653 41.9643 28.7663 44.0277 28.7663 46.564C28.7663 49.0389 30.9036 51.0526 33.5303 51.0526H35.8738V65.5817C35.8738 68.5807 33.4737 71.0218 30.5227 71.0218Z" fill="url(#paint0_linear)"/>
<path d="M18.6544 33.2045C18.6544 30.2535 16.2543 27.8525 13.3033 27.8525H12.7351C11.9757 27.8525 11.3604 28.4687 11.3604 29.2281C11.3604 29.9875 11.9757 30.6037 12.7351 30.6037H13.3033C14.7379 30.6037 15.9041 31.7707 15.9041 33.2045C15.9041 34.639 14.7379 35.8053 13.3033 35.8053C12.5439 35.8053 11.9285 36.4214 11.9285 37.1808C11.9285 37.9402 12.5439 38.5556 13.3033 38.5556C16.2543 38.5556 18.6544 36.1555 18.6544 33.2045Z" fill="url(#paint1_linear)"/>
<path d="M19.5517 43.4707C15.6611 43.4707 12.4961 46.635 12.4961 50.5255V50.812C12.4961 51.5714 13.1123 52.1875 13.8716 52.1875C14.631 52.1875 15.2472 51.5714 15.2472 50.812V50.5255C15.2472 48.1522 17.1783 46.221 19.5517 46.221C20.3111 46.221 20.9273 45.6049 20.9273 44.8455C20.9273 44.0861 20.3111 43.4707 19.5517 43.4707Z" fill="url(#paint2_linear)"/>
<path d="M22.9597 29.4681C25.5975 29.4681 27.7427 27.3221 27.7427 24.6843C27.7427 23.925 27.1273 23.3096 26.3679 23.3096C25.6085 23.3096 24.9924 23.925 24.9924 24.6843C24.9924 25.8057 24.0811 26.717 22.9597 26.717C22.2003 26.717 21.585 27.3332 21.585 28.0925C21.585 28.8519 22.2003 29.4681 22.9597 29.4681Z" fill="url(#paint3_linear)"/>
<path d="M28.0724 55.1168C26.0115 55.1168 24.3353 53.4406 24.3353 51.3797C24.3353 50.6203 23.7191 50.0049 22.9597 50.0049C22.2003 50.0049 21.585 50.6203 21.585 51.3797C21.585 54.957 24.495 57.8671 28.0724 57.8671C28.8318 57.8671 29.4472 57.2517 29.4472 56.4923C29.4472 55.7329 28.8318 55.1168 28.0724 55.1168Z" fill="url(#paint4_linear)"/>
<path d="M44.1256 18.7031C43.3662 18.7031 42.75 19.3193 42.75 20.0787V33.8311C42.75 34.2489 42.9404 34.644 43.267 34.9052L46.798 37.7303C46.7358 37.9963 46.6957 38.271 46.6957 38.555C46.6957 40.5664 48.3325 42.2025 50.3431 42.2025C52.3545 42.2025 53.9897 40.5664 53.9897 38.555C53.9897 36.5444 52.3545 34.9076 50.3431 34.9076C49.6238 34.9076 48.9581 35.124 48.3923 35.4836L45.5011 33.1701V20.0787C45.5011 19.3193 44.8849 18.7031 44.1256 18.7031ZM51.2394 38.555C51.2394 39.05 50.8373 39.4513 50.3431 39.4513C49.8481 39.4513 49.446 39.0492 49.446 38.555C49.446 38.0608 49.8481 37.6579 50.3431 37.6579C50.8373 37.6579 51.2394 38.0608 51.2394 38.555Z" fill="url(#paint5_linear)"/>
<path d="M74.3818 44.8936H68.6152C68.5727 44.8936 68.5372 44.914 68.4955 44.9179C68.0187 44.8857 67.5386 45.0801 67.2561 45.5066L66.8587 46.1031C66.6226 46.0551 66.3787 46.0291 66.1292 46.0291C64.1178 46.0291 62.4818 47.6659 62.4818 49.6765C62.4818 51.6879 64.1178 53.324 66.1292 53.324C68.1398 53.324 69.7759 51.6879 69.7759 49.6765C69.7759 48.925 69.5469 48.2254 69.155 47.6439H73.0062V54.4611H62.2331L57.0725 49.7033C57.1968 49.3358 57.2794 48.9494 57.2794 48.541C57.2794 46.5296 55.6434 44.8943 53.6328 44.8943C51.6214 44.8943 49.9854 46.5296 49.9854 48.541C49.9854 50.5516 51.6214 52.1884 53.6328 52.1884C54.2245 52.1884 54.7754 52.0334 55.2696 51.7824L60.7639 56.8478C61.0181 57.0816 61.351 57.2114 61.6965 57.2114H74.3818C75.1412 57.2114 75.7566 56.596 75.7566 55.8366V46.2691C75.7566 45.5097 75.1412 44.8936 74.3818 44.8936ZM66.1285 50.5728C65.6343 50.5728 65.2321 50.1707 65.2321 49.6765C65.2321 49.1823 65.6343 48.7802 66.1285 48.7802C66.6226 48.7802 67.0248 49.1823 67.0248 49.6765C67.0256 50.1707 66.6234 50.5728 66.1285 50.5728ZM52.7357 48.5402C52.7357 48.046 53.1378 47.6439 53.6328 47.6439C54.127 47.6439 54.5291 48.0468 54.5291 48.5402C54.5291 49.0352 54.1262 49.4373 53.6328 49.4373C53.1378 49.4381 52.7357 49.036 52.7357 48.5402Z" fill="url(#paint6_linear)"/>
<path d="M76.3524 35.805C76.2352 35.805 76.1242 35.8286 76.0093 35.8397L74.319 32.3229V22.8293C74.319 22.0699 73.7036 21.4546 72.9443 21.4546H66.0932C66.1019 21.3932 66.1294 21.3389 66.1294 21.2751V14.4595C66.1294 13.7001 65.514 13.084 64.7539 13.084H57.8777V9.07692C57.8777 8.31753 57.2623 7.70137 56.5029 7.70137H47.5634C47.5201 7.70137 47.4839 7.72183 47.4422 7.72576C46.7756 6.84597 45.7306 6.26758 44.5439 6.26758C42.5325 6.26758 40.8965 7.90439 40.8965 9.91579C40.8965 11.9264 42.5325 13.5624 44.5439 13.5624C46.3712 13.5624 47.875 12.2073 48.1362 10.4517H55.1273V14.7759C54.0902 15.4196 53.3929 16.5598 53.3929 17.8669C53.3929 19.8783 55.029 21.5144 57.0396 21.5144C59.051 21.5144 60.687 19.8783 60.687 17.8669C60.687 17.1146 60.458 16.4158 60.0661 15.8343H63.3791V21.2751C63.3791 21.3389 63.4066 21.3932 63.4153 21.4546H61.5841C61.2363 21.4546 60.9011 21.586 60.6461 21.8228L55.8143 26.3241C55.2037 25.8637 54.4529 25.5804 53.6314 25.5804C51.62 25.5804 49.984 27.2165 49.984 29.2279C49.984 31.2385 51.6208 32.8753 53.6314 32.8753C55.6428 32.8753 57.278 31.2385 57.278 29.2279C57.278 29.0689 57.2513 28.917 57.2316 28.7636L62.1255 24.2049H71.5687V31.0811H67.5892C67.2421 31.0811 66.9085 31.2117 66.6535 31.4478L64.1062 33.8094C63.6781 33.6331 63.2115 33.5324 62.7204 33.5324C60.709 33.5324 59.073 35.1692 59.073 37.1798C59.073 39.1912 60.709 40.8264 62.7204 40.8264C64.7311 40.8264 66.3671 39.1912 66.3671 37.1798C66.3671 36.6691 66.2593 36.1828 66.0688 35.7405L68.1282 33.8306H71.9929L73.573 37.1184C73.0395 37.7527 72.705 38.5601 72.705 39.4517C72.705 41.4631 74.3418 43.0991 76.3524 43.0991C78.3638 43.0991 79.9999 41.4623 79.9999 39.4517C79.9999 37.4403 78.3638 35.805 76.3524 35.805ZM44.5439 10.8121C44.0489 10.8121 43.6468 10.41 43.6468 9.91579C43.6468 9.42081 44.0489 9.01869 44.5439 9.01869C45.0381 9.01869 45.4402 9.42081 45.4402 9.91579C45.4402 10.41 45.0381 10.8121 44.5439 10.8121ZM57.0396 18.7648C56.5454 18.7648 56.1433 18.3627 56.1433 17.8677C56.1433 17.3735 56.5454 16.9714 57.0396 16.9714C57.5346 16.9714 57.9367 17.3735 57.9367 17.8677C57.9367 18.3627 57.5346 18.7648 57.0396 18.7648ZM53.6322 30.125C53.1372 30.125 52.7351 29.7228 52.7351 29.2279C52.7351 28.7337 53.1372 28.3316 53.6322 28.3316C54.1264 28.3316 54.5285 28.7337 54.5285 29.2279C54.5285 29.7228 54.1264 30.125 53.6322 30.125ZM62.7204 38.0769C62.2255 38.0769 61.8233 37.6748 61.8233 37.1806C61.8233 36.6856 62.2255 36.2835 62.7204 36.2835C63.2146 36.2835 63.6168 36.6856 63.6168 37.1806C63.6168 37.6748 63.2146 38.0769 62.7204 38.0769ZM76.3524 40.3496C75.8575 40.3496 75.4553 39.9467 75.4553 39.4525C75.4553 38.9575 75.8575 38.5561 76.3524 38.5561C76.8466 38.5561 77.2488 38.9583 77.2488 39.4525C77.2495 39.9467 76.8466 40.3496 76.3524 40.3496Z" fill="url(#paint7_linear)"/>
<path d="M66.7259 57.8087C64.7145 57.8087 63.0785 59.4447 63.0785 61.4553C63.0785 62.5326 63.557 63.4927 64.3014 64.1608L63.8229 65.3318L57.9414 65.4624C57.9186 65.4624 57.9005 65.475 57.8777 65.4765V63.4408C59.4846 63.0599 60.6878 61.6214 60.6878 59.9004C60.6878 57.889 59.051 56.2529 57.0404 56.2529C55.029 56.2529 53.393 57.889 53.393 59.9004C53.393 61.2082 54.091 62.3485 55.1273 62.9922V68.2127H47.6358C46.9921 67.1755 45.8518 66.4775 44.5439 66.4775C42.5325 66.4775 40.8965 68.1136 40.8965 70.1242C40.8965 72.1356 42.5325 73.7716 44.5439 73.7716C46.2649 73.7716 47.7027 72.5692 48.0843 70.963H56.5029C57.2623 70.963 57.8777 70.3469 57.8777 69.5875V68.1938C57.9099 68.1962 57.9375 68.2119 57.9705 68.2119H58.002L64.7846 68.0616C65.3323 68.049 65.8202 67.7138 66.0279 67.207L66.8951 65.0862C68.8262 64.9949 70.3726 63.4085 70.3726 61.4553C70.3726 59.4447 68.7373 57.8087 66.7259 57.8087ZM44.5439 71.0213C44.0489 71.0213 43.6468 70.6191 43.6468 70.1242C43.6468 69.63 44.0489 69.2278 44.5439 69.2278C45.0381 69.2278 45.4402 69.6308 45.4402 70.1242C45.4402 70.6191 45.0381 71.0213 44.5439 71.0213ZM57.0396 59.0033C57.5346 59.0033 57.9367 59.4054 57.9367 59.8996C57.9367 60.3945 57.5346 60.7967 57.0396 60.7967C56.5454 60.7967 56.1433 60.3945 56.1433 59.8996C56.1433 59.4054 56.5454 59.0033 57.0396 59.0033ZM66.8172 62.3343C66.7424 62.2848 66.6811 62.2218 66.5953 62.1864C66.4308 62.1195 66.2616 62.0935 66.094 62.0912C65.9303 61.9291 65.8288 61.704 65.8288 61.4553C65.8288 60.9611 66.2309 60.559 66.7259 60.559C67.2201 60.559 67.6222 60.9611 67.6222 61.4553C67.6222 61.918 67.2665 62.2863 66.8172 62.3343Z" fill="url(#paint8_linear)"/>
<path d="M41.375 47.0338V61.3371C41.375 62.0965 41.9904 62.7119 42.7498 62.7119H44.9744C45.6032 63.8128 46.7749 64.5659 48.1308 64.5659C50.1422 64.5659 51.7775 62.929 51.7775 60.9184C51.7775 58.907 50.1414 57.271 48.1308 57.271C46.4523 57.271 45.05 58.4168 44.6266 59.9623H44.1253V47.5028L46.5908 44.2976C47.0543 43.6956 46.941 42.8316 46.3398 42.3689C45.737 41.9054 44.8729 42.0171 44.411 42.6199L41.6607 46.1957C41.4749 46.4357 41.375 46.7308 41.375 47.0338ZM48.1308 60.0213C48.625 60.0213 49.0271 60.4235 49.0271 60.9176C49.0271 61.4126 48.625 61.8148 48.1308 61.8148C47.6358 61.8148 47.2337 61.4126 47.2337 60.9176C47.2337 60.4235 47.6358 60.0213 48.1308 60.0213Z" fill="url(#paint9_linear)"/>
</g>
<defs>
<linearGradient id="paint0_linear" x1="19.3125" y1="6.26758" x2="19.3125" y2="73.7713" gradientUnits="userSpaceOnUse">
<stop stop-color="#00C2FF"/>
<stop offset="1" stop-color="#3DFFA2"/>
</linearGradient>
<linearGradient id="paint1_linear" x1="15.0074" y1="27.8525" x2="15.0074" y2="38.5556" gradientUnits="userSpaceOnUse">
<stop stop-color="#00C2FF"/>
<stop offset="1" stop-color="#3DFFA2"/>
</linearGradient>
<linearGradient id="paint2_linear" x1="16.7117" y1="43.4707" x2="16.7117" y2="52.1875" gradientUnits="userSpaceOnUse">
<stop stop-color="#00C2FF"/>
<stop offset="1" stop-color="#3DFFA2"/>
</linearGradient>
<linearGradient id="paint3_linear" x1="24.6638" y1="23.3096" x2="24.6638" y2="29.4681" gradientUnits="userSpaceOnUse">
<stop stop-color="#00C2FF"/>
<stop offset="1" stop-color="#3DFFA2"/>
</linearGradient>
<linearGradient id="paint4_linear" x1="25.5161" y1="50.0049" x2="25.5161" y2="57.8671" gradientUnits="userSpaceOnUse">
<stop stop-color="#00C2FF"/>
<stop offset="1" stop-color="#3DFFA2"/>
</linearGradient>
<linearGradient id="paint5_linear" x1="48.3699" y1="18.7031" x2="48.3699" y2="42.2025" gradientUnits="userSpaceOnUse">
<stop stop-color="#00C2FF"/>
<stop offset="1" stop-color="#3DFFA2"/>
</linearGradient>
<linearGradient id="paint6_linear" x1="62.871" y1="44.8936" x2="62.871" y2="57.2114" gradientUnits="userSpaceOnUse">
<stop stop-color="#00C2FF"/>
<stop offset="1" stop-color="#3DFFA2"/>
</linearGradient>
<linearGradient id="paint7_linear" x1="60.4482" y1="6.26758" x2="60.4482" y2="43.0991" gradientUnits="userSpaceOnUse">
<stop stop-color="#00C2FF"/>
<stop offset="1" stop-color="#3DFFA2"/>
</linearGradient>
<linearGradient id="paint8_linear" x1="55.6345" y1="56.2529" x2="55.6345" y2="73.7716" gradientUnits="userSpaceOnUse">
<stop stop-color="#00C2FF"/>
<stop offset="1" stop-color="#3DFFA2"/>
</linearGradient>
<linearGradient id="paint9_linear" x1="46.5762" y1="42.083" x2="46.5762" y2="64.5659" gradientUnits="userSpaceOnUse">
<stop stop-color="#00C2FF"/>
<stop offset="1" stop-color="#3DFFA2"/>
</linearGradient>
<clipPath id="clip0">
<rect width="80" height="80" fill="white"/>
</clipPath>
</defs>
</svg>
