<svg width="80" height="80" viewBox="0 0 80 80" fill="none" xmlns="http://www.w3.org/2000/svg">
<path d="M77.2609 3.8623H2.73906C1.22875 3.8623 0 5.09105 0 6.60137V57.176C0 58.6863 1.22875 59.9151 2.73906 59.9151H18.1417L18.4578 61.386C18.7941 62.9518 20.0661 64.1421 21.6047 64.4168C20.9722 65.5515 20.6102 66.8568 20.6102 68.2456C20.6102 72.5962 24.1497 76.1357 28.5003 76.1357C32.8509 76.1357 36.3905 72.5962 36.3905 68.2456C36.3905 66.8817 36.0423 65.5976 35.4306 64.4771H41.9834C41.3717 65.5976 41.0236 66.8817 41.0236 68.2456C41.0236 72.5962 44.5631 76.1357 48.9137 76.1357C53.2644 76.1357 56.8039 72.5962 56.8039 68.2456C56.8039 66.8724 56.4506 65.5806 55.8313 64.4548C57.4952 64.2835 58.9052 63.0468 59.262 61.3859L67.7877 21.7053H77.652V57.176C77.652 57.3918 77.4766 57.5673 77.2608 57.5673H64.4703C63.8219 57.5673 63.2964 58.0928 63.2964 58.7412C63.2964 59.3896 63.8219 59.9151 64.4703 59.9151H77.2608C78.7711 59.9151 79.9998 58.6863 79.9998 57.176V6.60137C80 5.09105 78.7712 3.8623 77.2609 3.8623ZM28.5003 73.7879C25.4442 73.7879 22.9578 71.3015 22.9578 68.2454C22.9578 65.1893 25.4441 62.7029 28.5003 62.7029C31.5566 62.7029 34.0428 65.1893 34.0428 68.2454C34.0428 71.3017 31.5564 73.7879 28.5003 73.7879ZM48.9139 73.7879C45.8578 73.7879 43.3714 71.3015 43.3714 68.2454C43.3714 65.1893 45.8578 62.7029 48.9139 62.7029C51.97 62.7029 54.4564 65.1893 54.4564 68.2454C54.4562 71.3017 51.9698 73.7879 48.9139 73.7879ZM74.3138 19.3575C75.1009 18.6412 75.5956 17.609 75.5956 16.4636C75.5956 14.3059 73.8403 12.5506 71.6827 12.5506H67.9898C64.3745 12.5506 61.1992 15.1162 60.4395 18.6509L60.2878 19.3573H49.2027C48.5542 19.3573 48.0288 19.8828 48.0288 20.5312C48.0288 21.1796 48.5542 21.7051 49.2027 21.7051H59.7836L58.5922 27.2506H15.9664C14.7786 27.2506 13.6692 27.7806 12.9227 28.7045C12.1763 29.6282 11.8912 30.8242 12.1408 31.9856L15.0352 45.457C15.1714 46.091 15.7953 46.4934 16.4294 46.3582C17.0631 46.222 17.4666 45.5978 17.3305 44.964L14.4361 31.4926C14.3364 31.0279 14.4503 30.5495 14.7489 30.18C15.0475 29.8106 15.4913 29.5985 15.9664 29.5985H59.5406C60.0939 29.5985 60.572 29.2121 60.6884 28.6712L62.7353 19.1442C63.2639 16.684 65.4739 14.8986 67.9902 14.8986H71.683C72.5459 14.8986 73.2481 15.6007 73.2481 16.4637C73.2481 17.3267 72.5459 18.0289 71.683 18.0289H67.9902C66.9395 18.0289 66.0166 18.7745 65.7956 19.802L56.9669 60.8931C56.813 61.6095 56.1695 62.1295 55.4367 62.1295H53.8919C52.533 61.0215 50.8 60.3556 48.9141 60.3556C47.0281 60.3556 45.2952 61.0215 43.9362 62.1295H33.4784C32.1195 61.0215 30.3866 60.3556 28.5006 60.3556C26.6147 60.3556 24.8817 61.0215 23.5228 62.1295H22.2837C21.5509 62.1295 20.9073 61.6095 20.7534 60.8931L18.3442 49.6804C18.2081 49.0463 17.5845 48.6445 16.95 48.7792C16.3161 48.9154 15.9128 49.5396 16.0489 50.1734L17.6377 57.5674H2.73906C2.52328 57.5674 2.34781 57.392 2.34781 57.1762V21.7053H43.773C44.4214 21.7053 44.9469 21.1798 44.9469 20.5314C44.9469 19.8829 44.4214 19.3575 43.773 19.3575H2.34781V6.60121C2.34781 6.38543 2.52344 6.20996 2.73906 6.20996H77.2609C77.4767 6.20996 77.6522 6.38543 77.6522 6.60121V19.3575H74.3138Z" fill="url(#paint0_linear)"/>
<path d="M8.67676 15.0293C9.94097 15.0293 10.9658 14.0045 10.9658 12.7402C10.9658 11.476 9.94097 10.4512 8.67676 10.4512C7.41254 10.4512 6.3877 11.476 6.3877 12.7402C6.3877 14.0045 7.41254 15.0293 8.67676 15.0293Z" fill="url(#paint1_linear)"/>
<path d="M15.6377 15.0293C16.9019 15.0293 17.9268 14.0045 17.9268 12.7402C17.9268 11.476 16.9019 10.4512 15.6377 10.4512C14.3735 10.4512 13.3486 11.476 13.3486 12.7402C13.3486 14.0045 14.3735 15.0293 15.6377 15.0293Z" fill="url(#paint2_linear)"/>
<path d="M22.5996 15.0293C23.8638 15.0293 24.8887 14.0045 24.8887 12.7402C24.8887 11.476 23.8638 10.4512 22.5996 10.4512C21.3354 10.4512 20.3105 11.476 20.3105 12.7402C20.3105 14.0045 21.3354 15.0293 22.5996 15.0293Z" fill="url(#paint3_linear)"/>
<path d="M42.159 52.3291H35.2549C34.9268 52.3291 34.6136 52.4663 34.3914 52.7077C34.1693 52.9491 34.058 53.2724 34.085 53.5993L34.441 57.9213C34.4911 58.5302 34.9999 58.9989 35.6108 58.9989H41.8032C42.4141 58.9989 42.923 58.5304 42.973 57.9213L43.3288 53.5993C43.3557 53.2724 43.2446 52.9491 43.0224 52.7077C42.8 52.4664 42.4869 52.3291 42.159 52.3291ZM40.7218 56.6511H36.6919L36.5294 54.6769H40.8846L40.7218 56.6511Z" fill="url(#paint4_linear)"/>
<path d="M19.1367 38.4714C19.253 39.0123 19.7311 39.3987 20.2844 39.3987H28.4995C29.1664 39.4132 29.7386 38.7918 29.6694 38.1286L29.3136 33.8065C29.2634 33.1976 28.7547 32.7288 28.1438 32.7288H19.3558C18.6303 32.7107 18.038 33.444 18.2081 34.1493L19.1367 38.4714ZM27.0627 35.0767L27.2252 37.0509H21.233L20.8088 35.0767H27.0627Z" fill="url(#paint5_linear)"/>
<path d="M23.5674 52.3291C23.2127 52.3291 22.8771 52.4894 22.6543 52.7652C22.4315 53.0411 22.3452 53.4029 22.4198 53.7496L23.3484 58.0716C23.4646 58.6125 23.9427 58.9989 24.496 58.9989H30.1138C30.442 58.9989 30.7551 58.8618 30.9773 58.6204C31.1995 58.3789 31.3107 58.0557 31.2837 57.7288L30.9278 53.4068C30.8776 52.7979 30.3688 52.3291 29.7579 52.3291H23.5674ZM25.4445 56.6511L25.0202 54.6769H28.6767L28.8392 56.6511H25.4445Z" fill="url(#paint6_linear)"/>
<path d="M21.462 42.5283C21.1073 42.5283 20.7718 42.6886 20.5488 42.9644C20.326 43.2404 20.2398 43.6021 20.3143 43.9488L21.2429 48.271C21.359 48.8119 21.8373 49.1984 22.3906 49.1984H29.3071C29.6353 49.1984 29.9484 49.0612 30.1706 48.8198C30.3928 48.5784 30.504 48.2551 30.477 47.9282L30.121 43.606C30.0709 42.9971 29.5621 42.5283 28.9512 42.5283H21.462ZM23.339 46.8504L22.9148 44.876H27.8699L28.0324 46.8504H23.339Z" fill="url(#paint7_linear)"/>
<path d="M32.8267 38.321C32.8768 38.9299 33.3856 39.3986 33.9965 39.3986H43.4165C44.0275 39.3986 44.5364 38.93 44.5864 38.321L44.9422 33.9989C45.0109 33.3356 44.4394 32.7142 43.7722 32.7288H33.6404C32.974 32.7142 32.401 33.3356 32.4706 33.9989L32.8267 38.321ZM42.4979 35.0766L42.3353 37.0508H35.0776L34.9151 35.0766H42.4979Z" fill="url(#paint8_linear)"/>
<path d="M48.1063 49.1983H55.3286C55.8819 49.1983 56.36 48.8119 56.4764 48.271L57.405 43.9488C57.4794 43.6021 57.3933 43.2403 57.1703 42.9644C56.9475 42.6886 56.6119 42.5283 56.2572 42.5283H48.4622C47.8513 42.5283 47.3424 42.9969 47.2924 43.606L46.9366 47.9281C46.9097 48.255 47.0208 48.5783 47.243 48.8197C47.465 49.061 47.7781 49.1983 48.1063 49.1983ZM49.5433 44.8761H54.8042L54.38 46.8505H49.3806L49.5433 44.8761Z" fill="url(#paint9_linear)"/>
<path d="M48.9137 39.3987H57.4348C57.9881 39.3987 58.4662 39.0123 58.5826 38.4714L59.5112 34.1493C59.6812 33.444 59.0888 32.7109 58.3634 32.7288H49.2696C48.6587 32.7288 48.1498 33.1974 48.0998 33.8065L47.744 38.1285C47.6745 38.7918 48.2468 39.4132 48.9137 39.3987ZM50.3507 35.0767H56.9104L56.4862 37.0509H50.1881L50.3507 35.0767Z" fill="url(#paint10_linear)"/>
<path d="M42.9662 42.5283H34.4482C34.1201 42.5283 33.807 42.6655 33.5848 42.9069C33.3626 43.1483 33.2514 43.4716 33.2784 43.7985L33.6342 48.1207C33.6843 48.7296 34.1931 49.1984 34.804 49.1984H42.6103C43.2212 49.1984 43.7301 48.7298 43.7801 48.1207L44.1359 43.7985C44.1628 43.4716 44.0517 43.1483 43.8295 42.9069C43.6073 42.6655 43.2942 42.5283 42.9662 42.5283ZM41.529 46.8504H35.8853L35.7228 44.876H41.6917L41.529 46.8504Z" fill="url(#paint11_linear)"/>
<path d="M47.2996 58.9989H53.223C53.7763 58.9989 54.2545 58.6125 54.3709 58.0716L55.2996 53.7496C55.374 53.4029 55.2879 53.0411 55.0649 52.7652C54.8421 52.4894 54.5065 52.3291 54.1518 52.3291H47.6555C47.0446 52.3291 46.5357 52.7977 46.4857 53.4068L46.1299 57.7288C46.1031 58.0557 46.2141 58.3789 46.4363 58.6204C46.6585 58.8618 46.9716 58.9989 47.2996 58.9989ZM48.7368 54.6771H52.6988L52.2746 56.6513H48.5741L48.7368 54.6771Z" fill="url(#paint12_linear)"/>
<path d="M28.5012 66.2305C27.3884 66.2305 26.4863 67.1327 26.4863 68.2453C26.4863 69.3581 27.3884 70.2603 28.5012 70.2603C29.614 70.2603 30.516 69.3581 30.516 68.2453C30.516 67.1327 29.614 66.2305 28.5012 66.2305Z" fill="url(#paint13_linear)"/>
<path d="M48.9143 66.2305C47.8014 66.2305 46.8994 67.1327 46.8994 68.2453C46.8994 69.3581 47.8014 70.2603 48.9143 70.2603C50.0271 70.2603 50.9291 69.3581 50.9291 68.2453C50.9291 67.1327 50.0271 66.2305 48.9143 66.2305Z" fill="url(#paint14_linear)"/>
<defs>
<linearGradient id="paint0_linear" x1="39.9999" y1="3.8623" x2="39.9999" y2="76.1357" gradientUnits="userSpaceOnUse">
<stop stop-color="#00C2FF"/>
<stop offset="1" stop-color="#3DFFA2"/>
</linearGradient>
<linearGradient id="paint1_linear" x1="8.67676" y1="10.4512" x2="8.67676" y2="15.0293" gradientUnits="userSpaceOnUse">
<stop stop-color="#00C2FF"/>
<stop offset="1" stop-color="#3DFFA2"/>
</linearGradient>
<linearGradient id="paint2_linear" x1="15.6377" y1="10.4512" x2="15.6377" y2="15.0293" gradientUnits="userSpaceOnUse">
<stop stop-color="#00C2FF"/>
<stop offset="1" stop-color="#3DFFA2"/>
</linearGradient>
<linearGradient id="paint3_linear" x1="22.5996" y1="10.4512" x2="22.5996" y2="15.0293" gradientUnits="userSpaceOnUse">
<stop stop-color="#00C2FF"/>
<stop offset="1" stop-color="#3DFFA2"/>
</linearGradient>
<linearGradient id="paint4_linear" x1="38.7069" y1="52.3291" x2="38.7069" y2="58.9989" gradientUnits="userSpaceOnUse">
<stop stop-color="#00C2FF"/>
<stop offset="1" stop-color="#3DFFA2"/>
</linearGradient>
<linearGradient id="paint5_linear" x1="23.9269" y1="32.7285" x2="23.9269" y2="39.399" gradientUnits="userSpaceOnUse">
<stop stop-color="#00C2FF"/>
<stop offset="1" stop-color="#3DFFA2"/>
</linearGradient>
<linearGradient id="paint6_linear" x1="26.8406" y1="52.3291" x2="26.8406" y2="58.9989" gradientUnits="userSpaceOnUse">
<stop stop-color="#00C2FF"/>
<stop offset="1" stop-color="#3DFFA2"/>
</linearGradient>
<linearGradient id="paint7_linear" x1="25.3845" y1="42.5283" x2="25.3845" y2="49.1984" gradientUnits="userSpaceOnUse">
<stop stop-color="#00C2FF"/>
<stop offset="1" stop-color="#3DFFA2"/>
</linearGradient>
<linearGradient id="paint8_linear" x1="38.7063" y1="32.7285" x2="38.7063" y2="39.3986" gradientUnits="userSpaceOnUse">
<stop stop-color="#00C2FF"/>
<stop offset="1" stop-color="#3DFFA2"/>
</linearGradient>
<linearGradient id="paint9_linear" x1="52.1819" y1="42.5283" x2="52.1819" y2="49.1983" gradientUnits="userSpaceOnUse">
<stop stop-color="#00C2FF"/>
<stop offset="1" stop-color="#3DFFA2"/>
</linearGradient>
<linearGradient id="paint10_linear" x1="53.6394" y1="32.7285" x2="53.6394" y2="39.399" gradientUnits="userSpaceOnUse">
<stop stop-color="#00C2FF"/>
<stop offset="1" stop-color="#3DFFA2"/>
</linearGradient>
<linearGradient id="paint11_linear" x1="38.7071" y1="42.5283" x2="38.7071" y2="49.1984" gradientUnits="userSpaceOnUse">
<stop stop-color="#00C2FF"/>
<stop offset="1" stop-color="#3DFFA2"/>
</linearGradient>
<linearGradient id="paint12_linear" x1="50.7259" y1="52.3291" x2="50.7259" y2="58.9989" gradientUnits="userSpaceOnUse">
<stop stop-color="#00C2FF"/>
<stop offset="1" stop-color="#3DFFA2"/>
</linearGradient>
<linearGradient id="paint13_linear" x1="28.5012" y1="66.2305" x2="28.5012" y2="70.2603" gradientUnits="userSpaceOnUse">
<stop stop-color="#00C2FF"/>
<stop offset="1" stop-color="#3DFFA2"/>
</linearGradient>
<linearGradient id="paint14_linear" x1="48.9143" y1="66.2305" x2="48.9143" y2="70.2603" gradientUnits="userSpaceOnUse">
<stop stop-color="#00C2FF"/>
<stop offset="1" stop-color="#3DFFA2"/>
</linearGradient>
</defs>
</svg>
