<svg width="80" height="80" viewBox="0 0 80 80" fill="none" xmlns="http://www.w3.org/2000/svg">
<path d="M19.256 17.4781C19.0218 16.8707 18.4443 16.4709 17.801 16.4707C17.8008 16.4707 17.8008 16.4707 17.8007 16.4707C17.1575 16.4707 16.5799 16.8702 16.3455 17.4776L11.7319 29.4308C11.4174 30.2456 11.8139 31.1645 12.6175 31.4834C12.8046 31.5575 12.9972 31.5927 13.1866 31.5927C13.8111 31.5927 14.4008 31.2106 14.6421 30.5855L15.4246 28.5583H20.1732L20.9547 30.585C21.2688 31.3999 22.1754 31.8025 22.9788 31.4836C23.7827 31.165 24.1794 30.2462 23.8652 29.4313L19.256 17.4781ZM16.6475 25.3899L17.8 22.4038L18.9516 25.3899H16.6475Z" fill="url(#paint0_linear)"/>
<path d="M27.8906 31.5922C28.7534 31.5922 29.4531 30.883 29.4531 30.0081V18.0548C29.4531 17.1799 28.7534 16.4707 27.8906 16.4707C27.0278 16.4707 26.3281 17.1799 26.3281 18.0548V30.0081C26.3281 30.883 27.0278 31.5922 27.8906 31.5922Z" fill="url(#paint1_linear)"/>
<path d="M74.233 36.7543C71.8334 36.7543 69.7992 38.3706 69.1302 40.587H65.7292L64.4347 34.9075C64.273 34.1983 63.6295 33.68 62.9123 33.68H59.8063C60.4273 31.7611 60.8513 29.6076 60.9755 27.1106L69.5616 27.1121C70.2309 29.3261 72.2647 30.9407 74.6639 30.9407C77.6062 30.9407 80 28.5127 80 25.5282C80 22.5413 77.6062 20.1114 74.6639 20.1114C72.2644 20.1114 70.2303 21.7277 69.5612 23.9439L60.9705 23.9423C60.8517 21.6475 60.4767 19.449 59.8537 17.3722H62.912C63.6294 17.3722 64.2723 16.8539 64.4344 16.1447L65.7289 10.4652H69.1303C69.7997 12.6791 71.8337 14.2936 74.2328 14.2936C77.1777 14.2936 79.5733 11.8656 79.5733 8.8811C79.5733 5.89659 77.1777 3.46874 74.2328 3.46874C71.8337 3.46874 69.7998 5.08313 69.1303 7.29697H64.4864C63.7731 7.29697 63.1725 7.78219 62.9855 8.44451C62.9778 8.46923 62.9706 8.49552 62.9641 8.52451L61.6695 14.204H58.6689C57.5916 11.827 56.152 9.65163 54.3658 7.72484C53.775 7.08723 52.7863 7.05618 52.1572 7.65546C51.5284 8.25473 51.4977 9.25718 52.0888 9.89463C53.3013 11.2025 54.33 12.6456 55.1702 14.204H50.197C49.3342 14.204 48.6345 14.9132 48.6345 15.7881C48.6345 16.663 49.3342 17.3722 50.197 17.3722H56.5623C57.2756 19.4229 57.7056 21.6239 57.8409 23.9417L48.1875 23.9398C48.1873 23.9398 48.1873 23.9398 48.1872 23.9398C47.3244 23.9398 46.6248 24.6488 46.6247 25.5236C46.6245 26.3985 47.3241 27.1079 48.1869 27.108L57.8436 27.1099C57.6998 29.6528 57.2039 31.7872 56.4813 33.68H50.1972C49.3344 33.68 48.6347 34.3892 48.6347 35.2641C48.6347 36.139 49.3344 36.8482 50.1972 36.8482H54.9723C54.0048 38.5474 52.8809 40.1006 51.7331 41.6849C49.2866 45.062 46.7645 48.5461 45.7336 53.6198H27.2533C26.6984 50.8935 25.7245 48.6612 24.6516 46.7656C25.9997 46.4055 26.9981 45.1623 26.9981 43.6835V43.2288C28.2486 42.8523 29.4531 42.345 30.5991 41.7127L30.9188 42.0371C31.5119 42.6386 32.3019 42.9698 33.1433 42.9698C33.9847 42.9698 34.7747 42.6386 35.3678 42.0369L38.5036 38.8555C39.7295 37.612 39.7295 35.5884 38.5036 34.3448L38.1828 34.0195C38.8066 32.8565 39.3067 31.6339 39.6781 30.3649H40.125C41.8597 30.3649 43.2709 28.9336 43.2709 27.1744V22.6769C43.2709 20.9177 41.8597 19.4864 40.125 19.4864H39.6781C39.3067 18.2174 38.8066 16.9949 38.1828 15.8318L38.5036 15.5064C39.7294 14.2629 39.7294 12.2395 38.5036 10.9958L35.3678 7.81435C34.7747 7.21285 33.9847 6.88161 33.1433 6.88161C32.3019 6.88161 31.5119 7.21285 30.9188 7.8145L30.5991 8.13878C29.453 7.50623 28.2486 6.99915 26.9981 6.6226V6.16795C26.9981 5.90087 26.962 5.64265 26.9008 5.39442C29.8952 3.88917 33.1767 3.12166 36.475 3.1695C36.4894 3.16966 36.5036 3.16966 36.5178 3.1695C38.0492 3.14922 39.585 3.30352 41.0867 3.62985C41.9303 3.81266 42.7611 3.26819 42.9419 2.4126C43.1225 1.55716 42.5852 0.715036 41.7413 0.531751C40.0181 0.15742 38.2536 -0.0215875 36.4973 0.00122411C32.3484 -0.0559632 28.2389 1.0024 24.558 3.0613C24.3306 3.00823 24.0952 2.97734 23.8522 2.97734H19.4189C17.6842 2.97734 16.273 4.40861 16.273 6.16779V6.62244C15.0225 6.99899 13.8181 7.50607 12.672 8.13862L12.3523 7.81435C11.7592 7.21285 10.9692 6.88161 10.1278 6.88161C9.28641 6.88161 8.49641 7.21285 7.90328 7.8145L4.7675 10.9964C3.54172 12.2399 3.54172 14.2634 4.7675 15.5071L5.08828 15.8325C4.46453 16.9955 3.96438 18.218 3.59297 19.4871H3.14609C1.41125 19.4869 0 20.9182 0 22.6774V27.1749C0 28.9341 1.41125 30.3653 3.14594 30.3653H3.59281C3.96422 31.6344 4.46438 32.857 5.08812 34.0199L4.76734 34.3453C3.54141 35.5889 3.54141 37.6124 4.76734 38.856L7.90313 42.0374C8.49625 42.6389 9.28625 42.9701 10.1277 42.9701C10.9691 42.9701 11.7591 42.6389 12.3522 42.0372L12.6719 41.713C13.8178 42.3454 15.0223 42.8526 16.2728 43.2291V43.6838C16.2728 45.443 17.6841 46.8742 19.4188 46.8742H21.0498C22.3572 48.9037 23.6589 51.3776 24.2584 54.5914C23.0025 55.5168 22.1839 57.0164 22.1839 58.7068C22.1839 60.0649 22.7119 61.2994 23.5692 62.2131C22.7119 63.1261 22.1839 64.3595 22.1839 65.7164C22.1839 68.0984 23.8081 70.1021 25.9928 70.6526V73.8191C25.9928 77.2268 28.7259 79.999 32.0853 79.999H40.9036C44.2655 79.999 47.0006 77.2268 47.0006 73.8191V70.6523C49.183 70.1015 50.8052 68.0979 50.8052 65.7164C50.8052 64.3596 50.2777 63.1262 49.4209 62.2131C50.2777 61.2994 50.8052 60.0649 50.8052 58.7068C50.8052 57.0151 49.9859 55.5146 48.7297 54.5893C49.5794 50.0116 51.8525 46.8725 54.2517 43.5609C55.7634 41.4742 57.2975 39.3539 58.5222 36.8486H61.6697L62.9642 42.528C63.1259 43.2374 63.7692 43.7556 64.4866 43.7556H69.1305C69.7998 45.9694 71.8339 47.5838 74.233 47.5838C77.1778 47.5838 79.5734 45.1558 79.5734 42.1714C79.5734 39.1842 77.1778 36.7543 74.233 36.7543ZM74.6639 23.2798C75.8831 23.2798 76.875 24.2886 76.875 25.5283C76.875 26.7659 75.883 27.7726 74.6639 27.7726C73.4448 27.7726 72.453 26.7659 72.453 25.5283C72.4528 24.2886 73.4447 23.2798 74.6639 23.2798ZM74.233 6.63717C75.4545 6.63717 76.4484 7.64389 76.4484 8.88126C76.4484 10.1188 75.4547 11.1255 74.233 11.1255C73.0137 11.1255 72.0219 10.1188 72.0219 8.88126C72.0217 7.64389 73.0137 6.63717 74.233 6.63717ZM23.8731 42.006V43.6836C23.8731 43.6928 23.8595 43.7058 23.8522 43.7058H21.8831C21.8797 43.7058 21.8762 43.7058 21.8727 43.7058H19.4189C19.4116 43.7058 19.398 43.6928 19.398 43.6836V42.006C19.398 41.2653 18.8917 40.6236 18.1791 40.4607C16.4292 40.0609 14.7738 39.3637 13.2589 38.3887C13.0014 38.2228 12.7108 38.1419 12.422 38.1419C12.0183 38.1419 11.618 38.3003 11.3164 38.6062L10.142 39.7974C10.1353 39.8044 10.1203 39.8042 10.1136 39.7974L6.97781 36.616C6.97188 36.61 6.97188 36.5907 6.97781 36.5846L8.15219 35.3932C8.66906 34.8689 8.75813 34.0513 8.36656 33.4252C7.40547 31.888 6.71812 30.2085 6.32391 28.433C6.16344 27.7102 5.53031 27.1967 4.79953 27.1967H3.14594C3.13859 27.1967 3.125 27.1837 3.125 27.1746V22.677C3.125 22.6678 3.13859 22.6549 3.14594 22.6549H4.79953C5.53031 22.6549 6.16344 22.1414 6.32391 21.4186C6.71812 19.6433 7.40547 17.9636 8.36656 16.4263C8.75813 15.8001 8.66906 14.9826 8.15219 14.4584L6.97781 13.2671C6.97172 13.2609 6.97172 13.2416 6.97781 13.2356L10.1136 10.0543C10.1203 10.0475 10.1353 10.0477 10.142 10.0543L11.3164 11.2456C11.8339 11.7704 12.6413 11.8607 13.2591 11.4632C14.7741 10.4882 16.4295 9.79103 18.1791 9.39119C18.8919 9.22835 19.3981 8.58645 19.3981 7.84587V6.16827C19.3981 6.15908 19.4117 6.14609 19.4191 6.14609H23.8523C23.8597 6.14609 23.8733 6.15908 23.8733 6.16827V7.84587C23.8733 8.58661 24.3795 9.2285 25.0923 9.39119C26.8419 9.79087 28.4973 10.4881 30.0123 11.4632C30.6298 11.8609 31.4375 11.7706 31.955 11.2456L33.1294 10.0543C33.1361 10.0475 33.1511 10.0477 33.1578 10.0543L36.2936 13.2356C36.2997 13.2418 36.2997 13.2611 36.2936 13.2671L35.1192 14.4584C34.6023 14.9827 34.5133 15.8003 34.9048 16.4263C35.8659 17.9636 36.5533 19.6433 36.9475 21.4186C37.108 22.1414 37.7411 22.6549 38.4719 22.6549H40.1255C40.1328 22.6549 40.1464 22.6678 40.1464 22.677V27.1746C40.1464 27.1837 40.1328 27.1967 40.1255 27.1967H38.4719C37.7411 27.1967 37.108 27.7102 36.9475 28.433C36.5533 30.2085 35.8659 31.888 34.9048 33.4252C34.5133 34.0513 34.6023 34.8689 35.1192 35.3932L36.2936 36.5846C36.2995 36.5907 36.2995 36.61 36.2936 36.616L33.1578 39.7973C33.1511 39.8041 33.1361 39.8041 33.1294 39.7973L31.955 38.6058C31.4375 38.081 30.63 37.9906 30.0123 38.3882C28.4975 39.3632 26.842 40.0604 25.0922 40.4602C24.3794 40.6236 23.8731 41.2653 23.8731 42.006ZM43.8758 73.819C43.8758 75.4795 42.5427 76.8306 40.9037 76.8306H32.0855C30.4491 76.8306 29.118 75.4796 29.118 73.819V70.8029H43.8756V73.819H43.8758ZM45.7902 67.6347H27.2038C26.1591 67.6347 25.3092 66.774 25.3092 65.7163C25.3092 64.6584 26.1591 63.7979 27.2038 63.7979H45.7902C46.8323 63.7979 47.6803 64.6586 47.6803 65.7163C47.6802 66.774 46.8323 67.6347 45.7902 67.6347ZM45.7902 60.6296H27.2038C26.1591 60.6296 25.3092 59.7671 25.3092 58.7068C25.3092 57.6489 26.1591 56.7884 27.2038 56.7884H45.7902C46.8323 56.7884 47.6803 57.6491 47.6803 58.7068C47.6802 59.7669 46.8323 60.6296 45.7902 60.6296ZM74.233 44.4152C73.0137 44.4152 72.0219 43.4085 72.0219 42.1711C72.0219 40.9312 73.0139 39.9226 74.233 39.9226C75.4545 39.9226 76.4484 40.9314 76.4484 42.1711C76.4484 43.4085 75.4545 44.4152 74.233 44.4152Z" fill="url(#paint2_linear)"/>
<path d="M47.0937 5.93034L47.1026 5.93477C47.3264 6.0482 47.5637 6.1019 47.7975 6.1019C48.3698 6.1019 48.9204 5.77969 49.1943 5.22397C49.5803 4.44141 49.2629 3.4876 48.4911 3.09632C47.7193 2.70504 46.7806 3.02218 46.3948 3.80474C46.0089 4.58762 46.3217 5.53906 47.0937 5.93034Z" fill="url(#paint3_linear)"/>
<defs>
<linearGradient id="paint0_linear" x1="17.7985" y1="16.4707" x2="17.7985" y2="31.5929" gradientUnits="userSpaceOnUse">
<stop stop-color="#00C2FF"/>
<stop offset="1" stop-color="#3DFFA2"/>
</linearGradient>
<linearGradient id="paint1_linear" x1="27.8906" y1="16.4707" x2="27.8906" y2="31.5922" gradientUnits="userSpaceOnUse">
<stop stop-color="#00C2FF"/>
<stop offset="1" stop-color="#3DFFA2"/>
</linearGradient>
<linearGradient id="paint2_linear" x1="40" y1="-0.000976563" x2="40" y2="79.999" gradientUnits="userSpaceOnUse">
<stop stop-color="#00C2FF"/>
<stop offset="1" stop-color="#3DFFA2"/>
</linearGradient>
<linearGradient id="paint3_linear" x1="47.7941" y1="2.92871" x2="47.7941" y2="6.1019" gradientUnits="userSpaceOnUse">
<stop stop-color="#00C2FF"/>
<stop offset="1" stop-color="#3DFFA2"/>
</linearGradient>
</defs>
</svg>
