<svg width="80" height="80" viewBox="0 0 80 80" fill="none" xmlns="http://www.w3.org/2000/svg">
<path d="M77.487 66.075L74.9995 48.6625V11.25C74.9966 10.2564 74.6005 9.30425 73.8979 8.60163C73.1953 7.89901 72.2432 7.50297 71.2495 7.5H8.74954C7.75589 7.50297 6.80378 7.89901 6.10116 8.60163C5.39854 9.30425 5.0025 10.2564 4.99954 11.25V48.6625L2.51204 66.075C2.50166 66.1327 2.49747 66.1914 2.49954 66.25V71.25C2.50151 71.9124 2.76554 72.5472 3.23395 73.0156C3.70237 73.484 4.3371 73.748 4.99954 73.75H17.4995V77.5H19.9995V72.5C20.0001 72.2546 19.926 72.0148 19.787 71.8125L17.4995 68.375V59.375C17.4995 59.2092 17.5654 59.0503 17.6826 58.9331C17.7998 58.8158 17.9588 58.75 18.1245 58.75C18.2903 58.75 18.4493 58.8158 18.5665 58.9331C18.6837 59.0503 18.7495 59.2092 18.7495 59.375V62.5H21.2495V56.875C21.2495 56.7092 21.3154 56.5503 21.4326 56.4331C21.5498 56.3158 21.7088 56.25 21.8745 56.25C22.0403 56.25 22.1993 56.3158 22.3165 56.4331C22.4337 56.5503 22.4995 56.7092 22.4995 56.875V61.25H24.9995V54.375C24.9995 54.2092 25.0654 54.0503 25.1826 53.9331C25.2998 53.8158 25.4588 53.75 25.6245 53.75C25.7903 53.75 25.9493 53.8158 26.0665 53.9331C26.1837 54.0503 26.2495 54.2092 26.2495 54.375V61.25H28.7495V55.625C28.7495 55.4592 28.8154 55.3003 28.9326 55.1831C29.0498 55.0658 29.2088 55 29.3745 55C29.5403 55 29.6993 55.0658 29.8165 55.1831C29.9337 55.3003 29.9995 55.4592 29.9995 55.625V65H32.4995V61.875C32.4995 61.7092 32.5654 61.5503 32.6826 61.4331C32.7998 61.3158 32.9588 61.25 33.1245 61.25C33.2903 61.25 33.4493 61.3158 33.5665 61.4331C33.6837 61.5503 33.7495 61.7092 33.7495 61.875V69.325L30.562 71.4625C30.3901 71.5757 30.2488 71.7297 30.1506 71.9107C30.0525 72.0917 30.0006 72.2941 29.9995 72.5V77.5H32.4995V73.75H47.4995V77.5H49.9995V72.5C49.9985 72.2941 49.9466 72.0917 49.8484 71.9107C49.7503 71.7297 49.609 71.5757 49.437 71.4625L46.2495 69.325V61.875C46.2495 61.7092 46.3154 61.5503 46.4326 61.4331C46.5498 61.3158 46.7088 61.25 46.8745 61.25C47.0403 61.25 47.1993 61.3158 47.3165 61.4331C47.4337 61.5503 47.4995 61.7092 47.4995 61.875V65H49.9995V55.625C49.9995 55.4592 50.0654 55.3003 50.1826 55.1831C50.2998 55.0658 50.4588 55 50.6245 55C50.7903 55 50.9493 55.0658 51.0665 55.1831C51.1837 55.3003 51.2495 55.4592 51.2495 55.625V61.25H53.7495V54.375C53.7495 54.2092 53.8154 54.0503 53.9326 53.9331C54.0498 53.8158 54.2088 53.75 54.3745 53.75C54.5403 53.75 54.6993 53.8158 54.8165 53.9331C54.9337 54.0503 54.9995 54.2092 54.9995 54.375V61.25H57.4995V56.875C57.4995 56.7092 57.5654 56.5503 57.6826 56.4331C57.7998 56.3158 57.9588 56.25 58.1245 56.25C58.2903 56.25 58.4493 56.3158 58.5665 56.4331C58.6837 56.5503 58.7495 56.7092 58.7495 56.875V62.5H61.2495V59.375C61.2495 59.2092 61.3154 59.0503 61.4326 58.9331C61.5498 58.8158 61.7088 58.75 61.8745 58.75C62.0403 58.75 62.1993 58.8158 62.3165 58.9331C62.4337 59.0503 62.4995 59.2092 62.4995 59.375V68.375L60.212 71.8125C60.0731 72.0148 59.9989 72.2546 59.9995 72.5V77.5H62.4995V73.75H74.9995C75.662 73.748 76.2967 73.484 76.7651 73.0156C77.2335 72.5472 77.4976 71.9124 77.4995 71.25V66.25C77.5016 66.1914 77.4974 66.1327 77.487 66.075ZM7.49954 11.25C7.49954 10.9185 7.63123 10.6005 7.86565 10.3661C8.10007 10.1317 8.41802 10 8.74954 10H71.2495C71.5811 10 71.899 10.1317 72.1334 10.3661C72.3678 10.6005 72.4995 10.9185 72.4995 11.25V47.5H7.49954V11.25ZM4.99954 71.25V67.5H14.9995V68.75C14.9989 68.9954 15.073 69.2352 15.212 69.4375L16.412 71.25H4.99954ZM35.3745 71.25L35.687 71.0375C35.859 70.9243 36.0003 70.7703 36.0984 70.5893C36.1966 70.4083 36.2485 70.2059 36.2495 70V67.5H43.7495V70C43.7506 70.2059 43.8025 70.4083 43.9006 70.5893C43.9988 70.7703 44.1401 70.9243 44.312 71.0375L44.6245 71.25H35.3745ZM61.8745 56.25C61.6474 56.2488 61.4209 56.274 61.1995 56.325C61.0705 55.6032 60.6918 54.9498 60.1296 54.4791C59.5675 54.0084 58.8577 53.7503 58.1245 53.75C57.8974 53.7488 57.6709 53.774 57.4495 53.825C57.34 53.2043 57.045 52.6315 56.6033 52.1819C56.1616 51.7323 55.594 51.4272 54.9754 51.3067C54.3568 51.1862 53.7162 51.2561 53.1381 51.507C52.5599 51.758 52.0715 52.1783 51.737 52.7125C51.3828 52.5725 51.0054 52.5004 50.6245 52.5C49.7957 52.5 49.0009 52.8292 48.4148 53.4153C47.8288 54.0013 47.4995 54.7962 47.4995 55.625V58.8125C47.2936 58.7725 47.0843 58.7516 46.8745 58.75C46.0457 58.75 45.2509 59.0792 44.6648 59.6653C44.0788 60.2513 43.7495 61.0462 43.7495 61.875V65H36.2495V61.875C36.2495 61.0462 35.9203 60.2513 35.3342 59.6653C34.7482 59.0792 33.9533 58.75 33.1245 58.75C32.9147 58.7516 32.7055 58.7725 32.4995 58.8125V55.625C32.4995 54.7962 32.1703 54.0013 31.5842 53.4153C30.9982 52.8292 30.2033 52.5 29.3745 52.5C28.9937 52.5004 28.6163 52.5725 28.262 52.7125C27.9276 52.1783 27.4391 51.758 26.861 51.507C26.2829 51.2561 25.6423 51.1862 25.0237 51.3067C24.4051 51.4272 23.8375 51.7323 23.3958 52.1819C22.9541 52.6315 22.6591 53.2043 22.5495 53.825C22.3282 53.774 22.1017 53.7488 21.8745 53.75C21.1413 53.7503 20.4316 54.0084 19.8694 54.4791C19.3073 54.9498 18.9286 55.6032 18.7995 56.325C18.5782 56.274 18.3517 56.2488 18.1245 56.25C17.2957 56.25 16.5009 56.5792 15.9148 57.1653C15.3288 57.7513 14.9995 58.5462 14.9995 59.375V65H5.18704L7.33704 50H72.662L74.812 65H64.9995V59.375C64.9995 58.5462 64.6703 57.7513 64.0843 57.1653C63.4982 56.5792 62.7033 56.25 61.8745 56.25ZM74.9995 71.25H63.587L64.787 69.4375C64.926 69.2352 65.0001 68.9954 64.9995 68.75V67.5H74.9995V71.25Z" fill="url(#paint0_linear)"/>
<path d="M19.5833 21H10.4167C10.3062 21 10.2002 21.3161 10.122 21.8787C10.0439 22.4413 10 23.2044 10 24V42C10 42.7957 10.0439 43.5587 10.122 44.1213C10.2002 44.6839 10.3062 45 10.4167 45H19.5833C19.6938 45 19.7998 44.6839 19.878 44.1213C19.9561 43.5587 20 42.7957 20 42V24C20 23.2044 19.9561 22.4413 19.878 21.8787C19.7998 21.3161 19.6938 21 19.5833 21ZM19.1667 39H10.8333V27H19.1667V39Z" fill="url(#paint1_linear)"/>
<path d="M52.5 42.5H50V45H52.5V42.5Z" fill="url(#paint2_linear)"/>
<path d="M62.5 42.5H55V45H62.5V42.5Z" fill="url(#paint3_linear)"/>
<path d="M62.1242 14.2403C61.2262 14.2362 60.3418 14.4609 59.5546 14.8932C58.7674 15.3255 58.1033 15.9512 57.625 16.7113C57.1466 17.4714 56.8697 18.3408 56.8204 19.2375C56.7711 20.1342 56.9511 21.0288 57.3433 21.8367L52.0135 27.1665C51.3027 26.817 50.5213 26.6352 49.7292 26.6352C48.9372 26.6352 48.1557 26.817 47.445 27.1665L43.8859 23.6074C44.3001 22.7519 44.4773 21.801 44.3988 20.8538C44.3203 19.9065 43.9892 18.9977 43.4398 18.222C42.8905 17.4464 42.1431 16.8323 41.2756 16.4439C40.4081 16.0555 39.4523 15.907 38.5078 16.0138C37.5634 16.1206 36.6649 16.4788 35.906 17.0512C35.1472 17.6235 34.5558 18.389 34.1936 19.2677C33.8313 20.1465 33.7115 21.1063 33.8466 22.0472C33.9816 22.988 34.3667 23.8754 34.9615 24.6167L31.4024 30.3007C31.0234 30.2235 30.6381 30.1821 30.2514 30.1767C29.0352 30.1659 27.8515 30.569 26.8947 31.3199C25.9379 32.0708 25.2649 33.1248 24.9863 34.3087C24.7077 35.4926 24.84 36.7361 25.3615 37.8348C25.8831 38.9336 26.7628 39.8223 27.8562 40.355C28.9496 40.8877 30.1917 41.0327 31.3784 40.7661C32.5651 40.4996 33.6258 39.8373 34.3864 38.8882C35.1469 37.9391 35.5621 36.7595 35.5636 35.5433C35.5652 34.327 35.153 33.1464 34.3949 32.1953L37.954 26.5114C38.3329 26.5885 38.7183 26.63 39.105 26.6353C39.8966 26.6318 40.6773 26.4503 41.3892 26.1041L44.9483 29.6632C44.5561 30.4731 44.376 31.3692 44.425 32.2677C44.4739 33.1662 44.7503 34.0375 45.2282 34.7999C45.7061 35.5624 46.3698 36.1909 47.1571 36.6266C47.9444 37.0623 48.8294 37.2909 49.7292 37.2909C50.6291 37.2909 51.5141 37.0623 52.3014 36.6266C53.0887 36.1909 53.7524 35.5624 54.2303 34.7999C54.7082 34.0375 54.9846 33.1662 55.0335 32.2677C55.0825 31.3692 54.9024 30.4731 54.5102 29.6632L59.84 24.3334C60.5599 24.682 61.3492 24.8636 62.1491 24.8645C62.9489 24.8654 63.7386 24.6858 64.4593 24.3389C65.18 23.9919 65.8131 23.4868 66.3113 22.861C66.8095 22.2352 67.1599 21.5051 67.3364 20.7249C67.513 19.9448 67.5111 19.1349 67.3309 18.3556C67.1507 17.5763 66.7969 16.8478 66.2958 16.2244C65.7947 15.6009 65.1593 15.0987 64.4369 14.7552C63.7146 14.4116 62.9241 14.2356 62.1242 14.2403ZM30.2514 37.2596C29.9012 37.2596 29.5588 37.1557 29.2677 36.9612C28.9765 36.7666 28.7495 36.49 28.6155 36.1665C28.4815 35.8429 28.4464 35.4869 28.5147 35.1434C28.583 34.7999 28.7517 34.4844 28.9993 34.2368C29.247 33.9891 29.5625 33.8205 29.906 33.7522C30.2494 33.6839 30.6055 33.7189 30.929 33.8529C31.2526 33.987 31.5291 34.2139 31.7237 34.5051C31.9183 34.7963 32.0221 35.1387 32.0221 35.4889C32.0221 35.9585 31.8356 36.4089 31.5035 36.741C31.1714 37.073 30.721 37.2596 30.2514 37.2596ZM39.105 23.0939C38.7548 23.0939 38.4124 22.99 38.1212 22.7955C37.83 22.6009 37.6031 22.3244 37.469 22.0008C37.335 21.6772 37.3 21.3212 37.3683 20.9777C37.4366 20.6342 37.6052 20.3187 37.8529 20.0711C38.1005 19.8235 38.416 19.6548 38.7595 19.5865C39.103 19.5182 39.459 19.5532 39.7826 19.6872C40.1061 19.8213 40.3827 20.0482 40.5773 20.3394C40.7718 20.6306 40.8757 20.973 40.8757 21.3232C40.8757 21.7928 40.6891 22.2432 40.3571 22.5753C40.025 22.9073 39.5746 23.0939 39.105 23.0939ZM49.7292 33.7182C49.379 33.7182 49.0367 33.6143 48.7455 33.4197C48.4543 33.2252 48.2273 32.9486 48.0933 32.6251C47.9593 32.3015 47.9242 31.9455 47.9926 31.602C48.0609 31.2585 48.2295 30.943 48.4772 30.6954C48.7248 30.4477 49.0403 30.2791 49.3838 30.2108C49.7273 30.1424 50.0833 30.1775 50.4069 30.3115C50.7304 30.4455 51.007 30.6725 51.2015 30.9637C51.3961 31.2549 51.5 31.5972 51.5 31.9474C51.5 32.4171 51.3134 32.8675 50.9813 33.1995C50.6493 33.5316 50.1989 33.7182 49.7292 33.7182ZM62.1242 21.3232C61.774 21.3232 61.4317 21.2193 61.1405 21.0248C60.8493 20.8302 60.6223 20.5536 60.4883 20.2301C60.3543 19.9065 60.3192 19.5505 60.3875 19.207C60.4559 18.8635 60.6245 18.548 60.8722 18.3004C61.1198 18.0527 61.4353 17.8841 61.7788 17.8158C62.1223 17.7474 62.4783 17.7825 62.8019 17.9165C63.1254 18.0506 63.402 18.2775 63.5965 18.5687C63.7911 18.8599 63.8949 19.2022 63.8949 19.5525C63.8949 20.0221 63.7084 20.4725 63.3763 20.8045C63.0442 21.1366 62.5939 21.3232 62.1242 21.3232Z" fill="url(#paint4_linear)"/>
<defs>
<linearGradient id="paint0_linear" x1="39.9995" y1="7.5" x2="39.9995" y2="77.5" gradientUnits="userSpaceOnUse">
<stop stop-color="#00C2FF"/>
<stop offset="1" stop-color="#3DFFA2"/>
</linearGradient>
<linearGradient id="paint1_linear" x1="15" y1="21" x2="15" y2="45" gradientUnits="userSpaceOnUse">
<stop stop-color="#00C2FF"/>
<stop offset="1" stop-color="#3DFFA2"/>
</linearGradient>
<linearGradient id="paint2_linear" x1="51.25" y1="42.5" x2="51.25" y2="45" gradientUnits="userSpaceOnUse">
<stop stop-color="#00C2FF"/>
<stop offset="1" stop-color="#3DFFA2"/>
</linearGradient>
<linearGradient id="paint3_linear" x1="58.75" y1="42.5" x2="58.75" y2="45" gradientUnits="userSpaceOnUse">
<stop stop-color="#00C2FF"/>
<stop offset="1" stop-color="#3DFFA2"/>
</linearGradient>
<linearGradient id="paint4_linear" x1="46.1556" y1="14.2402" x2="46.1556" y2="40.8964" gradientUnits="userSpaceOnUse">
<stop stop-color="#00C2FF"/>
<stop offset="1" stop-color="#3DFFA2"/>
</linearGradient>
</defs>
</svg>
