<svg width="80" height="80" viewBox="0 0 80 80" fill="none" xmlns="http://www.w3.org/2000/svg">
<path d="M39.921 42.7187C43.8035 42.7187 46.9621 39.5645 46.9621 35.6875C46.9621 31.8105 43.8035 28.6562 39.921 28.6562C36.0385 28.6562 32.8799 31.8105 32.8799 35.6875C32.8799 39.5645 36.0385 42.7187 39.921 42.7187ZM39.921 33.3437C41.2188 33.3437 42.2746 34.3952 42.2746 35.6875C42.2746 36.9798 41.2188 38.0312 39.921 38.0312C38.6232 38.0312 37.5674 36.9798 37.5674 35.6875C37.5674 34.3952 38.6232 33.3437 39.921 33.3437Z" fill="url(#paint0_linear)"/>
<path d="M2.34375 45.8902H4.77547V77.6562C4.77547 78.9506 5.82484 80 7.11922 80H72.8806C74.175 80 75.2244 78.9506 75.2244 77.6562V45.8902H77.6562C78.9506 45.8902 80 44.8408 80 43.5464V35.7339C80 34.7567 79.3936 33.882 78.4786 33.5392L42.3438 20.0002V14.0625H53.6525C54.9469 14.0625 55.9963 13.0131 55.9963 11.7188V2.34375C55.9963 1.04937 54.9469 0 53.6525 0H40C38.7056 0 37.6562 1.04937 37.6562 2.34375V20.0002L1.52141 33.5392C0.606406 33.882 0 34.7567 0 35.7339V43.5464C0 44.8408 1.04937 45.8902 2.34375 45.8902ZM23.4862 75.3125H18.7794V57.6089C18.7794 56.3166 19.8308 55.2652 21.1231 55.2652H21.1425C22.4348 55.2652 23.4862 56.3166 23.4862 57.6089V75.3125ZM37.5683 75.3125V54.4373C37.5683 53.145 38.6197 52.0936 39.912 52.0936H39.9316C41.2239 52.0936 42.2753 53.145 42.2753 54.4373V75.3125H37.5683ZM61.2208 75.3125H56.5139V57.6089C56.5139 56.3166 57.5653 55.2652 58.8577 55.2652H58.877C60.1694 55.2652 61.2208 56.3166 61.2208 57.6089V75.3125ZM42.3438 4.6875H51.3088V9.375H42.3438V4.6875ZM4.6875 37.3586L40 24.1277L75.3125 37.3586V41.2027C73.3958 41.2027 53.5405 41.2027 52.4281 41.2027C51.1338 41.2027 50.0844 42.252 50.0844 43.5464C50.0844 44.8408 51.1338 45.8902 52.4281 45.8902H70.5369V75.3125H65.9081V57.6089C65.9081 53.7319 62.7539 50.5777 58.8769 50.5777H58.8575C54.9805 50.5777 51.8262 53.7319 51.8262 57.6089V75.3125H46.9627V54.4373C46.9627 50.5603 43.8084 47.4061 39.9314 47.4061H39.9119C36.0348 47.4061 32.8806 50.5603 32.8806 54.4373V75.3125H28.1736V57.6089C28.1736 53.7319 25.0194 50.5777 21.1423 50.5777H21.123C17.2459 50.5777 14.0917 53.7319 14.0917 57.6089V75.3125H9.46297V45.8902H27.4153C28.7097 45.8902 29.7591 44.8408 29.7591 43.5464C29.7591 42.252 28.7097 41.2027 27.4153 41.2027C26.4959 41.2027 5.68297 41.2027 4.6875 41.2027V37.3586Z" fill="url(#paint1_linear)"/>
<defs>
<linearGradient id="paint0_linear" x1="39.921" y1="28.6562" x2="39.921" y2="42.7187" gradientUnits="userSpaceOnUse">
<stop stop-color="#00C2FF"/>
<stop offset="1" stop-color="#3DFFA2"/>
</linearGradient>
<linearGradient id="paint1_linear" x1="40" y1="0" x2="40" y2="80" gradientUnits="userSpaceOnUse">
<stop stop-color="#00C2FF"/>
<stop offset="1" stop-color="#3DFFA2"/>
</linearGradient>
</defs>
</svg>
