<svg width="80" height="80" viewBox="0 0 80 80" fill="none" xmlns="http://www.w3.org/2000/svg">
<path d="M27.5 27.4997C27.5 27.2524 27.5733 27.0108 27.7107 26.8052C27.848 26.5996 28.0432 26.4394 28.2716 26.3448C28.5001 26.2502 28.7514 26.2255 28.9939 26.2737C29.2363 26.3219 29.4591 26.441 29.6339 26.6158C29.8087 26.7906 29.9277 27.0133 29.976 27.2558C30.0242 27.4983 29.9995 27.7496 29.9049 27.978C29.8102 28.2064 29.65 28.4017 29.4445 28.539C29.2389 28.6764 28.9972 28.7497 28.75 28.7497C28.4185 28.7497 28.1005 28.618 27.8661 28.3836C27.6317 28.1491 27.5 27.8312 27.5 27.4997ZM17.5 27.4997C17.5 27.2524 17.4267 27.0108 17.2893 26.8052C17.152 26.5996 16.9568 26.4394 16.7284 26.3448C16.4999 26.2502 16.2486 26.2255 16.0061 26.2737C15.7637 26.3219 15.5409 26.441 15.3661 26.6158C15.1913 26.7906 15.0722 27.0133 15.024 27.2558C14.9758 27.4983 15.0005 27.7496 15.0951 27.978C15.1898 28.2064 15.35 28.4017 15.5555 28.539C15.7611 28.6764 16.0028 28.7497 16.25 28.7497C16.5815 28.7497 16.8995 28.618 17.1339 28.3836C17.3683 28.1491 17.5 27.8312 17.5 27.4997ZM23.75 28.7497H22.5V27.4997C22.5 27.1681 22.3683 26.8502 22.1339 26.6158C21.8995 26.3814 21.5815 26.2497 21.25 26.2497C20.9185 26.2497 20.6005 26.3814 20.3661 26.6158C20.1317 26.8502 20 27.1681 20 27.4997V29.9997C20 30.3312 20.1317 30.6491 20.3661 30.8836C20.6005 31.118 20.9185 31.2497 21.25 31.2497H23.75C24.0815 31.2497 24.3995 31.118 24.6339 30.8836C24.8683 30.6491 25 30.3312 25 29.9997C25 29.6681 24.8683 29.3502 24.6339 29.1158C24.3995 28.8814 24.0815 28.7497 23.75 28.7497ZM2.5 29.9997V24.9997C2.50107 24.2187 2.74554 23.4575 3.19938 22.822C3.65322 22.1865 4.29386 21.7082 5.03219 21.4537C5.29862 17.0016 7.25498 12.8192 10.5016 9.76114C13.7481 6.70303 18.0399 5 22.5 5C26.9601 5 31.2518 6.70303 34.4984 9.76114C37.745 12.8192 39.7014 17.0016 39.9678 21.4537C40.7061 21.7082 41.3468 22.1865 41.8006 22.822C42.2545 23.4575 42.4989 24.2187 42.5 24.9997V29.9997C42.4988 30.9939 42.1034 31.947 41.4004 32.65C40.6974 33.3531 39.7442 33.7485 38.75 33.7497H33.9042C33.0208 35.724 31.6538 37.4436 29.9297 38.7497H33.75C34.4579 38.7504 35.1606 38.8712 35.8281 39.1069C36.2066 38.6074 36.6955 38.2024 37.2566 37.9236C37.8178 37.6447 38.4359 37.4996 39.0625 37.4997H73.4375C74.5146 37.5009 75.5472 37.9293 76.3088 38.6909C77.0704 39.4525 77.4988 40.4851 77.5 41.5622V63.4372C77.4988 64.5142 77.0704 65.5469 76.3088 66.3085C75.5472 67.0701 74.5146 67.4985 73.4375 67.4997H65.8619L66.2475 73.6715C66.2582 73.8419 66.2338 74.0127 66.176 74.1733C66.1181 74.334 66.0279 74.481 65.911 74.6055C65.7942 74.7299 65.653 74.8291 65.4963 74.8969C65.3396 74.9647 65.1707 74.9997 65 74.9997H50C49.8293 74.9997 49.6604 74.9647 49.5037 74.8969C49.347 74.8291 49.2058 74.7299 49.089 74.6055C48.9721 74.481 48.8819 74.334 48.824 74.1733C48.7662 74.0127 48.7418 73.8419 48.7525 73.6715L49.1381 67.4997H42.285C42.4275 67.901 42.5002 68.3238 42.5 68.7497V71.2497C42.4989 72.2439 42.1034 73.1971 41.4004 73.9001C40.6974 74.6031 39.7442 74.9986 38.75 74.9997H8.75C7.75579 74.9985 6.80264 74.6031 6.09963 73.9C5.39662 73.197 5.00116 72.2439 5 71.2497V44.9997C5.00111 43.8169 5.33741 42.6587 5.96993 41.6593C6.60245 40.6599 7.50528 39.8602 8.57375 39.353C7.28436 37.6622 6.31499 35.75 5.71344 33.7106C4.82166 33.5806 4.00638 33.1342 3.41644 32.4529C2.82649 31.7716 2.50122 30.9009 2.5 29.9997ZM11.3159 38.7497H15.0703C13.3462 37.4436 11.9792 35.724 11.0958 33.7497H8.35281C9.00411 35.594 10.0108 37.2928 11.3159 38.7497ZM63.6694 72.4997L62.5756 54.9997H52.4244L51.3306 72.4997H63.6694ZM75 62.4997H65.5494L65.7056 64.9997H73.4375C73.8518 64.9992 74.2489 64.8344 74.5418 64.5415C74.8348 64.2486 74.9995 63.8514 75 63.4372V62.4997ZM37.5 59.9997H49.6069L50.0025 53.6715C50.0224 53.3542 50.1625 53.0563 50.3942 52.8386C50.626 52.6209 50.932 52.4997 51.25 52.4997H63.75C64.068 52.4997 64.374 52.6209 64.6058 52.8386C64.8375 53.0563 64.9776 53.3542 64.9975 53.6715L65.3931 59.9997H75V41.5622C74.9995 41.1479 74.8348 40.7507 74.5418 40.4578C74.2489 40.1649 73.8518 40.0001 73.4375 39.9997H39.0625C38.6482 40.0001 38.2511 40.1649 37.9581 40.4578C37.6652 40.7507 37.5005 41.1479 37.5 41.5622V59.9997ZM37.5 63.4372C37.5005 63.8514 37.6652 64.2486 37.9581 64.5415C38.2511 64.8344 38.6482 64.9992 39.0625 64.9997H49.2944L49.4506 62.4997H37.5V63.4372ZM35 67.4997V72.4997H38.75C39.0814 72.4993 39.3991 72.3675 39.6335 72.1331C39.8678 71.8988 39.9996 71.5811 40 71.2497V68.7497C39.9996 68.4183 39.8678 68.1005 39.6335 67.8662C39.3991 67.6319 39.0814 67.5 38.75 67.4997H35ZM27.0225 41.2497L23.618 48.0587C23.5141 48.2663 23.3546 48.4409 23.1571 48.5629C22.9596 48.685 22.7321 48.7496 22.5 48.7496C22.2679 48.7496 22.0404 48.685 21.8429 48.5629C21.6454 48.4409 21.4859 48.2663 21.382 48.0587L17.9775 41.2497H14.2044C14.6475 41.544 15.1059 41.8147 15.5777 42.0606C15.8717 42.2139 16.0927 42.4777 16.1922 42.7939C16.2917 43.1102 16.2615 43.453 16.1083 43.747C15.955 44.041 15.6912 44.2621 15.375 44.3616C15.0587 44.4611 14.7159 44.4309 14.4219 44.2776C12.9353 43.503 11.5673 42.5195 10.3594 41.3572C9.54433 41.5576 8.81988 42.0252 8.30162 42.6854C7.78336 43.3456 7.50114 44.1603 7.5 44.9997V71.2497C7.50037 71.5811 7.63219 71.8988 7.86653 72.1331C8.10087 72.3675 8.41859 72.4993 8.75 72.4997H32.5V67.4997H13.75C13.4185 67.4997 13.1005 67.368 12.8661 67.1336C12.6317 66.8991 12.5 66.5812 12.5 66.2497V56.2497C12.5 55.9182 12.6317 55.6002 12.8661 55.3658C13.1005 55.1314 13.4185 54.9997 13.75 54.9997C14.0815 54.9997 14.3995 55.1314 14.6339 55.3658C14.8683 55.6002 15 55.9182 15 56.2497V64.9997H35.3125C35.1056 64.5048 34.9993 63.9736 35 63.4372V41.5622C35 41.5297 35.0017 41.4978 35.0025 41.4655C34.6003 41.323 34.1767 41.2501 33.75 41.2497H27.0225ZM22.5 44.7045L24.2275 41.2497H20.7725L22.5 44.7045ZM32.5 23.7019C28.2673 23.3745 25.7873 21.4348 24.6719 20.2873C21.5653 21.9467 17.4158 23.4905 12.5 23.7195V28.5934C12.4978 31.2732 13.5534 33.8455 15.4375 35.7511C16.3531 36.6994 17.4503 37.4537 18.6637 37.9689C19.8771 38.484 21.1818 38.7495 22.5 38.7495C23.8182 38.7495 25.1229 38.484 26.3363 37.9689C27.5497 37.4537 28.6469 36.6994 29.5625 35.7511C31.4466 33.8455 32.5022 31.2732 32.5 28.5934V23.7019ZM28.6016 14.585C27.21 13.5096 25.5592 12.8207 23.8161 12.5878C22.0729 12.3549 20.2992 12.5863 18.6742 13.2587C17.0491 13.931 15.6304 15.0205 14.5614 16.4169C13.4923 17.8133 12.8109 19.4672 12.5859 21.2114C20.8892 20.7476 26.8698 16.0934 28.6016 14.585ZM26.9062 18.9719C27.8534 19.7942 29.6162 20.9048 32.41 21.1831C32.1765 19.4209 31.4751 17.7534 30.3787 16.354C29.2902 17.3145 28.1293 18.1897 26.9062 18.9719ZM38.75 23.7497H35V28.5934C34.9994 29.4863 34.9049 30.3766 34.718 31.2497H38.75C39.0814 31.2493 39.3991 31.1175 39.6335 30.8831C39.8678 30.6488 39.9996 30.3311 40 29.9997V24.9997C39.9996 24.6683 39.8678 24.3505 39.6335 24.1162C39.3991 23.8819 39.0814 23.75 38.75 23.7497ZM7.5525 21.2497H10.0625C10.372 18.1661 11.816 15.3074 14.1142 13.2284C16.4124 11.1493 19.4009 9.99811 22.5 9.99811C25.5991 9.99811 28.5876 11.1493 30.8858 13.2284C33.184 15.3074 34.628 18.1661 34.9375 21.2497H37.4477C37.1332 17.5016 35.4223 14.0085 32.6538 11.4625C29.8853 8.91656 26.2613 7.50356 22.5002 7.50356C18.739 7.50356 15.115 8.91656 12.3465 11.4625C9.57806 14.0085 7.86706 17.5016 7.55266 21.2497H7.5525ZM5 29.9997C5.00037 30.3311 5.13219 30.6488 5.36653 30.8831C5.60087 31.1175 5.91859 31.2493 6.25 31.2497H10.282C10.0951 30.3766 10.0006 29.4863 10 28.5934V23.7497H6.25C5.91859 23.75 5.60087 23.8819 5.36653 24.1162C5.13219 24.3505 5.00037 24.6683 5 24.9997V29.9997ZM18.6094 31.9244L18.6177 31.94H18.6167C18.4686 31.6437 18.2088 31.4184 17.8945 31.3136C17.5802 31.2089 17.2372 31.2332 16.9409 31.3814C16.6446 31.5295 16.4193 31.7893 16.3146 32.1036C16.2098 32.4179 16.2342 32.7609 16.3823 33.0572H16.3814C16.3839 33.0622 16.3895 33.0728 16.397 33.0864L16.4044 33.1001C16.6145 33.4909 18.2536 36.2497 22.5 36.2497C26.7464 36.2497 28.3855 33.4909 28.5955 33.1017L28.6028 33.0879C28.6098 33.0745 28.6155 33.0637 28.6184 33.0587H28.6175C28.6909 32.912 28.7346 32.7523 28.7462 32.5887C28.7579 32.4251 28.7371 32.2608 28.6853 32.1052C28.6334 31.9495 28.5514 31.8057 28.4439 31.6818C28.3364 31.5578 28.2056 31.4563 28.0589 31.383C27.9122 31.3096 27.7525 31.2659 27.5889 31.2542C27.4252 31.2426 27.2609 31.2633 27.1053 31.3152C26.9497 31.3671 26.8058 31.4491 26.6819 31.5565C26.558 31.664 26.4565 31.7948 26.3831 31.9415H26.3822L26.3905 31.9259C26.3503 32.0003 25.3733 33.7512 22.4998 33.7512C19.6264 33.7512 18.6498 31.9987 18.6094 31.9244Z" fill="url(#paint0_linear)"/>
<defs>
<linearGradient id="paint0_linear" x1="40" y1="74.9997" x2="40" y2="4.99967" gradientUnits="userSpaceOnUse">
<stop stop-color="#3DFFA2"/>
<stop offset="1" stop-color="#00C2FF"/>
</linearGradient>
</defs>
</svg>
