<svg width="80" height="80" viewBox="0 0 80 80" fill="none" xmlns="http://www.w3.org/2000/svg">
<path d="M77.487 66.075L74.9995 48.6625V11.25C74.9966 10.2564 74.6005 9.30425 73.8979 8.60163C73.1953 7.89901 72.2432 7.50297 71.2495 7.5H8.74954C7.75589 7.50297 6.80378 7.89901 6.10116 8.60163C5.39854 9.30425 5.0025 10.2564 4.99954 11.25V48.6625L2.51204 66.075C2.50166 66.1327 2.49747 66.1914 2.49954 66.25V71.25C2.50151 71.9124 2.76554 72.5472 3.23395 73.0156C3.70237 73.484 4.3371 73.748 4.99954 73.75H17.4995V77.5H19.9995V72.5C20.0001 72.2546 19.926 72.0148 19.787 71.8125L17.4995 68.375V59.375C17.4995 59.2092 17.5654 59.0503 17.6826 58.9331C17.7998 58.8158 17.9588 58.75 18.1245 58.75C18.2903 58.75 18.4493 58.8158 18.5665 58.9331C18.6837 59.0503 18.7495 59.2092 18.7495 59.375V62.5H21.2495V56.875C21.2495 56.7092 21.3154 56.5503 21.4326 56.4331C21.5498 56.3158 21.7088 56.25 21.8745 56.25C22.0403 56.25 22.1993 56.3158 22.3165 56.4331C22.4337 56.5503 22.4995 56.7092 22.4995 56.875V61.25H24.9995V54.375C24.9995 54.2092 25.0654 54.0503 25.1826 53.9331C25.2998 53.8158 25.4588 53.75 25.6245 53.75C25.7903 53.75 25.9493 53.8158 26.0665 53.9331C26.1837 54.0503 26.2495 54.2092 26.2495 54.375V61.25H28.7495V55.625C28.7495 55.4592 28.8154 55.3003 28.9326 55.1831C29.0498 55.0658 29.2088 55 29.3745 55C29.5403 55 29.6993 55.0658 29.8165 55.1831C29.9337 55.3003 29.9995 55.4592 29.9995 55.625V65H32.4995V61.875C32.4995 61.7092 32.5654 61.5503 32.6826 61.4331C32.7998 61.3158 32.9588 61.25 33.1245 61.25C33.2903 61.25 33.4493 61.3158 33.5665 61.4331C33.6837 61.5503 33.7495 61.7092 33.7495 61.875V69.325L30.562 71.4625C30.3901 71.5757 30.2488 71.7297 30.1506 71.9107C30.0525 72.0917 30.0006 72.2941 29.9995 72.5V77.5H32.4995V73.75H47.4995V77.5H49.9995V72.5C49.9985 72.2941 49.9466 72.0917 49.8484 71.9107C49.7503 71.7297 49.609 71.5757 49.437 71.4625L46.2495 69.325V61.875C46.2495 61.7092 46.3154 61.5503 46.4326 61.4331C46.5498 61.3158 46.7088 61.25 46.8745 61.25C47.0403 61.25 47.1993 61.3158 47.3165 61.4331C47.4337 61.5503 47.4995 61.7092 47.4995 61.875V65H49.9995V55.625C49.9995 55.4592 50.0654 55.3003 50.1826 55.1831C50.2998 55.0658 50.4588 55 50.6245 55C50.7903 55 50.9493 55.0658 51.0665 55.1831C51.1837 55.3003 51.2495 55.4592 51.2495 55.625V61.25H53.7495V54.375C53.7495 54.2092 53.8154 54.0503 53.9326 53.9331C54.0498 53.8158 54.2088 53.75 54.3745 53.75C54.5403 53.75 54.6993 53.8158 54.8165 53.9331C54.9337 54.0503 54.9995 54.2092 54.9995 54.375V61.25H57.4995V56.875C57.4995 56.7092 57.5654 56.5503 57.6826 56.4331C57.7998 56.3158 57.9588 56.25 58.1245 56.25C58.2903 56.25 58.4493 56.3158 58.5665 56.4331C58.6837 56.5503 58.7495 56.7092 58.7495 56.875V62.5H61.2495V59.375C61.2495 59.2092 61.3154 59.0503 61.4326 58.9331C61.5498 58.8158 61.7088 58.75 61.8745 58.75C62.0403 58.75 62.1993 58.8158 62.3165 58.9331C62.4337 59.0503 62.4995 59.2092 62.4995 59.375V68.375L60.212 71.8125C60.0731 72.0148 59.9989 72.2546 59.9995 72.5V77.5H62.4995V73.75H74.9995C75.662 73.748 76.2967 73.484 76.7651 73.0156C77.2335 72.5472 77.4976 71.9124 77.4995 71.25V66.25C77.5016 66.1914 77.4974 66.1327 77.487 66.075ZM7.49954 11.25C7.49954 10.9185 7.63123 10.6005 7.86565 10.3661C8.10007 10.1317 8.41802 10 8.74954 10H71.2495C71.5811 10 71.899 10.1317 72.1334 10.3661C72.3678 10.6005 72.4995 10.9185 72.4995 11.25V47.5H7.49954V11.25ZM4.99954 71.25V67.5H14.9995V68.75C14.9989 68.9954 15.073 69.2352 15.212 69.4375L16.412 71.25H4.99954ZM35.3745 71.25L35.687 71.0375C35.859 70.9243 36.0003 70.7703 36.0984 70.5893C36.1966 70.4083 36.2485 70.2059 36.2495 70V67.5H43.7495V70C43.7506 70.2059 43.8025 70.4083 43.9006 70.5893C43.9988 70.7703 44.1401 70.9243 44.312 71.0375L44.6245 71.25H35.3745ZM61.8745 56.25C61.6474 56.2488 61.4209 56.274 61.1995 56.325C61.0705 55.6032 60.6918 54.9498 60.1296 54.4791C59.5675 54.0084 58.8577 53.7503 58.1245 53.75C57.8974 53.7488 57.6709 53.774 57.4495 53.825C57.34 53.2043 57.045 52.6315 56.6033 52.1819C56.1616 51.7323 55.594 51.4272 54.9754 51.3067C54.3568 51.1862 53.7162 51.2561 53.1381 51.507C52.5599 51.758 52.0715 52.1783 51.737 52.7125C51.3828 52.5725 51.0054 52.5004 50.6245 52.5C49.7957 52.5 49.0009 52.8292 48.4148 53.4153C47.8288 54.0013 47.4995 54.7962 47.4995 55.625V58.8125C47.2936 58.7725 47.0843 58.7516 46.8745 58.75C46.0457 58.75 45.2509 59.0792 44.6648 59.6653C44.0788 60.2513 43.7495 61.0462 43.7495 61.875V65H36.2495V61.875C36.2495 61.0462 35.9203 60.2513 35.3342 59.6653C34.7482 59.0792 33.9533 58.75 33.1245 58.75C32.9147 58.7516 32.7055 58.7725 32.4995 58.8125V55.625C32.4995 54.7962 32.1703 54.0013 31.5842 53.4153C30.9982 52.8292 30.2033 52.5 29.3745 52.5C28.9937 52.5004 28.6163 52.5725 28.262 52.7125C27.9276 52.1783 27.4391 51.758 26.861 51.507C26.2829 51.2561 25.6423 51.1862 25.0237 51.3067C24.4051 51.4272 23.8375 51.7323 23.3958 52.1819C22.9541 52.6315 22.6591 53.2043 22.5495 53.825C22.3282 53.774 22.1017 53.7488 21.8745 53.75C21.1413 53.7503 20.4316 54.0084 19.8694 54.4791C19.3073 54.9498 18.9286 55.6032 18.7995 56.325C18.5782 56.274 18.3517 56.2488 18.1245 56.25C17.2957 56.25 16.5009 56.5792 15.9148 57.1653C15.3288 57.7513 14.9995 58.5462 14.9995 59.375V65H5.18704L7.33704 50H72.662L74.812 65H64.9995V59.375C64.9995 58.5462 64.6703 57.7513 64.0843 57.1653C63.4982 56.5792 62.7033 56.25 61.8745 56.25ZM74.9995 71.25H63.587L64.787 69.4375C64.926 69.2352 65.0001 68.9954 64.9995 68.75V67.5H74.9995V71.25Z" fill="url(#paint0_linear)"/>
<path d="M57.5 16.3363V12.5H55V16.3363C52.8002 16.6167 50.7558 17.6197 49.1877 19.1877C47.6197 20.7558 46.6167 22.8002 46.3363 25H42.5V27.5H46.3363C46.6167 29.6998 47.6197 31.7442 49.1877 33.3123C50.7558 34.8803 52.8002 35.8833 55 36.1637V40H57.5V36.1637C59.6998 35.8833 61.7442 34.8803 63.3123 33.3123C64.8803 31.7442 65.8833 29.6998 66.1637 27.5H70V25H66.1637C65.8833 22.8002 64.8803 20.7558 63.3123 19.1877C61.7442 17.6197 59.6998 16.6167 57.5 16.3363ZM57.5 33.6375V31.25H55V33.6375C53.4675 33.3756 52.0541 32.6445 50.9548 31.5452C49.8555 30.4459 49.1244 29.0325 48.8625 27.5H51.25V25H48.8625C49.1244 23.4675 49.8555 22.0541 50.9548 20.9548C52.0541 19.8555 53.4675 19.1244 55 18.8625V21.25H57.5V18.8625C59.0325 19.1244 60.4459 19.8555 61.5452 20.9548C62.6445 22.0541 63.3756 23.4675 63.6375 25H61.25V27.5H63.6375C63.3756 29.0325 62.6445 30.4459 61.5452 31.5452C60.4459 32.6445 59.0325 33.3756 57.5 33.6375Z" fill="url(#paint1_linear)"/>
<path d="M38.75 35H11.25C10.9185 35 10.6005 35.1317 10.3661 35.3661C10.1317 35.6005 10 35.9185 10 36.25V43.75C10 44.0815 10.1317 44.3995 10.3661 44.6339C10.6005 44.8683 10.9185 45 11.25 45H38.75C39.0815 45 39.3995 44.8683 39.6339 44.6339C39.8683 44.3995 40 44.0815 40 43.75V36.25C40 35.9185 39.8683 35.6005 39.6339 35.3661C39.3995 35.1317 39.0815 35 38.75 35ZM37.5 42.5H12.5V37.5H37.5V42.5Z" fill="url(#paint2_linear)"/>
<path d="M52.5 42.5H50V45H52.5V42.5Z" fill="url(#paint3_linear)"/>
<path d="M62.5 42.5H55V45H62.5V42.5Z" fill="url(#paint4_linear)"/>
<defs>
<linearGradient id="paint0_linear" x1="39.9995" y1="7.5" x2="39.9995" y2="77.5" gradientUnits="userSpaceOnUse">
<stop stop-color="#00C2FF"/>
<stop offset="1" stop-color="#3DFFA2"/>
</linearGradient>
<linearGradient id="paint1_linear" x1="56.25" y1="12.5" x2="56.25" y2="40" gradientUnits="userSpaceOnUse">
<stop stop-color="#00C2FF"/>
<stop offset="1" stop-color="#3DFFA2"/>
</linearGradient>
<linearGradient id="paint2_linear" x1="25" y1="35" x2="25" y2="45" gradientUnits="userSpaceOnUse">
<stop stop-color="#00C2FF"/>
<stop offset="1" stop-color="#3DFFA2"/>
</linearGradient>
<linearGradient id="paint3_linear" x1="51.25" y1="42.5" x2="51.25" y2="45" gradientUnits="userSpaceOnUse">
<stop stop-color="#00C2FF"/>
<stop offset="1" stop-color="#3DFFA2"/>
</linearGradient>
<linearGradient id="paint4_linear" x1="58.75" y1="42.5" x2="58.75" y2="45" gradientUnits="userSpaceOnUse">
<stop stop-color="#00C2FF"/>
<stop offset="1" stop-color="#3DFFA2"/>
</linearGradient>
</defs>
</svg>
