<svg width="80" height="80" viewBox="0 0 80 80" fill="none" xmlns="http://www.w3.org/2000/svg">
<g clip-path="url(#clip0)">
<path d="M38.3337 40C37.4137 40 36.667 39.2533 36.667 38.3333V21.6667C36.667 20.7467 37.4137 20 38.3337 20H43.3337C47.0103 20 50.0003 22.99 50.0003 26.6667C50.0003 30.3433 47.0103 33.3333 43.3337 33.3333H40.0003V38.3333C40.0003 39.2533 39.2537 40 38.3337 40ZM40.0003 30H43.3337C45.1737 30 46.667 28.5033 46.667 26.6667C46.667 24.83 45.1737 23.3333 43.3337 23.3333H40.0003V30Z" fill="url(#paint0_linear)"/>
<path d="M48.3332 39.9994C47.9065 39.9994 47.4799 39.8361 47.1532 39.5128L40.4865 32.8461C39.8365 32.1961 39.8365 31.1395 40.4865 30.4895C41.1365 29.8395 42.1932 29.8395 42.8432 30.4895L49.5099 37.1561C50.1599 37.8061 50.1599 38.8628 49.5099 39.5128C49.1865 39.8361 48.7599 39.9994 48.3332 39.9994Z" fill="url(#paint1_linear)"/>
<path d="M23.3334 40C22.5968 40 21.9501 39.5167 21.7368 38.8133L16.7368 22.1467C16.4701 21.2667 16.9701 20.3367 17.8534 20.07C18.7334 19.81 19.6634 20.3067 19.9301 21.1867L23.3334 32.5333L26.7368 21.19C27.0001 20.3067 27.9368 19.8133 28.8101 20.0733C29.6934 20.34 30.1934 21.2667 29.9268 22.15L24.9268 38.8167C24.7168 39.5167 24.0701 40 23.3334 40Z" fill="url(#paint2_linear)"/>
<path d="M61.667 30C58.9103 30 56.667 27.7567 56.667 25C56.667 22.2433 58.9103 20 61.667 20C64.4237 20 66.667 22.2433 66.667 25C66.667 27.7567 64.4237 30 61.667 30ZM61.667 23.3333C60.7503 23.3333 60.0003 24.08 60.0003 25C60.0003 25.92 60.7503 26.6667 61.667 26.6667C62.5837 26.6667 63.3337 25.92 63.3337 25C63.3337 24.08 62.5837 23.3333 61.667 23.3333Z" fill="url(#paint3_linear)"/>
<path d="M71.6667 56.6667H50.5667C49.85 56.6667 49.2133 56.2067 48.9833 55.5267L47.52 51.1267C47.29 50.4633 46.6467 50 45.9333 50H34.0667C33.3533 50 32.7133 50.4633 32.47 51.1533L31.0133 55.53C30.7867 56.2067 30.15 56.6667 29.4333 56.6667H8.33333C3.73667 56.6667 0 52.9267 0 48.3333V18.3333C0 13.74 3.73667 10 8.33333 10H71.6667C76.2633 10 80 13.74 80 18.3333V48.3333C80 52.9267 76.2633 56.6667 71.6667 56.6667ZM51.7667 53.3333H71.6667C74.4233 53.3333 76.6667 51.09 76.6667 48.3333V18.3333C76.6667 15.5767 74.4233 13.3333 71.6667 13.3333H8.33333C5.57667 13.3333 3.33333 15.5767 3.33333 18.3333V48.3333C3.33333 51.09 5.57667 53.3333 8.33333 53.3333H28.2333L29.3167 50.0733C30.0367 48.0267 31.94 46.6667 34.0667 46.6667H45.9367C48.0633 46.6667 49.9667 48.0267 50.6767 50.05L51.7667 53.3333Z" fill="url(#paint4_linear)"/>
<path d="M68.3333 13.3333C67.4133 13.3333 66.6667 12.5867 66.6667 11.6667V8.33333C66.6667 5.57667 64.4233 3.33333 61.6667 3.33333H18.3333C15.5767 3.33333 13.3333 5.57667 13.3333 8.33333V11.6667C13.3333 12.5867 12.5867 13.3333 11.6667 13.3333C10.7467 13.3333 10 12.5867 10 11.6667V8.33333C10 3.74 13.7367 0 18.3333 0H61.6667C66.2633 0 70 3.74 70 8.33333V11.6667C70 12.5867 69.2533 13.3333 68.3333 13.3333Z" fill="url(#paint5_linear)"/>
<path d="M36.666 80.0001C36.1627 80.0001 35.6594 79.7701 35.3327 79.3334C34.7827 78.5967 34.9327 77.5534 35.6694 77.0001L40.5594 73.3334L35.666 69.6667C34.9294 69.1134 34.7794 68.0701 35.3294 67.3334C35.886 66.5934 36.9294 66.4534 37.6627 67.0001L44.3294 72.0001C44.7494 72.3134 44.996 72.8101 44.996 73.3334C44.996 73.8567 44.7494 74.3534 44.3294 74.6667L37.6627 79.6667C37.366 79.8901 37.0127 80.0001 36.666 80.0001Z" fill="url(#paint6_linear)"/>
<path d="M40 74.9994C36.5833 74.9994 33.1 74.8727 29.65 74.6294C15.3167 73.5961 0 70.0861 0 63.3327C0 62.6294 0.183333 61.9061 0.543333 61.1861C0.956667 60.3594 1.96333 60.0294 2.78333 60.4427C3.60333 60.8561 3.93667 61.8561 3.52667 62.6794C3.4 62.9327 3.33333 63.1527 3.33333 63.3327C3.33333 65.7761 11.77 69.9994 29.8867 71.3061C33.2833 71.5461 36.6567 71.7827 40.07 71.6661C40.8567 71.6661 41.6133 71.6661 42.3667 71.6361C43.33 71.5961 44.0633 72.3127 44.1033 73.2327C44.14 74.1527 43.4233 74.9294 42.5067 74.9661C41.68 74.9994 40.8567 74.9994 40 74.9994Z" fill="url(#paint7_linear)"/>
<path d="M51.6299 74.4999C50.7732 74.4999 50.0432 73.8399 49.9732 72.9699C49.8999 72.0532 50.5799 71.2465 51.4965 71.1699C68.6699 69.7665 76.6665 65.6632 76.6665 63.3332C76.6665 63.1532 76.5999 62.9332 76.4732 62.6799C76.0632 61.8566 76.3965 60.8566 77.2165 60.4432C78.0332 60.0266 79.0399 60.3599 79.4565 61.1866C79.8165 61.9066 79.9999 62.6299 79.9999 63.3332C79.9999 71.5432 58.3932 73.9532 51.7699 74.4965C51.7265 74.4999 51.6765 74.4999 51.6299 74.4999Z" fill="url(#paint8_linear)"/>
</g>
<defs>
<linearGradient id="paint0_linear" x1="43.3337" y1="20" x2="43.3337" y2="40" gradientUnits="userSpaceOnUse">
<stop stop-color="#00C2FF"/>
<stop offset="1" stop-color="#3DFFA2"/>
</linearGradient>
<linearGradient id="paint1_linear" x1="44.9982" y1="30.002" x2="44.9982" y2="39.9994" gradientUnits="userSpaceOnUse">
<stop stop-color="#00C2FF"/>
<stop offset="1" stop-color="#3DFFA2"/>
</linearGradient>
<linearGradient id="paint2_linear" x1="23.3318" y1="20.001" x2="23.3318" y2="40" gradientUnits="userSpaceOnUse">
<stop stop-color="#00C2FF"/>
<stop offset="1" stop-color="#3DFFA2"/>
</linearGradient>
<linearGradient id="paint3_linear" x1="61.667" y1="20" x2="61.667" y2="30" gradientUnits="userSpaceOnUse">
<stop stop-color="#00C2FF"/>
<stop offset="1" stop-color="#3DFFA2"/>
</linearGradient>
<linearGradient id="paint4_linear" x1="40" y1="10" x2="40" y2="56.6667" gradientUnits="userSpaceOnUse">
<stop stop-color="#00C2FF"/>
<stop offset="1" stop-color="#3DFFA2"/>
</linearGradient>
<linearGradient id="paint5_linear" x1="40" y1="0" x2="40" y2="13.3333" gradientUnits="userSpaceOnUse">
<stop stop-color="#00C2FF"/>
<stop offset="1" stop-color="#3DFFA2"/>
</linearGradient>
<linearGradient id="paint6_linear" x1="39.997" y1="66.668" x2="39.997" y2="80.0001" gradientUnits="userSpaceOnUse">
<stop stop-color="#00C2FF"/>
<stop offset="1" stop-color="#3DFFA2"/>
</linearGradient>
<linearGradient id="paint7_linear" x1="22.0523" y1="60.2646" x2="22.0523" y2="74.9994" gradientUnits="userSpaceOnUse">
<stop stop-color="#00C2FF"/>
<stop offset="1" stop-color="#3DFFA2"/>
</linearGradient>
<linearGradient id="paint8_linear" x1="64.9838" y1="60.2637" x2="64.9838" y2="74.4999" gradientUnits="userSpaceOnUse">
<stop stop-color="#00C2FF"/>
<stop offset="1" stop-color="#3DFFA2"/>
</linearGradient>
<clipPath id="clip0">
<rect width="80" height="80" fill="white"/>
</clipPath>
</defs>
</svg>
