<svg width="80" height="80" viewBox="0 0 80 80" fill="none" xmlns="http://www.w3.org/2000/svg">
<path d="M9.71224 13.0231C11.6525 13.0231 13.2311 11.4446 13.2311 9.50423C13.2311 7.56385 11.6526 5.98535 9.71224 5.98535C7.77185 5.98535 6.19336 7.56385 6.19336 9.50423C6.19336 11.4446 7.77185 13.0231 9.71224 13.0231ZM9.71224 8.32934C10.3601 8.32934 10.8873 8.85639 10.8873 9.50439C10.8873 10.1524 10.3602 10.6794 9.71224 10.6794C9.06424 10.6794 8.53719 10.1524 8.53719 9.50439C8.53719 8.85639 9.06424 8.32934 9.71224 8.32934Z" fill="url(#paint0_linear)"/>
<path d="M17.1741 13.0231C19.1144 13.0231 20.693 11.4446 20.693 9.50423C20.693 7.56385 19.1145 5.98535 17.1741 5.98535C15.2338 5.98535 13.6553 7.56385 13.6553 9.50423C13.6553 11.4446 15.2339 13.0231 17.1741 13.0231ZM17.1741 8.32934C17.822 8.32934 18.3492 8.85639 18.3492 9.50439C18.3492 10.1524 17.8221 10.6794 17.1741 10.6794C16.5262 10.6794 15.9991 10.1524 15.9991 9.50439C15.9991 8.85639 16.5263 8.32934 17.1741 8.32934Z" fill="url(#paint1_linear)"/>
<path d="M13.6384 32.5422C14.6797 31.9641 15.3266 30.8532 15.3266 29.6432V21.212C15.3266 20.5647 14.8019 20.04 14.1547 20.04C13.5074 20.04 12.9827 20.5647 12.9827 21.212V29.6432C12.9827 30.0023 12.798 30.3279 12.5007 30.4929C11.9377 30.8057 11.3039 30.2176 11.2619 30.1776C10.8052 29.7263 10.0689 29.7268 9.61246 30.1802C9.15338 30.6365 9.15104 31.3784 9.60715 31.8376C10.0964 32.33 11.0433 32.938 12.148 32.938C12.6235 32.938 13.1284 32.8253 13.6384 32.5422Z" fill="url(#paint2_linear)"/>
<path d="M32.4502 32.9328H32.4554C32.4556 32.9328 35.273 32.9203 36.0496 32.9203C38.2615 32.9203 40.061 31.1207 40.061 28.9089C40.061 27.6008 39.4314 26.4373 38.4595 25.7045C38.8711 25.1194 39.1136 24.4074 39.1136 23.6392C39.1136 21.6546 37.499 20.04 35.5144 20.04H32.4502C31.803 20.04 31.2783 20.5647 31.2783 21.212V31.7609C31.2783 32.0726 31.4025 32.3716 31.6233 32.5914C31.843 32.8102 32.1404 32.9328 32.4502 32.9328ZM36.0496 30.5765C35.6052 30.5765 34.4942 30.5806 33.6222 30.584V27.2442C33.8786 27.2431 34.1511 27.2422 34.4116 27.2412H36.0497C36.9692 27.2412 37.7173 27.9894 37.7173 28.9088C37.7172 29.8284 36.969 30.5765 36.0496 30.5765ZM35.5144 22.3839C36.2066 22.3839 36.7698 22.947 36.7698 23.6392C36.7698 24.3314 36.2066 24.8947 35.5144 24.8947C35.2908 24.8947 34.8714 24.896 34.4131 24.8976H33.6222V22.3839H35.5144Z" fill="url(#paint3_linear)"/>
<path d="M16.8564 26.4864C16.8564 30.041 19.7483 32.9328 23.3029 32.9328C26.8574 32.9328 29.7492 30.041 29.7492 26.4864C29.7492 22.9317 26.8574 20.04 23.3029 20.04C19.7483 20.04 16.8564 22.9319 16.8564 26.4864ZM23.3029 22.3839C25.565 22.3839 27.4054 24.2242 27.4054 26.4864C27.4054 28.7486 25.565 30.589 23.3029 30.589C21.0407 30.589 19.2003 28.7486 19.2003 26.4864C19.2003 24.2242 21.0407 22.3839 23.3029 22.3839Z" fill="url(#paint4_linear)"/>
<path d="M78.4478 68.9643L74.1524 64.669L74.5109 64.3106C76.0775 62.7439 76.0775 60.1948 74.5109 58.628C73.7018 57.8189 72.6307 57.4289 71.5681 57.4555C72.2496 54.9944 72.3816 52.409 71.941 49.8511C71.3294 46.301 69.6551 43.0734 67.0989 40.5172C66.7819 40.2002 66.4545 39.8972 66.1181 39.608V10.3124C66.1181 5.7149 62.3777 1.97461 57.7803 1.97461H8.33779C3.74029 1.97461 0 5.7149 0 10.3124V55.5796C0 60.1771 3.74029 63.9174 8.33779 63.9174H41.3974C41.7426 64.3327 42.108 64.7348 42.4946 65.1215C45.0506 67.6776 48.2783 69.352 51.8282 69.9637C52.8226 70.1351 53.821 70.2203 54.8149 70.2201C56.3774 70.2201 57.9281 70.0092 59.4324 69.5929C59.4063 70.6548 59.7963 71.7253 60.6049 72.534C61.3639 73.2929 62.373 73.7109 63.4463 73.7109C64.5196 73.7109 65.5287 73.2929 66.2876 72.534L66.6455 72.1761L70.9408 76.4715C71.9757 77.5063 73.3349 78.0239 74.6943 78.0239C76.0538 78.0239 77.413 77.5063 78.4479 76.4715C80.5174 74.4019 80.5174 71.0341 78.4478 68.9643ZM8.33779 61.5736C5.03268 61.5736 2.34383 58.8847 2.34383 55.5796V10.3124C2.34383 7.00729 5.03268 4.31844 8.33779 4.31844H57.7802C61.0853 4.31844 63.7741 7.00729 63.7741 10.3124V37.9095C62.9258 37.3966 62.0376 36.9594 61.1178 36.6013V17.7088C61.1178 15.964 59.6976 14.5446 57.952 14.5446H21.7711C21.1239 14.5446 20.5992 15.0693 20.5992 15.7165C20.5992 16.3637 21.1239 16.8884 21.7711 16.8884H57.952C58.4052 16.8884 58.7739 17.2564 58.7739 17.7088V35.8772C57.4853 35.5774 56.1532 35.4222 54.7971 35.4222C50.1497 35.4224 45.7807 37.2321 42.4946 40.5183C39.2086 43.8042 37.399 48.1733 37.3991 52.8203C37.3991 54.0977 37.5368 55.3538 37.8034 56.5726H8.16591C7.71277 56.5726 7.34401 56.2039 7.34401 55.7507V17.7088C7.34401 17.2564 7.71261 16.8884 8.16591 16.8884H17.0834C17.7306 16.8884 18.2553 16.3637 18.2553 15.7165C18.2553 15.0693 17.7306 14.5446 17.0834 14.5446H8.16591C6.42038 14.5446 5.00018 15.964 5.00018 17.7088V55.7507C5.00018 57.4963 6.42023 58.9165 8.16591 58.9165H38.4939C38.837 59.8354 39.2584 60.7237 39.755 61.5736H8.33779ZM44.1519 63.4641C41.3088 60.6211 39.743 56.8411 39.743 52.8203C39.7428 48.7994 41.3086 45.0189 44.1519 42.1757C46.9952 39.3323 50.7758 37.7663 54.7971 37.7662C58.8183 37.766 62.5984 39.3317 65.4415 42.1746C69.8121 46.5452 71.0589 53.2328 68.5787 58.8779L60.8542 66.6024C55.2094 69.082 48.5223 67.8346 44.1519 63.4641ZM63.4463 71.3671C62.9991 71.3671 62.5786 71.1928 62.2623 70.8766C61.6095 70.2237 61.6095 69.1615 62.2623 68.5088L70.4856 60.2854C71.1384 59.6324 72.2007 59.6326 72.8533 60.2854C73.5062 60.9383 73.5062 62.0005 72.8533 62.6533L64.6301 70.8766C64.314 71.1928 63.8935 71.3671 63.4463 71.3671ZM76.7904 74.8142C75.6345 75.97 73.7537 75.97 72.5979 74.8142L68.3026 70.5189L72.495 66.3264L76.7904 70.6217C77.9462 71.7775 77.9462 73.6582 76.7904 74.8142Z" fill="url(#paint5_linear)"/>
<path d="M65.1543 58.3242C65.4583 57.7529 65.2416 57.0432 64.6702 56.7391C64.0989 56.435 63.3892 56.6518 63.0851 57.2232C62.649 58.0426 62.0927 58.7932 61.4316 59.4545C59.6594 61.2268 57.303 62.2027 54.7969 62.2027C52.2907 62.2027 49.935 61.2268 48.1633 59.4545C46.3911 57.6823 45.4151 55.3259 45.4151 52.8196C45.4151 50.3132 46.3911 47.9569 48.1635 46.1845C49.935 44.4124 52.2907 43.4364 54.7969 43.4364C57.303 43.4364 59.6594 44.4124 61.4316 46.1847C63.2843 48.0375 64.2828 50.6014 64.1708 53.2187C64.1431 53.8653 64.6449 54.412 65.2915 54.4396C65.9387 54.47 66.4848 53.9656 66.5124 53.319C66.6524 50.0475 65.4046 46.8431 63.0889 44.5274C60.8739 42.3125 57.9292 41.0928 54.7969 41.0928C51.6646 41.0928 48.7201 42.3127 46.5061 44.5274C44.2912 46.7423 43.0713 49.6873 43.0713 52.8196C43.0713 55.952 44.2912 58.897 46.5059 61.1116C48.7201 63.3267 51.6646 64.5464 54.7969 64.5464C57.9292 64.5464 60.8739 63.3267 63.0889 61.1118C63.9144 60.2864 64.6091 59.3486 65.1543 58.3242Z" fill="url(#paint6_linear)"/>
<path d="M27.2222 38.4473H11.6338C10.9866 38.4473 10.4619 38.972 10.4619 39.6192C10.4619 40.2664 10.9866 40.7911 11.6338 40.7911H27.2222C27.8694 40.7911 28.3941 40.2664 28.3941 39.6192C28.3941 38.972 27.8694 38.4473 27.2222 38.4473Z" fill="url(#paint7_linear)"/>
<path d="M27.2222 43.4355H11.6338C10.9866 43.4355 10.4619 43.9603 10.4619 44.6075C10.4619 45.2547 10.9866 45.7794 11.6338 45.7794H27.2222C27.8694 45.7794 28.3941 45.2547 28.3941 44.6075C28.3941 43.9603 27.8694 43.4355 27.2222 43.4355Z" fill="url(#paint8_linear)"/>
<path d="M27.2222 48.4238H11.6338C10.9866 48.4238 10.4619 48.9485 10.4619 49.5958C10.4619 50.243 10.9866 50.7677 11.6338 50.7677H27.2222C27.8694 50.7677 28.3941 50.243 28.3941 49.5958C28.3941 48.9485 27.8694 48.4238 27.2222 48.4238Z" fill="url(#paint9_linear)"/>
<defs>
<linearGradient id="paint0_linear" x1="9.71224" y1="5.98535" x2="9.71224" y2="13.0231" gradientUnits="userSpaceOnUse">
<stop stop-color="#00C2FF"/>
<stop offset="1" stop-color="#3DFFA2"/>
</linearGradient>
<linearGradient id="paint1_linear" x1="17.1741" y1="5.98535" x2="17.1741" y2="13.0231" gradientUnits="userSpaceOnUse">
<stop stop-color="#00C2FF"/>
<stop offset="1" stop-color="#3DFFA2"/>
</linearGradient>
<linearGradient id="paint2_linear" x1="12.2966" y1="20.04" x2="12.2966" y2="32.938" gradientUnits="userSpaceOnUse">
<stop stop-color="#00C2FF"/>
<stop offset="1" stop-color="#3DFFA2"/>
</linearGradient>
<linearGradient id="paint3_linear" x1="35.6697" y1="20.04" x2="35.6697" y2="32.9328" gradientUnits="userSpaceOnUse">
<stop stop-color="#00C2FF"/>
<stop offset="1" stop-color="#3DFFA2"/>
</linearGradient>
<linearGradient id="paint4_linear" x1="23.3028" y1="20.04" x2="23.3028" y2="32.9328" gradientUnits="userSpaceOnUse">
<stop stop-color="#00C2FF"/>
<stop offset="1" stop-color="#3DFFA2"/>
</linearGradient>
<linearGradient id="paint5_linear" x1="40" y1="1.97461" x2="40" y2="78.0239" gradientUnits="userSpaceOnUse">
<stop stop-color="#00C2FF"/>
<stop offset="1" stop-color="#3DFFA2"/>
</linearGradient>
<linearGradient id="paint6_linear" x1="54.7972" y1="41.0928" x2="54.7972" y2="64.5464" gradientUnits="userSpaceOnUse">
<stop stop-color="#00C2FF"/>
<stop offset="1" stop-color="#3DFFA2"/>
</linearGradient>
<linearGradient id="paint7_linear" x1="19.428" y1="38.4473" x2="19.428" y2="40.7911" gradientUnits="userSpaceOnUse">
<stop stop-color="#00C2FF"/>
<stop offset="1" stop-color="#3DFFA2"/>
</linearGradient>
<linearGradient id="paint8_linear" x1="19.428" y1="43.4355" x2="19.428" y2="45.7794" gradientUnits="userSpaceOnUse">
<stop stop-color="#00C2FF"/>
<stop offset="1" stop-color="#3DFFA2"/>
</linearGradient>
<linearGradient id="paint9_linear" x1="19.428" y1="48.4238" x2="19.428" y2="50.7677" gradientUnits="userSpaceOnUse">
<stop stop-color="#00C2FF"/>
<stop offset="1" stop-color="#3DFFA2"/>
</linearGradient>
</defs>
</svg>
