<svg width="80" height="80" viewBox="0 0 80 80" fill="none" xmlns="http://www.w3.org/2000/svg">
<path d="M42.5 68.75H37.5V71.25H42.5V68.75Z" fill="url(#paint0_linear)"/>
<path d="M75 68.3125V57.5C74.9967 54.9095 74.1013 52.3991 72.4644 50.3912C70.8276 48.3833 68.5492 47.0003 66.0125 46.475L67.4125 42.9625C67.4858 42.7728 67.5127 42.5683 67.491 42.3661C67.4692 42.1639 67.3995 41.9698 67.2875 41.8C67.1728 41.6304 67.0183 41.4915 66.8374 41.3956C66.6564 41.2997 66.4548 41.2497 66.25 41.25H61.25V26.5L70.825 29.925C71.0137 29.9951 71.2166 30.0183 71.4162 29.9925C71.6159 29.9668 71.8063 29.893 71.9711 29.7774C72.1359 29.6618 72.2701 29.5079 72.3622 29.3289C72.4544 29.15 72.5017 28.9513 72.5 28.75V21.25H73.75C74.7446 21.25 75.6984 20.8549 76.4016 20.1517C77.1049 19.4484 77.5 18.4946 77.5 17.5C77.5 16.5054 77.1049 15.5516 76.4016 14.8483C75.6984 14.1451 74.7446 13.75 73.75 13.75H72.5V6.25C72.4996 6.04983 72.4519 5.85259 72.3606 5.67443C72.2694 5.49627 72.1372 5.34226 71.975 5.225C71.8082 5.11224 71.6174 5.03996 71.4178 5.01392C71.2181 4.98788 71.0151 5.0088 70.825 5.075L61.25 8.5V7.5C61.247 6.50635 60.851 5.55425 60.1484 4.85163C59.4458 4.14901 58.4936 3.75297 57.5 3.75H22.5C21.5064 3.75297 20.5542 4.14901 19.8516 4.85163C19.149 5.55425 18.753 6.50635 18.75 7.5V21.25H17.9C17.1311 21.2507 16.3938 21.5564 15.8501 22.1001C15.3064 22.6438 15.0007 23.3811 15 24.15V25.675C14.9977 25.758 14.9702 25.8384 14.921 25.9054C14.8719 25.9724 14.8035 26.0228 14.725 26.05C14.6528 26.0819 14.5728 26.0918 14.4949 26.0785C14.4171 26.0652 14.345 26.0292 14.2875 25.975L13.2125 24.8875C12.6585 24.3636 11.925 24.0718 11.1625 24.0718C10.4 24.0718 9.66651 24.3636 9.1125 24.8875L6.15 27.8625C5.60516 28.4048 5.29782 29.1412 5.29548 29.9099C5.29314 30.6786 5.59598 31.4169 6.1375 31.9625L7.225 33.0375C7.27916 33.095 7.31517 33.1671 7.32851 33.2449C7.34185 33.3228 7.33193 33.4028 7.3 33.475C7.3 33.4875 7.3 33.5 7.2875 33.5C7.259 33.5731 7.20923 33.6361 7.14461 33.6806C7.07999 33.7252 7.00349 33.7494 6.925 33.75H5.4C4.63108 33.7507 3.89383 34.0564 3.35012 34.6001C2.80641 35.1438 2.50066 35.8811 2.5 36.65V40.85C2.50066 41.6189 2.80641 42.3562 3.35012 42.8999C3.89383 43.4436 4.63108 43.7493 5.4 43.75H6.925C7.00805 43.7523 7.08842 43.7798 7.15542 43.829C7.22241 43.8781 7.27285 43.9465 7.3 44.025C7.33193 44.0972 7.34185 44.1772 7.32851 44.2551C7.31517 44.3329 7.27916 44.405 7.225 44.4625L6.1375 45.5375C5.59706 46.0829 5.29385 46.8197 5.29385 47.5875C5.29385 48.3553 5.59706 49.0921 6.1375 49.6375L9.1125 52.6C9.66346 53.1284 10.3966 53.4244 11.16 53.4267C11.9234 53.4291 12.6583 53.1375 13.2125 52.6125L14.2875 51.525C14.3493 51.4691 14.4265 51.4332 14.5091 51.4221C14.5916 51.4109 14.6756 51.425 14.75 51.4625C14.8231 51.491 14.8861 51.5408 14.9306 51.6054C14.9752 51.67 14.9994 51.7465 15 51.825V53.35C15.0007 54.1189 15.3064 54.8562 15.8501 55.3999C16.3938 55.9436 17.1311 56.2493 17.9 56.25H18.75V72.5C18.753 73.4937 19.149 74.4458 19.8516 75.1484C20.5542 75.851 21.5064 76.247 22.5 76.25H73.55C74.2552 76.2486 74.9457 76.0484 75.5423 75.6724C76.1389 75.2964 76.6173 74.7597 76.9227 74.1241C77.2281 73.4885 77.3481 72.7796 77.269 72.0789C77.1898 71.3781 76.9146 70.7139 76.475 70.1625L75 68.3125ZM72.5 16.25H73.75C74.0815 16.25 74.3995 16.3817 74.6339 16.6161C74.8683 16.8505 75 17.1685 75 17.5C75 17.8315 74.8683 18.1495 74.6339 18.3839C74.3995 18.6183 74.0815 18.75 73.75 18.75H72.5V16.25ZM18.75 43.575C17.6774 43.3021 16.7263 42.6795 16.047 41.8058C15.3678 40.932 14.999 39.8568 14.999 38.75C14.999 37.6432 15.3678 36.568 16.047 35.6942C16.7263 34.8205 17.6774 34.1979 18.75 33.925V43.575ZM18.75 31.3625C17.0031 31.6563 15.4169 32.5596 14.2729 33.9121C13.1289 35.2645 12.5012 36.9786 12.5012 38.75C12.5012 40.5214 13.1289 42.2355 14.2729 43.5879C15.4169 44.9404 17.0031 45.8437 18.75 46.1375V53.75H17.9C17.7941 53.7493 17.6928 53.707 17.6179 53.6321C17.543 53.5572 17.5007 53.4559 17.5 53.35V51.825C17.4982 51.2494 17.3263 50.6872 17.0059 50.209C16.6854 49.7309 16.2308 49.3581 15.699 49.1377C15.1673 48.9173 14.5823 48.859 14.0175 48.9701C13.4528 49.0813 12.9335 49.357 12.525 49.7625L11.45 50.8375C11.2375 51.05 11.0875 51.05 10.875 50.8375L7.9125 47.875C7.87394 47.8377 7.84328 47.793 7.82234 47.7436C7.8014 47.6942 7.79061 47.6411 7.79061 47.5875C7.79061 47.5339 7.8014 47.4808 7.82234 47.4314C7.84328 47.382 7.87394 47.3373 7.9125 47.3L8.9875 46.225C9.39121 45.8158 9.66529 45.2967 9.77544 44.7325C9.8856 44.1683 9.82694 43.5842 9.6068 43.0532C9.38667 42.5222 9.01483 42.0679 8.53782 41.7472C8.06081 41.4265 7.49981 41.2535 6.925 41.25H5.4C5.29412 41.2493 5.19275 41.207 5.11788 41.1321C5.04301 41.0572 5.00066 40.9559 5 40.85V36.65C5.00066 36.5441 5.04301 36.4428 5.11788 36.3679C5.19275 36.293 5.29412 36.2507 5.4 36.25H6.925C7.48115 36.2484 8.02519 36.0875 8.49265 35.7862C8.96011 35.4849 9.33139 35.0559 9.5625 34.55C9.57661 34.5154 9.59333 34.482 9.6125 34.45C9.83529 33.9185 9.89482 33.3328 9.78351 32.7673C9.67221 32.2019 9.3951 31.6824 8.9875 31.275L7.9125 30.2C7.87394 30.1627 7.84328 30.118 7.82234 30.0686C7.8014 30.0192 7.79061 29.9661 7.79061 29.9125C7.79061 29.8589 7.8014 29.8058 7.82234 29.7564C7.84328 29.707 7.87394 29.6623 7.9125 29.625L10.875 26.6625C11.075 26.45 11.2375 26.45 11.45 26.6625L12.525 27.7375C12.9342 28.1412 13.4533 28.4153 14.0175 28.5254C14.5817 28.6356 15.1658 28.5769 15.6968 28.3568C16.2278 28.1367 16.6821 27.7648 17.0028 27.2878C17.3235 26.8108 17.4965 26.2498 17.5 25.675V24.15C17.5007 24.0441 17.543 23.9428 17.6179 23.8679C17.6928 23.793 17.7941 23.7507 17.9 23.75H18.75V31.3625ZM64.4 43.75L63.4125 46.25H59.0875L58.1 43.75H64.4ZM70 8.025V26.975L55 21.625V13.375L70 8.025ZM47.5 68.3125L46.025 70.1625C45.6236 70.6577 45.3574 71.2485 45.2523 71.8772C45.1471 72.5059 45.2066 73.1511 45.425 73.75H22.5C22.1685 73.75 21.8505 73.6183 21.6161 73.3839C21.3817 73.1495 21.25 72.8315 21.25 72.5V66.25H47.5V68.3125ZM47.5 63.75H21.25V7.5C21.25 7.16848 21.3817 6.85054 21.6161 6.61612C21.8505 6.3817 22.1685 6.25 22.5 6.25H57.5C57.8315 6.25 58.1495 6.3817 58.3839 6.61612C58.6183 6.85054 58.75 7.16848 58.75 7.5V9.3875L53.5375 11.25H43.75C43.4185 11.25 43.1005 11.3817 42.8661 11.6161C42.6317 11.8505 42.5 12.1685 42.5 12.5V12.775L38.45 13.7875C38.179 13.8545 37.9382 14.0103 37.766 14.23C37.5939 14.4498 37.5002 14.7208 37.5 15V20C37.5002 20.2792 37.5939 20.5502 37.766 20.77C37.9382 20.9897 38.179 21.1455 38.45 21.2125L42.5 22.225V22.5C42.5 22.8315 42.6317 23.1495 42.8661 23.3839C43.1005 23.6183 43.4185 23.75 43.75 23.75H45V32.5C45 32.8315 45.1317 33.1495 45.3661 33.3839C45.6005 33.6183 45.9185 33.75 46.25 33.75H51.25C51.5549 33.7492 51.8491 33.6369 52.077 33.4343C52.3049 33.2317 52.4509 32.9527 52.4875 32.65L53.6 23.775L58.75 25.6125V41.25H56.25C56.0452 41.2497 55.8436 41.2997 55.6626 41.3956C55.4817 41.4915 55.3272 41.6304 55.2125 41.8C55.1005 41.9698 55.0308 42.1639 55.009 42.3661C54.9873 42.5683 55.0142 42.7728 55.0875 42.9625L56.4875 46.475C53.9508 47.0003 51.6724 48.3833 50.0356 50.3912C48.3987 52.3991 47.5033 54.9095 47.5 57.5V63.75ZM45 21.25V13.75H52.5V21.25H45ZM51.0875 23.75L50.15 31.25H47.5V23.75H51.0875ZM42.5 15.35V19.65L40 19.025V15.975L42.5 15.35ZM74.675 73.0375C74.5767 73.2525 74.418 73.4343 74.2183 73.5608C74.0186 73.6873 73.7864 73.753 73.55 73.75H48.95C48.7136 73.753 48.4814 73.6873 48.2817 73.5608C48.082 73.4343 47.9233 73.2525 47.825 73.0375C47.7188 72.828 47.6765 72.592 47.7031 72.3587C47.7298 72.1255 47.8243 71.9051 47.975 71.725L49.725 69.525C49.9035 69.3062 50.0007 69.0324 50 68.75V57.5C50.0026 55.1802 50.9254 52.9561 52.5657 51.3157C54.2061 49.6754 56.4302 48.7526 58.75 48.75H63.75C66.0698 48.7526 68.2939 49.6754 69.9343 51.3157C71.5746 52.9561 72.4974 55.1802 72.5 57.5V68.75C72.4993 69.0324 72.5965 69.3062 72.775 69.525L74.525 71.725C74.6757 71.9051 74.7702 72.1255 74.7969 72.3587C74.8235 72.592 74.7812 72.828 74.675 73.0375Z" fill="url(#paint1_linear)"/>
<path d="M60.625 58.75H61.875C62.0408 58.75 62.1997 58.8158 62.3169 58.9331C62.4342 59.0503 62.5 59.2092 62.5 59.375H65C64.9999 58.6548 64.751 57.9568 64.2954 57.399C63.8399 56.8411 63.2056 56.4578 62.5 56.3137V55H60V56.3137C59.2419 56.4693 58.5684 56.9006 58.1101 57.5241C57.6517 58.1477 57.441 58.9191 57.5188 59.6891C57.5966 60.4591 57.9573 61.1728 58.5312 61.6921C59.105 62.2114 59.8511 62.4993 60.625 62.5H61.875C62.0408 62.5 62.1997 62.5658 62.3169 62.6831C62.4342 62.8003 62.5 62.9592 62.5 63.125C62.5 63.2908 62.4342 63.4497 62.3169 63.5669C62.1997 63.6842 62.0408 63.75 61.875 63.75H60.625C60.4592 63.75 60.3003 63.6842 60.1831 63.5669C60.0658 63.4497 60 63.2908 60 63.125H57.5C57.5001 63.8452 57.749 64.5432 58.2046 65.101C58.6601 65.6589 59.2944 66.0422 60 66.1863V67.5H62.5V66.1863C63.2581 66.0307 63.9316 65.5994 64.3899 64.9759C64.8483 64.3523 65.059 63.5809 64.9812 62.8109C64.9034 62.0409 64.5427 61.3272 63.9688 60.8079C63.395 60.2886 62.6489 60.0007 61.875 60H60.625C60.4592 60 60.3003 59.9342 60.1831 59.8169C60.0658 59.6997 60 59.5408 60 59.375C60 59.2092 60.0658 59.0503 60.1831 58.9331C60.3003 58.8158 60.4592 58.75 60.625 58.75Z" fill="url(#paint2_linear)"/>
<path d="M61.25 51.25C59.2722 51.25 57.3388 51.8365 55.6943 52.9353C54.0498 54.0341 52.7681 55.5959 52.0112 57.4232C51.2543 59.2504 51.0563 61.2611 51.4422 63.2009C51.828 65.1407 52.7804 66.9225 54.1789 68.3211C55.5775 69.7196 57.3593 70.672 59.2991 71.0579C61.2389 71.4437 63.2496 71.2457 65.0768 70.4888C66.9041 69.7319 68.4659 68.4502 69.5647 66.8057C70.6635 65.1612 71.25 63.2278 71.25 61.25C71.247 58.5987 70.1925 56.0569 68.3178 54.1822C66.4431 52.3075 63.9013 51.253 61.25 51.25ZM61.25 68.75C59.7666 68.75 58.3166 68.3101 57.0832 67.486C55.8499 66.6619 54.8886 65.4906 54.3209 64.1201C53.7533 62.7497 53.6047 61.2417 53.8941 59.7868C54.1835 58.332 54.8978 56.9956 55.9467 55.9467C56.9956 54.8978 58.332 54.1835 59.7868 53.8941C61.2417 53.6047 62.7497 53.7532 64.1201 54.3209C65.4906 54.8886 66.6619 55.8499 67.486 57.0832C68.3101 58.3166 68.75 59.7666 68.75 61.25C68.748 63.2385 67.9572 65.145 66.5511 66.5511C65.145 67.9572 63.2385 68.748 61.25 68.75Z" fill="url(#paint3_linear)"/>
<path d="M33.75 56.25H26.25V58.75H33.75V56.25Z" fill="url(#paint4_linear)"/>
<path d="M42.5 56.25H37.5V58.75H42.5V56.25Z" fill="url(#paint5_linear)"/>
<path d="M26.25 11.25H30V8.75H25C24.6685 8.75 24.3505 8.8817 24.1161 9.11612C23.8817 9.35054 23.75 9.66848 23.75 10V15H26.25V11.25Z" fill="url(#paint6_linear)"/>
<path d="M33.5 34C31.6211 34 29.7844 34.5572 28.2221 35.601C26.6598 36.6449 25.4422 38.1286 24.7231 39.8645C24.0041 41.6004 23.816 43.5105 24.1825 45.3534C24.5491 47.1962 25.4539 48.8889 26.7825 50.2175C28.1111 51.5461 29.8038 52.4509 31.6466 52.8175C33.4895 53.184 35.3996 52.9959 37.1355 52.2769C38.8714 51.5578 40.3551 50.3402 41.399 48.7779C42.4428 47.2156 43 45.3789 43 43.5C43 43.1851 42.8749 42.883 42.6522 42.6603C42.4295 42.4376 42.1274 42.3125 41.8125 42.3125H34.6875V35.1875C34.6875 34.8726 34.5624 34.5705 34.3397 34.3478C34.117 34.1251 33.8149 34 33.5 34ZM40.5264 44.6875C40.3083 45.9768 39.7395 47.1812 38.8824 48.1687C38.0253 49.1563 36.913 49.889 35.6673 50.2865C34.4215 50.684 33.0904 50.731 31.8197 50.4224C30.5491 50.1138 29.3878 49.4614 28.4632 48.5368C27.5386 47.6122 26.8862 46.4509 26.5776 45.1803C26.269 43.9096 26.316 42.5785 26.7135 41.3327C27.111 40.087 27.8437 38.9747 28.8313 38.1176C29.8188 37.2605 31.0232 36.6917 32.3125 36.4736V43.5C32.3125 43.8149 32.4376 44.117 32.6603 44.3397C32.883 44.5624 33.1851 44.6875 33.5 44.6875H40.5264Z" fill="url(#paint7_linear)"/>
<path d="M43.5789 39.7368C43.5769 37.9507 42.8665 36.2384 41.6036 34.9754C40.3406 33.7124 38.6282 33.002 36.8421 33C36.6188 33 36.4046 33.0887 36.2466 33.2466C36.0887 33.4046 36 33.6188 36 33.8421V39.7368C36 39.9602 36.0887 40.1744 36.2466 40.3323C36.4046 40.4902 36.6188 40.5789 36.8421 40.5789H42.7368C42.9602 40.5789 43.1744 40.4902 43.3323 40.3323C43.4902 40.1744 43.5789 39.9602 43.5789 39.7368ZM37.6842 38.8947V34.7541C38.7181 34.9309 39.6716 35.4241 40.4132 36.1657C41.1549 36.9074 41.6481 37.8609 41.8248 38.8947H37.6842Z" fill="url(#paint8_linear)"/>
<defs>
<linearGradient id="paint0_linear" x1="40" y1="68.75" x2="40" y2="71.25" gradientUnits="userSpaceOnUse">
<stop stop-color="#00C2FF"/>
<stop offset="1" stop-color="#3DFFA2"/>
</linearGradient>
<linearGradient id="paint1_linear" x1="40" y1="3.75" x2="40" y2="76.25" gradientUnits="userSpaceOnUse">
<stop stop-color="#00C2FF"/>
<stop offset="1" stop-color="#3DFFA2"/>
</linearGradient>
<linearGradient id="paint2_linear" x1="61.25" y1="55" x2="61.25" y2="67.5" gradientUnits="userSpaceOnUse">
<stop stop-color="#00C2FF"/>
<stop offset="1" stop-color="#3DFFA2"/>
</linearGradient>
<linearGradient id="paint3_linear" x1="61.25" y1="51.25" x2="61.25" y2="71.25" gradientUnits="userSpaceOnUse">
<stop stop-color="#00C2FF"/>
<stop offset="1" stop-color="#3DFFA2"/>
</linearGradient>
<linearGradient id="paint4_linear" x1="30" y1="56.25" x2="30" y2="58.75" gradientUnits="userSpaceOnUse">
<stop stop-color="#00C2FF"/>
<stop offset="1" stop-color="#3DFFA2"/>
</linearGradient>
<linearGradient id="paint5_linear" x1="40" y1="56.25" x2="40" y2="58.75" gradientUnits="userSpaceOnUse">
<stop stop-color="#00C2FF"/>
<stop offset="1" stop-color="#3DFFA2"/>
</linearGradient>
<linearGradient id="paint6_linear" x1="26.875" y1="8.75" x2="26.875" y2="15" gradientUnits="userSpaceOnUse">
<stop stop-color="#00C2FF"/>
<stop offset="1" stop-color="#3DFFA2"/>
</linearGradient>
<linearGradient id="paint7_linear" x1="33.5" y1="34" x2="33.5" y2="53" gradientUnits="userSpaceOnUse">
<stop stop-color="#00C2FF"/>
<stop offset="1" stop-color="#3DFFA2"/>
</linearGradient>
<linearGradient id="paint8_linear" x1="39.7895" y1="33" x2="39.7895" y2="40.5789" gradientUnits="userSpaceOnUse">
<stop stop-color="#00C2FF"/>
<stop offset="1" stop-color="#3DFFA2"/>
</linearGradient>
</defs>
</svg>
