<?xml version="1.0" standalone="no"?>
<!DOCTYPE svg PUBLIC "-//W3C//DTD SVG 20010904//EN"
 "http://www.w3.org/TR/2001/REC-SVG-20010904/DTD/svg10.dtd">
<svg version="1.0" xmlns="http://www.w3.org/2000/svg"
 width="500.000000pt" height="500.000000pt" viewBox="0 0 500.000000 500.000000"
 preserveAspectRatio="xMidYMid meet">

<g transform="translate(0.000000,500.000000) scale(0.100000,-0.100000)"
fill="#000000" stroke="none">
<path d="M0 2500 l0 -2500 2500 0 2500 0 0 2500 0 2500 -2500 0 -2500 0 0
-2500z m2107 208 l221 -543 236 -3 c130 -1 236 0 236 3 0 3 -93 233 -206 512
-113 280 -208 514 -211 521 -4 9 24 12 119 12 l125 0 85 -217 c47 -120 96
-248 109 -285 13 -38 26 -68 29 -68 3 0 18 37 34 83 16 45 65 173 108 285 l79
202 124 0 125 0 -9 -22 c-5 -13 -99 -246 -210 -520 -110 -273 -201 -499 -201
-502 0 -3 124 -6 275 -6 l275 0 0 525 0 525 110 0 110 0 0 -525 0 -525 263 0
262 1 -60 32 c-175 93 -288 309 -271 518 24 295 216 489 502 506 91 6 236 -16
249 -37 3 -5 1 -57 -6 -115 -10 -91 -14 -105 -28 -99 -76 31 -108 36 -189 32
-132 -7 -210 -55 -264 -166 -30 -60 -33 -75 -33 -157 0 -76 4 -99 26 -145 34
-72 100 -135 169 -161 46 -18 70 -20 145 -16 50 3 110 12 134 21 24 9 45 15
47 13 2 -1 9 -51 17 -110 9 -74 10 -107 3 -108 -6 0 -5 -3 2 -6 9 -4 12 -90
12 -384 l0 -379 -2107 0 -2106 0 6 578 c4 317 7 729 7 915 l0 337 28 0 c23 0
65 -45 297 -316 l270 -315 3 306 2 305 105 0 105 0 2 -522 3 -523 77 -3 c65
-2 78 0 86 15 6 10 103 248 217 528 221 545 221 545 234 545 4 0 107 -244 228
-542z"/>
<path d="M1830 2597 c-24 -67 -45 -128 -48 -134 -3 -10 19 -13 92 -13 53 0 96
3 96 8 0 11 -82 246 -90 254 -3 5 -26 -47 -50 -115z"/>
<path d="M660 2435 l0 -275 245 0 c135 0 245 3 245 6 0 6 -481 544 -486 544
-2 0 -4 -124 -4 -275z"/>
<path d="M1691 2228 c-5 -13 -11 -33 -15 -45 l-7 -23 205 0 c135 0 206 4 206
10 0 6 -7 26 -14 45 l-15 35 -176 0 c-173 0 -176 0 -184 -22z"/>
<path d="M530 1780 l0 -300 2015 0 2015 0 0 300 0 300 -2015 0 -2015 0 0 -300z
m2350 30 l0 -220 90 0 c89 0 90 0 90 -25 l0 -25 -115 0 -115 0 0 245 0 245 25
0 25 0 0 -220z m480 45 c34 -17 56 -44 75 -88 28 -68 31 -67 -130 -67 -136 0
-145 -1 -145 -19 0 -30 47 -79 86 -90 47 -13 99 3 126 39 13 18 31 30 45 30
27 0 28 -2 8 -40 -33 -63 -115 -99 -185 -80 -86 23 -137 99 -127 187 13 116
140 181 247 128z m425 -9 c24 -16 25 -15 25 4 0 15 7 20 25 20 l25 0 0 -117
c0 -141 5 -161 37 -169 17 -5 23 -12 21 -28 -4 -30 -56 -25 -83 8 -20 24 -20
24 -43 5 -73 -59 -193 -37 -242 44 -43 70 -33 153 25 211 54 55 146 64 210 22z
m383 1 c3 -24 0 -27 -28 -27 -77 0 -100 -42 -100 -180 l0 -100 -25 0 -25 0 0
165 0 165 25 0 c19 0 25 -5 25 -21 0 -18 2 -19 15 -9 18 15 87 40 100 36 6 -1
11 -15 13 -29z m269 6 c41 -27 53 -72 53 -197 l0 -116 -25 0 -25 0 0 114 c0
99 -3 117 -21 140 -27 34 -79 36 -109 4 -18 -19 -20 -35 -20 -140 l0 -118 -25
0 -25 0 0 165 0 165 25 0 c14 0 25 -4 25 -9 0 -5 17 -3 38 5 39 14 74 10 109
-13z"/>
<path d="M3199 1791 c-16 -16 -29 -34 -29 -40 0 -7 38 -11 110 -11 61 0 110 3
110 8 -1 13 -34 49 -57 61 -12 6 -40 11 -63 11 -33 0 -48 -6 -71 -29z"/>
<path d="M3632 1807 c-67 -37 -77 -130 -21 -186 74 -75 199 -21 199 86 0 38
-5 50 -34 79 -28 28 -41 34 -77 34 -24 -1 -54 -6 -67 -13z"/>
</g>
</svg>
