<svg width="177" height="91" viewBox="0 0 177 91" fill="none" xmlns="http://www.w3.org/2000/svg">
<rect width="177" height="91" fill="#0F0F0F"/>
<path d="M68 22L74.9282 35.5H61.0718L68 22Z" fill="#FF1616"/>
<path d="M23.1796 24.605L43.0896 46.825H45.1796V6.73H37.2596V28.95L17.4046 5.85H15.3146V46H23.1796V24.605ZM50.5201 46H59.4301L60.9701 41.765H74.0051L75.6001 46H84.4551L67.9001 5.245H67.0751L50.5201 46ZM63.8301 34.395L67.5151 24.165L71.0901 34.395H63.8301ZM99.6459 46.825L115.926 6.675H106.851L101.571 20.04L98.7659 27.905L95.9059 19.765L90.6809 6.675H81.6059L97.8859 46.825H99.6459ZM128.56 46V6.675H120.695V46H128.56ZM162.425 15.805L163.36 7.72C160.995 6.675 158.355 6.18 155.605 6.18C128.985 6.18 128.93 46.11 155.605 46.11C158.355 46.11 161.82 45.45 164.24 44.46L163.195 36.32C161.71 37.09 159.015 38.08 155.605 38.08C140.04 38.08 140.04 14.1 155.605 14.1C159.015 14.1 160.94 15.035 162.425 15.805Z" fill="white"/>
<path d="M97.7229 79H100.048V51.4H97.7229V79ZM140.441 77.05C139.616 77.05 138.904 76.4875 138.904 75.1V64H136.579V65.95C135.191 64.5625 133.241 63.7 131.104 63.7C126.791 63.7 123.304 67.1875 123.304 71.5C123.304 75.8125 126.791 79.3 131.104 79.3C133.354 79.3 135.379 78.25 136.804 76.7125C137.291 78.25 138.491 79.3 140.254 79.3C140.666 79.3 141.079 79.1875 141.379 79V77.05H140.441ZM131.104 76.975C128.066 76.975 125.629 74.5375 125.629 71.5C125.629 68.4625 128.066 66.025 131.104 66.025C134.104 66.025 136.579 68.4625 136.579 71.5C136.579 74.5375 134.104 76.975 131.104 76.975ZM151.881 63.7C149.744 63.7 148.019 64.6375 146.894 66.1375V64H144.569V79H146.894V70.8625C146.894 68.125 149.144 66.025 151.881 66.025C152.331 66.025 152.706 66.0625 153.044 66.175V63.8125C152.706 63.7375 152.331 63.7 151.881 63.7ZM161.928 63.7C160.54 63.7 159.265 64.2625 158.29 65.2V64H155.965V79H158.29V69.4375C158.29 67.525 159.828 66.025 161.74 66.025C163.653 66.025 165.153 67.525 165.153 69.4375V79H167.478V69.4375C167.478 66.25 164.815 63.7 161.928 63.7Z" fill="white"/>
<path d="M120.066 71.35C119.953 67.0375 116.541 63.7 112.266 63.7C107.953 63.7 104.466 67.1875 104.466 71.5C104.466 75.8125 107.953 79.3 112.266 79.3C115.828 79.3 118.791 76.9375 119.766 73.7125H117.291C116.466 75.6625 114.516 76.975 112.266 76.975C109.303 76.975 106.941 74.725 106.791 71.8375H120.028L120.066 71.35ZM112.266 66.025C114.666 66.025 116.691 67.5625 117.403 69.7375H107.091C107.841 67.5625 109.866 66.025 112.266 66.025Z" fill="#A6A6A6"/>
</svg>
