<svg width="80" height="80" viewBox="0 0 80 80" fill="none" xmlns="http://www.w3.org/2000/svg">
<path d="M17.5 61.25C17.5019 62.907 18.1609 64.4957 19.3326 65.6674C20.5043 66.8391 22.093 67.4981 23.75 67.5C23.8948 67.5 24.0392 67.4939 24.1833 67.4844C25.6003 70.4805 27.8392 73.0125 30.6394 74.7857C33.4395 76.5589 36.6857 77.5002 40 77.5002C43.3143 77.5002 46.5605 76.5589 49.3606 74.7857C52.1608 73.0125 54.3997 70.4805 55.8167 67.4844C55.9608 67.4942 56.1052 67.5 56.25 67.5C57.5439 67.5006 58.8061 67.0994 59.8622 66.3518C60.9183 65.6042 61.7163 64.5471 62.1458 63.3266C62.5753 62.106 62.6152 60.7822 62.2601 59.538C61.9049 58.2937 61.1721 57.1905 60.163 56.3806C61.0536 54.7316 61.5658 52.5698 61.0214 49.933C60.0603 45.2777 57.487 42.7611 55.4975 41.47C54.3356 40.7121 53.0514 40.1608 51.7016 39.8405C50.732 38.9413 49.6679 38.1497 48.528 37.4795C48.2259 36.6476 47.6408 35.9484 46.875 35.5045V33.8356C46.8729 33.7286 46.8963 33.6227 46.9433 33.5265C46.9903 33.4304 47.0595 33.3468 47.1452 33.2827C48.6664 32.1787 49.9296 30.7575 50.8475 29.1173C51.7653 27.4771 52.3159 25.6571 52.4611 23.7831C52.6063 21.9092 52.3426 20.0261 51.6884 18.2641C51.0341 16.502 50.0049 14.9032 48.6719 13.5781C47.5107 12.4204 46.1292 11.5072 44.6089 10.8928C43.0887 10.2784 41.4606 9.9751 39.8211 10.0009C33.0137 10.0981 27.4862 15.8458 27.4994 22.8134C27.4982 24.8586 27.9834 26.8748 28.9151 28.6955C29.8467 30.5162 31.1979 32.0892 32.8573 33.2847C32.9425 33.3488 33.0111 33.4321 33.0576 33.528C33.1042 33.6238 33.1273 33.7293 33.125 33.8358V35.5045C32.8592 35.6586 32.6133 35.8447 32.3927 36.0586C25.252 38.2847 19.6283 43.6078 18.9369 48.8581C18.4705 52.4002 18.9267 54.8278 19.7084 56.4869C19.018 57.0741 18.4631 57.804 18.0819 58.6262C17.7006 59.4485 17.5021 60.3436 17.5 61.25ZM20 61.25C20.0013 60.7447 20.1043 60.2449 20.303 59.7803C20.5017 59.3157 20.7918 58.8959 21.1562 58.5459C21.5562 58.9367 22.0084 59.2701 22.5 59.5366V60C22.4991 61.6798 22.7407 63.3509 23.2175 64.9616C22.3249 64.8324 21.5086 64.3863 20.9178 63.7048C20.327 63.0233 20.0012 62.1519 20 61.25ZM40 75C36.0231 74.9955 32.2104 73.4137 29.3983 70.6017C26.5863 67.7896 25.0045 63.9769 25 60V59.7997C30.8194 58.6236 44.3558 55.4805 48.75 54.4552C48.9637 55.7613 49.5858 56.9661 50.527 57.8966C51.9552 59.298 53.8336 59.7667 55.0003 59.9228V60C54.9958 63.9769 53.414 67.7897 50.6019 70.6018C47.7897 73.4139 43.9769 74.9956 40 75ZM60 61.25C59.9988 62.1519 59.673 63.0233 59.0822 63.7048C58.4914 64.3863 57.6751 64.8324 56.7825 64.9616C57.2593 63.3509 57.5009 61.6798 57.5 60V59.4322C57.9266 59.1259 58.3241 58.7811 58.6875 58.402C59.0981 58.7545 59.4279 59.1914 59.6544 59.6829C59.8809 60.1743 59.9988 60.7089 60 61.25ZM36.25 42.5H43.75V43.75C43.7496 44.0814 43.6178 44.3991 43.3835 44.6335C43.1491 44.8678 42.8314 44.9996 42.5 45H37.5C37.1686 44.9996 36.8509 44.8678 36.6165 44.6335C36.3822 44.3991 36.2504 44.0814 36.25 43.75V42.5ZM45 40H35C34.6685 40 34.3505 39.8683 34.1161 39.6339C33.8817 39.3995 33.75 39.0815 33.75 38.75C33.75 38.4185 33.8817 38.1005 34.1161 37.8661C34.3505 37.6317 34.6685 37.5 35 37.5H45C45.3315 37.5 45.6495 37.6317 45.8839 37.8661C46.1183 38.1005 46.25 38.4185 46.25 38.75C46.25 39.0815 46.1183 39.3995 45.8839 39.6339C45.6495 39.8683 45.3315 40 45 40ZM30 22.8089C29.9894 17.203 34.4114 12.5787 39.8575 12.5009C41.1655 12.4822 42.464 12.7254 43.6764 13.2163C44.8889 13.7072 45.9909 14.4359 46.9173 15.3594C47.9906 16.4285 48.8192 17.7176 49.3461 19.1379C49.8729 20.5582 50.0855 22.0759 49.9691 23.5863C49.8527 25.0967 49.4101 26.5639 48.6718 27.8867C47.9336 29.2095 46.9172 30.3564 45.6928 31.2484C45.2834 31.544 44.9503 31.9328 44.7212 32.3827C44.492 32.8327 44.3733 33.3307 44.375 33.8356V35H35.625V33.8358C35.627 33.3313 35.5088 32.8336 35.2801 32.3839C35.0514 31.9342 34.7188 31.5455 34.3098 31.25C32.9736 30.2855 31.8859 29.0171 31.1366 27.5494C30.3872 26.0817 29.9976 24.4568 30 22.8089ZM21.4156 49.1839C21.9183 45.3656 25.9928 41.3041 31.2684 39.1198C31.3398 39.8283 31.6109 40.5019 32.0503 41.0623C32.4896 41.6226 33.079 42.0466 33.75 42.285V43.75C33.7512 44.7442 34.1466 45.6974 34.8496 46.4004C35.5526 47.1034 36.5058 47.4988 37.5 47.5H42.5C43.4942 47.4988 44.4474 47.1034 45.1504 46.4004C45.8534 45.6974 46.2488 44.7442 46.25 43.75V42.285C47.1882 41.9509 47.956 41.259 48.3858 40.3606C49.0407 40.8262 49.66 41.3398 50.2386 41.8973C50.4278 42.0793 50.6695 42.1971 50.9294 42.2341C50.9906 42.2428 57.0766 43.1897 58.573 50.4384C59.4548 54.7097 56.7513 56.9166 55.8952 57.4964C55.3639 57.4731 53.4836 57.3053 52.2669 56.1012C51.4933 55.3356 51.1172 54.2922 51.1172 52.9102C51.1172 52.7217 51.0746 52.5358 50.9925 52.3661C50.9105 52.1965 50.7912 52.0476 50.6436 51.9306C50.4959 51.8136 50.3237 51.7314 50.1398 51.6903C49.9559 51.6492 49.7652 51.6503 49.5817 51.6933C49.387 51.7389 30.3656 56.1991 23.9411 57.4617C23.1719 57.1484 20.5708 55.5998 21.4156 49.1845V49.1839ZM45 61.25C45 61.0028 45.0733 60.7611 45.2107 60.5555C45.348 60.35 45.5432 60.1898 45.7716 60.0952C46.0001 60.0005 46.2514 59.9758 46.4939 60.024C46.7363 60.0723 46.9591 60.1913 47.1339 60.3661C47.3087 60.5409 47.4277 60.7637 47.476 61.0061C47.5242 61.2486 47.4995 61.4999 47.4048 61.7284C47.3102 61.9568 47.15 62.152 46.9445 62.2893C46.7389 62.4267 46.4972 62.5 46.25 62.5C45.9185 62.5 45.6005 62.3683 45.3661 62.1339C45.1317 61.8995 45 61.5815 45 61.25ZM32.5 61.25C32.5 61.0028 32.5733 60.7611 32.7107 60.5555C32.848 60.35 33.0432 60.1898 33.2716 60.0952C33.5001 60.0005 33.7514 59.9758 33.9939 60.024C34.2363 60.0723 34.4591 60.1913 34.6339 60.3661C34.8087 60.5409 34.9277 60.7637 34.976 61.0061C35.0242 61.2486 34.9995 61.4999 34.9049 61.7284C34.8102 61.9568 34.65 62.152 34.4445 62.2893C34.2389 62.4267 33.9972 62.5 33.75 62.5C33.4185 62.5 33.1005 62.3683 32.8661 62.1339C32.6317 61.8995 32.5 61.5815 32.5 61.25ZM37.5 63.75V61.25C37.5 60.9185 37.6317 60.6005 37.8661 60.3661C38.1005 60.1317 38.4185 60 38.75 60C39.0815 60 39.3995 60.1317 39.6339 60.3661C39.8683 60.6005 40 60.9185 40 61.25V62.5H41.25C41.5815 62.5 41.8995 62.6317 42.1339 62.8661C42.3683 63.1005 42.5 63.4185 42.5 63.75C42.5 64.0815 42.3683 64.3995 42.1339 64.6339C41.8995 64.8683 41.5815 65 41.25 65H38.75C38.4185 65 38.1005 64.8683 37.8661 64.6339C37.6317 64.3995 37.5 64.0815 37.5 63.75ZM41.3438 16.2669C41.4693 15.9601 41.7116 15.7157 42.0173 15.5876C42.323 15.4594 42.6671 15.4579 42.9739 15.5834C44.111 16.0583 45.1259 16.7843 45.9426 17.707C46.7594 18.6297 47.3568 19.7253 47.6902 20.9116C47.7374 21.0704 47.7526 21.237 47.7349 21.4018C47.7171 21.5666 47.6668 21.7262 47.5868 21.8713C47.5069 22.0164 47.3988 22.1442 47.269 22.2472C47.1392 22.3502 46.9902 22.4264 46.8307 22.4713C46.6712 22.5162 46.5043 22.5289 46.3398 22.5087C46.1754 22.4885 46.0165 22.4359 45.8726 22.3537C45.7287 22.2716 45.6025 22.1617 45.5014 22.0304C45.4004 21.899 45.3264 21.7489 45.2839 21.5887C45.0546 20.7677 44.6427 20.0092 44.0788 19.3699C43.5149 18.7307 42.8137 18.2273 42.0277 17.8973C41.8757 17.8352 41.7374 17.7438 41.6208 17.6282C41.5042 17.5126 41.4114 17.3752 41.3479 17.2238C41.2844 17.0724 41.2514 16.9099 41.2506 16.7457C41.2499 16.5816 41.2816 16.4188 41.3438 16.2669ZM47.4045 66.7308C47.327 66.9153 45.4581 71.25 40 71.25C34.5419 71.25 32.673 66.9153 32.5961 66.7308C32.4716 66.4259 32.4724 66.0843 32.5984 65.78C32.7244 65.4758 32.9654 65.2335 33.2689 65.1059C33.5725 64.9783 33.9142 64.9756 34.2197 65.0985C34.5252 65.2213 34.7699 65.4598 34.9006 65.762C34.9613 65.9003 36.257 68.75 40 68.75C43.8102 68.75 45.0837 65.7991 45.0961 65.7692C45.1592 65.6177 45.2516 65.4801 45.3679 65.3642C45.4842 65.2484 45.6222 65.1566 45.774 65.0941C45.9258 65.0316 46.0884 64.9996 46.2526 64.9999C46.4168 65.0003 46.5792 65.033 46.7308 65.0961C46.8823 65.1592 47.0199 65.2516 47.1358 65.3679C47.2516 65.4842 47.3434 65.6222 47.4059 65.774C47.4684 65.9258 47.5004 66.0884 47.5001 66.2526C47.4997 66.4168 47.467 66.5792 47.4039 66.7308H47.4045ZM40 7.5C39.6685 7.5 39.3505 7.3683 39.1161 7.13388C38.8817 6.89946 38.75 6.58152 38.75 6.25V3.75C38.75 3.41848 38.8817 3.10054 39.1161 2.86612C39.3505 2.6317 39.6685 2.5 40 2.5C40.3315 2.5 40.6495 2.6317 40.8839 2.86612C41.1183 3.10054 41.25 3.41848 41.25 3.75V6.25C41.25 6.58152 41.1183 6.89946 40.8839 7.13388C40.6495 7.3683 40.3315 7.5 40 7.5ZM31.7402 8.27141L30.7233 5.9875C30.5884 5.68464 30.5794 5.34061 30.6982 5.0311C30.817 4.72159 31.0539 4.47196 31.3568 4.33711C31.6597 4.20226 32.0037 4.19325 32.3132 4.31206C32.6227 4.43087 32.8723 4.66776 33.0072 4.97062L34.0241 7.25453C34.1589 7.5574 34.1679 7.90142 34.0491 8.21093C33.9303 8.52044 33.6934 8.77008 33.3905 8.90492C33.2406 8.97169 33.0789 9.00827 32.9148 9.01257C32.7507 9.01686 32.5874 8.9888 32.4341 8.92997C32.1246 8.81116 31.875 8.57427 31.7402 8.27141ZM24.3006 11.2969C24.0543 11.075 23.9061 10.7644 23.8888 10.4333C23.8715 10.1022 23.9864 9.77785 24.2082 9.53148C24.4301 9.28512 24.7407 9.13698 25.0718 9.11965C25.4028 9.10232 25.7272 9.21721 25.9736 9.43906L27.8314 11.1119C28.0691 11.3359 28.2096 11.6441 28.2229 11.9705C28.2362 12.2968 28.1212 12.6154 27.9026 12.8581C27.684 13.1008 27.379 13.2482 27.0531 13.2689C26.7271 13.2896 26.406 13.1818 26.1584 12.9688L24.3006 11.2969ZM23.7428 17.1541C23.9016 17.2026 24.0491 17.2822 24.1768 17.3884C24.3045 17.4945 24.4097 17.625 24.4864 17.7723C24.563 17.9195 24.6096 18.0806 24.6234 18.246C24.6371 18.4115 24.6178 18.578 24.5664 18.7359C24.5151 18.8938 24.4329 19.0399 24.3245 19.1657C24.2161 19.2914 24.0837 19.3943 23.9351 19.4684C23.7865 19.5424 23.6246 19.5861 23.459 19.5969C23.2933 19.6077 23.1271 19.5854 22.9702 19.5312L20.5925 18.7586C20.2772 18.6561 20.0155 18.4326 19.865 18.1372C19.7905 17.991 19.7455 17.8314 19.7327 17.6678C19.7198 17.5041 19.7393 17.3396 19.79 17.1834C19.8407 17.0273 19.9217 16.8827 20.0283 16.7579C20.135 16.6331 20.2651 16.5305 20.4114 16.456C20.7068 16.3055 21.0499 16.2785 21.3652 16.3809L23.7428 17.1541ZM19.9787 24.5981L22.465 24.3367C22.7938 24.3037 23.1223 24.4023 23.3787 24.6109C23.635 24.8194 23.7983 25.121 23.8329 25.4497C23.8675 25.7784 23.7705 26.1073 23.5632 26.3647C23.3559 26.622 23.0551 26.7868 22.7266 26.823L20.2403 27.0844C19.9115 27.1174 19.583 27.0188 19.3266 26.8102C19.0703 26.6017 18.907 26.3001 18.8724 25.9714C18.8378 25.6427 18.9348 25.3138 19.1421 25.0564C19.3495 24.7991 19.6503 24.6343 19.9787 24.5981ZM57.535 24.3367L60.0212 24.5981C60.1851 24.6146 60.3441 24.6632 60.489 24.7413C60.634 24.8193 60.7622 24.9253 60.8661 25.053C60.97 25.1807 61.0477 25.3277 61.0946 25.4855C61.1415 25.6434 61.1568 25.8089 61.1396 25.9727C61.1224 26.1364 61.073 26.2952 60.9942 26.4398C60.9155 26.5844 60.8089 26.712 60.6807 26.8153C60.5525 26.9186 60.4051 26.9955 60.247 27.0417C60.089 27.0879 59.9234 27.1024 59.7597 27.0844L57.2734 26.823C56.9449 26.7868 56.6441 26.622 56.4368 26.3647C56.2295 26.1073 56.1325 25.7784 56.1671 25.4497C56.2017 25.121 56.365 24.8194 56.6213 24.6109C56.8777 24.4023 57.2062 24.3037 57.535 24.3367ZM60.21 17.1841C60.3124 17.4993 60.2854 17.8424 60.1349 18.1378C59.9844 18.4331 59.7228 18.6566 59.4075 18.7591L57.0298 19.5312C56.8737 19.582 56.7091 19.6015 56.5455 19.5886C56.3818 19.5757 56.2223 19.5307 56.0761 19.4562C55.7807 19.3057 55.5571 19.044 55.4547 18.7288C55.3522 18.4135 55.3792 18.0704 55.5297 17.775C55.6802 17.4796 55.9419 17.2561 56.2572 17.1536L58.6348 16.3809C58.791 16.3302 58.9555 16.3107 59.1192 16.3236C59.2828 16.3365 59.4424 16.3814 59.5886 16.456C59.7349 16.5305 59.8651 16.6331 59.9717 16.7579C60.0783 16.8827 60.1593 17.0273 60.21 17.1834V17.1841ZM55.7917 9.53125C55.9016 9.65323 55.9864 9.79567 56.0412 9.95043C56.0961 10.1052 56.1199 10.2692 56.1113 10.4332C56.1027 10.5972 56.0619 10.7578 55.9913 10.906C55.9206 11.0542 55.8214 11.187 55.6994 11.2969L53.8416 12.9688C53.7196 13.0786 53.5771 13.1633 53.4224 13.2182C53.2677 13.273 53.1037 13.2967 52.9397 13.2882C52.7758 13.2796 52.6152 13.2388 52.467 13.1681C52.3188 13.0975 52.186 12.9983 52.0762 12.8763C51.9663 12.7543 51.8816 12.6119 51.8268 12.4572C51.772 12.3024 51.7482 12.1384 51.7568 11.9745C51.7653 11.8106 51.8061 11.6499 51.8768 11.5018C51.9475 11.3536 52.0466 11.2208 52.1686 11.1109L54.0264 9.43812C54.1484 9.32833 54.2909 9.24364 54.4456 9.1889C54.6004 9.13416 54.7644 9.11043 54.9284 9.11908C55.0923 9.12773 55.2529 9.16858 55.401 9.2393C55.5492 9.31002 55.6819 9.40922 55.7917 9.53125ZM46.6094 8.905C46.4594 8.83824 46.324 8.74259 46.211 8.62352C46.098 8.50444 46.0096 8.36427 45.9507 8.211C45.8919 8.05774 45.8638 7.89439 45.8681 7.73027C45.8724 7.56616 45.909 7.4045 45.9758 7.25453L46.9927 4.97062C47.1275 4.66776 47.3771 4.43087 47.6866 4.31206C47.9962 4.19325 48.3402 4.20226 48.643 4.33711C48.9459 4.47196 49.1828 4.72159 49.3016 5.0311C49.4204 5.34061 49.4114 5.68464 49.2766 5.9875L48.2597 8.27141C48.1249 8.57427 47.8752 8.81117 47.5658 8.92999C47.2563 9.04881 46.9122 9.03982 46.6094 8.905Z" fill="url(#paint0_linear)"/>
<defs>
<linearGradient id="paint0_linear" x1="40" y1="2.5" x2="40" y2="77.5002" gradientUnits="userSpaceOnUse">
<stop stop-color="#00C2FF"/>
<stop offset="1" stop-color="#3DFFA2"/>
</linearGradient>
</defs>
</svg>
