<svg width="80" height="80" viewBox="0 0 80 80" fill="none" xmlns="http://www.w3.org/2000/svg">
<path d="M73.75 22.5H71.3887C71.3403 21.9408 71.292 21.4041 71.2445 20.8981C71.1604 19.9673 70.7302 19.1018 70.039 18.4726C69.3478 17.8435 68.4458 17.4964 67.5111 17.5H67.2666C65.3875 17.5 63.9438 18.8973 63.7555 20.8981C63.1764 27.0562 62.5 37.3906 62.5 46.25C62.5 46.5815 62.6317 46.8995 62.8661 47.1339C63.1005 47.3683 63.4185 47.5 63.75 47.5V66.25C63.7504 66.3521 63.7633 66.4538 63.7884 66.5528H63.7873L66.2873 76.5528C66.355 76.8232 66.511 77.0633 66.7308 77.2348C66.9505 77.4064 67.2212 77.4996 67.5 77.4996C67.7788 77.4996 68.0495 77.4064 68.2692 77.2348C68.489 77.0633 68.645 76.8232 68.7127 76.5528L71.2127 66.5528H71.2116C71.2367 66.4538 71.2496 66.3521 71.25 66.25V47.5C71.5815 47.5 71.8995 47.3683 72.1339 47.1339C72.3683 46.8995 72.5 46.5815 72.5 46.25C72.5 39.143 72.0647 31.0881 71.5938 25H73.75C74.0814 25.0004 74.3991 25.1322 74.6335 25.3665C74.8678 25.6009 74.9996 25.9186 75 26.25V38.75C75 39.0815 75.1317 39.3995 75.3661 39.6339C75.6005 39.8683 75.9185 40 76.25 40C76.5815 40 76.8995 39.8683 77.1339 39.6339C77.3683 39.3995 77.5 39.0815 77.5 38.75V26.25C77.4989 25.2558 77.1034 24.3026 76.4004 23.5996C75.6974 22.8966 74.7442 22.5011 73.75 22.5ZM67.2666 20H67.5111C67.8226 19.9987 68.1232 20.1143 68.3536 20.3239C68.584 20.5335 68.7274 20.822 68.7555 21.1322C68.7964 21.567 68.8378 22.0252 68.8794 22.5H66.1206C66.1622 22.0252 66.2036 21.567 66.2445 21.1322C66.2695 20.8666 66.417 20 67.2666 20ZM66.25 52.5H68.75V65H66.25V52.5ZM66.6009 67.5H68.3991L67.5 71.0963L66.6009 67.5ZM68.75 50H66.25V47.5H68.75V50ZM69.9956 45H65.0044C65.0513 38.2031 65.4684 30.7044 65.9139 25H69.0858C69.5312 30.7044 69.9486 38.2031 69.9956 45ZM3.75 77.5H58.75C59.0815 77.5 59.3995 77.3683 59.6339 77.1339C59.8683 76.8995 60 76.5815 60 76.25V3.75C60 3.41848 59.8683 3.10054 59.6339 2.86612C59.3995 2.6317 59.0815 2.5 58.75 2.5H3.75C3.41848 2.5 3.10054 2.6317 2.86612 2.86612C2.6317 3.10054 2.5 3.41848 2.5 3.75V76.25C2.5 76.5815 2.6317 76.8995 2.86612 77.1339C3.10054 77.3683 3.41848 77.5 3.75 77.5ZM5 5H57.5V75H5V5ZM52.5 8.75H10C9.66848 8.75 9.35054 8.8817 9.11612 9.11612C8.8817 9.35054 8.75 9.66848 8.75 10V20C8.75 20.3315 8.8817 20.6495 9.11612 20.8839C9.35054 21.1183 9.66848 21.25 10 21.25H52.5C52.8315 21.25 53.1495 21.1183 53.3839 20.8839C53.6183 20.6495 53.75 20.3315 53.75 20V10C53.75 9.66848 53.6183 9.35054 53.3839 9.11612C53.1495 8.8817 52.8315 8.75 52.5 8.75ZM51.25 18.75H11.25V11.25H51.25V18.75ZM8.75 25C8.75 24.7528 8.82331 24.5111 8.96066 24.3055C9.09801 24.1 9.29324 23.9398 9.52165 23.8451C9.75005 23.7505 10.0014 23.7258 10.2439 23.774C10.4863 23.8223 10.7091 23.9413 10.8839 24.1161C11.0587 24.2909 11.1778 24.5137 11.226 24.7561C11.2742 24.9986 11.2495 25.2499 11.1549 25.4784C11.0602 25.7068 10.9 25.902 10.6945 26.0393C10.4889 26.1767 10.2472 26.25 10 26.25C9.66848 26.25 9.35054 26.1183 9.11612 25.8839C8.8817 25.6495 8.75 25.3315 8.75 25ZM53.75 25C53.75 25.3315 53.6183 25.6495 53.3839 25.8839C53.1495 26.1183 52.8315 26.25 52.5 26.25H15C14.6685 26.25 14.3505 26.1183 14.1161 25.8839C13.8817 25.6495 13.75 25.3315 13.75 25C13.75 24.6685 13.8817 24.3505 14.1161 24.1161C14.3505 23.8817 14.6685 23.75 15 23.75H52.5C52.8315 23.75 53.1495 23.8817 53.3839 24.1161C53.6183 24.3505 53.75 24.6685 53.75 25ZM10 41.25H15C15.3315 41.25 15.6495 41.1183 15.8839 40.8839C16.1183 40.6495 16.25 40.3315 16.25 40V35C16.25 34.6685 16.1183 34.3505 15.8839 34.1161C15.6495 33.8817 15.3315 33.75 15 33.75H10C9.66848 33.75 9.35054 33.8817 9.11612 34.1161C8.8817 34.3505 8.75 34.6685 8.75 35V40C8.75 40.3315 8.8817 40.6495 9.11612 40.8839C9.35054 41.1183 9.66848 41.25 10 41.25ZM11.25 36.25H13.75V38.75H11.25V36.25ZM18.75 35C18.75 34.6685 18.8817 34.3505 19.1161 34.1161C19.3505 33.8817 19.6685 33.75 20 33.75H27.5C27.8315 33.75 28.1495 33.8817 28.3839 34.1161C28.6183 34.3505 28.75 34.6685 28.75 35C28.75 35.3315 28.6183 35.6495 28.3839 35.8839C28.1495 36.1183 27.8315 36.25 27.5 36.25H20C19.6685 36.25 19.3505 36.1183 19.1161 35.8839C18.8817 35.6495 18.75 35.3315 18.75 35ZM18.75 40C18.75 39.6685 18.8817 39.3505 19.1161 39.1161C19.3505 38.8817 19.6685 38.75 20 38.75H27.5C27.8315 38.75 28.1495 38.8817 28.3839 39.1161C28.6183 39.3505 28.75 39.6685 28.75 40C28.75 40.3315 28.6183 40.6495 28.3839 40.8839C28.1495 41.1183 27.8315 41.25 27.5 41.25H20C19.6685 41.25 19.3505 41.1183 19.1161 40.8839C18.8817 40.6495 18.75 40.3315 18.75 40ZM40 41.25C40.3315 41.25 40.6495 41.1183 40.8839 40.8839C41.1183 40.6495 41.25 40.3315 41.25 40V35C41.25 34.6685 41.1183 34.3505 40.8839 34.1161C40.6495 33.8817 40.3315 33.75 40 33.75H35C34.6685 33.75 34.3505 33.8817 34.1161 34.1161C33.8817 34.3505 33.75 34.6685 33.75 35V40C33.75 40.3315 33.8817 40.6495 34.1161 40.8839C34.3505 41.1183 34.6685 41.25 35 41.25H40ZM36.25 36.25H38.75V38.75H36.25V36.25ZM53.75 35C53.75 35.3315 53.6183 35.6495 53.3839 35.8839C53.1495 36.1183 52.8315 36.25 52.5 36.25H45C44.6685 36.25 44.3505 36.1183 44.1161 35.8839C43.8817 35.6495 43.75 35.3315 43.75 35C43.75 34.6685 43.8817 34.3505 44.1161 34.1161C44.3505 33.8817 44.6685 33.75 45 33.75H52.5C52.8315 33.75 53.1495 33.8817 53.3839 34.1161C53.6183 34.3505 53.75 34.6685 53.75 35ZM53.75 40C53.75 40.3315 53.6183 40.6495 53.3839 40.8839C53.1495 41.1183 52.8315 41.25 52.5 41.25H45C44.6685 41.25 44.3505 41.1183 44.1161 40.8839C43.8817 40.6495 43.75 40.3315 43.75 40C43.75 39.6685 43.8817 39.3505 44.1161 39.1161C44.3505 38.8817 44.6685 38.75 45 38.75H52.5C52.8315 38.75 53.1495 38.8817 53.3839 39.1161C53.6183 39.3505 53.75 39.6685 53.75 40ZM10 61.25H15C15.3315 61.25 15.6495 61.1183 15.8839 60.8839C16.1183 60.6495 16.25 60.3315 16.25 60V55C16.25 54.6685 16.1183 54.3505 15.8839 54.1161C15.6495 53.8817 15.3315 53.75 15 53.75H10C9.66848 53.75 9.35054 53.8817 9.11612 54.1161C8.8817 54.3505 8.75 54.6685 8.75 55V60C8.75 60.3315 8.8817 60.6495 9.11612 60.8839C9.35054 61.1183 9.66848 61.25 10 61.25ZM11.25 56.25H13.75V58.75H11.25V56.25ZM18.75 55C18.75 54.6685 18.8817 54.3505 19.1161 54.1161C19.3505 53.8817 19.6685 53.75 20 53.75H27.5C27.8315 53.75 28.1495 53.8817 28.3839 54.1161C28.6183 54.3505 28.75 54.6685 28.75 55C28.75 55.3315 28.6183 55.6495 28.3839 55.8839C28.1495 56.1183 27.8315 56.25 27.5 56.25H20C19.6685 56.25 19.3505 56.1183 19.1161 55.8839C18.8817 55.6495 18.75 55.3315 18.75 55ZM18.75 60C18.75 59.6685 18.8817 59.3505 19.1161 59.1161C19.3505 58.8817 19.6685 58.75 20 58.75H27.5C27.8315 58.75 28.1495 58.8817 28.3839 59.1161C28.6183 59.3505 28.75 59.6685 28.75 60C28.75 60.3315 28.6183 60.6495 28.3839 60.8839C28.1495 61.1183 27.8315 61.25 27.5 61.25H20C19.6685 61.25 19.3505 61.1183 19.1161 60.8839C18.8817 60.6495 18.75 60.3315 18.75 60ZM40 61.25C40.3315 61.25 40.6495 61.1183 40.8839 60.8839C41.1183 60.6495 41.25 60.3315 41.25 60V55C41.25 54.6685 41.1183 54.3505 40.8839 54.1161C40.6495 53.8817 40.3315 53.75 40 53.75H35C34.6685 53.75 34.3505 53.8817 34.1161 54.1161C33.8817 54.3505 33.75 54.6685 33.75 55V60C33.75 60.3315 33.8817 60.6495 34.1161 60.8839C34.3505 61.1183 34.6685 61.25 35 61.25H40ZM36.25 56.25H38.75V58.75H36.25V56.25ZM53.75 55C53.75 55.3315 53.6183 55.6495 53.3839 55.8839C53.1495 56.1183 52.8315 56.25 52.5 56.25H45C44.6685 56.25 44.3505 56.1183 44.1161 55.8839C43.8817 55.6495 43.75 55.3315 43.75 55C43.75 54.6685 43.8817 54.3505 44.1161 54.1161C44.3505 53.8817 44.6685 53.75 45 53.75H52.5C52.8315 53.75 53.1495 53.8817 53.3839 54.1161C53.6183 54.3505 53.75 54.6685 53.75 55ZM53.75 60C53.75 60.3315 53.6183 60.6495 53.3839 60.8839C53.1495 61.1183 52.8315 61.25 52.5 61.25H45C44.6685 61.25 44.3505 61.1183 44.1161 60.8839C43.8817 60.6495 43.75 60.3315 43.75 60C43.75 59.6685 43.8817 59.3505 44.1161 59.1161C44.3505 58.8817 44.6685 58.75 45 58.75H52.5C52.8315 58.75 53.1495 58.8817 53.3839 59.1161C53.6183 59.3505 53.75 59.6685 53.75 60ZM53.75 30C53.75 30.3315 53.6183 30.6495 53.3839 30.8839C53.1495 31.1183 52.8315 31.25 52.5 31.25H10C9.66848 31.25 9.35054 31.1183 9.11612 30.8839C8.8817 30.6495 8.75 30.3315 8.75 30C8.75 29.6685 8.8817 29.3505 9.11612 29.1161C9.35054 28.8817 9.66848 28.75 10 28.75H52.5C52.8315 28.75 53.1495 28.8817 53.3839 29.1161C53.6183 29.3505 53.75 29.6685 53.75 30ZM8.75 45C8.75 44.7528 8.82331 44.5111 8.96066 44.3055C9.09801 44.1 9.29324 43.9398 9.52165 43.8452C9.75005 43.7505 10.0014 43.7258 10.2439 43.774C10.4863 43.8223 10.7091 43.9413 10.8839 44.1161C11.0587 44.2909 11.1778 44.5137 11.226 44.7561C11.2742 44.9986 11.2495 45.2499 11.1549 45.4784C11.0602 45.7068 10.9 45.902 10.6945 46.0393C10.4889 46.1767 10.2472 46.25 10 46.25C9.66848 46.25 9.35054 46.1183 9.11612 45.8839C8.8817 45.6495 8.75 45.3315 8.75 45ZM53.75 45C53.75 45.3315 53.6183 45.6495 53.3839 45.8839C53.1495 46.1183 52.8315 46.25 52.5 46.25H15C14.6685 46.25 14.3505 46.1183 14.1161 45.8839C13.8817 45.6495 13.75 45.3315 13.75 45C13.75 44.6685 13.8817 44.3505 14.1161 44.1161C14.3505 43.8817 14.6685 43.75 15 43.75H52.5C52.8315 43.75 53.1495 43.8817 53.3839 44.1161C53.6183 44.3505 53.75 44.6685 53.75 45ZM53.75 50C53.75 50.3315 53.6183 50.6495 53.3839 50.8839C53.1495 51.1183 52.8315 51.25 52.5 51.25H10C9.66848 51.25 9.35054 51.1183 9.11612 50.8839C8.8817 50.6495 8.75 50.3315 8.75 50C8.75 49.6685 8.8817 49.3505 9.11612 49.1161C9.35054 48.8817 9.66848 48.75 10 48.75H52.5C52.8315 48.75 53.1495 48.8817 53.3839 49.1161C53.6183 49.3505 53.75 49.6685 53.75 50ZM8.75 65C8.75 64.7528 8.82331 64.5111 8.96066 64.3055C9.09801 64.1 9.29324 63.9398 9.52165 63.8452C9.75005 63.7505 10.0014 63.7258 10.2439 63.774C10.4863 63.8223 10.7091 63.9413 10.8839 64.1161C11.0587 64.2909 11.1778 64.5137 11.226 64.7561C11.2742 64.9986 11.2495 65.2499 11.1549 65.4784C11.0602 65.7068 10.9 65.902 10.6945 66.0393C10.4889 66.1767 10.2472 66.25 10 66.25C9.66848 66.25 9.35054 66.1183 9.11612 65.8839C8.8817 65.6495 8.75 65.3315 8.75 65ZM53.75 65C53.75 65.3315 53.6183 65.6495 53.3839 65.8839C53.1495 66.1183 52.8315 66.25 52.5 66.25H15C14.6685 66.25 14.3505 66.1183 14.1161 65.8839C13.8817 65.6495 13.75 65.3315 13.75 65C13.75 64.6685 13.8817 64.3505 14.1161 64.1161C14.3505 63.8817 14.6685 63.75 15 63.75H52.5C52.8315 63.75 53.1495 63.8817 53.3839 64.1161C53.6183 64.3505 53.75 64.6685 53.75 65ZM53.75 70C53.75 70.3315 53.6183 70.6495 53.3839 70.8839C53.1495 71.1183 52.8315 71.25 52.5 71.25H10C9.66848 71.25 9.35054 71.1183 9.11612 70.8839C8.8817 70.6495 8.75 70.3315 8.75 70C8.75 69.6685 8.8817 69.3505 9.11612 69.1161C9.35054 68.8817 9.66848 68.75 10 68.75H52.5C52.8315 68.75 53.1495 68.8817 53.3839 69.1161C53.6183 69.3505 53.75 69.6685 53.75 70Z" fill="url(#paint0_linear)"/>
<defs>
<linearGradient id="paint0_linear" x1="40" y1="2.5" x2="40" y2="77.5" gradientUnits="userSpaceOnUse">
<stop stop-color="#00C2FF"/>
<stop offset="1" stop-color="#3DFFA2"/>
</linearGradient>
</defs>
</svg>
