<svg width="80" height="80" viewBox="0 0 80 80" fill="none" xmlns="http://www.w3.org/2000/svg">
<g opacity="0.8">
<path d="M42.5 70H37.5V72.5H42.5V70Z" fill="url(#paint0_linear)"/>
<path d="M17.5 58.75C17.5 59.413 17.7634 60.0489 18.2322 60.5178C18.7011 60.9866 19.337 61.25 20 61.25H25C25.663 61.25 26.2989 60.9866 26.7678 60.5178C27.2366 60.0489 27.5 59.413 27.5 58.75L27.5325 55.375C28.018 55.2043 28.4933 55.006 28.9563 54.7812L31.34 57.165C31.8088 57.6333 32.4443 57.8963 33.1069 57.8963C33.7695 57.8963 34.405 57.6333 34.8737 57.165L38.4113 53.6287C38.8799 53.1599 39.1432 52.5242 39.1432 51.8612C39.1432 51.1983 38.8799 50.5626 38.4113 50.0938L36.0488 47.6825C36.2675 47.2162 36.4599 46.7379 36.625 46.25H40C40.663 46.25 41.2989 45.9866 41.7678 45.5178C42.2366 45.0489 42.5 44.413 42.5 43.75V38.75C42.5 38.087 42.2366 37.4511 41.7678 36.9822C41.2989 36.5134 40.663 36.25 40 36.25L36.625 36.2175C36.4543 35.732 36.256 35.2567 36.0312 34.7937L38.415 32.41C38.8833 31.9412 39.1463 31.3057 39.1463 30.6431C39.1463 29.9805 38.8833 29.345 38.415 28.8762L34.875 25.34C34.4062 24.8713 33.7704 24.608 33.1075 24.608C32.4446 24.608 31.8088 24.8713 31.34 25.34L28.9287 27.7025C28.4637 27.4835 27.9867 27.2907 27.5 27.125V23.75C27.5 23.087 27.2366 22.4511 26.7678 21.9822C26.2989 21.5134 25.663 21.25 25 21.25H20C19.337 21.25 18.7011 21.5134 18.2322 21.9822C17.7634 22.4511 17.5 23.087 17.5 23.75L17.4675 27.125C16.982 27.2957 16.5067 27.494 16.0437 27.7187L13.6613 25.3362C13.1924 24.8676 12.5567 24.6043 11.8938 24.6043C11.2308 24.6043 10.5951 24.8676 10.1262 25.3362L6.58875 28.875C6.12007 29.3438 5.85678 29.9796 5.85678 30.6425C5.85678 31.3054 6.12007 31.9412 6.58875 32.41L8.95125 34.8213C8.73263 35.2864 8.54025 35.7634 8.375 36.25H5C4.33696 36.25 3.70107 36.5134 3.23223 36.9822C2.76339 37.4511 2.5 38.087 2.5 38.75V43.75C2.5 44.413 2.76339 45.0489 3.23223 45.5178C3.70107 45.9866 4.33696 46.25 5 46.25L8.375 46.2825C8.54573 46.768 8.74397 47.2433 8.96875 47.7063L6.58875 50.09C6.12045 50.5588 5.85741 51.1943 5.85741 51.8569C5.85741 52.5195 6.12045 53.155 6.58875 53.6237L10.125 57.1613C10.5938 57.6299 11.2296 57.8932 11.8925 57.8932C12.5554 57.8932 13.1912 57.6299 13.66 57.1613L16.0713 54.7988C16.5364 55.0174 17.0134 55.2098 17.5 55.375V58.75ZM17.1413 52.5375C16.7964 52.3735 16.4194 52.2881 16.0375 52.2875C15.7109 52.286 15.3873 52.349 15.0851 52.4727C14.7828 52.5965 14.508 52.7786 14.2762 53.0088L11.8938 55.3925L8.3575 51.8563L10.74 49.4737C11.1038 49.1028 11.3444 48.6286 11.429 48.1159C11.5136 47.6032 11.438 47.0769 11.2125 46.6087C11.0337 46.23 10.8743 45.8425 10.735 45.4475C10.5642 44.9561 10.2458 44.5293 9.82347 44.2255C9.4011 43.9217 8.89526 43.7556 8.375 43.75H5V38.75H8.375C8.89584 38.7448 9.40234 38.5788 9.82523 38.2747C10.2481 37.9706 10.5667 37.5433 10.7375 37.0513C10.877 36.6568 11.0364 36.2696 11.215 35.8912C11.4405 35.4231 11.5161 34.8968 11.4315 34.3841C11.3469 33.8714 11.1063 33.3972 10.7425 33.0262L8.3575 30.6437L11.8938 27.1075L14.2762 29.49C14.647 29.8542 15.1212 30.095 15.634 30.1796C16.1468 30.2641 16.6732 30.1883 17.1413 29.9625C17.5199 29.7837 17.9075 29.6243 18.3025 29.485C18.7939 29.3142 19.2207 28.9958 19.5245 28.5735C19.8283 28.1511 19.9944 27.6453 20 27.125V23.75H25V27.125C25.0052 27.6458 25.1712 28.1523 25.4753 28.5752C25.7794 28.9981 26.2067 29.3167 26.6987 29.4875C27.0932 29.627 27.4804 29.7864 27.8588 29.965C28.327 30.1903 28.8532 30.2658 29.3659 30.1812C29.8785 30.0967 30.3527 29.8562 30.7238 29.4925L33.1063 27.11L36.6425 30.6462L34.26 33.0288C33.8962 33.3997 33.6556 33.8739 33.571 34.3866C33.4864 34.8993 33.562 35.4256 33.7875 35.8938C33.9663 36.2724 34.1257 36.66 34.265 37.055C34.4362 37.546 34.7547 37.9722 35.1771 38.2755C35.5994 38.5789 36.105 38.7445 36.625 38.75H40V43.75H36.625C36.1042 43.7552 35.5977 43.9212 35.1748 44.2253C34.7519 44.5294 34.4333 44.9567 34.2625 45.4488C34.123 45.8432 33.9636 46.2304 33.785 46.6087C33.5595 47.0769 33.4839 47.6032 33.5685 48.1159C33.6531 48.6286 33.8937 49.1028 34.2575 49.4737L36.64 51.8563L33.1038 55.3925L30.7212 53.01C30.35 52.6466 29.8759 52.4063 29.3633 52.3218C28.8507 52.2373 28.3245 52.3126 27.8563 52.5375C27.4776 52.7163 27.09 52.8757 26.695 53.015C26.204 53.1862 25.7778 53.5047 25.4745 53.9271C25.1711 54.3494 25.0055 54.855 25 55.375V58.75H20V55.375C19.9948 54.8542 19.8288 54.3477 19.5247 53.9248C19.2206 53.5019 18.7933 53.1833 18.3012 53.0125C17.9068 52.8738 17.5197 52.7153 17.1413 52.5375Z" fill="url(#paint1_linear)"/>
<path d="M23.75 47.5V46.1863C24.5081 46.0307 25.1816 45.5994 25.6399 44.9759C26.0983 44.3523 26.309 43.5809 26.2312 42.8109C26.1534 42.0409 25.7927 41.3272 25.2188 40.8079C24.645 40.2886 23.8989 40.0007 23.125 40H21.875C21.7092 40 21.5503 39.9342 21.4331 39.8169C21.3158 39.6997 21.25 39.5408 21.25 39.375C21.25 39.2092 21.3158 39.0503 21.4331 38.9331C21.5503 38.8158 21.7092 38.75 21.875 38.75H23.125C23.2908 38.75 23.4497 38.8158 23.5669 38.9331C23.6842 39.0503 23.75 39.2092 23.75 39.375H26.25C26.2499 38.6548 26.001 37.9568 25.5454 37.399C25.0899 36.8411 24.4556 36.4578 23.75 36.3138V35H21.25V36.3138C20.4919 36.4693 19.8184 36.9006 19.3601 37.5241C18.9017 38.1477 18.691 38.9191 18.7688 39.6891C18.8466 40.4591 19.2073 41.1728 19.7812 41.6921C20.355 42.2114 21.1011 42.4993 21.875 42.5H23.125C23.2908 42.5 23.4497 42.5658 23.5669 42.6831C23.6842 42.8003 23.75 42.9592 23.75 43.125C23.75 43.2908 23.6842 43.4497 23.5669 43.5669C23.4497 43.6842 23.2908 43.75 23.125 43.75H21.875C21.7092 43.75 21.5503 43.6842 21.4331 43.5669C21.3158 43.4497 21.25 43.2908 21.25 43.125H18.75C18.7501 43.8452 18.999 44.5432 19.4546 45.101C19.9101 45.6589 20.5444 46.0422 21.25 46.1863V47.5H23.75Z" fill="url(#paint2_linear)"/>
<path d="M32.5 41.25C32.5 39.2722 31.9135 37.3388 30.8147 35.6943C29.7159 34.0498 28.1541 32.7681 26.3268 32.0112C24.4996 31.2543 22.4889 31.0563 20.5491 31.4422C18.6093 31.828 16.8275 32.7804 15.4289 34.1789C14.0304 35.5775 13.078 37.3593 12.6922 39.2991C12.3063 41.2389 12.5043 43.2496 13.2612 45.0768C14.0181 46.9041 15.2998 48.4659 16.9443 49.5647C18.5888 50.6635 20.5222 51.25 22.5 51.25C25.1513 51.247 27.6931 50.1925 29.5678 48.3178C31.4425 46.4431 32.497 43.9013 32.5 41.25ZM15 41.25C15 39.7666 15.4399 38.3166 16.264 37.0832C17.0881 35.8499 18.2594 34.8886 19.6299 34.3209C21.0003 33.7533 22.5083 33.6047 23.9632 33.8941C25.418 34.1835 26.7544 34.8978 27.8033 35.9467C28.8522 36.9956 29.5665 38.332 29.8559 39.7868C30.1453 41.2417 29.9968 42.7497 29.4291 44.1201C28.8614 45.4906 27.9002 46.6619 26.6668 47.486C25.4334 48.3101 23.9834 48.75 22.5 48.75C20.5115 48.748 18.605 47.9572 17.1989 46.5511C15.7928 45.145 15.002 43.2385 15 41.25Z" fill="url(#paint3_linear)"/>
<path d="M76.25 45H63.75V32.4L70.825 34.925C71.0137 34.9951 71.2166 35.0183 71.4162 34.9925C71.6159 34.9668 71.8063 34.893 71.9711 34.7774C72.1359 34.6618 72.2701 34.5079 72.3622 34.3289C72.4544 34.15 72.5017 33.9513 72.5 33.75V26.25H73.75C74.7446 26.25 75.6984 25.8549 76.4016 25.1517C77.1049 24.4484 77.5 23.4946 77.5 22.5C77.5 21.5054 77.1049 20.5516 76.4016 19.8483C75.6984 19.1451 74.7446 18.75 73.75 18.75H72.5V11.25C72.4996 11.0498 72.4519 10.8526 72.3606 10.6744C72.2694 10.4963 72.1372 10.3423 71.975 10.225C71.8082 10.1122 71.6174 10.04 71.4178 10.0139C71.2181 9.98788 71.0151 10.0088 70.825 10.075L63.75 12.6V6.25C63.747 5.25635 63.351 4.30425 62.6484 3.60163C61.9458 2.89901 60.9936 2.50297 60 2.5H20C19.0064 2.50297 18.0542 2.89901 17.3516 3.60163C16.649 4.30425 16.253 5.25635 16.25 6.25V20H18.75V12.5H61.25V13.5L53.5375 16.25H43.75C43.4185 16.25 43.1005 16.3817 42.8661 16.6161C42.6317 16.8505 42.5 17.1685 42.5 17.5V17.775L38.45 18.7875C38.179 18.8545 37.9382 19.0103 37.766 19.23C37.5939 19.4498 37.5002 19.7208 37.5 20V25C37.5002 25.2792 37.5939 25.5502 37.766 25.77C37.9382 25.9897 38.179 26.1455 38.45 26.2125L42.5 27.225V27.5C42.5 27.8315 42.6317 28.1495 42.8661 28.3839C43.1005 28.6183 43.4185 28.75 43.75 28.75H45V38.75C45 39.0815 45.1317 39.3995 45.3661 39.6339C45.6005 39.8683 45.9185 40 46.25 40H51.25C51.5577 40.0019 51.8551 39.8889 52.084 39.6831C52.3128 39.4774 52.4567 39.1937 52.4875 38.8875L53.6125 28.775L61.25 31.5V45H43.75C43.4185 45 43.1005 45.1317 42.8661 45.3661C42.6317 45.6005 42.5 45.9185 42.5 46.25V61.25C42.5 61.5815 42.6317 61.8995 42.8661 62.1339C43.1005 62.3683 43.4185 62.5 43.75 62.5H61.25V65H18.75V62.5H16.25V73.75C16.253 74.7437 16.649 75.6958 17.3516 76.3984C18.0542 77.101 19.0064 77.497 20 77.5H60C60.9936 77.497 61.9458 77.101 62.6484 76.3984C63.351 75.6958 63.747 74.7437 63.75 73.75V62.5H76.25C76.5815 62.5 76.8995 62.3683 77.1339 62.1339C77.3683 61.8995 77.5 61.5815 77.5 61.25V46.25C77.5 45.9185 77.3683 45.6005 77.1339 45.3661C76.8995 45.1317 76.5815 45 76.25 45ZM72.5 21.25H73.75C74.0815 21.25 74.3995 21.3817 74.6339 21.6161C74.8683 21.8505 75 22.1685 75 22.5C75 22.8315 74.8683 23.1495 74.6339 23.3839C74.3995 23.6183 74.0815 23.75 73.75 23.75H72.5V21.25ZM42.5 24.65L40 24.025V20.975L42.5 20.35V24.65ZM50.125 37.5H47.5V28.75H51.1L50.125 37.5ZM52.5 26.25H45V18.75H52.5V26.25ZM61.25 73.75C61.25 74.0815 61.1183 74.3995 60.8839 74.6339C60.6495 74.8683 60.3315 75 60 75H20C19.6685 75 19.3505 74.8683 19.1161 74.6339C18.8817 74.3995 18.75 74.0815 18.75 73.75V67.5H61.25V73.75ZM18.75 10V6.25C18.75 5.91848 18.8817 5.60054 19.1161 5.36612C19.3505 5.1317 19.6685 5 20 5H60C60.3315 5 60.6495 5.1317 60.8839 5.36612C61.1183 5.60054 61.25 5.91848 61.25 6.25V10H18.75ZM55 26.625V18.375L70 13.025V31.975L55 26.625ZM75 60H45V47.5H75V60Z" fill="url(#paint4_linear)"/>
<path d="M52.5 50H47.5V52.5H52.5V50Z" fill="url(#paint5_linear)"/>
<path d="M72.5 50H55V52.5H72.5V50Z" fill="url(#paint6_linear)"/>
<path d="M55 55H47.5V57.5H55V55Z" fill="url(#paint7_linear)"/>
<path d="M71.25 55H57.5V57.5H71.25V55Z" fill="url(#paint8_linear)"/>
</g>
<defs>
<linearGradient id="paint0_linear" x1="40" y1="70" x2="40" y2="72.5" gradientUnits="userSpaceOnUse">
<stop stop-color="#00C2FF"/>
<stop offset="1" stop-color="#3DFFA2"/>
</linearGradient>
<linearGradient id="paint1_linear" x1="22.5" y1="21.25" x2="22.5" y2="61.25" gradientUnits="userSpaceOnUse">
<stop stop-color="#00C2FF"/>
<stop offset="1" stop-color="#3DFFA2"/>
</linearGradient>
<linearGradient id="paint2_linear" x1="22.5" y1="35" x2="22.5" y2="47.5" gradientUnits="userSpaceOnUse">
<stop stop-color="#00C2FF"/>
<stop offset="1" stop-color="#3DFFA2"/>
</linearGradient>
<linearGradient id="paint3_linear" x1="22.5" y1="31.25" x2="22.5" y2="51.25" gradientUnits="userSpaceOnUse">
<stop stop-color="#00C2FF"/>
<stop offset="1" stop-color="#3DFFA2"/>
</linearGradient>
<linearGradient id="paint4_linear" x1="46.875" y1="2.5" x2="46.875" y2="77.5" gradientUnits="userSpaceOnUse">
<stop stop-color="#00C2FF"/>
<stop offset="1" stop-color="#3DFFA2"/>
</linearGradient>
<linearGradient id="paint5_linear" x1="50" y1="50" x2="50" y2="52.5" gradientUnits="userSpaceOnUse">
<stop stop-color="#00C2FF"/>
<stop offset="1" stop-color="#3DFFA2"/>
</linearGradient>
<linearGradient id="paint6_linear" x1="63.75" y1="50" x2="63.75" y2="52.5" gradientUnits="userSpaceOnUse">
<stop stop-color="#00C2FF"/>
<stop offset="1" stop-color="#3DFFA2"/>
</linearGradient>
<linearGradient id="paint7_linear" x1="51.25" y1="55" x2="51.25" y2="57.5" gradientUnits="userSpaceOnUse">
<stop stop-color="#00C2FF"/>
<stop offset="1" stop-color="#3DFFA2"/>
</linearGradient>
<linearGradient id="paint8_linear" x1="64.375" y1="55" x2="64.375" y2="57.5" gradientUnits="userSpaceOnUse">
<stop stop-color="#00C2FF"/>
<stop offset="1" stop-color="#3DFFA2"/>
</linearGradient>
</defs>
</svg>
