<svg width="80" height="80" viewBox="0 0 80 80" fill="none" xmlns="http://www.w3.org/2000/svg">
<path d="M73.75 19.999H72.1266C73.577 18.3811 74.5279 16.3778 74.8643 14.2312C75.2008 12.0846 74.9084 9.88644 74.0225 7.90241C73.1366 5.91838 71.695 4.23335 69.8721 3.05092C68.0492 1.86849 65.9228 1.23926 63.75 1.23926C61.5772 1.23926 59.4508 1.86849 57.6279 3.05092C55.805 4.23335 54.3635 5.91838 53.4775 7.90241C52.5916 9.88644 52.2992 12.0846 52.6357 14.2312C52.9721 16.3778 53.923 18.3811 55.3734 19.999H40V7.49896C40 7.16744 39.8683 6.8495 39.6339 6.61508C39.3995 6.38066 39.0815 6.24896 38.75 6.24896H33.75C33.4185 6.24896 33.1005 6.38066 32.8661 6.61508C32.6317 6.8495 32.5 7.16744 32.5 7.49896V19.999H31.25V2.49896C31.25 2.16744 31.1183 1.8495 30.8839 1.61508C30.6495 1.38066 30.3315 1.24896 30 1.24896H25C24.6685 1.24896 24.3505 1.38066 24.1161 1.61508C23.8817 1.8495 23.75 2.16744 23.75 2.49896V19.999H22.5V11.249C22.5 10.9174 22.3683 10.5995 22.1339 10.3651C21.8995 10.1307 21.5815 9.99896 21.25 9.99896H16.25C15.9185 9.99896 15.6005 10.1307 15.3661 10.3651C15.1317 10.5995 15 10.9174 15 11.249V19.999H6.25C4.92437 20.0005 3.65347 20.5277 2.71611 21.4651C1.77875 22.4024 1.25149 23.6733 1.25 24.999V62.499C1.25149 63.8246 1.77875 65.0955 2.71611 66.0328C3.65347 66.9702 4.92437 67.4975 6.25 67.499H32.0156L30.3484 72.499H26.25C25.9185 72.499 25.6005 72.6306 25.3661 72.8651C25.1317 73.0995 25 73.4174 25 73.749V76.249H12.5C12.1685 76.249 11.8505 76.3806 11.6161 76.6151C11.3817 76.8495 11.25 77.1674 11.25 77.499C11.25 77.8305 11.3817 78.1484 11.6161 78.3828C11.8505 78.6173 12.1685 78.749 12.5 78.749H67.5C67.8315 78.749 68.1495 78.6173 68.3839 78.3828C68.6183 78.1484 68.75 77.8305 68.75 77.499C68.75 77.1674 68.6183 76.8495 68.3839 76.6151C68.1495 76.3806 67.8315 76.249 67.5 76.249H55V73.749C55 73.4174 54.8683 73.0995 54.6339 72.8651C54.3995 72.6306 54.0815 72.499 53.75 72.499H49.6516L47.9844 67.499H73.75C75.0756 67.4975 76.3465 66.9702 77.2839 66.0328C78.2212 65.0955 78.7485 63.8246 78.75 62.499V24.999C78.7485 23.6733 78.2212 22.4024 77.2839 21.4651C76.3465 20.5277 75.0756 20.0005 73.75 19.999ZM65 3.83959C66.8682 4.1122 68.5984 4.98058 69.9334 6.31556C71.2684 7.65054 72.1368 9.3808 72.4094 11.249H65V3.83959ZM64.2672 13.749H72.4094C72.1935 15.251 71.5904 16.671 70.6594 17.8693C69.7285 19.0677 68.5017 20.0031 67.0997 20.5837C65.6977 21.1643 64.1687 21.37 62.6631 21.1806C61.1575 20.9912 59.7271 20.4133 58.5125 19.5036L64.2672 13.749ZM55 12.499C55.003 10.3958 55.7623 8.36389 57.1392 6.77412C58.5161 5.18436 60.4188 4.1428 62.5 3.83959V11.9818L56.7453 17.7365C55.6107 16.2263 54.9981 14.3879 55 12.499ZM35 8.74896H37.5V32.499H35V8.74896ZM31.25 22.499H32.5V32.499H31.25V22.499ZM26.25 3.74896H28.75V32.499H26.25V3.74896ZM22.5 22.499H23.75V32.499H22.5V22.499ZM17.5 12.499H20V32.499H17.5V12.499ZM52.5 74.999V76.249H27.5V74.999H52.5ZM32.9844 72.499L34.6516 67.499H45.3484L47.0156 72.499H32.9844ZM76.25 62.499C76.2491 63.1617 75.9855 63.7971 75.5168 64.2658C75.0482 64.7344 74.4128 64.9981 73.75 64.999H6.25C5.58723 64.9981 4.95184 64.7344 4.48319 64.2658C4.01454 63.7971 3.75087 63.1617 3.75 62.499V59.999H76.25V62.499ZM76.25 57.499H3.75V24.999C3.75087 24.3362 4.01454 23.7008 4.48319 23.2322C4.95184 22.7635 5.58723 22.4998 6.25 22.499H15V32.499H13.75V24.999C13.75 24.6674 13.6183 24.3495 13.3839 24.1151C13.1495 23.8807 12.8315 23.749 12.5 23.749H7.5C7.16848 23.749 6.85054 23.8807 6.61612 24.1151C6.3817 24.3495 6.25 24.6674 6.25 24.999V33.749C6.25 34.0805 6.3817 34.3984 6.61612 34.6328C6.85054 34.8673 7.16848 34.999 7.5 34.999H47.5C47.8315 34.999 48.1495 34.8673 48.3839 34.6328C48.6183 34.3984 48.75 34.0805 48.75 33.749V24.999C48.75 24.6674 48.6183 24.3495 48.3839 24.1151C48.1495 23.8807 47.8315 23.749 47.5 23.749H42.5C42.1685 23.749 41.8505 23.8807 41.6161 24.1151C41.3817 24.3495 41.25 24.6674 41.25 24.999V32.499H40V22.499H58.6062C60.1964 23.3203 61.9602 23.749 63.75 23.749C65.5398 23.749 67.3036 23.3203 68.8938 22.499H73.75C74.4128 22.4998 75.0482 22.7635 75.5168 23.2322C75.9855 23.7008 76.2491 24.3362 76.25 24.999V57.499ZM11.25 26.249V32.499H8.75V26.249H11.25ZM43.75 32.499V26.249H46.25V32.499H43.75Z" fill="url(#paint0_linear)"/>
<path d="M15 61.249H7.5C7.16848 61.249 6.85054 61.3807 6.61612 61.6151C6.3817 61.8496 6.25 62.1675 6.25 62.499C6.25 62.8305 6.3817 63.1485 6.61612 63.3829C6.85054 63.6173 7.16848 63.749 7.5 63.749H15C15.3315 63.749 15.6495 63.6173 15.8839 63.3829C16.1183 63.1485 16.25 62.8305 16.25 62.499C16.25 62.1675 16.1183 61.8496 15.8839 61.6151C15.6495 61.3807 15.3315 61.249 15 61.249Z" fill="url(#paint1_linear)"/>
<path d="M20 61.249H18.75C18.4185 61.249 18.1005 61.3807 17.8661 61.6151C17.6317 61.8496 17.5 62.1675 17.5 62.499C17.5 62.8305 17.6317 63.1485 17.8661 63.3829C18.1005 63.6173 18.4185 63.749 18.75 63.749H20C20.3315 63.749 20.6495 63.6173 20.8839 63.3829C21.1183 63.1485 21.25 62.8305 21.25 62.499C21.25 62.1675 21.1183 61.8496 20.8839 61.6151C20.6495 61.3807 20.3315 61.249 20 61.249Z" fill="url(#paint2_linear)"/>
<path d="M53.75 32.499C53.9142 32.4993 54.0768 32.467 54.2285 32.4042C54.3802 32.3414 54.518 32.2492 54.634 32.1329L59.2677 27.499H70C70.3316 27.499 70.6495 27.3673 70.8839 27.1329C71.1183 26.8985 71.25 26.5805 71.25 26.249C71.25 25.9175 71.1183 25.5996 70.8839 25.3651C70.6495 25.1307 70.3316 24.999 70 24.999H58.75C58.5859 24.999 58.4233 25.0313 58.2717 25.0942C58.12 25.157 57.9822 25.249 57.8661 25.3651L52.8661 30.3651C52.6913 30.5399 52.5723 30.7627 52.524 31.0052C52.4758 31.2476 52.5005 31.499 52.5952 31.7274C52.6898 31.9558 52.85 32.151 53.0556 32.2884C53.2611 32.4257 53.5028 32.499 53.75 32.499Z" fill="url(#paint3_linear)"/>
<path d="M70.0005 46.249C69.3436 46.2495 68.6983 46.4225 68.1293 46.7507C67.5603 47.079 67.0875 47.5509 66.7583 48.1193L53.6723 40.485C53.495 39.6331 53.0271 38.8694 52.3486 38.3247C51.6701 37.78 50.8233 37.4882 49.9532 37.4993C49.0832 37.5104 48.2441 37.8237 47.5797 38.3855C46.9153 38.9473 46.4669 39.7226 46.3114 40.5787L33.1426 50.4553C32.7844 49.9036 32.2872 49.4559 31.7011 49.1573C31.115 48.8587 30.4606 48.7197 29.8037 48.7542C29.1468 48.7887 28.5105 48.9956 27.959 49.354C27.4074 49.7124 26.9598 50.2097 26.6614 50.7959L13.6458 45.3725C13.4404 44.5162 12.9404 43.7594 12.2333 43.2347C11.5261 42.71 10.6569 42.4507 9.7779 42.5023C8.89886 42.5539 8.06597 42.913 7.42506 43.5168C6.78415 44.1207 6.37607 44.9307 6.27226 45.8051C6.16845 46.6795 6.37554 47.5626 6.85726 48.2997C7.33897 49.0368 8.06462 49.581 8.90716 49.837C9.74969 50.0929 10.6554 50.0444 11.4658 49.6998C12.2761 49.3552 12.9394 48.7365 13.3395 47.9521L26.3551 53.3756C26.5561 54.2119 27.0385 54.9537 27.7214 55.4765C28.4043 55.9994 29.2462 56.2715 30.106 56.2474C30.9657 56.2232 31.791 55.9041 32.4435 55.3437C33.096 54.7833 33.5359 54.0156 33.6895 53.1693L46.8583 43.2928C47.2071 43.8302 47.688 44.2691 48.2549 44.5677C48.8218 44.8662 49.4559 45.0143 50.0964 44.9978C50.7369 44.9814 51.3625 44.8009 51.9133 44.4737C52.4642 44.1464 52.9219 43.6833 53.2426 43.1287L66.3286 50.7631C66.473 51.4571 66.8112 52.096 67.304 52.6057C67.7968 53.1153 68.4239 53.4749 69.1127 53.6426C69.8015 53.8103 70.5238 53.7793 71.1957 53.5533C71.8676 53.3272 72.4617 52.9153 72.909 52.3654C73.3564 51.8154 73.6387 51.1499 73.7232 50.4461C73.8077 49.7422 73.6909 49.0288 73.3865 48.3886C73.0821 47.7484 72.6024 47.2075 72.0031 46.8289C71.4037 46.4502 70.7094 46.2491 70.0005 46.249ZM11.2505 46.2553C11.2496 46.5874 11.117 46.9055 10.8818 47.1399C10.6465 47.3743 10.3279 47.5057 9.99578 47.5053C9.6637 47.5049 9.34536 47.3727 9.11069 47.1377C8.87603 46.9027 8.74422 46.5842 8.74422 46.2521C8.74422 45.9201 8.87603 45.6016 9.11069 45.3666C9.34536 45.1316 9.6637 44.9994 9.99578 44.999C10.3279 44.9986 10.6465 45.13 10.8818 45.3644C11.117 45.5988 11.2496 45.9169 11.2505 46.249V46.2553ZM30.0005 53.749C29.6691 53.7486 29.3514 53.6167 29.1171 53.3824C28.8828 53.1481 28.7509 52.8304 28.7505 52.499V52.4928C28.7517 52.2458 28.8261 52.0048 28.9642 51.8C29.1023 51.5953 29.2979 51.436 29.5264 51.3424C29.7549 51.2487 30.0061 51.2249 30.2481 51.2738C30.4902 51.3227 30.7123 51.4423 30.8865 51.6173C31.0607 51.7924 31.1791 52.0151 31.2269 52.2575C31.2746 52.4998 31.2495 52.7508 31.1547 52.9788C31.0599 53.2069 30.8997 53.4017 30.6943 53.5388C30.4888 53.6759 30.2474 53.749 30.0005 53.749ZM50.0005 42.499C49.7532 42.499 49.5116 42.4257 49.306 42.2884C49.1004 42.151 48.9402 41.9558 48.8456 41.7274C48.751 41.499 48.7262 41.2476 48.7745 41.0052C48.8227 40.7627 48.9418 40.5399 49.1166 40.3651C49.2914 40.1903 49.5141 40.0713 49.7566 40.023C49.9991 39.9748 50.2504 39.9996 50.4788 40.0942C50.7072 40.1888 50.9024 40.349 51.0398 40.5546C51.1771 40.7601 51.2505 41.0018 51.2505 41.249C51.25 41.5804 51.1182 41.8981 50.8838 42.1324C50.6495 42.3667 50.3318 42.4986 50.0005 42.499ZM70.0005 51.249C69.7532 51.249 69.5116 51.1757 69.306 51.0384C69.1004 50.901 68.9402 50.7058 68.8456 50.4774C68.751 50.249 68.7262 49.9976 68.7745 49.7552C68.8227 49.5127 68.9418 49.29 69.1166 49.1151C69.2914 48.9403 69.5141 48.8213 69.7566 48.773C69.9991 48.7248 70.2504 48.7496 70.4788 48.8442C70.7072 48.9388 70.9024 49.099 71.0398 49.3046C71.1771 49.5101 71.2505 49.7518 71.2505 49.999C71.25 50.3304 71.1182 50.6481 70.8838 50.8824C70.6495 51.1167 70.3318 51.2486 70.0005 51.249Z" fill="url(#paint4_linear)"/>
<path d="M60 53.749H51.25C50.9185 53.749 50.6005 53.8807 50.3661 54.1151C50.1317 54.3496 50 54.6675 50 54.999C50 55.3305 50.1317 55.6485 50.3661 55.8829C50.6005 56.1173 50.9185 56.249 51.25 56.249H60C60.3315 56.249 60.6495 56.1173 60.8839 55.8829C61.1183 55.6485 61.25 55.3305 61.25 54.999C61.25 54.6675 61.1183 54.3496 60.8839 54.1151C60.6495 53.8807 60.3315 53.749 60 53.749Z" fill="url(#paint5_linear)"/>
<path d="M60 49.999H56.25C55.9185 49.999 55.6005 50.1307 55.3661 50.3651C55.1317 50.5996 55 50.9175 55 51.249C55 51.5805 55.1317 51.8985 55.3661 52.1329C55.6005 52.3673 55.9185 52.499 56.25 52.499H60C60.3315 52.499 60.6495 52.3673 60.8839 52.1329C61.1183 51.8985 61.25 51.5805 61.25 51.249C61.25 50.9175 61.1183 50.5996 60.8839 50.3651C60.6495 50.1307 60.3315 49.999 60 49.999Z" fill="url(#paint6_linear)"/>
<path d="M7.5 38.749H21.25C21.5815 38.749 21.8995 38.6173 22.1339 38.3829C22.3683 38.1485 22.5 37.8305 22.5 37.499C22.5 37.1675 22.3683 36.8496 22.1339 36.6151C21.8995 36.3807 21.5815 36.249 21.25 36.249H7.5C7.16848 36.249 6.85054 36.3807 6.61612 36.6151C6.3817 36.8496 6.25 37.1675 6.25 37.499C6.25 37.8305 6.3817 38.1485 6.61612 38.3829C6.85054 38.6173 7.16848 38.749 7.5 38.749Z" fill="url(#paint7_linear)"/>
<path d="M25 38.749H26.25C26.5815 38.749 26.8995 38.6173 27.1339 38.3829C27.3683 38.1485 27.5 37.8305 27.5 37.499C27.5 37.1675 27.3683 36.8496 27.1339 36.6151C26.8995 36.3807 26.5815 36.249 26.25 36.249H25C24.6685 36.249 24.3505 36.3807 24.1161 36.6151C23.8817 36.8496 23.75 37.1675 23.75 37.499C23.75 37.8305 23.8817 38.1485 24.1161 38.3829C24.3505 38.6173 24.6685 38.749 25 38.749Z" fill="url(#paint8_linear)"/>
<defs>
<linearGradient id="paint0_linear" x1="40" y1="1.23926" x2="40" y2="78.749" gradientUnits="userSpaceOnUse">
<stop/>
<stop offset="0.0001" stop-color="#00C2FF"/>
<stop offset="1" stop-color="#3DFFA2"/>
</linearGradient>
<linearGradient id="paint1_linear" x1="11.25" y1="61.249" x2="11.25" y2="63.749" gradientUnits="userSpaceOnUse">
<stop/>
<stop offset="0.0001" stop-color="#00C2FF"/>
<stop offset="1" stop-color="#3DFFA2"/>
</linearGradient>
<linearGradient id="paint2_linear" x1="19.375" y1="61.249" x2="19.375" y2="63.749" gradientUnits="userSpaceOnUse">
<stop/>
<stop offset="0.0001" stop-color="#00C2FF"/>
<stop offset="1" stop-color="#3DFFA2"/>
</linearGradient>
<linearGradient id="paint3_linear" x1="61.875" y1="24.999" x2="61.875" y2="32.499" gradientUnits="userSpaceOnUse">
<stop/>
<stop offset="0.0001" stop-color="#00C2FF"/>
<stop offset="1" stop-color="#3DFFA2"/>
</linearGradient>
<linearGradient id="paint4_linear" x1="39.998" y1="37.499" x2="39.998" y2="56.2489" gradientUnits="userSpaceOnUse">
<stop/>
<stop offset="0.0001" stop-color="#00C2FF"/>
<stop offset="1" stop-color="#3DFFA2"/>
</linearGradient>
<linearGradient id="paint5_linear" x1="55.625" y1="53.749" x2="55.625" y2="56.249" gradientUnits="userSpaceOnUse">
<stop/>
<stop offset="0.0001" stop-color="#00C2FF"/>
<stop offset="1" stop-color="#3DFFA2"/>
</linearGradient>
<linearGradient id="paint6_linear" x1="58.125" y1="49.999" x2="58.125" y2="52.499" gradientUnits="userSpaceOnUse">
<stop/>
<stop offset="0.0001" stop-color="#00C2FF"/>
<stop offset="1" stop-color="#3DFFA2"/>
</linearGradient>
<linearGradient id="paint7_linear" x1="14.375" y1="36.249" x2="14.375" y2="38.749" gradientUnits="userSpaceOnUse">
<stop/>
<stop offset="0.0001" stop-color="#00C2FF"/>
<stop offset="1" stop-color="#3DFFA2"/>
</linearGradient>
<linearGradient id="paint8_linear" x1="25.625" y1="36.249" x2="25.625" y2="38.749" gradientUnits="userSpaceOnUse">
<stop/>
<stop offset="0.0001" stop-color="#00C2FF"/>
<stop offset="1" stop-color="#3DFFA2"/>
</linearGradient>
</defs>
</svg>
