<svg width="80" height="80" viewBox="0 0 80 80" fill="none" xmlns="http://www.w3.org/2000/svg">
<path d="M60.7856 37.0328C62.3069 35.9289 63.5701 34.5077 64.488 32.8674C65.4058 31.2272 65.9564 29.4072 66.1016 27.5332C66.2468 25.6593 65.9832 23.7762 65.329 22.0141C64.6747 20.2521 63.6455 18.6532 62.3125 17.3281C61.1511 16.1707 59.7695 15.2578 58.2493 14.6435C56.7291 14.0291 55.1012 13.7256 53.4617 13.7511C46.6544 13.8481 41.1269 19.5956 41.14 26.5636C41.1388 28.6088 41.6241 30.625 42.5557 32.4457C43.4874 34.2664 44.8387 35.8394 46.4981 37.0348C46.5831 37.099 46.6516 37.1824 46.698 37.2782C46.7444 37.3739 46.7673 37.4794 46.765 37.5858V39.2545C46.1441 39.6126 45.6388 40.1411 45.3092 40.7776C44.9795 41.414 44.8393 42.1317 44.905 42.8454C44.9708 43.5591 45.2399 44.239 45.6803 44.8045C46.1207 45.3699 46.7141 45.7973 47.39 46.0358V47.5C47.3911 48.4942 47.7866 49.4474 48.4896 50.1504C49.1926 50.8534 50.1458 51.2489 51.14 51.25H56.14C57.1342 51.2488 58.0874 50.8534 58.7904 50.1504C59.4934 49.4474 59.8888 48.4942 59.89 47.5V46.035C60.5659 45.7965 61.1593 45.3692 61.5997 44.8037C62.0401 44.2382 62.3092 43.5583 62.375 42.8446C62.4408 42.1309 62.3005 41.4132 61.9708 40.7768C61.6412 40.1404 61.1359 39.6118 60.515 39.2537V37.5856C60.513 37.4786 60.5364 37.3726 60.5835 37.2765C60.6306 37.1804 60.6999 37.0968 60.7856 37.0328ZM43.6406 26.5591C43.63 20.953 48.052 16.3288 53.4981 16.2511C53.545 16.2511 53.5931 16.25 53.6408 16.25C56.2341 16.2499 58.7216 17.2782 60.558 19.1094C61.6312 20.1785 62.4598 21.4676 62.9866 22.8879C63.5135 24.3083 63.726 25.8259 63.6096 27.3363C63.4932 28.8467 63.0506 30.3139 62.3123 31.6367C61.5741 32.9595 60.5577 34.1064 59.3333 34.9984C58.9239 35.2941 58.5908 35.683 58.3617 36.1331C58.1325 36.5831 58.0139 37.0812 58.0156 37.5863V38.75H49.2656V37.5858C49.2676 37.0813 49.1494 36.5835 48.9206 36.1338C48.6919 35.6842 48.3593 35.2955 47.9503 35C46.6141 34.0355 45.5265 32.7671 44.7771 31.2995C44.0278 29.8318 43.6382 28.207 43.6406 26.5591ZM56.1406 48.75H51.1406C50.8092 48.7496 50.4915 48.6178 50.2572 48.3835C50.0228 48.1491 49.891 47.8314 49.8906 47.5V46.25H57.3906V47.5C57.3903 47.8314 57.2584 48.1491 57.0241 48.3835C56.7898 48.6178 56.472 48.7496 56.1406 48.75ZM58.6406 43.75H48.6406C48.3091 43.75 47.9912 43.6183 47.7567 43.3839C47.5223 43.1495 47.3906 42.8315 47.3906 42.5C47.3906 42.1685 47.5223 41.8505 47.7567 41.6161C47.9912 41.3817 48.3091 41.25 48.6406 41.25H58.6406C58.9721 41.25 59.2901 41.3817 59.5245 41.6161C59.7589 41.8505 59.8906 42.1685 59.8906 42.5C59.8906 42.8315 59.7589 43.1495 59.5245 43.3839C59.2901 43.6183 58.9721 43.75 58.6406 43.75ZM54.9844 20.017C55.1099 19.7102 55.3522 19.4658 55.6579 19.3376C55.9636 19.2094 56.3077 19.2079 56.6145 19.3334C57.7516 19.8083 58.7665 20.5343 59.5833 21.457C60.4 22.3797 60.9974 23.4753 61.3308 24.6616C61.378 24.8204 61.3932 24.987 61.3755 25.1518C61.3578 25.3166 61.3074 25.4762 61.2275 25.6213C61.1475 25.7664 61.0395 25.8942 60.9096 25.9972C60.7798 26.1002 60.6308 26.1764 60.4713 26.2213C60.3118 26.2662 60.1449 26.2789 59.9805 26.2587C59.816 26.2385 59.6572 26.1859 59.5132 26.1037C59.3693 26.0216 59.2431 25.9117 59.1421 25.7804C59.041 25.649 58.9671 25.4989 58.9245 25.3387C58.6954 24.5177 58.2834 23.7592 57.7195 23.1199C57.1557 22.4807 56.4544 21.9773 55.6684 21.6475C55.5164 21.5854 55.3782 21.4939 55.2615 21.3784C55.1449 21.2628 55.0521 21.1254 54.9886 20.974C54.9251 20.8226 54.892 20.6601 54.8913 20.4959C54.8906 20.3317 54.9222 20.169 54.9844 20.017ZM53.6406 11.25C53.3091 11.25 52.9912 11.1183 52.7567 10.8839C52.5223 10.6495 52.3906 10.3315 52.3906 10V7.5C52.3906 7.16848 52.5223 6.85054 52.7567 6.61612C52.9912 6.3817 53.3091 6.25 53.6406 6.25C53.9721 6.25 54.2901 6.3817 54.5245 6.61612C54.7589 6.85054 54.8906 7.16848 54.8906 7.5V10C54.8906 10.3315 54.7589 10.6495 54.5245 10.8839C54.2901 11.1183 53.9721 11.25 53.6406 11.25ZM45.3808 12.0214L44.3638 9.7375C44.2289 9.43464 44.2199 9.09061 44.3387 8.7811C44.4575 8.47159 44.6944 8.22196 44.9973 8.08711C45.3001 7.95226 45.6442 7.94325 45.9537 8.06206C46.2632 8.18087 46.5128 8.41776 46.6477 8.72062L47.6645 11.0045C47.7994 11.3074 47.8084 11.6514 47.6896 11.9609C47.5708 12.2704 47.3339 12.5201 47.031 12.6549C46.7282 12.7898 46.3841 12.7988 46.0746 12.68C45.7651 12.5612 45.5155 12.3243 45.3806 12.0214H45.3808ZM39.7989 16.7188L37.9411 15.0469C37.6947 14.825 37.5465 14.5144 37.5292 14.1834C37.5118 13.8523 37.6267 13.5279 37.8485 13.2815C38.0703 13.0351 38.381 12.8869 38.712 12.8696C39.0431 12.8522 39.3675 12.9671 39.6139 13.1889L41.4717 14.8617C41.5979 14.9704 41.7011 15.1031 41.7753 15.2522C41.8494 15.4013 41.8931 15.5637 41.9036 15.7298C41.9141 15.896 41.8914 16.0626 41.8366 16.2199C41.7819 16.3771 41.6963 16.5219 41.5849 16.6456C41.4734 16.7693 41.3384 16.8695 41.1877 16.9403C41.037 17.0111 40.8736 17.0511 40.7073 17.0579C40.5409 17.0647 40.3749 17.0382 40.2189 16.98C40.0629 16.9218 39.9201 16.8329 39.7989 16.7188ZM36.9972 23.342C36.8659 23.342 36.7355 23.3212 36.6108 23.2805L34.2331 22.5081C34.0761 22.4582 33.9305 22.3777 33.8046 22.2712C33.6788 22.1648 33.5753 22.0345 33.5 21.8879C33.4247 21.7413 33.3792 21.5813 33.366 21.417C33.3528 21.2527 33.3722 21.0875 33.4231 20.9307C33.4741 20.774 33.5555 20.6289 33.6627 20.5037C33.7699 20.3786 33.9008 20.2758 34.0478 20.2015C34.1949 20.1271 34.3552 20.0825 34.5196 20.0703C34.6839 20.0582 34.849 20.0786 35.0055 20.1305L37.3831 20.9028C37.6665 20.9946 37.9077 21.1844 38.0635 21.4383C38.2193 21.6921 38.2793 21.9932 38.2327 22.2874C38.1862 22.5815 38.0361 22.8494 37.8096 23.0428C37.5831 23.2361 37.295 23.3422 36.9972 23.342ZM37.4794 29.198C37.5141 29.5277 37.4163 29.8576 37.2077 30.1153C36.9991 30.3729 36.6967 30.5372 36.367 30.5719L33.8806 30.8333C33.7168 30.8517 33.5509 30.8374 33.3925 30.7914C33.2342 30.7454 33.0865 30.6686 32.958 30.5652C32.8295 30.4619 32.7227 30.3342 32.6438 30.1894C32.5648 30.0447 32.5153 29.8857 32.4981 29.7217C32.4809 29.5577 32.4963 29.3919 32.5434 29.2339C32.5905 29.0759 32.6684 28.9288 32.7726 28.801C32.8768 28.6732 33.0053 28.5673 33.1506 28.4894C33.296 28.4115 33.4553 28.3631 33.6194 28.347L36.1056 28.0856C36.2689 28.0683 36.4341 28.0833 36.5915 28.1299C36.749 28.1765 36.8958 28.2537 37.0234 28.357C37.151 28.4604 37.2569 28.5879 37.3352 28.7323C37.4134 28.8767 37.4624 29.0351 37.4794 29.1984V29.198ZM69.8014 29.198C69.8184 29.0346 69.8674 28.8763 69.9457 28.7319C70.024 28.5876 70.13 28.4601 70.2576 28.3568C70.3852 28.2534 70.532 28.1763 70.6894 28.1298C70.8469 28.0832 71.012 28.0682 71.1753 28.0856L73.6617 28.347C73.8256 28.3635 73.9845 28.4121 74.1295 28.4902C74.2745 28.5682 74.4026 28.6742 74.5065 28.8019C74.6105 28.9296 74.6881 29.0766 74.7351 29.2344C74.782 29.3923 74.7973 29.5578 74.7801 29.7216C74.7629 29.8853 74.7134 30.0441 74.6347 30.1887C74.5559 30.3333 74.4494 30.4609 74.3212 30.5642C74.1929 30.6675 74.0456 30.7444 73.8875 30.7906C73.7294 30.8368 73.5638 30.8513 73.4002 30.8333L70.9139 30.5719C70.5843 30.5372 70.2819 30.3731 70.0733 30.1155C69.8647 29.858 69.7669 29.5281 69.8014 29.1984V29.198ZM69.0952 22.4778C68.9927 22.1625 69.0198 21.8194 69.1703 21.5241C69.3208 21.2287 69.5825 21.0052 69.8978 20.9028L72.2753 20.1305C72.4314 20.0797 72.596 20.0603 72.7597 20.0732C72.9233 20.086 73.0828 20.131 73.2291 20.2055C73.3753 20.2801 73.5055 20.3827 73.6121 20.5075C73.7187 20.6323 73.7997 20.7769 73.8504 20.933C73.9011 21.0892 73.9206 21.2537 73.9077 21.4174C73.8948 21.581 73.8498 21.7405 73.7753 21.8868C73.7008 22.0331 73.5982 22.1632 73.4734 22.2698C73.3485 22.3764 73.2039 22.4574 73.0478 22.5081L70.6702 23.2812C70.514 23.3322 70.3494 23.3518 70.1857 23.339C70.022 23.3262 69.8624 23.2812 69.7161 23.2067C69.5698 23.1321 69.4397 23.0294 69.3331 22.9045C69.2266 22.7796 69.1457 22.6348 69.0952 22.4786V22.4778ZM66.6459 17.0403C66.3931 17.0404 66.1461 16.9639 65.9377 16.8207C65.7292 16.6775 65.5691 16.4745 65.4784 16.2385C65.3878 16.0024 65.3708 15.7444 65.4299 15.4985C65.4889 15.2526 65.6211 15.0304 65.8091 14.8612L67.6667 13.1884C67.9132 12.9666 68.2376 12.8517 68.5688 12.8691C68.8999 12.8865 69.2106 13.0347 69.4324 13.2812C69.6543 13.5276 69.7691 13.8521 69.7517 14.1832C69.7344 14.5144 69.5861 14.825 69.3397 15.0469L67.482 16.7188C67.2528 16.9259 66.9549 17.0405 66.6459 17.0403ZM60.25 12.6548C59.9471 12.52 59.7102 12.2704 59.5914 11.9609C59.4726 11.6514 59.4816 11.3074 59.6164 11.0045L60.6333 8.72062C60.7681 8.41776 61.0178 8.18087 61.3273 8.06206C61.6368 7.94325 61.9808 7.95226 62.2837 8.08711C62.5865 8.22196 62.8234 8.47159 62.9422 8.7811C63.061 9.09061 63.052 9.43464 62.9172 9.7375L61.9003 12.0214C61.8337 12.1715 61.7381 12.3069 61.619 12.4199C61.5 12.533 61.3598 12.6215 61.2065 12.6803C61.0532 12.7392 60.8898 12.7672 60.7257 12.7628C60.5616 12.7584 60.3999 12.7218 60.25 12.6548ZM73.75 66.25H57.5V65C57.5 63.1233 55.0575 61.7562 54.3091 61.382C54.2448 61.3499 54.178 61.3234 54.1092 61.3027L41.8748 57.6322C41.1006 56.9483 38.3333 54.5467 34.9498 52.1106C29.548 48.2217 25.3594 46.25 22.5 46.25H12.5V45C12.5 44.6685 12.3683 44.3505 12.1339 44.1161C11.8995 43.8817 11.5815 43.75 11.25 43.75H3.75C3.41848 43.75 3.10054 43.8817 2.86612 44.1161C2.6317 44.3505 2.5 44.6685 2.5 45V72.5C2.5 72.8315 2.6317 73.1495 2.86612 73.3839C3.10054 73.6183 3.41848 73.75 3.75 73.75H11.25C11.5815 73.75 11.8995 73.6183 12.1339 73.3839C12.3683 73.1495 12.5 72.8315 12.5 72.5V71.25H16.1917C16.9716 71.3538 23.3506 72.6131 28.9894 73.7264C40.268 75.9531 41.8612 76.25 42.213 76.25H73.75C74.7442 76.2488 75.6974 75.8534 76.4004 75.1504C77.1034 74.4474 77.4988 73.4942 77.5 72.5V70C77.4988 69.0058 77.1034 68.0526 76.4004 67.3496C75.6974 66.6466 74.7442 66.2512 73.75 66.25ZM10 71.25H5V46.25H10V71.25ZM75 72.5C74.9996 72.8314 74.8678 73.1491 74.6335 73.3835C74.3991 73.6178 74.0814 73.7496 73.75 73.75H42.2713C41.4914 73.6462 35.1123 72.3869 29.4744 71.2736C18.195 69.0469 16.6017 68.75 16.25 68.75H12.5V48.75H22.5C27.2298 48.75 37.0348 56.6392 40.4139 59.6792C40.5512 59.8027 40.714 59.8942 40.8908 59.9473L53.2814 63.6647C54.0597 64.0719 54.8803 64.7261 54.9992 65.0381V67.5C54.9988 67.8136 54.8807 68.1157 54.6683 68.3464C54.4559 68.5771 54.1646 68.7197 53.852 68.7459L41.6941 66.3141L33.1202 61.4147C32.9776 61.333 32.8204 61.2802 32.6574 61.2593C32.4944 61.2384 32.329 61.2498 32.1704 61.293C32.0119 61.3361 31.8634 61.41 31.7335 61.5106C31.6035 61.6111 31.4947 61.7363 31.4132 61.879C31.3317 62.0216 31.2791 62.179 31.2584 62.342C31.2378 62.5049 31.2494 62.6704 31.2928 62.8289C31.3361 62.9874 31.4103 63.1357 31.511 63.2655C31.6117 63.3953 31.7371 63.504 31.8798 63.5853L40.6298 68.5853C40.7465 68.652 40.8731 68.6995 41.0048 68.7259L53.5048 71.2259C53.5856 71.242 53.6677 71.25 53.75 71.25C54.5253 71.2491 55.2813 71.0083 55.9144 70.5607C56.5474 70.1131 57.0264 69.4806 57.2858 68.75H73.75C74.0814 68.7504 74.3991 68.8822 74.6335 69.1165C74.8678 69.3509 74.9996 69.6686 75 70V72.5Z" fill="url(#paint0_linear)"/>
<defs>
<linearGradient id="paint0_linear" x1="40" y1="6.25" x2="40" y2="76.25" gradientUnits="userSpaceOnUse">
<stop stop-color="#00C2FF"/>
<stop offset="1" stop-color="#3DFFA2"/>
</linearGradient>
</defs>
</svg>
