<svg width="80" height="80" viewBox="0 0 80 80" fill="none" xmlns="http://www.w3.org/2000/svg">
<path d="M67.5 48.7494C66.8125 48.7494 66.25 49.3119 66.25 49.9994C66.25 53.9056 65.125 56.8431 62.9219 58.7338C59.9531 61.265 55.7031 61.3431 53.75 61.2181V48.7494C53.75 48.0619 53.1875 47.4994 52.5 47.4994H27.5C26.8125 47.4994 26.25 48.0619 26.25 48.7494V61.2181C24.3125 61.3431 20.0625 61.265 17.0781 58.7338C15.1094 57.0619 14.0156 54.5619 13.7812 51.2806L16.7344 53.4994C17.2812 53.9056 18.0781 53.7963 18.4844 53.2494C18.8906 52.7025 18.7812 51.9213 18.2344 51.4994L13.2344 47.7494C12.7344 47.3744 12.0469 47.4213 11.5938 47.8588L6.59375 52.8588C6.10938 53.3431 6.10938 54.14 6.59375 54.6244C7.07812 55.1088 7.875 55.1088 8.35938 54.6244L11.2969 51.6869C11.6094 55.5463 13 58.5463 15.4531 60.6244C18.5469 63.2494 22.5625 63.7338 25.125 63.7338C25.5312 63.7338 25.9062 63.7181 26.2344 63.7025V73.7494C26.2344 74.4369 26.7969 74.9994 27.4844 74.9994H52.4844C53.1719 74.9994 53.7344 74.4369 53.7344 73.7494V63.7181C54.0625 63.7337 54.4375 63.7494 54.8438 63.7494C57.4219 63.7494 61.4375 63.265 64.5156 60.64C67.3125 58.265 68.7344 54.6869 68.7344 49.9994C68.75 49.3119 68.1875 48.7494 67.5 48.7494ZM51.25 52.4994H45V49.9994H51.25V52.4994ZM37.5 49.9994H42.5V61.4213L40.6875 60.2181C40.2656 59.9369 39.7188 59.9369 39.2969 60.2181L37.4844 61.4213V49.9994H37.5ZM35 49.9994V52.4994H28.75V49.9994H35ZM28.75 72.4994V54.9994H35V63.7494C35 64.4369 35.5625 64.9994 36.25 64.9994C36.5 64.9994 36.7344 64.9213 36.9375 64.7963L40 62.765L43.0625 64.7963C43.6406 65.1869 44.4062 65.0306 44.7969 64.4525C44.9375 64.2494 45 63.9994 45 63.765V55.015H51.25V72.515H28.75V72.4994ZM67.5 28.7494C67.5 28.0619 68.0625 27.4994 68.75 27.4994C69.4375 27.4994 70 28.0619 70 28.7494C70 29.4369 69.4375 29.9994 68.75 29.9994C68.0625 29.9994 67.5 29.4369 67.5 28.7494ZM55 28.7494C55 28.0619 55.5625 27.4994 56.25 27.4994C56.9375 27.4994 57.5 28.0619 57.5 28.7494C57.5 29.4369 56.9375 29.9994 56.25 29.9994C55.5625 29.9994 55 29.4369 55 28.7494ZM60 31.2494V28.7494C60 28.0619 60.5625 27.4994 61.25 27.4994C61.9375 27.4994 62.5 28.0619 62.5 28.7494V29.9994H63.75C64.4375 29.9994 65 30.5619 65 31.2494C65 31.9369 64.4375 32.4994 63.75 32.4994H61.25C60.5625 32.4994 60 31.9369 60 31.2494ZM77.5 21.2494C77.5 20.1869 77.0469 19.1713 76.25 18.4525C76.0781 10.8588 69.7812 4.84313 62.1875 5.03063C54.8438 5.20251 48.9375 11.1088 48.7656 18.4525C47.2188 19.8275 47.0781 22.2025 48.4688 23.7494C48.8906 24.2181 49.4219 24.5775 50.0156 24.7963V30.015C50.0156 36.9213 55.6094 42.515 62.5156 42.515C69.4219 42.515 75.0156 36.9213 75.0156 30.015C75.0156 30.015 75.0156 24.8744 75.0156 24.7963C76.5 24.2494 77.5 22.8431 77.5 21.2494ZM62.5 7.49938C68.2188 7.51501 73.0312 11.8119 73.6719 17.4994H51.3281C51.9688 11.8119 56.7812 7.51501 62.5 7.49938ZM72.5 29.9994C72.5 35.515 68.0156 39.9994 62.5 39.9994C56.9844 39.9994 52.5 35.515 52.5 29.9994V24.9994H72.5V29.9994ZM73.75 22.4994H51.25C50.5625 22.4994 50 21.9369 50 21.2494C50 20.5619 50.5625 19.9994 51.25 19.9994H73.75C74.4375 19.9994 75 20.5619 75 21.2494C75 21.9369 74.4375 22.4994 73.75 22.4994ZM58.75 13.7494C58.75 13.0619 59.3125 12.4994 60 12.4994H65C65.6875 12.4994 66.25 13.0619 66.25 13.7494C66.25 14.4369 65.6875 14.9994 65 14.9994H60C59.3125 14.9994 58.75 14.4369 58.75 13.7494ZM27.5 29.9994V24.9994C27.5 18.0931 21.9062 12.4994 15 12.4994C8.09375 12.4994 2.5 18.0931 2.5 24.9994V29.9994C2.5 36.9056 8.09375 42.4994 15 42.4994C21.9062 42.4994 27.5 36.9056 27.5 29.9994ZM24.9062 23.6869C22.1094 23.4056 20.3438 22.2963 19.4062 21.4681C20.625 20.6869 21.7969 19.8119 22.875 18.8431C23.9688 20.2494 24.6719 21.9213 24.9062 23.6869ZM15 14.9994C17.2031 14.9994 19.3594 15.7338 21.1094 17.0775C19.375 18.5931 13.3906 23.2494 5.09375 23.7181C5.73437 18.7338 9.98438 14.9994 15 14.9994ZM5 29.9994V26.2181C9.92188 25.9838 14.0625 24.4525 17.1719 22.7806C18.2812 23.9213 20.7656 25.8744 25 26.2025V29.9994C25 35.515 20.5156 39.9994 15 39.9994C9.48438 39.9994 5 35.515 5 29.9994ZM20 28.7494C20 28.0619 20.5625 27.4994 21.25 27.4994C21.9375 27.4994 22.5 28.0619 22.5 28.7494C22.5 29.4369 21.9375 29.9994 21.25 29.9994C20.5625 29.9994 20 29.4369 20 28.7494ZM8.75 29.9994C8.0625 29.9994 7.5 29.4369 7.5 28.7494C7.5 28.0619 8.0625 27.4994 8.75 27.4994C9.4375 27.4994 10 28.0619 10 28.7494C10 29.4369 9.4375 29.9994 8.75 29.9994ZM12.5 31.2494V28.7494C12.5 28.0619 13.0625 27.4994 13.75 27.4994C14.4375 27.4994 15 28.0619 15 28.7494V29.9994H16.25C16.9375 29.9994 17.5 30.5619 17.5 31.2494C17.5 31.9369 16.9375 32.4994 16.25 32.4994H13.75C13.0625 32.4994 12.5 31.9369 12.5 31.2494ZM15 37.4994C12.25 37.4994 9.84375 36.2494 8.875 34.3119C8.5625 33.7025 8.8125 32.9369 9.42188 32.6244C10.0312 32.3119 10.7969 32.5619 11.1094 33.1713C11.1094 33.1713 11.1094 33.1869 11.125 33.1869C11.6562 34.2494 13.25 34.9994 15 34.9994C16.75 34.9994 18.3438 34.2494 18.875 33.1869C19.1719 32.5619 19.9219 32.3119 20.5469 32.6088C21.1719 32.9056 21.4219 33.6556 21.125 34.2806C21.125 34.2806 21.125 34.2963 21.1094 34.2963C20.1563 36.2494 17.75 37.4994 15 37.4994ZM56.9375 32.6244C57.5625 32.3119 58.3125 32.5619 58.6094 33.1869C59.1406 34.2494 60.7344 34.9994 62.4844 34.9994C64.2344 34.9994 65.8281 34.2494 66.3594 33.1869C66.6719 32.5619 67.4219 32.3119 68.0312 32.6244C68.6562 32.9369 68.9062 33.6869 68.5938 34.2963C67.6562 36.2494 65.25 37.4994 62.5 37.4994C59.75 37.4994 57.3437 36.2494 56.375 34.3119C56.0781 33.6869 56.3281 32.9369 56.9375 32.6244Z" fill="url(#paint0_linear)"/>
<defs>
<linearGradient id="paint0_linear" x1="40" y1="74.9994" x2="40" y2="5.02517" gradientUnits="userSpaceOnUse">
<stop stop-color="#00C2FF"/>
<stop offset="1" stop-color="#3DFFA2"/>
</linearGradient>
</defs>
</svg>
