<svg width="80" height="80" viewBox="0 0 80 80" fill="none" xmlns="http://www.w3.org/2000/svg">
<path d="M9.33355 5.33301H8.00027C7.26387 5.33301 6.66699 5.92988 6.66699 6.66629C6.66699 7.4027 7.26387 7.99973 8.00027 7.99973H9.33355C10.07 7.99973 10.6668 7.40285 10.6668 6.66645C10.6668 5.93004 10.07 5.33301 9.33355 5.33301Z" fill="url(#paint0_linear)"/>
<path d="M15.9996 5.33301H14.6663C13.9299 5.33301 13.333 5.92988 13.333 6.66629C13.333 7.4027 13.93 7.99957 14.6663 7.99957H15.9996C16.736 7.99957 17.3329 7.4027 17.3329 6.66629C17.3329 5.92988 16.736 5.33301 15.9996 5.33301Z" fill="url(#paint1_linear)"/>
<path d="M22.6666 5.33301H21.3333C20.5969 5.33301 20 5.92988 20 6.66629C20 7.4027 20.5969 7.99957 21.3333 7.99957H22.6666C23.403 7.99957 23.9998 7.4027 23.9998 6.66629C23.9998 5.92988 23.4028 5.33301 22.6666 5.33301Z" fill="url(#paint2_linear)"/>
<path d="M64.0003 5.33301H28.0003C27.2639 5.33301 26.667 5.92988 26.667 6.66629C26.667 7.4027 27.2639 7.99957 28.0003 7.99957H64.0003C64.7367 7.99957 65.3335 7.4027 65.3335 6.66629C65.3335 5.92988 64.7367 5.33301 64.0003 5.33301Z" fill="url(#paint3_linear)"/>
<path d="M77.3333 48H76V41.3333C75.9989 37.6 74.5675 34.0089 72 31.2986V6.66672C71.9956 2.98656 69.0134 0.004375 65.3333 0H6.66672C2.98656 0.004375 0.004375 2.98656 0 6.66672V60C0.004375 63.68 2.98656 66.6622 6.66672 66.6667H42.6667V70.6667C42.6727 75.8189 46.8478 79.9942 52 80H70.6667C75.8189 79.9941 79.9942 75.8189 80 70.6667V50.6667C80 49.1939 78.8061 48 77.3333 48ZM73.3333 41.3333V48H49.3333V41.3333C49.3333 34.7059 54.7059 29.3333 61.3333 29.3333C67.9606 29.3333 73.3333 34.7059 73.3333 41.3333ZM2.66672 6.66672C2.66672 4.45766 4.45766 2.66672 6.66672 2.66672H65.3334C67.5425 2.66672 69.3334 4.45766 69.3334 6.66672V10.6667H2.66672V6.66672ZM42.6667 50.6667V64H6.66672C4.45766 64 2.66672 62.2091 2.66672 60V13.3333H69.3334V29.0559C64.8289 26.1094 59.0713 25.8706 54.3383 28.4342C49.6053 30.9978 46.6597 35.9506 46.6667 41.3333V48H45.3334C43.8606 48 42.6667 49.1939 42.6667 50.6667ZM77.3333 53.3333H73.3333C72.5969 53.3333 72 53.9302 72 54.6666C72 55.403 72.5969 55.9998 73.3333 55.9998H77.3333V58.6666H73.3333C72.5969 58.6666 72 59.2634 72 59.9998C72 60.7362 72.5969 61.3331 73.3333 61.3331H77.3333V64H73.3333C72.5969 64 72 64.5969 72 65.3333C72 66.0697 72.5969 66.6666 73.3333 66.6666H77.3333V69.3333H73.3333C72.5969 69.3333 72 69.9303 72 70.6666C72 71.403 72.5969 71.9998 73.3333 71.9998H77.2C76.562 75.1017 73.8334 77.3292 70.6667 77.3331H52C48.8333 77.3291 46.1045 75.1017 45.4667 71.9998H49.3334C50.0698 71.9998 50.6667 71.4028 50.6667 70.6666C50.6667 69.9302 50.0698 69.3333 49.3334 69.3333H45.3334V66.6666H49.3334C50.0698 66.6666 50.6667 66.0697 50.6667 65.3333C50.6667 64.5969 50.0698 64 49.3334 64H45.3334V61.3333H49.3334C50.0698 61.3333 50.6667 60.7364 50.6667 60C50.6667 59.2636 50.0698 58.6667 49.3334 58.6667H45.3334V56H49.3334C50.0698 56 50.6667 55.4031 50.6667 54.6667C50.6667 53.9303 50.0698 53.3334 49.3334 53.3334H45.3334V50.6667H77.3334V53.3333H77.3333Z" fill="url(#paint4_linear)"/>
<path d="M60.0002 65.0877V67.9997C60.0002 68.7361 60.5973 69.333 61.3335 69.333C62.0699 69.333 62.6668 68.7361 62.6668 67.9997V65.0877C64.5023 64.4413 65.6037 62.5652 65.274 60.6474C64.9443 58.7296 63.2794 57.3293 61.3335 57.333C59.3876 57.3293 57.7227 58.7297 57.393 60.6474C57.0634 62.5652 58.1648 64.4413 60.0002 65.0877ZM61.3335 59.9997C62.0699 59.9997 62.6668 60.5968 62.6668 61.333C62.6668 62.0694 62.0698 62.6663 61.3335 62.6663C60.5971 62.6663 60.0002 62.0693 60.0002 61.333C60.0002 60.5968 60.5973 59.9997 61.3335 59.9997Z" fill="url(#paint5_linear)"/>
<path d="M22.6667 26.667C21.9303 26.667 21.3334 27.2639 21.3334 28.0003V32.0003H10.6667V21.3336H16C16.7364 21.3336 17.3333 20.7367 17.3333 20.0003C17.3333 19.2639 16.7364 18.667 16 18.667H10.6667C9.19391 18.667 8 19.8609 8 21.3337V32.0003C8 33.4731 9.19391 34.667 10.6667 34.667H21.3334C22.8062 34.667 24.0002 33.4731 24.0002 32.0003V28.0003C24 27.2639 23.403 26.667 22.6667 26.667Z" fill="url(#paint6_linear)"/>
<path d="M14.2762 24.3903C13.7531 23.885 12.9214 23.8922 12.4072 24.4065C11.8928 24.9209 11.8856 25.7525 12.3909 26.2756L15.0576 28.9423C15.3076 29.1923 15.6467 29.333 16.0003 29.333H16.0603C16.4343 29.3162 16.7842 29.1431 17.0243 28.8556L23.6911 20.8556C23.9964 20.4898 24.0834 19.9889 23.9192 19.5414C23.755 19.094 23.3647 18.7683 22.8951 18.6867C22.4256 18.6051 21.9483 18.7803 21.6429 19.1462L15.9097 26.0262L14.2762 24.3903Z" fill="url(#paint7_linear)"/>
<path d="M22.6667 49.3329C21.9303 49.3329 21.3334 49.9297 21.3334 50.6661V54.6661H10.6667V43.9996H16C16.7364 43.9996 17.3333 43.4025 17.3333 42.6663C17.3333 41.9299 16.7364 41.333 16 41.333H10.6667C9.19391 41.333 8 42.5269 8 43.9997V54.6664C8 56.1393 9.19391 57.3332 10.6667 57.3332H21.3334C22.8062 57.3332 24.0002 56.1393 24.0002 54.6664V50.6664C24 49.9299 23.403 49.3329 22.6667 49.3329Z" fill="url(#paint8_linear)"/>
<path d="M14.2762 47.0571C13.7531 46.5518 12.9214 46.559 12.4072 47.0734C11.8928 47.5878 11.8856 48.4193 12.3909 48.9424L15.0576 51.6092C15.3076 51.8592 15.6467 51.9998 16.0003 51.9998H16.0603C16.4343 51.9831 16.7842 51.8099 17.0243 51.5224L23.6911 43.5224C23.9964 43.1567 24.0834 42.6557 23.9192 42.2084C23.755 41.761 23.3647 41.4353 22.8951 41.3537C22.4256 41.2721 21.9483 41.4473 21.6429 41.8132L15.9097 48.6932L14.2762 47.0571Z" fill="url(#paint9_linear)"/>
<path d="M29.3333 22.6667H40C40.7364 22.6667 41.3333 22.0698 41.3333 21.3334C41.3333 20.597 40.7364 20 40 20H29.3333C28.5969 20 28 20.5969 28 21.3333C28 22.0697 28.597 22.6667 29.3333 22.6667Z" fill="url(#paint10_linear)"/>
<path d="M48 28.0003C48 27.2639 47.4031 26.667 46.6667 26.667H29.3333C28.5969 26.667 28 27.2639 28 28.0003C28 28.7367 28.5969 29.3336 29.3333 29.3336H46.6666C47.4031 29.3336 48 28.7367 48 28.0003Z" fill="url(#paint11_linear)"/>
<path d="M40 42.667H29.3333C28.5969 42.667 28 43.264 28 44.0003C28 44.7365 28.5969 45.3336 29.3333 45.3336H40C40.7364 45.3336 41.3333 44.7367 41.3333 44.0003C41.3333 43.2639 40.7364 42.667 40 42.667Z" fill="url(#paint12_linear)"/>
<path d="M38.6665 49.333H29.3333C28.5969 49.333 28 49.9299 28 50.6663C28 51.4027 28.5969 51.9996 29.3333 51.9996H38.6665C39.403 51.9996 39.9998 51.4027 39.9998 50.6663C39.9998 49.9299 39.403 49.333 38.6665 49.333Z" fill="url(#paint13_linear)"/>
<defs>
<linearGradient id="paint0_linear" x1="8.66691" y1="5.33301" x2="8.66691" y2="7.99973" gradientUnits="userSpaceOnUse">
<stop stop-color="#00C2FF"/>
<stop offset="1" stop-color="#3DFFA2"/>
</linearGradient>
<linearGradient id="paint1_linear" x1="15.3329" y1="5.33301" x2="15.3329" y2="7.99957" gradientUnits="userSpaceOnUse">
<stop stop-color="#00C2FF"/>
<stop offset="1" stop-color="#3DFFA2"/>
</linearGradient>
<linearGradient id="paint2_linear" x1="21.9999" y1="5.33301" x2="21.9999" y2="7.99957" gradientUnits="userSpaceOnUse">
<stop stop-color="#00C2FF"/>
<stop offset="1" stop-color="#3DFFA2"/>
</linearGradient>
<linearGradient id="paint3_linear" x1="46.0003" y1="5.33301" x2="46.0003" y2="7.99957" gradientUnits="userSpaceOnUse">
<stop stop-color="#00C2FF"/>
<stop offset="1" stop-color="#3DFFA2"/>
</linearGradient>
<linearGradient id="paint4_linear" x1="40" y1="0" x2="40" y2="80" gradientUnits="userSpaceOnUse">
<stop stop-color="#00C2FF"/>
<stop offset="1" stop-color="#3DFFA2"/>
</linearGradient>
<linearGradient id="paint5_linear" x1="61.3335" y1="57.333" x2="61.3335" y2="69.333" gradientUnits="userSpaceOnUse">
<stop stop-color="#00C2FF"/>
<stop offset="1" stop-color="#3DFFA2"/>
</linearGradient>
<linearGradient id="paint6_linear" x1="16.0001" y1="18.667" x2="16.0001" y2="34.667" gradientUnits="userSpaceOnUse">
<stop stop-color="#00C2FF"/>
<stop offset="1" stop-color="#3DFFA2"/>
</linearGradient>
<linearGradient id="paint7_linear" x1="18.0087" y1="18.667" x2="18.0087" y2="29.333" gradientUnits="userSpaceOnUse">
<stop stop-color="#00C2FF"/>
<stop offset="1" stop-color="#3DFFA2"/>
</linearGradient>
<linearGradient id="paint8_linear" x1="16.0001" y1="41.333" x2="16.0001" y2="57.3332" gradientUnits="userSpaceOnUse">
<stop stop-color="#00C2FF"/>
<stop offset="1" stop-color="#3DFFA2"/>
</linearGradient>
<linearGradient id="paint9_linear" x1="18.0087" y1="41.334" x2="18.0087" y2="51.9998" gradientUnits="userSpaceOnUse">
<stop stop-color="#00C2FF"/>
<stop offset="1" stop-color="#3DFFA2"/>
</linearGradient>
<linearGradient id="paint10_linear" x1="34.6666" y1="20" x2="34.6666" y2="22.6667" gradientUnits="userSpaceOnUse">
<stop stop-color="#00C2FF"/>
<stop offset="1" stop-color="#3DFFA2"/>
</linearGradient>
<linearGradient id="paint11_linear" x1="38" y1="26.667" x2="38" y2="29.3336" gradientUnits="userSpaceOnUse">
<stop stop-color="#00C2FF"/>
<stop offset="1" stop-color="#3DFFA2"/>
</linearGradient>
<linearGradient id="paint12_linear" x1="34.6666" y1="42.667" x2="34.6666" y2="45.3336" gradientUnits="userSpaceOnUse">
<stop stop-color="#00C2FF"/>
<stop offset="1" stop-color="#3DFFA2"/>
</linearGradient>
<linearGradient id="paint13_linear" x1="33.9999" y1="49.333" x2="33.9999" y2="51.9996" gradientUnits="userSpaceOnUse">
<stop stop-color="#00C2FF"/>
<stop offset="1" stop-color="#3DFFA2"/>
</linearGradient>
</defs>
</svg>
