<svg width="80" height="80" viewBox="0 0 80 80" fill="none" xmlns="http://www.w3.org/2000/svg">
<g clip-path="url(#clip0)">
<path d="M54.2834 18.1035H20.649C18.7526 18.1035 17.21 19.6463 17.21 21.5426V58.4551C17.21 60.3513 18.7528 61.8941 20.649 61.8941H54.2834C56.1796 61.8941 57.7225 60.3513 57.7225 58.4551V50.6082C57.7225 49.961 57.1979 49.4363 56.5506 49.4363C55.9032 49.4363 55.3787 49.961 55.3787 50.6082V58.4551C55.3787 59.059 54.8873 59.5504 54.2834 59.5504H20.649C20.0828 59.5504 19.6156 59.1185 19.5593 58.567C19.5556 58.5302 19.5537 36.8457 19.5537 36.8457H55.3787V44.9826C55.3787 45.6298 55.9032 46.1545 56.5506 46.1545C57.1979 46.1545 57.7225 45.6298 57.7225 44.9826V21.5426C57.7223 19.6463 56.1795 18.1035 54.2834 18.1035ZM19.5537 34.502V28.7327H22.9525C23.35 28.7327 23.7206 28.5312 23.9364 28.1973L25.1756 26.2816L28.3807 31.5696C28.8359 32.3762 30.1223 32.2846 30.4596 31.4245L32.3371 27.051L33.2643 28.4395C33.4817 28.7651 33.8473 28.9605 34.2389 28.9605H43.9507L46.6151 31.6121C47.3118 32.3057 48.4454 32.3055 49.1425 31.6123L52.1167 28.6521C53.0198 27.7532 53.2737 26.4179 52.7639 25.2502C52.1387 23.819 50.5484 23.1071 49.0646 23.5938L47.8789 23.9829L46.6932 23.5938C45.2093 23.1068 43.6189 23.8188 42.9937 25.2501C42.8004 25.6926 42.7175 26.159 42.7373 26.6168H34.8654L33.087 23.9532C32.6106 23.1876 31.3646 23.3023 31.0356 24.1416L29.2045 28.407L26.21 23.4665C25.7978 22.7359 24.6554 22.7221 24.2239 23.4374L22.3148 26.3887H19.5537V21.5426C19.5537 20.9387 20.0451 20.4473 20.649 20.4473H54.2834C54.8873 20.4473 55.3787 20.9387 55.3787 21.5426V34.502H19.5537ZM45.1417 26.1884C45.28 25.8676 45.642 25.7132 45.9626 25.8209L47.3201 26.2663C47.6862 26.3865 48.0725 26.3863 48.4373 26.2665L49.7954 25.8209C50.1243 25.7127 50.4773 25.8709 50.616 26.1884C50.7365 26.4638 50.6765 26.7788 50.4632 26.991L47.8789 29.5632L45.442 27.138C45.1928 26.8777 44.9575 26.5674 45.1417 26.1884Z" fill="url(#paint0_linear)"/>
<path d="M40.0266 5.51367H34.9072C34.26 5.51367 33.7354 6.03836 33.7354 6.68555C33.7354 7.33273 34.26 7.85742 34.9072 7.85742H40.0264C40.6738 7.85742 41.1983 7.33273 41.1983 6.68555C41.1983 6.03836 40.6738 5.51367 40.0266 5.51367Z" fill="url(#paint1_linear)"/>
<path d="M29.4261 54.1799C27.8909 54.2162 26.58 53.093 26.3689 51.5802C26.2794 50.9391 25.6875 50.4927 25.0463 50.5815C24.4052 50.671 23.9581 51.263 24.0475 51.9041C24.4177 54.556 26.6925 56.5243 29.3636 56.5241C29.3999 56.5241 29.4366 56.5238 29.4731 56.523C32.2719 56.4666 34.5777 54.2343 34.7227 51.4409C34.7999 49.9534 34.2786 48.5405 33.255 47.4624C32.2458 46.3995 30.827 45.7898 29.3628 45.7898C28.8253 45.7898 28.376 45.8223 27.977 45.8843L28.5219 42.5957H32.6819C33.3291 42.5957 33.8538 42.071 33.8538 41.4238C33.8538 40.7766 33.3291 40.252 32.6819 40.252H27.5281C26.9549 40.252 26.4658 40.6666 26.372 41.2323L25.3511 47.3945C25.1653 48.3827 26.333 49.1169 27.1661 48.5704C27.7525 48.3065 28.2222 48.1335 29.3627 48.1335C30.1994 48.1335 30.978 48.4684 31.5552 49.0762C32.1317 49.6835 32.4253 50.4802 32.3819 51.3193C32.3006 52.8916 31.0022 54.148 29.4261 54.1799Z" fill="url(#paint2_linear)"/>
<path d="M46.0052 42.3525C46.6526 42.3525 47.1771 41.8279 47.1771 41.1807C47.1771 40.5335 46.6526 40.0088 46.0052 40.0088H40.002C39.3546 40.0088 38.8301 40.5335 38.8301 41.1807C38.8301 41.8279 39.3546 42.3525 40.002 42.3525H46.0052Z" fill="url(#paint3_linear)"/>
<path d="M52.133 47.7888C52.133 45.9522 50.6388 44.458 48.8023 44.458H42.1607C40.3241 44.458 38.8301 45.9522 38.8301 47.7888C38.8301 49.6254 40.3243 51.1196 42.1607 51.1196H48.8023C50.639 51.1196 52.133 49.6254 52.133 47.7888ZM41.1737 47.7888C41.1737 47.2446 41.6165 46.8018 42.1605 46.8018H48.8021C49.3463 46.8018 49.7891 47.2446 49.7891 47.7888C49.7891 48.333 49.3463 48.7758 48.8021 48.7758H42.1605C41.6165 48.7758 41.1737 48.333 41.1737 47.7888Z" fill="url(#paint4_linear)"/>
<path d="M63.7267 26.6171H62.4109V20.6265C62.4109 16.8807 59.5393 13.794 55.8821 13.4495L53.8981 4.62465C53.2856 1.90105 50.9084 -0.000976562 48.117 -0.000976562H26.8167C24.0253 -0.000976562 21.6479 1.90105 21.0356 4.62465L19.0514 13.4495C15.3942 13.794 12.5225 16.8807 12.5225 20.6265V59.3715C12.5225 63.3471 15.757 66.5817 19.7326 66.5817H53.4725L51.6114 74.8593C51.2412 76.5056 49.8043 77.6553 48.117 77.6553H26.8167C25.1293 77.6553 23.6925 76.5056 23.3223 74.8593L22.4067 70.7868C22.2646 70.1553 21.6378 69.7586 21.0062 69.9006C20.3748 70.0426 19.9779 70.6695 20.12 71.3009L21.0356 75.3734C21.6479 78.097 24.0251 79.999 26.8167 79.999H48.117C50.9084 79.999 53.2856 78.097 53.8981 75.3734L55.8821 66.5486C59.5393 66.204 62.4109 63.1173 62.4109 59.3715V41.0339H63.7267C65.794 41.0339 67.4761 39.3518 67.4761 37.2845V30.3665C67.4761 28.2992 65.7942 26.6171 63.7267 26.6171ZM23.3223 5.13871C23.6923 3.49246 25.1293 2.34277 26.8167 2.34277H48.117C49.8043 2.34277 51.2412 3.49246 51.6114 5.13871L53.4725 13.4164H21.4612L23.3223 5.13871ZM60.0671 59.3715C60.0671 62.0548 57.884 64.2379 55.2007 64.2379H19.7328C17.0495 64.2379 14.8664 62.0548 14.8664 59.3715V20.6265C14.8664 17.9432 17.0495 15.7601 19.7328 15.7601H55.2009C57.8842 15.7601 60.0673 17.9432 60.0673 20.6265V59.3715H60.0671ZM65.1323 37.2845C65.1323 38.0595 64.5018 38.6901 63.7267 38.6901H62.4109V28.9609H63.7267C64.5018 28.9609 65.1323 29.5915 65.1323 30.3665V37.2845Z" fill="url(#paint5_linear)"/>
<path d="M40.0017 56.6284C40.7064 56.6284 41.2778 56.057 41.2778 55.3523C41.2778 54.6475 40.7064 54.0762 40.0017 54.0762C39.2969 54.0762 38.7256 54.6475 38.7256 55.3523C38.7256 56.057 39.2969 56.6284 40.0017 56.6284Z" fill="url(#paint6_linear)"/>
<path d="M45.4802 56.6284C46.185 56.6284 46.7563 56.057 46.7563 55.3523C46.7563 54.6475 46.185 54.0762 45.4802 54.0762C44.7754 54.0762 44.2041 54.6475 44.2041 55.3523C44.2041 56.057 44.7754 56.6284 45.4802 56.6284Z" fill="url(#paint7_linear)"/>
</g>
<defs>
<linearGradient id="paint0_linear" x1="37.4662" y1="18.1035" x2="37.4662" y2="61.8941" gradientUnits="userSpaceOnUse">
<stop stop-color="#00C2FF"/>
<stop offset="1" stop-color="#3DFFA2"/>
</linearGradient>
<linearGradient id="paint1_linear" x1="37.4668" y1="5.51367" x2="37.4668" y2="7.85742" gradientUnits="userSpaceOnUse">
<stop stop-color="#00C2FF"/>
<stop offset="1" stop-color="#3DFFA2"/>
</linearGradient>
<linearGradient id="paint2_linear" x1="29.3832" y1="40.252" x2="29.3832" y2="56.5241" gradientUnits="userSpaceOnUse">
<stop stop-color="#00C2FF"/>
<stop offset="1" stop-color="#3DFFA2"/>
</linearGradient>
<linearGradient id="paint3_linear" x1="43.0036" y1="40.0088" x2="43.0036" y2="42.3525" gradientUnits="userSpaceOnUse">
<stop stop-color="#00C2FF"/>
<stop offset="1" stop-color="#3DFFA2"/>
</linearGradient>
<linearGradient id="paint4_linear" x1="45.4816" y1="44.458" x2="45.4816" y2="51.1196" gradientUnits="userSpaceOnUse">
<stop stop-color="#00C2FF"/>
<stop offset="1" stop-color="#3DFFA2"/>
</linearGradient>
<linearGradient id="paint5_linear" x1="39.9993" y1="-0.000976563" x2="39.9993" y2="79.999" gradientUnits="userSpaceOnUse">
<stop stop-color="#00C2FF"/>
<stop offset="1" stop-color="#3DFFA2"/>
</linearGradient>
<linearGradient id="paint6_linear" x1="40.0017" y1="54.0762" x2="40.0017" y2="56.6284" gradientUnits="userSpaceOnUse">
<stop stop-color="#00C2FF"/>
<stop offset="1" stop-color="#3DFFA2"/>
</linearGradient>
<linearGradient id="paint7_linear" x1="45.4802" y1="54.0762" x2="45.4802" y2="56.6284" gradientUnits="userSpaceOnUse">
<stop stop-color="#00C2FF"/>
<stop offset="1" stop-color="#3DFFA2"/>
</linearGradient>
<clipPath id="clip0">
<rect width="80" height="80" fill="white" transform="translate(0 -0.000976562)"/>
</clipPath>
</defs>
</svg>
