<svg width="80" height="80" viewBox="0 0 80 80" fill="none" xmlns="http://www.w3.org/2000/svg">
<g clip-path="url(#clip0)">
<path d="M61.416 24.1826H63.2836V31.554C63.2836 32.1946 63.8027 32.7137 64.4433 32.7137C65.0839 32.7137 65.603 32.1946 65.603 31.554V24.1826H67.4705C68.1111 24.1826 68.6301 23.6636 68.6301 23.023C68.6301 22.3824 68.1111 21.8633 67.4705 21.8633H65.603V18.4941C65.603 17.8466 66.1296 17.3199 66.7771 17.3199H69.5251C70.1656 17.3199 70.6847 16.8009 70.6847 16.1603C70.6847 15.5197 70.1656 15.0006 69.5251 15.0006H66.7771C64.8509 15.0006 63.2836 16.5679 63.2836 18.4941V21.8633H61.416C60.7754 21.8633 60.2563 22.3824 60.2563 23.023C60.2563 23.6636 60.7755 24.1826 61.416 24.1826ZM40.4171 6.7182C41.0575 6.7182 41.5767 6.19899 41.5767 5.55855C41.5767 4.91811 41.0575 4.39889 40.4171 4.39889C39.7766 4.39889 39.2574 4.91811 39.2574 5.55855C39.2574 6.19899 39.7765 6.7182 40.4171 6.7182ZM15.3634 26.8674C17.2817 26.8674 18.8424 25.3067 18.8424 23.3885C18.8424 21.4703 17.2817 19.9095 15.3634 19.9095C13.4452 19.9095 11.8845 21.4703 11.8845 23.3885C11.8845 25.3067 13.4452 26.8674 15.3634 26.8674ZM15.3634 22.2288C16.0029 22.2288 16.5231 22.749 16.5231 23.3885C16.5231 24.028 16.0029 24.5481 15.3634 24.5481C14.7239 24.5481 14.2038 24.028 14.2038 23.3885C14.2038 22.749 14.7241 22.2288 15.3634 22.2288ZM20.002 31.5061C21.9203 31.5061 23.481 29.9453 23.481 28.0271V18.7499C23.481 16.8316 21.9203 15.2709 20.002 15.2709H10.7248C8.80658 15.2709 7.24584 16.8316 7.24584 18.7499V28.0271C7.24584 29.9453 8.80658 31.5061 10.7248 31.5061H20.002ZM9.56515 28.0271V18.7499C9.56515 18.1103 10.0853 17.5902 10.7248 17.5902H20.002C20.6416 17.5902 21.1617 18.1103 21.1617 18.7499V28.0271C21.1617 28.6666 20.6416 29.1868 20.002 29.1868H10.7248C10.0854 29.1868 9.56515 28.6665 9.56515 28.0271ZM22.3916 48.6841C21.8286 48.2606 21.0835 48.1895 20.4466 48.498C20.2904 48.5736 20.1264 48.6308 19.9589 48.6684C19.7545 48.714 19.5464 48.731 19.3367 48.7181C18.6533 48.0901 17.7837 47.7142 16.8441 47.6488C15.7489 47.5713 14.6876 47.9274 13.8582 48.6486C13.0931 49.3141 12.6073 50.2285 12.4785 51.2193C11.1291 51.0017 9.89294 50.3188 8.9813 49.264C8.60727 48.8309 8.02775 48.6373 7.47035 48.758C6.91572 48.878 6.47181 49.2912 6.31177 49.8357C5.92167 51.161 5.09831 55.2209 8.52532 57.9277C7.87128 58.1271 7.12539 58.1121 6.74394 58.7745C6.40006 59.3717 6.58391 60.075 6.72415 60.4413C6.99813 61.1566 7.7131 61.6715 8.84879 61.9716C9.46866 62.1355 10.2789 62.2414 11.1919 62.2414C13.3096 62.2413 15.9782 61.6712 18.0929 59.932C20.2006 58.1986 21.0624 55.8353 21.41 54.0422C21.951 53.4256 22.3797 52.7296 22.6863 51.9686C22.878 51.4923 23.0192 50.9939 23.1062 50.4865C23.2245 49.7951 22.9508 49.1044 22.3916 48.6841ZM19.4957 52.6979C19.3315 52.8675 19.2226 53.0831 19.1843 53.3161C18.9475 54.7496 18.3105 56.7502 16.6197 58.1407C14.5755 59.8218 11.6981 60.0579 10.0434 59.8448C10.5955 59.6157 11.1248 59.3312 11.6174 58.9967C11.9658 58.7603 12.1588 58.3536 12.1213 57.9342C12.0839 57.5148 11.822 57.1487 11.4371 56.9775C8.5496 55.694 8.0947 53.5092 8.27407 51.7956C9.77512 53.0115 11.6647 53.666 13.634 53.6106C14.2625 53.5944 14.7637 53.0802 14.7637 52.4515V51.792C14.7637 51.7869 14.7637 51.7816 14.7635 51.7764C14.7564 51.2476 14.9812 50.7452 15.3803 50.3983C15.7419 50.0836 16.2044 49.9293 16.6828 49.9621C17.161 49.9955 17.5977 50.213 17.9122 50.5747C18.0809 50.7686 18.3088 50.9008 18.5608 50.951C19.2472 51.0876 19.9419 51.0699 20.6126 50.896C20.3759 51.5701 19.9962 52.1813 19.4957 52.6979ZM65.4706 40.4115C65.4431 40.4115 65.4159 40.4125 65.3883 40.4127V37.9168C65.4159 37.917 65.4431 37.9179 65.4706 37.9179C73.4821 37.9179 80 31.4002 80 23.3885C80 15.3443 73.4295 8.81455 65.3883 8.86016V7.7605C65.3883 3.71083 62.0935 0.416016 58.0438 0.416016H22.7903C18.7407 0.416016 15.4458 3.71083 15.4458 7.7605V8.86016C12.6048 8.84362 9.84826 9.6478 7.4739 11.1858C6.93629 11.534 6.78275 12.2521 7.13095 12.7895C7.47931 13.3272 8.19722 13.4807 8.73468 13.1325C10.7081 11.8541 13.0004 11.1784 15.3634 11.1784C22.0961 11.1784 27.5735 16.6558 27.5735 23.3885C27.5735 30.1211 22.0961 35.5986 15.3634 35.5986C8.63078 35.5986 3.15334 30.1211 3.15334 23.3885C3.15334 20.9476 3.87093 18.5921 5.22819 16.5768C5.58583 16.0455 5.44528 15.325 4.91416 14.9672C4.38288 14.6097 3.66235 14.7501 3.30455 15.2813C1.68846 17.681 0.834024 20.4842 0.834024 23.3885C0.834024 31.4 7.35175 37.9179 15.3634 37.9179C15.3909 37.9179 15.4182 37.917 15.4457 37.9168V40.4413C15.1425 40.4223 14.8371 40.4116 14.5292 40.4116C6.51773 40.4115 0 46.9293 0 54.9409C0 62.9524 6.51773 69.4704 14.5294 69.4704C14.8373 69.4704 15.1426 69.4596 15.4458 69.4407V72.2374C15.4458 76.287 18.7407 79.5818 22.7903 79.5818H58.0438C62.0935 79.5818 65.3883 76.287 65.3883 72.2374V69.4695C65.4159 69.4696 65.4431 69.4706 65.4706 69.4706C73.4821 69.4706 80 62.9527 80 54.941C80 46.9293 73.4821 40.4115 65.4706 40.4115ZM65.4706 11.1784C72.2032 11.1784 77.6807 16.6558 77.6807 23.3885C77.6807 30.1211 72.2032 35.5986 65.4706 35.5986C58.7379 35.5986 53.2605 30.1211 53.2605 23.3885C53.2605 16.6558 58.7379 11.1784 65.4706 11.1784ZM63.069 37.7181V40.6084C62.2761 40.7393 61.501 40.9348 60.7497 41.1914V37.1298C61.4971 37.3874 62.2723 37.5851 63.069 37.7181ZM20.0845 8.53345V9.64687C19.3369 9.38927 18.5619 9.19167 17.7651 9.05854V7.76035C17.7651 4.98939 20.0194 2.73517 22.7903 2.73517H58.0438C60.8148 2.73517 63.069 4.98939 63.069 7.76035V9.05854C62.2723 9.19167 61.4973 9.38927 60.7497 9.64687V8.53345C60.7497 6.61522 59.189 5.05448 57.2707 5.05448H53.0109C51.6894 5.05448 50.6143 6.12956 50.6143 7.4511C50.6143 7.96429 50.1967 8.38192 49.6834 8.38192H31.1507C30.6375 8.38192 30.2197 7.96445 30.2197 7.4511C30.2197 6.8102 29.9706 6.20826 29.5151 5.7529C29.0613 5.30265 28.4606 5.05448 27.8231 5.05448H23.5633C21.645 5.05448 20.0845 6.61522 20.0845 8.53345ZM17.7651 37.7181C18.5619 37.585 19.3369 37.3874 20.0845 37.1298V41.5161C19.3403 41.207 18.5653 40.9577 17.7651 40.7751V37.7181ZM14.5294 67.1511C7.79675 67.1511 2.31931 61.6737 2.31931 54.9409C2.31931 48.2082 7.79675 42.7308 14.5294 42.7308C21.2621 42.7308 26.7395 48.2082 26.7395 54.9409C26.7395 62.0573 21.122 67.1511 14.5294 67.1511ZM63.069 72.2372C63.069 75.0081 60.8148 77.2624 58.0438 77.2624H22.7903C20.0194 77.2624 17.7651 75.0081 17.7651 72.2372V69.1067C18.5653 68.9241 19.3403 68.6747 20.0845 68.3656V71.4641C20.0845 73.3823 21.6452 74.9431 23.5634 74.9431H57.2707C59.189 74.9431 60.7497 73.3823 60.7497 71.4641V68.6825C61.4973 68.9401 62.2723 69.1377 63.069 69.2708V72.2372ZM65.4706 67.1511C58.7379 67.1511 53.2605 61.6737 53.2605 54.9409C53.2605 53.8945 53.3927 52.8559 53.6539 51.8538C53.8153 51.234 53.4437 50.6008 52.824 50.4394C52.2041 50.2776 51.571 50.6495 51.4095 51.2692C51.0988 52.4621 50.9413 53.6974 50.9413 54.9409C50.9413 60.3997 53.9679 65.1642 58.4306 67.6468V71.4641C58.4306 72.1036 57.9104 72.6237 57.2709 72.6237H23.5636C22.9241 72.6237 22.4039 72.1036 22.4039 71.4641V67.146C26.4055 64.5553 29.059 60.0523 29.059 54.9409C29.059 49.8294 26.4055 45.3264 22.4039 42.7357V36.0941C26.8666 33.6115 29.8931 28.8471 29.8931 23.3883C29.8931 17.9296 26.8666 13.1651 22.4039 10.6825V8.53345C22.4039 7.89394 22.9241 7.37379 23.5636 7.37379H27.8234C27.8452 7.37379 27.8648 7.3823 27.8784 7.39606C27.8984 7.41585 27.9007 7.43703 27.9007 7.4511C27.9007 9.24316 29.3588 10.7012 31.151 10.7012H49.6837C51.4759 10.7012 52.9339 9.24316 52.9339 7.4511C52.9339 7.40858 52.9687 7.37379 53.0113 7.37379H57.2711C57.9106 7.37379 58.4307 7.89394 58.4307 8.53345V10.6825C53.9681 13.1651 50.9415 17.9296 50.9415 23.3883C50.9415 28.8505 53.9718 33.6174 58.4389 36.0988C58.434 36.1425 58.4307 36.1869 58.4307 36.2321V42.2204C56.7206 43.1685 55.1974 44.4689 53.958 46.0764C53.567 46.5836 53.6611 47.3117 54.1683 47.7029C54.6757 48.0941 55.4035 48.0001 55.7947 47.4926C58.1278 44.4651 61.6046 42.7308 65.4709 42.7308C72.2036 42.7308 77.681 48.2082 77.681 54.9409C77.6807 61.6737 72.2032 67.1511 65.4706 67.1511ZM44.6667 39.6153C44.1192 39.2833 43.4061 39.4574 43.0735 40.0048C42.8586 40.3587 42.5556 40.6619 42.2079 40.8869C41.8728 41.1037 41.4365 41.1099 41.0957 40.903L39.3601 39.8494C39.0141 39.6393 38.8248 39.2359 38.8639 38.8269C38.9026 38.4233 39.0343 38.0267 39.2448 37.6802C39.5772 37.1327 39.4029 36.4196 38.8556 36.087C38.3084 35.7546 37.595 35.9287 37.2624 36.4762C36.8715 37.1199 36.6269 37.8563 36.5547 38.6103L36.5525 38.6336C36.43 39.9105 37.0595 41.1657 38.1561 41.832L39.8917 42.8855C40.4254 43.2098 41.032 43.3714 41.6383 43.3714C42.2775 43.3714 42.9164 43.1917 43.4687 42.8337C44.1087 42.419 44.6605 41.8604 45.056 41.2087C45.3885 40.6609 45.214 39.9477 44.6667 39.6153ZM71.5727 53.6974L63.4415 49.0005C62.3898 48.3814 61.0192 49.1862 61.0283 50.3936V59.7876C61.0175 60.9922 62.3981 61.7961 63.4414 61.1807L71.5725 56.484C72.624 55.8881 72.6201 54.2905 71.5727 53.6974ZM63.3475 58.5565V51.6247L69.3477 55.0907L63.3475 58.5565ZM40.1355 29.4977C34.7462 29.639 30.2645 33.9625 29.9327 39.3405C29.848 40.7102 30.026 42.0592 30.4612 43.3509L29.2264 46.8638C28.9974 47.515 29.1585 48.2227 29.6465 48.7109C30.1345 49.1989 30.8424 49.3598 31.4935 49.131L33.9425 48.2702C35.864 49.7765 38.2665 50.5659 40.7079 50.4997C46.3211 50.3475 50.9032 45.6528 50.9219 40.0346C50.9315 37.1695 49.8083 34.4887 47.7593 32.4861C45.7107 30.4837 43.0017 29.4209 40.1355 29.4977ZM40.645 48.1811C38.73 48.2299 36.8535 47.6115 35.356 46.4311C34.9469 46.1085 34.4543 45.9407 33.9555 45.9407C33.7067 45.9407 33.4562 45.9824 33.2141 46.0676L31.7883 46.5688L32.6584 44.0937C32.8241 43.6223 32.8277 43.1049 32.668 42.6371C32.3222 41.6228 32.1808 40.5617 32.2472 39.4834C32.5059 35.294 35.9974 31.9262 40.196 31.8159C42.4313 31.7553 44.5414 32.5844 46.1377 34.1445C47.7344 35.7051 48.6095 37.7942 48.6021 40.0266C48.5877 44.4045 45.018 48.0625 40.645 48.1811Z" fill="url(#paint0_linear)"/>
</g>
<defs>
<linearGradient id="paint0_linear" x1="40" y1="0.416016" x2="40" y2="79.5818" gradientUnits="userSpaceOnUse">
<stop stop-color="#00C2FF"/>
<stop offset="1" stop-color="#3DFFA2"/>
</linearGradient>
<clipPath id="clip0">
<rect width="80" height="80" fill="white" transform="translate(0 -0.000976562)"/>
</clipPath>
</defs>
</svg>
