<svg width="80" height="80" viewBox="0 0 80 80" fill="none" xmlns="http://www.w3.org/2000/svg">
<g clip-path="url(#clip0)">
<path d="M23.5173 27.814L25.6203 28.3774C25.423 28.5871 25.3012 28.8688 25.3012 29.1795V31.4254C25.3012 32.0726 25.8259 32.5973 26.4731 32.5973C27.1203 32.5973 27.645 32.0726 27.645 31.4254V29.1795C27.645 29.087 27.6331 28.9974 27.613 28.9112L28.7313 29.2109C29.348 29.3763 30.0013 28.999 30.1664 28.3823C30.3339 27.7571 29.963 27.1145 29.3377 26.947L24.1239 25.5499C23.4995 25.3826 22.8563 25.7534 22.6886 26.3787C22.5213 27.0038 22.8922 27.6463 23.5173 27.814Z" fill="url(#paint0_linear)"/>
<path d="M50.9704 29.2482C51.0716 29.2499 51.1738 29.2379 51.2743 29.211L52.3926 28.9113C52.3724 28.9976 52.3605 29.0871 52.3605 29.1796V31.4255C52.3605 32.0727 52.8852 32.5974 53.5324 32.5974C54.1796 32.5974 54.7043 32.0727 54.7043 31.4255V29.1796C54.7043 28.8688 54.5826 28.5871 54.3852 28.3774L56.4881 27.814C57.1132 27.6465 57.4841 27.0038 57.3168 26.3787C57.1493 25.7535 56.5063 25.3826 55.8815 25.5499L50.6677 26.947C50.0426 27.1145 49.6716 27.757 49.839 28.3821C49.9746 28.8884 50.461 29.2398 50.9704 29.2482Z" fill="url(#paint1_linear)"/>
<path d="M3.6086 36.3394C4.44438 36.2975 4.96407 35.4156 4.60766 34.6661C3.72344 31.2188 4.09407 28.9537 4.00672 25.7892C4.00672 24.8027 4.93266 24.07 5.86907 24.3159C9.19407 25.1902 11.2858 27.3436 12.2622 28.5938C11.0386 32.5456 10.6733 36.7619 11.2034 40.9048C10.4292 41.6742 9.95016 42.6158 9.7625 43.5961C8.31063 42.1713 7.08219 40.5145 6.14688 38.7061C5.84954 38.1312 5.14266 37.9061 4.56766 38.2036C3.99282 38.5009 3.76782 39.208 4.06516 39.7828C5.54313 42.6405 7.67422 45.1587 10.2395 47.0905C12.6123 53.8886 17.4133 59.9959 24.0519 63.9194C19.0536 67.3016 15.7458 72.5413 15.7458 78.8283C15.7458 79.4755 16.2705 80.0002 16.9177 80.0002H63.0878C63.735 80.0002 64.2597 79.4755 64.2597 78.8283C64.2597 72.6603 61.0636 67.3747 55.9483 63.9156C57.7112 62.8778 59.3823 61.6653 60.9331 60.2844C61.4164 59.8541 61.4594 59.1133 61.0289 58.6298C60.5984 58.1464 59.8577 58.1036 59.3744 58.5341C49.0767 67.7038 33.6922 68.4516 22.5547 60.1083C17.6448 56.4303 13.9502 51.2017 12.1445 45.3888C11.7944 44.2603 12.198 43.0234 13.1511 42.3144C13.6564 41.9384 14.247 41.7691 14.8086 41.7691C15.9428 41.7691 65.2027 41.7597 65.4566 41.782C65.987 41.8308 66.4569 42.0189 66.8541 42.3144C67.8081 43.0239 68.2105 44.2613 67.8606 45.3889C67.6514 45.883 66.4861 50.5417 62.3461 55.4748C61.93 55.9706 61.9945 56.7097 62.4903 57.1258C62.9861 57.5419 63.7253 57.4772 64.1413 56.9814C66.6228 54.0244 68.5106 50.7008 69.7655 47.0905C75.142 43.0439 78.342 36.6509 78.342 29.9088V25.7894C78.342 23.2642 75.962 21.4128 73.5402 22.0494C70.4084 22.8727 68.1941 24.6372 66.8231 26.0795C63.1928 17.302 55.6341 11.1589 47.0434 9.01625C46.3195 8.24438 43.9495 5.54297 43.287 2.60344C42.9472 1.09484 41.5658 0 40.0027 0C38.4395 0 37.0583 1.09484 36.7181 2.60359C36.0584 5.53047 33.6841 8.24312 32.9608 9.01656C24.3827 11.1562 16.817 17.2903 13.182 26.0795C11.8111 24.6372 9.59657 22.8727 6.46485 22.0495C4.04172 21.4125 1.66297 23.2655 1.66297 25.7895C1.76047 28.8978 1.33719 31.5212 2.39641 35.4738C2.53875 36.0041 3.03579 36.3764 3.6086 36.3394ZM53.5647 65.1908C55.3167 66.1883 61.2987 70.1275 61.8717 77.6562H55.7498V73.5956C55.7498 72.9484 55.2252 72.4238 54.578 72.4238C53.9308 72.4238 53.4061 72.9484 53.4061 73.5956V77.6562H26.5994V73.5956C26.5994 72.9484 26.0747 72.4238 25.4275 72.4238C24.7803 72.4238 24.2556 72.9484 24.2556 73.5956V77.6562H18.1325C18.3933 74.1416 19.8394 71.0033 22.4411 68.3133C24.035 66.6653 25.653 65.6398 26.4364 65.1937C34.9247 69.2684 44.9923 69.2997 53.5647 65.1908ZM18.0895 39.425V37.6845C18.0895 36.487 19.0638 35.5128 20.2614 35.5128H23.0753C24.2728 35.5128 25.247 36.487 25.247 37.6845V39.425H18.0895ZM54.7584 39.425V37.6845C54.7584 36.487 55.7327 35.5128 56.9303 35.5128H59.7441C60.9417 35.5128 61.9159 36.487 61.9159 37.6845V39.425H54.7584ZM67.7433 28.5938C68.7197 27.3438 70.8114 25.1902 74.1362 24.3162C75.0717 24.0703 75.9986 24.802 75.9986 25.7895V29.9089C75.9986 35.0803 73.8869 40.022 70.2431 43.5972C70.0437 42.555 69.5305 41.6291 68.802 40.9048C69.3277 36.7987 68.9752 32.5722 67.7433 28.5938ZM39.0047 3.11891C39.1059 2.66969 39.5256 2.34375 40.0028 2.34375C40.48 2.34375 40.8997 2.66969 41.0009 3.11891C41.5842 5.70656 43.1877 8.05094 44.3409 9.4775C43.0737 10.0152 41.9545 10.8133 41.0136 11.8708C40.7123 12.2123 40.2853 12.3603 39.8567 12.3161C39.0695 12.2347 39.0466 11.7453 37.8894 10.8136C37.118 10.1883 36.3384 9.76328 35.6647 9.4775C36.818 8.05094 38.4214 5.70656 39.0047 3.11891ZM33.6108 11.2686C34.4664 11.4505 35.1597 11.7937 35.8955 12.2536C37.4116 13.2625 37.433 14.1034 39.0312 14.5377C39.3448 14.6228 39.6712 14.6672 40.0028 14.6672C41.8158 14.6672 42.7547 13.4328 42.7717 13.4205C43.755 12.3055 45.1308 11.5369 46.3948 11.2686C58.7856 14.3158 67.7991 26.0292 66.5848 39.6134C65.5527 39.3247 64.6697 39.4577 64.2598 39.425V37.6845C64.2598 35.1947 62.2342 33.1691 59.7442 33.1691H56.9305C54.4405 33.1691 52.4148 35.1947 52.4148 37.6845V39.425H27.5908V37.6845C27.5908 35.1947 25.5652 33.1691 23.0753 33.1691H20.2614C17.7714 33.1691 15.7458 35.1947 15.7458 37.6845V39.425C15.2028 39.4536 14.4163 39.335 13.4208 39.6134C12.2183 26.2913 20.9942 14.3713 33.6108 11.2686Z" fill="url(#paint2_linear)"/>
</g>
<defs>
<linearGradient id="paint0_linear" x1="26.4275" y1="25.5098" x2="26.4275" y2="32.5973" gradientUnits="userSpaceOnUse">
<stop stop-color="#00C2FF"/>
<stop offset="1" stop-color="#3DFFA2"/>
</linearGradient>
<linearGradient id="paint1_linear" x1="53.5779" y1="25.5098" x2="53.5779" y2="32.5974" gradientUnits="userSpaceOnUse">
<stop stop-color="#00C2FF"/>
<stop offset="1" stop-color="#3DFFA2"/>
</linearGradient>
<linearGradient id="paint2_linear" x1="40.0001" y1="0" x2="40.0001" y2="80.0002" gradientUnits="userSpaceOnUse">
<stop stop-color="#00C2FF"/>
<stop offset="1" stop-color="#3DFFA2"/>
</linearGradient>
<clipPath id="clip0">
<rect width="80" height="80" fill="white"/>
</clipPath>
</defs>
</svg>
