<svg width="120" height="53" viewBox="0 0 120 53" fill="none" xmlns="http://www.w3.org/2000/svg">
<path d="M40.5602 0.484509C40.4178 0.769341 37.6549 7.51987 34.4078 15.5237C31.1607 23.499 28.3978 30.278 28.2269 30.5628C27.9991 30.9901 27.6288 31.0471 25.7774 30.9901L23.5841 30.9046L23.4987 16.0079L23.4417 1.13963H20.451H17.4602L17.4033 9.82702L17.3178 18.5429L9.62734 9.57067C3.01923 1.85171 1.82293 0.569958 1.16781 0.569958H0.370282V10.1688C0.370282 15.4667 0.284833 27.2018 0.1709 36.231L0 52.6943H59.9858H120V41.8992C120 33.5251 119.915 31.0755 119.658 30.9616C119.459 30.8762 119.43 30.7907 119.601 30.7907C119.801 30.7622 119.772 29.8223 119.516 27.7145C119.288 26.034 119.089 24.6098 119.032 24.5814C118.975 24.5244 118.376 24.6953 117.693 24.9516C117.009 25.208 115.3 25.4643 113.876 25.5498C111.74 25.6637 111.056 25.6068 109.746 25.0941C107.781 24.3535 105.901 22.559 104.932 20.5082C104.306 19.198 104.192 18.5429 104.192 16.3782C104.192 14.0425 104.277 13.6153 105.132 11.9063C106.67 8.74466 108.892 7.37746 112.651 7.17808C114.958 7.06414 115.87 7.20656 118.035 8.08954C118.433 8.26044 118.547 7.86168 118.832 5.2697C119.032 3.61767 119.089 2.13654 119.003 1.99412C118.633 1.39597 114.503 0.769341 111.911 0.940243C103.765 1.42446 98.2958 6.95021 97.6122 15.3528C97.1279 21.3058 100.347 27.4582 105.331 30.1071L107.04 31.0186L99.5775 31.0471H92.0864V16.0933V1.13963H88.9532H85.8201V16.0933V31.0471H77.9872C73.6862 31.0471 70.1543 30.9616 70.1543 30.8762C70.1543 30.7907 72.7463 24.3535 75.8794 16.5776C79.0411 8.77314 81.7185 2.13654 81.8609 1.76625L82.1173 1.13963H78.5568H75.0249L72.7747 6.89325C71.55 10.0834 70.1543 13.7292 69.6986 15.011C69.2428 16.3212 68.8156 17.3751 68.7301 17.3751C68.6447 17.3751 68.2744 16.5206 67.9041 15.4382C67.5338 14.3843 66.1381 10.7385 64.7994 7.32049L62.3784 1.13963H58.8179C56.112 1.13963 55.3145 1.22507 55.4284 1.48142C55.5139 1.68081 58.2198 8.34589 61.4384 16.3212C64.657 24.268 67.306 30.8192 67.306 30.9046C67.306 30.9901 64.2867 31.0186 60.5839 30.9901L53.8619 30.9046L47.5671 15.4382C44.1206 6.95021 41.1868 0.000293732 41.0729 0.000293732C40.9305 0.000293732 40.7311 0.228161 40.5602 0.484509ZM42.4685 18.9417C43.1237 20.8216 43.6648 22.4451 43.6648 22.559C43.6648 22.7015 42.4401 22.7869 40.9305 22.7869C38.8512 22.7869 38.2245 22.7015 38.31 22.4166C40.019 17.546 40.9589 15.1534 41.1014 15.3243C41.2153 15.4382 41.8419 17.0618 42.4685 18.9417ZM13.4441 23.0433C17.2039 27.2873 20.3086 30.7907 20.3086 30.8762C20.3086 30.9616 17.1754 31.0471 13.3302 31.0471H6.35177V23.2142C6.35177 18.9132 6.40873 15.3813 6.4657 15.3813C6.52267 15.3813 9.65583 18.8277 13.4441 23.0433ZM46.3992 29.4805C46.5986 30.0217 46.798 30.5913 46.798 30.7622C46.798 30.9331 44.7757 31.0471 40.9305 31.0471H35.0914L35.2908 30.3919C35.9459 28.3127 35.4047 28.4836 40.9589 28.4836H45.972L46.3992 29.4805ZM117.437 41.8707V50.4157H60.0427H2.64894V41.8707V33.3257H60.0427H117.437V41.8707Z" fill="white"/>
</svg>
