<svg width="269" height="240" viewBox="0 0 269 240" fill="none" xmlns="http://www.w3.org/2000/svg">
<path d="M55.3125 201.5H49.575V215H52.545V209.533H55.3125C57.585 209.533 59.34 207.845 59.34 205.572C59.34 203.322 57.585 201.5 55.3125 201.5ZM54.84 207.08H52.545V204.11H54.84C55.785 204.11 56.505 204.718 56.505 205.595C56.505 206.495 55.785 207.08 54.84 207.08ZM68.087 209.442C69.6845 208.97 70.8095 207.485 70.8095 205.64C70.8095 203.345 69.0995 201.5 66.782 201.5H61.0445V215H64.0145V209.78H65.207L68.537 215H71.867L68.087 209.442ZM66.332 207.328H64.0145V204.133H66.332C67.277 204.133 67.9745 204.808 67.9745 205.73C67.9745 206.675 67.277 207.328 66.332 207.328ZM79.8103 215.18C83.6578 215.18 86.7403 212.075 86.7403 208.25C86.7403 204.425 83.6578 201.32 79.8103 201.32C75.9853 201.32 72.8803 204.425 72.8803 208.25C72.8803 212.075 75.9853 215.18 79.8103 215.18ZM79.8103 212.278C77.5378 212.278 75.8053 210.522 75.8053 208.25C75.8053 205.978 77.5378 204.223 79.8103 204.223C82.1053 204.223 83.8378 205.978 83.8378 208.25C83.8378 210.522 82.1053 212.278 79.8103 212.278ZM97.4392 204.11V201.5H89.3167V215H92.2867V209.555H96.6967V206.945H92.2867V204.11H97.4392ZM107.52 204.11V201.5H99.3975V215H107.52V212.39H102.368V209.555H106.778V206.945H102.368V204.11H107.52ZM114.214 215.18C116.734 215.18 118.871 213.695 118.871 211.175C118.871 206.18 112.661 207.418 112.661 205.078C112.661 204.312 113.246 203.953 113.966 203.953C114.731 203.953 115.496 204.38 116.171 205.123L118.151 203.232C117.161 202.085 115.654 201.32 113.989 201.32C111.851 201.32 109.669 202.603 109.669 205.303C109.669 209.893 115.901 208.79 115.901 211.153C115.901 211.895 115.271 212.39 114.236 212.39C112.999 212.39 112.031 211.693 111.536 210.635L109.084 212.165C109.961 213.853 111.851 215.18 114.214 215.18ZM125.174 215.18C127.694 215.18 129.831 213.695 129.831 211.175C129.831 206.18 123.621 207.418 123.621 205.078C123.621 204.312 124.206 203.953 124.926 203.953C125.691 203.953 126.456 204.38 127.131 205.123L129.111 203.232C128.121 202.085 126.614 201.32 124.949 201.32C122.811 201.32 120.629 202.603 120.629 205.303C120.629 209.893 126.861 208.79 126.861 211.153C126.861 211.895 126.231 212.39 125.196 212.39C123.959 212.39 122.991 211.693 122.496 210.635L120.044 212.165C120.921 213.853 122.811 215.18 125.174 215.18ZM132.083 215H135.053V201.5H132.083V215ZM144.532 215.18C148.379 215.18 151.462 212.075 151.462 208.25C151.462 204.425 148.379 201.32 144.532 201.32C140.707 201.32 137.602 204.425 137.602 208.25C137.602 212.075 140.707 215.18 144.532 215.18ZM144.532 212.278C142.259 212.278 140.527 210.522 140.527 208.25C140.527 205.978 142.259 204.223 144.532 204.223C146.827 204.223 148.559 205.978 148.559 208.25C148.559 210.522 146.827 212.278 144.532 212.278ZM163.623 201.5V210.433L156.985 201.5H153.925V215H156.895V206.045L163.51 215H166.57V201.5H163.623ZM177.801 215H180.973L176.113 201.5H172.783L167.923 215H171.096L171.928 212.458H176.968L177.801 215ZM172.716 209.982L174.448 204.627L176.181 209.982H172.716ZM185.266 212.368V201.5H182.296V215H189.744V212.368H185.266ZM195.573 215.18C198.093 215.18 200.23 213.695 200.23 211.175C200.23 206.18 194.02 207.418 194.02 205.078C194.02 204.312 194.605 203.953 195.325 203.953C196.09 203.953 196.855 204.38 197.53 205.123L199.51 203.232C198.52 202.085 197.013 201.32 195.348 201.32C193.21 201.32 191.028 202.603 191.028 205.303C191.028 209.893 197.26 208.79 197.26 211.153C197.26 211.895 196.63 212.39 195.595 212.39C194.358 212.39 193.39 211.693 192.895 210.635L190.443 212.165C191.32 213.853 193.21 215.18 195.573 215.18Z" fill="white"/>
<path d="M149.863 140.484V140.984H150.363H159.747C160.55 140.984 161.202 140.332 161.202 139.529V125.419C161.202 124.724 161.765 124.161 162.46 124.161C163.155 124.161 163.718 124.724 163.718 125.419V139.529C163.718 141.718 161.937 143.5 159.748 143.5H115.229C114.535 143.5 113.972 142.937 113.972 142.242C113.972 141.547 114.535 140.984 115.229 140.984H122.232H122.732V140.484V116.203C122.732 115.508 123.295 114.945 123.99 114.945C124.685 114.945 125.248 115.508 125.248 116.203V140.484V140.984H125.748H146.848H147.348V140.484V106.035C147.348 105.34 147.911 104.777 148.605 104.777C149.3 104.777 149.863 105.34 149.863 106.035V140.484Z" fill="url(#paint0_linear)" stroke="#242728"/>
<mask id="path-3-inside-1" fill="white">
<path d="M154.987 88.8691C154.976 88.8644 154.964 88.86 154.953 88.8558L134.066 80.7666V79.5497H141.749C144.214 79.5497 146.219 77.5439 146.219 75.079V62.3339C147.171 61.0634 147.698 59.5118 147.698 57.8866C147.698 56.2617 147.171 54.7102 146.219 53.4398V46.2192C146.219 33.9675 136.252 24 124 24C111.748 24 101.781 33.9675 101.781 46.2192V75.0785C101.781 77.5439 103.786 79.5492 106.252 79.5492H113.91V80.7668L93.0454 88.8555C93.0344 88.8598 93.0234 88.8642 93.0124 88.8687C92.6355 89.0236 83.7822 92.7823 83.7822 103.122V139.529C83.7822 141.994 85.788 144 88.2529 144H107.024C107.995 144 108.782 143.212 108.782 142.242C108.782 141.271 107.995 140.484 107.024 140.484H101.153V106.035C101.153 105.064 100.366 104.277 99.3956 104.277C98.4248 104.277 97.6378 105.064 97.6378 106.035V140.484H88.2527C87.7263 140.484 87.2979 140.056 87.2979 139.529V103.122C87.2979 95.261 93.9304 92.2997 94.3387 92.1251L106.874 87.2655L112.381 98.3025C112.381 98.3025 112.381 98.3025 112.381 98.3027C112.736 99.015 113.35 99.5548 114.092 99.8203C112.323 102.617 111.204 105.402 110.699 106.799C110.185 108.221 110.877 109.785 112.276 110.359L117.412 112.466C118.172 112.777 119.038 112.747 119.787 112.354C120.523 111.969 121.047 111.283 121.225 110.473C121.895 107.419 122.988 104.838 123.999 102.908C125.011 104.839 126.104 107.419 126.774 110.472C126.952 111.282 127.475 111.968 128.211 112.354C128.951 112.742 129.817 112.781 130.587 112.465L135.723 110.359C137.122 109.785 137.814 108.221 137.3 106.798C136.794 105.4 135.674 102.614 133.905 99.8168C134.642 99.5501 135.252 99.0115 135.606 98.3027L135.606 98.3025L141.113 87.266L153.66 92.1251C153.974 92.2601 160.701 95.2594 160.701 103.122V117.215C160.701 118.186 161.487 118.973 162.458 118.973C163.429 118.973 164.216 118.186 164.216 117.215V103.122C164.217 92.7827 155.364 89.0241 154.987 88.8691ZM142.703 75.0787C142.703 75.6054 142.275 76.0336 141.749 76.0336H134.339C137.566 73.4897 139.863 69.7076 140.447 65.3475C141.167 65.3137 141.988 65.1633 142.703 64.9106V75.0787H142.703ZM144.182 57.8862C144.182 59.8725 142.69 61.5778 140.597 61.8141V53.9595C142.651 54.1873 144.182 55.8659 144.182 57.8862ZM106.252 76.0336C105.725 76.0336 105.297 75.6052 105.297 75.0787V46.2192C105.297 35.906 113.687 27.5159 124 27.5159C134.313 27.5159 142.704 35.906 142.704 46.2192V50.8622C142.046 50.6306 141.238 50.4734 140.573 50.4321C140.426 49.2415 139.591 48.2091 138.389 47.8437C138.389 47.8437 138.389 47.8437 138.389 47.8437C135.74 47.0388 132.824 45.3359 130.312 42.7448C129.123 41.5195 127.193 41.4893 125.96 42.6277C125.511 43.0425 118.628 51.4355 109.438 54.8285C108.22 55.2783 107.402 56.4523 107.402 57.7502V63.1634C107.402 68.3754 109.841 73.0549 113.665 76.0336H106.252ZM110.918 63.1634V58.0284C111.926 57.645 112.91 57.2084 113.864 56.7321C120.539 53.3977 125.757 48.1155 128.092 45.5009C131.324 48.7226 134.643 50.2744 136.69 50.9869C136.826 51.0345 136.957 51.078 137.081 51.1184V52.2923V63.1634C137.081 70.189 131.367 76.0336 124.211 76.0336C115.993 76.0336 110.918 69.6019 110.918 63.1634ZM130.55 78.2728V81.3483L123.994 89.441L117.426 81.334V78.2255C119.529 79.0978 121.832 79.5494 124.211 79.5494C126.46 79.5494 128.622 79.0849 130.55 78.2728ZM110.167 85.991L115.111 84.0764L121.447 91.8973L121.386 91.9411C120.421 92.6259 115.995 95.7701 115.294 96.2674L110.167 85.991ZM117.982 108.9L114.241 107.365C114.935 105.567 116.329 102.418 118.432 99.7479C119.099 100.467 119.899 101.051 120.787 101.465C119.78 103.418 118.713 105.943 117.982 108.9ZM123.988 98.6606C122.669 98.6606 121.368 98.0044 120.592 96.8173L123.994 94.4011C126.769 96.3717 126.038 95.8526 127.388 96.8116C126.622 97.9875 125.328 98.6606 123.988 98.6606ZM130.018 108.899C129.286 105.938 128.216 103.41 127.208 101.456C128.094 101.039 128.892 100.454 129.557 99.7336C131.665 102.405 133.064 105.563 133.759 107.365L130.018 108.899ZM132.693 96.2674C131.418 95.3618 127.786 92.7818 126.533 91.8921L132.868 84.0729L137.821 85.9912L132.693 96.2674Z"/>
</mask>
<path d="M154.987 88.8691C154.976 88.8644 154.964 88.86 154.953 88.8558L134.066 80.7666V79.5497H141.749C144.214 79.5497 146.219 77.5439 146.219 75.079V62.3339C147.171 61.0634 147.698 59.5118 147.698 57.8866C147.698 56.2617 147.171 54.7102 146.219 53.4398V46.2192C146.219 33.9675 136.252 24 124 24C111.748 24 101.781 33.9675 101.781 46.2192V75.0785C101.781 77.5439 103.786 79.5492 106.252 79.5492H113.91V80.7668L93.0454 88.8555C93.0344 88.8598 93.0234 88.8642 93.0124 88.8687C92.6355 89.0236 83.7822 92.7823 83.7822 103.122V139.529C83.7822 141.994 85.788 144 88.2529 144H107.024C107.995 144 108.782 143.212 108.782 142.242C108.782 141.271 107.995 140.484 107.024 140.484H101.153V106.035C101.153 105.064 100.366 104.277 99.3956 104.277C98.4248 104.277 97.6378 105.064 97.6378 106.035V140.484H88.2527C87.7263 140.484 87.2979 140.056 87.2979 139.529V103.122C87.2979 95.261 93.9304 92.2997 94.3387 92.1251L106.874 87.2655L112.381 98.3025C112.381 98.3025 112.381 98.3025 112.381 98.3027C112.736 99.015 113.35 99.5548 114.092 99.8203C112.323 102.617 111.204 105.402 110.699 106.799C110.185 108.221 110.877 109.785 112.276 110.359L117.412 112.466C118.172 112.777 119.038 112.747 119.787 112.354C120.523 111.969 121.047 111.283 121.225 110.473C121.895 107.419 122.988 104.838 123.999 102.908C125.011 104.839 126.104 107.419 126.774 110.472C126.952 111.282 127.475 111.968 128.211 112.354C128.951 112.742 129.817 112.781 130.587 112.465L135.723 110.359C137.122 109.785 137.814 108.221 137.3 106.798C136.794 105.4 135.674 102.614 133.905 99.8168C134.642 99.5501 135.252 99.0115 135.606 98.3027L135.606 98.3025L141.113 87.266L153.66 92.1251C153.974 92.2601 160.701 95.2594 160.701 103.122V117.215C160.701 118.186 161.487 118.973 162.458 118.973C163.429 118.973 164.216 118.186 164.216 117.215V103.122C164.217 92.7827 155.364 89.0241 154.987 88.8691ZM142.703 75.0787C142.703 75.6054 142.275 76.0336 141.749 76.0336H134.339C137.566 73.4897 139.863 69.7076 140.447 65.3475C141.167 65.3137 141.988 65.1633 142.703 64.9106V75.0787H142.703ZM144.182 57.8862C144.182 59.8725 142.69 61.5778 140.597 61.8141V53.9595C142.651 54.1873 144.182 55.8659 144.182 57.8862ZM106.252 76.0336C105.725 76.0336 105.297 75.6052 105.297 75.0787V46.2192C105.297 35.906 113.687 27.5159 124 27.5159C134.313 27.5159 142.704 35.906 142.704 46.2192V50.8622C142.046 50.6306 141.238 50.4734 140.573 50.4321C140.426 49.2415 139.591 48.2091 138.389 47.8437C138.389 47.8437 138.389 47.8437 138.389 47.8437C135.74 47.0388 132.824 45.3359 130.312 42.7448C129.123 41.5195 127.193 41.4893 125.96 42.6277C125.511 43.0425 118.628 51.4355 109.438 54.8285C108.22 55.2783 107.402 56.4523 107.402 57.7502V63.1634C107.402 68.3754 109.841 73.0549 113.665 76.0336H106.252ZM110.918 63.1634V58.0284C111.926 57.645 112.91 57.2084 113.864 56.7321C120.539 53.3977 125.757 48.1155 128.092 45.5009C131.324 48.7226 134.643 50.2744 136.69 50.9869C136.826 51.0345 136.957 51.078 137.081 51.1184V52.2923V63.1634C137.081 70.189 131.367 76.0336 124.211 76.0336C115.993 76.0336 110.918 69.6019 110.918 63.1634ZM130.55 78.2728V81.3483L123.994 89.441L117.426 81.334V78.2255C119.529 79.0978 121.832 79.5494 124.211 79.5494C126.46 79.5494 128.622 79.0849 130.55 78.2728ZM110.167 85.991L115.111 84.0764L121.447 91.8973L121.386 91.9411C120.421 92.6259 115.995 95.7701 115.294 96.2674L110.167 85.991ZM117.982 108.9L114.241 107.365C114.935 105.567 116.329 102.418 118.432 99.7479C119.099 100.467 119.899 101.051 120.787 101.465C119.78 103.418 118.713 105.943 117.982 108.9ZM123.988 98.6606C122.669 98.6606 121.368 98.0044 120.592 96.8173L123.994 94.4011C126.769 96.3717 126.038 95.8526 127.388 96.8116C126.622 97.9875 125.328 98.6606 123.988 98.6606ZM130.018 108.899C129.286 105.938 128.216 103.41 127.208 101.456C128.094 101.039 128.892 100.454 129.557 99.7336C131.665 102.405 133.064 105.563 133.759 107.365L130.018 108.899ZM132.693 96.2674C131.418 95.3618 127.786 92.7818 126.533 91.8921L132.868 84.0729L137.821 85.9912L132.693 96.2674Z" fill="url(#paint1_linear)" stroke="#242728" stroke-width="2" mask="url(#path-3-inside-1)"/>
<rect x="48.5" y="0.5" width="151" height="167" rx="9.5" stroke="url(#paint2_linear)"/>
<defs>
<linearGradient id="paint0_linear" x1="138.845" y1="104.277" x2="138.845" y2="144" gradientUnits="userSpaceOnUse">
<stop stop-color="#00C2FF"/>
<stop offset="1" stop-color="#3DFFA2"/>
</linearGradient>
<linearGradient id="paint1_linear" x1="123.999" y1="24" x2="123.999" y2="144" gradientUnits="userSpaceOnUse">
<stop stop-color="#00C2FF"/>
<stop offset="1" stop-color="#3DFFA2"/>
</linearGradient>
<linearGradient id="paint2_linear" x1="37.218" y1="-11.2" x2="140.139" y2="218.574" gradientUnits="userSpaceOnUse">
<stop stop-color="#00C2FF"/>
<stop offset="1" stop-color="#3DFFA2"/>
</linearGradient>
</defs>
</svg>
