<svg width="289" height="240" viewBox="0 0 289 240" fill="none" xmlns="http://www.w3.org/2000/svg">
<path d="M99.4626 215.18C101.983 215.18 104.12 213.695 104.12 211.175C104.12 206.18 97.9101 207.418 97.9101 205.078C97.9101 204.312 98.4951 203.953 99.2151 203.953C99.9801 203.953 100.745 204.38 101.42 205.123L103.4 203.232C102.41 202.085 100.903 201.32 99.2376 201.32C97.1001 201.32 94.9176 202.603 94.9176 205.303C94.9176 209.893 101.15 208.79 101.15 211.153C101.15 211.895 100.52 212.39 99.4851 212.39C98.2476 212.39 97.2801 211.693 96.7851 210.635L94.3326 212.165C95.2101 213.853 97.1001 215.18 99.4626 215.18ZM114.585 201.5H104.82V204.133H108.24V215H111.187V204.133H114.585V201.5ZM121.63 215.18C124.825 215.18 127.255 213.223 127.255 210.68V201.5H124.285V210.118C124.285 211.49 123.137 212.547 121.63 212.547C120.145 212.547 118.997 211.49 118.997 210.118V201.5H116.027V210.68C116.027 213.223 118.48 215.18 121.63 215.18ZM130.13 215H134.585C138.298 215 141.335 211.985 141.335 208.25C141.335 204.515 138.298 201.5 134.585 201.5H130.13V215ZM133.1 212.368V204.133H134.563C136.7 204.133 138.365 205.91 138.365 208.25C138.365 210.59 136.7 212.368 134.563 212.368H133.1ZM152.015 204.11V201.5H143.892V215H152.015V212.39H146.862V209.555H151.272V206.945H146.862V204.11H152.015ZM164.244 201.5V210.433L157.606 201.5H154.546V215H157.516V206.045L164.131 215H167.191V201.5H164.244ZM178.489 201.5H168.724V204.133H172.144V215H175.091V204.133H178.489V201.5ZM184.161 215.18C186.681 215.18 188.819 213.695 188.819 211.175C188.819 206.18 182.609 207.418 182.609 205.078C182.609 204.312 183.194 203.953 183.914 203.953C184.679 203.953 185.444 204.38 186.119 205.123L188.099 203.232C187.109 202.085 185.601 201.32 183.936 201.32C181.799 201.32 179.616 202.603 179.616 205.303C179.616 209.893 185.849 208.79 185.849 211.153C185.849 211.895 185.219 212.39 184.184 212.39C182.946 212.39 181.979 211.693 181.484 210.635L179.031 212.165C179.909 213.853 181.799 215.18 184.161 215.18Z" fill="white"/>
<g clip-path="url(#clip0)">
<mask id="path-2-inside-1" fill="white">
<path d="M178.641 102.398L171.598 100.33L156.276 90.3223V88.0292C160.712 84.683 163.759 79.5683 164.325 73.7054C166.55 73.3472 168.254 71.4139 168.254 69.0898V62.784C168.254 62.7596 168.252 62.7357 168.251 62.7113V54.7233C169.137 54.0886 169.7 53.0548 169.7 51.8951V44.585L180.274 42.7838C182.012 42.4878 183.261 41.1076 183.384 39.349C183.507 37.5905 182.461 36.0502 180.781 35.5161L145.133 24.1775C144.389 23.9408 143.604 23.941 142.86 24.1772L107.212 35.5161C105.532 36.0502 104.486 37.5905 104.608 39.3488C104.686 40.4661 105.22 41.4294 106.044 42.0603V51.6197H105.957C103.95 51.6197 102.317 53.2529 102.317 55.2603V60.0054L99.9664 73.7989C99.5603 76.1846 101.398 78.3683 103.824 78.3683H111.78C114.201 78.3683 116.045 76.1897 115.637 73.7987L113.287 60.0054V55.2603C113.287 53.2529 111.654 51.6197 109.647 51.6197H109.56V43.0972L118.301 44.5859V51.8951C118.301 53.0499 118.861 54.0821 119.743 54.7177L119.746 62.7847V69.0898C119.746 71.4141 121.451 73.3472 123.676 73.7054C124.242 79.565 127.285 84.6774 131.717 88.0238V90.3277L116.398 100.334L109.36 102.399C101.83 104.61 96.5132 111.523 96.5132 119.559V124.798C96.5132 125.769 97.3 126.556 98.271 126.556C99.242 126.556 100.029 125.769 100.029 124.798V119.559C100.029 113.225 104.273 107.556 110.351 105.773L116.908 103.848L143.103 119.413C143.634 119.729 144.338 119.746 144.898 119.413L171.095 103.847L177.651 105.772C183.728 107.556 187.972 113.225 187.972 119.558V136.536C187.972 138.713 186.201 140.485 184.023 140.485H176.275V132.908C176.275 131.937 175.489 131.15 174.518 131.15C173.547 131.15 172.76 131.937 172.76 132.908V140.485H115.233V132.908C115.233 131.937 114.446 131.15 113.475 131.15C112.504 131.15 111.717 131.937 111.717 132.908V140.485H103.978C101.8 140.485 100.028 138.713 100.028 136.536V133.015C100.028 132.044 99.2415 131.257 98.2705 131.257C97.2995 131.257 96.5127 132.044 96.5127 133.015V136.535C96.5127 140.652 99.8612 144 103.977 144H184.023C188.139 144 191.487 140.652 191.487 136.535V119.558C191.487 111.711 186.352 104.662 178.641 102.398ZM111.78 74.8526H103.824C103.578 74.8526 103.39 74.633 103.432 74.389L105.558 61.9119H110.046L112.172 74.3888C112.213 74.6323 112.027 74.8526 111.78 74.8526ZM109.772 55.2603V58.3965H105.832V55.2603C105.832 55.1912 105.888 55.1351 105.957 55.1351H109.646C109.716 55.1349 109.772 55.1912 109.772 55.2603ZM137.713 111.462L138.413 112.537L120.467 101.874L131.858 94.4337C132.375 100.495 134.372 106.327 137.713 111.462ZM137.701 103.874C141.839 104.462 146.159 104.462 150.299 103.874C149.499 105.842 148.513 107.742 147.34 109.545L144 114.679L140.66 109.545C139.487 107.742 138.501 105.842 137.701 103.874ZM150.287 111.462C153.628 106.327 155.626 100.495 156.142 94.4337L167.533 101.874L149.587 112.537L150.287 111.462ZM160.569 55.3779H164.735V61.0259H162.667C161.51 61.0259 160.569 60.0847 160.569 58.9276V55.3779H160.569ZM108.277 38.8662L143.926 27.5272C143.972 27.5126 144.021 27.5124 144.067 27.5274L179.716 38.8662C179.789 38.8897 179.89 38.9215 179.878 39.1046C179.865 39.2874 179.76 39.305 179.684 39.3181L167.898 41.3255L163.473 40.7783C162.51 40.659 161.632 41.3438 161.513 42.3071C161.394 43.2706 162.078 44.1481 163.041 44.2672L166.184 44.656V51.8626L121.816 51.8609V44.6558L140.005 42.4051C142.655 42.0776 145.341 42.0776 147.988 42.4051L154.872 43.2565C155.836 43.3758 156.713 42.6912 156.833 41.7279C156.952 40.7644 156.267 39.8869 155.304 39.7676L148.42 38.9162C145.486 38.5531 142.509 38.5531 139.574 38.9162L120.099 41.326L108.309 39.3181C108.232 39.305 108.128 39.2874 108.115 39.1046C108.103 38.9215 108.204 38.8894 108.277 38.8662ZM123.261 61.0259L123.258 55.3779H127.431V58.9278C127.431 60.0847 126.49 61.0261 125.333 61.0261H123.261V61.0259ZM127.129 72.8019C127.039 71.3705 125.849 70.2493 124.421 70.2493C123.782 70.2493 123.261 69.729 123.261 69.0896V64.5415H125.333C128.428 64.5415 130.947 62.0232 130.947 58.9278V55.3779H157.053V58.9278C157.053 62.0232 159.572 64.5415 162.667 64.5415H164.739V69.0896C164.739 69.729 164.218 70.2493 163.579 70.2493C162.151 70.2493 160.961 71.3705 160.871 72.8021C160.311 81.6776 152.9 88.6304 144 88.6304C135.099 88.6304 127.689 81.6776 127.129 72.8019ZM144 92.1458C147.126 92.1458 150.098 91.4309 152.761 90.1599V91.2739C152.761 94.2793 152.355 97.2439 151.574 100.103C146.797 101.014 141.397 101.051 136.426 100.103C135.645 97.2441 135.24 94.2795 135.24 91.2739C135.24 91.2366 135.234 91.2003 135.232 91.1635C135.232 91.1562 135.232 91.149 135.232 91.1417V90.1564C137.897 91.4295 140.871 92.1458 144 92.1458Z"/>
</mask>
<path d="M178.641 102.398L171.598 100.33L156.276 90.3223V88.0292C160.712 84.683 163.759 79.5683 164.325 73.7054C166.55 73.3472 168.254 71.4139 168.254 69.0898V62.784C168.254 62.7596 168.252 62.7357 168.251 62.7113V54.7233C169.137 54.0886 169.7 53.0548 169.7 51.8951V44.585L180.274 42.7838C182.012 42.4878 183.261 41.1076 183.384 39.349C183.507 37.5905 182.461 36.0502 180.781 35.5161L145.133 24.1775C144.389 23.9408 143.604 23.941 142.86 24.1772L107.212 35.5161C105.532 36.0502 104.486 37.5905 104.608 39.3488C104.686 40.4661 105.22 41.4294 106.044 42.0603V51.6197H105.957C103.95 51.6197 102.317 53.2529 102.317 55.2603V60.0054L99.9664 73.7989C99.5603 76.1846 101.398 78.3683 103.824 78.3683H111.78C114.201 78.3683 116.045 76.1897 115.637 73.7987L113.287 60.0054V55.2603C113.287 53.2529 111.654 51.6197 109.647 51.6197H109.56V43.0972L118.301 44.5859V51.8951C118.301 53.0499 118.861 54.0821 119.743 54.7177L119.746 62.7847V69.0898C119.746 71.4141 121.451 73.3472 123.676 73.7054C124.242 79.565 127.285 84.6774 131.717 88.0238V90.3277L116.398 100.334L109.36 102.399C101.83 104.61 96.5132 111.523 96.5132 119.559V124.798C96.5132 125.769 97.3 126.556 98.271 126.556C99.242 126.556 100.029 125.769 100.029 124.798V119.559C100.029 113.225 104.273 107.556 110.351 105.773L116.908 103.848L143.103 119.413C143.634 119.729 144.338 119.746 144.898 119.413L171.095 103.847L177.651 105.772C183.728 107.556 187.972 113.225 187.972 119.558V136.536C187.972 138.713 186.201 140.485 184.023 140.485H176.275V132.908C176.275 131.937 175.489 131.15 174.518 131.15C173.547 131.15 172.76 131.937 172.76 132.908V140.485H115.233V132.908C115.233 131.937 114.446 131.15 113.475 131.15C112.504 131.15 111.717 131.937 111.717 132.908V140.485H103.978C101.8 140.485 100.028 138.713 100.028 136.536V133.015C100.028 132.044 99.2415 131.257 98.2705 131.257C97.2995 131.257 96.5127 132.044 96.5127 133.015V136.535C96.5127 140.652 99.8612 144 103.977 144H184.023C188.139 144 191.487 140.652 191.487 136.535V119.558C191.487 111.711 186.352 104.662 178.641 102.398ZM111.78 74.8526H103.824C103.578 74.8526 103.39 74.633 103.432 74.389L105.558 61.9119H110.046L112.172 74.3888C112.213 74.6323 112.027 74.8526 111.78 74.8526ZM109.772 55.2603V58.3965H105.832V55.2603C105.832 55.1912 105.888 55.1351 105.957 55.1351H109.646C109.716 55.1349 109.772 55.1912 109.772 55.2603ZM137.713 111.462L138.413 112.537L120.467 101.874L131.858 94.4337C132.375 100.495 134.372 106.327 137.713 111.462ZM137.701 103.874C141.839 104.462 146.159 104.462 150.299 103.874C149.499 105.842 148.513 107.742 147.34 109.545L144 114.679L140.66 109.545C139.487 107.742 138.501 105.842 137.701 103.874ZM150.287 111.462C153.628 106.327 155.626 100.495 156.142 94.4337L167.533 101.874L149.587 112.537L150.287 111.462ZM160.569 55.3779H164.735V61.0259H162.667C161.51 61.0259 160.569 60.0847 160.569 58.9276V55.3779H160.569ZM108.277 38.8662L143.926 27.5272C143.972 27.5126 144.021 27.5124 144.067 27.5274L179.716 38.8662C179.789 38.8897 179.89 38.9215 179.878 39.1046C179.865 39.2874 179.76 39.305 179.684 39.3181L167.898 41.3255L163.473 40.7783C162.51 40.659 161.632 41.3438 161.513 42.3071C161.394 43.2706 162.078 44.1481 163.041 44.2672L166.184 44.656V51.8626L121.816 51.8609V44.6558L140.005 42.4051C142.655 42.0776 145.341 42.0776 147.988 42.4051L154.872 43.2565C155.836 43.3758 156.713 42.6912 156.833 41.7279C156.952 40.7644 156.267 39.8869 155.304 39.7676L148.42 38.9162C145.486 38.5531 142.509 38.5531 139.574 38.9162L120.099 41.326L108.309 39.3181C108.232 39.305 108.128 39.2874 108.115 39.1046C108.103 38.9215 108.204 38.8894 108.277 38.8662ZM123.261 61.0259L123.258 55.3779H127.431V58.9278C127.431 60.0847 126.49 61.0261 125.333 61.0261H123.261V61.0259ZM127.129 72.8019C127.039 71.3705 125.849 70.2493 124.421 70.2493C123.782 70.2493 123.261 69.729 123.261 69.0896V64.5415H125.333C128.428 64.5415 130.947 62.0232 130.947 58.9278V55.3779H157.053V58.9278C157.053 62.0232 159.572 64.5415 162.667 64.5415H164.739V69.0896C164.739 69.729 164.218 70.2493 163.579 70.2493C162.151 70.2493 160.961 71.3705 160.871 72.8021C160.311 81.6776 152.9 88.6304 144 88.6304C135.099 88.6304 127.689 81.6776 127.129 72.8019ZM144 92.1458C147.126 92.1458 150.098 91.4309 152.761 90.1599V91.2739C152.761 94.2793 152.355 97.2439 151.574 100.103C146.797 101.014 141.397 101.051 136.426 100.103C135.645 97.2441 135.24 94.2795 135.24 91.2739C135.24 91.2366 135.234 91.2003 135.232 91.1635C135.232 91.1562 135.232 91.149 135.232 91.1417V90.1564C137.897 91.4295 140.871 92.1458 144 92.1458Z" fill="url(#paint0_linear)" stroke="#242728" stroke-width="2" mask="url(#path-2-inside-1)"/>
</g>
<rect x="68.5" y="0.5" width="151" height="167" rx="9.5" stroke="url(#paint1_linear)"/>
<defs>
<linearGradient id="paint0_linear" x1="144" y1="24" x2="144" y2="144" gradientUnits="userSpaceOnUse">
<stop stop-color="#00C2FF"/>
<stop offset="1" stop-color="#3DFFA2"/>
</linearGradient>
<linearGradient id="paint1_linear" x1="57.218" y1="-11.2" x2="160.139" y2="218.574" gradientUnits="userSpaceOnUse">
<stop stop-color="#00C2FF"/>
<stop offset="1" stop-color="#3DFFA2"/>
</linearGradient>
<clipPath id="clip0">
<rect width="120" height="120" fill="white" transform="translate(84 24)"/>
</clipPath>
</defs>
</svg>
