<?xml version="1.0" standalone="no"?>
<!DOCTYPE svg PUBLIC "-//W3C//DTD SVG 20010904//EN"
 "http://www.w3.org/TR/2001/REC-SVG-20010904/DTD/svg10.dtd">
<svg version="1.0" xmlns="http://www.w3.org/2000/svg"
 width="500.000000pt" height="500.000000pt" viewBox="0 0 500.000000 500.000000"
 preserveAspectRatio="xMidYMid meet">

<g transform="translate(0.000000,500.000000) scale(0.100000,-0.100000)"
fill="#000000" stroke="none">
<path d="M0 2500 l0 -2500 2500 0 2500 0 0 2500 0 2500 -2500 0 -2500 0 0
-2500z m2132 207 c125 -309 230 -570 234 -579 6 -17 -4 -18 -119 -18 l-125 0
-22 60 -22 60 -187 0 -186 0 -21 -57 -20 -58 -128 -3 c-101 -2 -127 0 -123 10
6 16 434 1072 453 1116 7 17 19 32 26 32 8 0 105 -228 240 -563z m-1385 219
l278 -323 3 313 2 314 115 0 115 0 0 -570 0 -570 -33 0 c-31 0 -52 21 -313
312 l-279 312 -3 -302 -2 -302 -110 0 -110 0 0 570 0 570 29 0 c26 0 61 -37
308 -324z m3948 293 c24 -8 41 -21 43 -33 2 -10 -1 -62 -8 -116 l-12 -97 -51
20 c-74 30 -214 30 -278 0 -142 -64 -221 -225 -189 -386 21 -112 78 -189 173
-239 62 -32 209 -37 297 -9 35 11 66 18 68 16 5 -5 33 -218 29 -222 -2 -1 -39
-12 -82 -23 -216 -55 -435 0 -573 144 -104 108 -153 236 -153 401 0 274 151
480 404 550 66 18 274 15 332 -6z m-1943 -187 c42 -108 94 -244 114 -301 l37
-104 34 94 c19 52 70 187 115 302 l81 207 129 0 c70 0 128 -1 128 -3 0 -1
-103 -257 -229 -567 -224 -552 -230 -565 -258 -568 l-28 -2 -225 556 c-124
307 -226 563 -228 571 -3 10 22 13 125 13 l128 0 77 -198z m998 -362 l0 -560
-110 0 -110 0 0 560 0 560 110 0 110 0 0 -560z m-820 -1015 l0 -375 -30 0 -30
0 0 375 0 375 30 0 30 0 0 -375z m416 16 c23 -10 51 -29 64 -42 28 -30 59 -96
60 -126 l0 -23 -180 0 c-117 0 -180 -4 -180 -10 0 -26 30 -78 59 -103 62 -52
143 -44 205 19 37 38 91 49 79 17 -45 -130 -236 -168 -337 -67 -102 102 -68
281 64 338 48 21 117 19 166 -3z m528 -6 l46 -24 0 24 c0 21 5 25 30 25 l30 0
0 -158 c0 -169 8 -202 51 -202 16 0 20 -6 17 -27 -5 -43 -49 -44 -92 -1 l-33
33 -33 -23 c-44 -30 -105 -45 -149 -37 -43 8 -100 37 -123 62 -26 28 -58 104
-58 138 0 79 52 164 123 199 50 24 135 21 191 -9z m324 -3 l3 -22 31 21 c17
13 52 24 79 27 l49 5 0 -32 c0 -28 -3 -31 -30 -31 -43 0 -87 -25 -110 -63 -17
-27 -20 -51 -20 -159 l0 -128 -35 0 -35 0 0 198 c0 109 3 202 7 206 4 4 19 6
33 4 17 -2 26 -10 28 -26z m308 13 c5 -13 9 -13 34 0 68 35 152 7 194 -65 18
-30 21 -56 25 -182 l3 -148 -36 0 -36 0 0 149 0 149 -31 26 c-39 33 -79 33
-118 0 l-31 -26 0 -149 0 -149 -35 0 -35 0 0 198 c0 109 3 202 7 205 12 13 54
7 59 -8z"/>
<path d="M1886 2710 c-31 -85 -96 -264 -96 -267 0 -2 45 -3 101 -3 91 0 100 2
95 18 -37 116 -95 264 -100 252z"/>
<path d="M3183 1610 c-18 -10 -39 -33 -48 -50 l-16 -30 141 0 c77 0 140 4 140
9 0 16 -42 61 -70 76 -41 21 -109 19 -147 -5z"/>
<path d="M3699 1609 c-94 -55 -97 -193 -6 -250 49 -30 137 -23 177 16 126 121
-20 321 -171 234z"/>
</g>
</svg>
